%TF.GenerationSoftware,KiCad,Pcbnew,9.0.6-unknown-202512120022~866d92e1f6~ubuntu24.04.1*%
%TF.CreationDate,2026-01-05T08:58:25+02:00*%
%TF.ProjectId,TalTechHeat,54616c54-6563-4684-9865-61742e6b6963,rev?*%
%TF.SameCoordinates,Original*%
%TF.FileFunction,Copper,L4,Bot*%
%TF.FilePolarity,Positive*%
%FSLAX46Y46*%
G04 Gerber Fmt 4.6, Leading zero omitted, Abs format (unit mm)*
G04 Created by KiCad (PCBNEW 9.0.6-unknown-202512120022~866d92e1f6~ubuntu24.04.1) date 2026-01-05 08:58:25*
%MOMM*%
%LPD*%
G01*
G04 APERTURE LIST*
G04 Aperture macros list*
%AMRotRect*
0 Rectangle, with rotation*
0 The origin of the aperture is its center*
0 $1 length*
0 $2 width*
0 $3 Rotation angle, in degrees counterclockwise*
0 Add horizontal line*
21,1,$1,$2,0,0,$3*%
G04 Aperture macros list end*
%TA.AperFunction,ComponentPad*%
%ADD10R,1.700000X1.700000*%
%TD*%
%TA.AperFunction,ComponentPad*%
%ADD11O,1.700000X1.700000*%
%TD*%
%TA.AperFunction,ComponentPad*%
%ADD12RotRect,1.000000X1.000000X45.000000*%
%TD*%
%TA.AperFunction,ComponentPad*%
%ADD13C,1.000000*%
%TD*%
%TA.AperFunction,ComponentPad*%
%ADD14C,2.000000*%
%TD*%
%TA.AperFunction,ComponentPad*%
%ADD15O,0.900000X2.400000*%
%TD*%
%TA.AperFunction,ComponentPad*%
%ADD16O,0.900000X1.700000*%
%TD*%
%TA.AperFunction,ComponentPad*%
%ADD17C,0.650000*%
%TD*%
%TA.AperFunction,ComponentPad*%
%ADD18RotRect,1.000000X1.000000X315.000000*%
%TD*%
%TA.AperFunction,ComponentPad*%
%ADD19C,1.400000*%
%TD*%
%TA.AperFunction,ComponentPad*%
%ADD20R,3.500000X3.500000*%
%TD*%
%TA.AperFunction,ComponentPad*%
%ADD21C,3.500000*%
%TD*%
%TA.AperFunction,ViaPad*%
%ADD22C,0.600000*%
%TD*%
%TA.AperFunction,ViaPad*%
%ADD23C,0.700000*%
%TD*%
%TA.AperFunction,Conductor*%
%ADD24C,0.270000*%
%TD*%
%TA.AperFunction,Conductor*%
%ADD25C,0.300000*%
%TD*%
%TA.AperFunction,Conductor*%
%ADD26C,0.500000*%
%TD*%
%TA.AperFunction,Conductor*%
%ADD27C,0.200000*%
%TD*%
G04 APERTURE END LIST*
D10*
%TO.P,J1,1,Pin_1*%
%TO.N,+3.3V*%
X166010000Y-100195000D03*
D11*
%TO.P,J1,2,Pin_2*%
%TO.N,/BOOT0*%
X168550000Y-100195000D03*
%TO.P,J1,3,Pin_3*%
%TO.N,GND*%
X166010000Y-102735000D03*
%TO.P,J1,4,Pin_4*%
X168550000Y-102735000D03*
%TO.P,J1,5,Pin_5*%
%TO.N,/BOOT1*%
X166010000Y-105275000D03*
%TO.P,J1,6,Pin_6*%
%TO.N,+3.3V*%
X168550000Y-105275000D03*
%TD*%
D12*
%TO.P,C15,1*%
%TO.N,+20V*%
X243682233Y-93467767D03*
D13*
%TO.P,C15,2*%
%TO.N,GND*%
X247217767Y-89932233D03*
%TD*%
D12*
%TO.P,C16,1*%
%TO.N,+20V*%
X231982233Y-93467767D03*
D13*
%TO.P,C16,2*%
%TO.N,GND*%
X235517767Y-89932233D03*
%TD*%
D14*
%TO.P,SW2,1,1*%
%TO.N,/BUT1*%
X153950000Y-108700000D03*
X160450000Y-108700000D03*
%TO.P,SW2,2,2*%
%TO.N,GND*%
X153950000Y-113200000D03*
X160450000Y-113200000D03*
%TD*%
%TO.P,SW3,1,1*%
%TO.N,/BUT2*%
X164975000Y-108675000D03*
X171475000Y-108675000D03*
%TO.P,SW3,2,2*%
%TO.N,GND*%
X164975000Y-113175000D03*
X171475000Y-113175000D03*
%TD*%
D15*
%TO.P,U3,0,case*%
%TO.N,GND*%
X195250000Y-91050000D03*
D16*
X195250000Y-87670000D03*
D15*
X186600000Y-91000000D03*
D16*
X186600000Y-87670000D03*
D17*
%TO.P,U3,A1,GND*%
X193900000Y-91980000D03*
%TO.P,U3,A4,VBUS*%
%TO.N,VBUS*%
X193050000Y-91980000D03*
%TO.P,U3,A5,CC1*%
%TO.N,/CC1*%
X192200000Y-91980000D03*
%TO.P,U3,A6,DP1*%
%TO.N,/U_P*%
X191350000Y-91980000D03*
%TO.P,U3,A7,DN1*%
%TO.N,/U_N*%
X190500000Y-91980000D03*
%TO.P,U3,A8,SBU1*%
%TO.N,unconnected-(U3-SBU1-PadA8)*%
X189650000Y-91980000D03*
%TO.P,U3,A9,VBUS*%
%TO.N,VBUS*%
X188800000Y-91980000D03*
%TO.P,U3,A12,GND*%
%TO.N,GND*%
X187950000Y-91980000D03*
%TO.P,U3,B1,GND*%
X187950000Y-90630000D03*
%TO.P,U3,B4,VBUS*%
%TO.N,VBUS*%
X188800000Y-90630000D03*
%TO.P,U3,B5,CC2*%
%TO.N,/CC2*%
X189650000Y-90630000D03*
%TO.P,U3,B6,DP2*%
%TO.N,/U_P*%
X190500000Y-90630000D03*
%TO.P,U3,B7,DN2*%
%TO.N,/U_N*%
X191350000Y-90630000D03*
%TO.P,U3,B8,SBU2*%
%TO.N,unconnected-(U3-SBU2-PadB8)*%
X192200000Y-90630000D03*
%TO.P,U3,B9,VBUS*%
%TO.N,VBUS*%
X193050000Y-90630000D03*
%TO.P,U3,B12,GND*%
%TO.N,GND*%
X193900000Y-90630000D03*
%TD*%
D10*
%TO.P,J2,1,Pin_1*%
%TO.N,/SDA*%
X154075000Y-96470000D03*
D11*
%TO.P,J2,2,Pin_2*%
%TO.N,/SCL*%
X154075000Y-93930000D03*
%TO.P,J2,3,Pin_3*%
%TO.N,+3.3V*%
X154075000Y-91390000D03*
%TO.P,J2,4,Pin_4*%
%TO.N,GND*%
X154075000Y-88850000D03*
%TD*%
D18*
%TO.P,C17,1*%
%TO.N,+20V*%
X231982233Y-101632233D03*
D13*
%TO.P,C17,2*%
%TO.N,GND*%
X235517767Y-105167767D03*
%TD*%
D18*
%TO.P,C14,1*%
%TO.N,+20V*%
X243682233Y-101632233D03*
D13*
%TO.P,C14,2*%
%TO.N,GND*%
X247217767Y-105167767D03*
%TD*%
D19*
%TO.P,J3,*%
%TO.N,*%
X227150000Y-87650000D03*
X216150000Y-87650000D03*
D20*
%TO.P,J3,1,Pin_1*%
%TO.N,+20V*%
X224150000Y-92650000D03*
D21*
%TO.P,J3,2,Pin_2*%
%TO.N,/RETURN_HEAT*%
X219150000Y-92650000D03*
%TD*%
D22*
%TO.N,+20V_D*%
X162980000Y-97280000D03*
X163980000Y-97280000D03*
X164980000Y-97280000D03*
X165980000Y-97280000D03*
%TO.N,GND*%
X158720000Y-103020000D03*
%TO.N,+20V_D*%
X227425000Y-113675000D03*
X228425000Y-113675000D03*
X229425000Y-113675000D03*
X230425000Y-111650000D03*
X230425000Y-112500000D03*
X230425000Y-113675000D03*
D23*
%TO.N,/VCC-DIV*%
X235025000Y-112500000D03*
%TO.N,GND*%
X166350000Y-91725000D03*
%TO.N,+3.3V*%
X185050000Y-100150000D03*
X179550000Y-92875000D03*
X180550000Y-92875000D03*
X198925000Y-93400000D03*
X207600000Y-110400000D03*
X169925000Y-88950000D03*
X181550000Y-95575000D03*
X182550000Y-92875000D03*
X180550000Y-95575000D03*
X179550000Y-95575000D03*
X213599445Y-113875000D03*
X177375000Y-99050000D03*
X181550000Y-92875000D03*
X177325000Y-111175000D03*
X218225000Y-113200000D03*
X186590000Y-112560000D03*
X182550000Y-95575000D03*
%TO.N,GND*%
X205650000Y-110400000D03*
X220075000Y-113475000D03*
X185550000Y-90850000D03*
X186480000Y-113500000D03*
X204825000Y-114350000D03*
X193600000Y-108600000D03*
X187400000Y-111125000D03*
X184075000Y-112400000D03*
X177325000Y-102725000D03*
X207340000Y-113040000D03*
X178925000Y-109700000D03*
X206250000Y-97625000D03*
X205950000Y-94100000D03*
X187800000Y-103850000D03*
X199325000Y-112750000D03*
X208175000Y-90050000D03*
X201250000Y-110375000D03*
X225150000Y-112125000D03*
X182475000Y-97175000D03*
X219875000Y-109575000D03*
X184250000Y-107975000D03*
X213300000Y-87675000D03*
X217725000Y-104700000D03*
X207425000Y-97600000D03*
X179150000Y-104325000D03*
X200925000Y-95200000D03*
X190500000Y-100550000D03*
X174475000Y-104400000D03*
X192900000Y-105725000D03*
X181850000Y-108850000D03*
X190850000Y-103600000D03*
X172475000Y-100375000D03*
X184850000Y-99100000D03*
X185250000Y-102175000D03*
X181925000Y-106300000D03*
D22*
X185350000Y-88000000D03*
D23*
X176525000Y-98275000D03*
X197000000Y-110225000D03*
X191670000Y-114850000D03*
X215650000Y-111750000D03*
X182750000Y-105075000D03*
X208575000Y-97600000D03*
X179175000Y-106400000D03*
X188175000Y-101150000D03*
X219850000Y-107225000D03*
X220800000Y-100325000D03*
X182150000Y-114375000D03*
X176400000Y-100150000D03*
X185750000Y-94975000D03*
X223425000Y-104925000D03*
X202500000Y-99850000D03*
X204700000Y-96375000D03*
X198400000Y-114325000D03*
X213775000Y-107550000D03*
X204700000Y-95350000D03*
X188825000Y-98725000D03*
X179300000Y-101250000D03*
X208475000Y-94075000D03*
%TO.N,/NRST*%
X179867525Y-109257475D03*
X193000000Y-114840000D03*
X188475000Y-110800000D03*
%TO.N,+20V*%
X213300000Y-88712500D03*
%TO.N,PD_VDD*%
X222175000Y-105975000D03*
X220950000Y-103050000D03*
%TO.N,/BOOT1*%
X181325000Y-109725000D03*
%TO.N,/BOOT0*%
X172025000Y-98700000D03*
X181450000Y-105300000D03*
%TO.N,/SDA*%
X179975000Y-107025000D03*
X180750000Y-98700000D03*
X210726225Y-106275000D03*
%TO.N,/SCL*%
X181475000Y-97775000D03*
X209925000Y-105575000D03*
X180950000Y-106850000D03*
%TO.N,Net-(Q2-G)*%
X215739678Y-113958965D03*
X221625000Y-101175000D03*
X224375000Y-105250000D03*
%TO.N,/VCC-DIV*%
X190125000Y-107775000D03*
%TO.N,/PD_RST*%
X182775000Y-109375000D03*
X208068750Y-105918750D03*
%TO.N,/PD_ALERT*%
X216575000Y-110075000D03*
X195500000Y-110600000D03*
%TO.N,Net-(U4-DISCH)*%
X211613853Y-107420673D03*
X213558430Y-112822213D03*
%TO.N,Net-(U4-VBUS_VS_DISCH)*%
X204575000Y-110415000D03*
X215675000Y-110500000D03*
%TO.N,/POWER_OK_3*%
X212632476Y-110532476D03*
X191850000Y-108475000D03*
%TO.N,/PWM*%
X198662500Y-87912500D03*
X182200000Y-104300000D03*
%TO.N,/PD_GPIO*%
X206625000Y-111125000D03*
X209600000Y-112425000D03*
X192650000Y-112375000D03*
X184500000Y-108925000D03*
%TO.N,/PD_ATTACH*%
X195251000Y-108450000D03*
X209615835Y-108399000D03*
%TO.N,/CC1*%
X216600000Y-104975000D03*
%TO.N,/CC2*%
X193625000Y-105050000D03*
X195419975Y-106925000D03*
X206700000Y-106250000D03*
%TD*%
D24*
%TO.N,/SCL*%
X181475000Y-97775000D02*
X179715000Y-97775000D01*
X179715000Y-97775000D02*
X175870000Y-93930000D01*
X175870000Y-93930000D02*
X154075000Y-93930000D01*
%TO.N,/SDA*%
X180750000Y-98700000D02*
X179450000Y-98700000D01*
X179450000Y-98700000D02*
X175640000Y-94890000D01*
X175640000Y-94890000D02*
X155655000Y-94890000D01*
X155655000Y-94890000D02*
X154075000Y-96470000D01*
D25*
%TO.N,/NRST*%
X193000000Y-114840000D02*
X193000000Y-113900000D01*
X193000000Y-113900000D02*
X189900000Y-110800000D01*
X189900000Y-110800000D02*
X188475000Y-110800000D01*
%TO.N,/PD_GPIO*%
X184500000Y-108925000D02*
X184500000Y-109625000D01*
X184500000Y-109625000D02*
X184775000Y-109900000D01*
X184775000Y-109900000D02*
X190875000Y-109900000D01*
X190875000Y-109900000D02*
X192650000Y-111675000D01*
X192650000Y-111675000D02*
X192650000Y-112375000D01*
%TO.N,/VCC-DIV*%
X190125000Y-107775000D02*
X197425000Y-115075000D01*
X232450000Y-115075000D02*
X235025000Y-112500000D01*
X197425000Y-115075000D02*
X232450000Y-115075000D01*
%TO.N,Net-(U4-VBUS_VS_DISCH)*%
X204575000Y-110415000D02*
X204575000Y-112950000D01*
X204575000Y-112950000D02*
X206200000Y-114575000D01*
X206200000Y-114575000D02*
X214133693Y-114575000D01*
X215647768Y-113073000D02*
X216475000Y-112245768D01*
X214133693Y-114575000D02*
X215635693Y-113073000D01*
X215635693Y-113073000D02*
X215647768Y-113073000D01*
X216475000Y-112245768D02*
X216475000Y-111300000D01*
X216475000Y-111300000D02*
X215675000Y-110500000D01*
%TO.N,Net-(Q2-G)*%
X215739678Y-113958965D02*
X217623643Y-112075000D01*
X222000000Y-111550000D02*
X222000000Y-107625000D01*
X217623643Y-112075000D02*
X221475000Y-112075000D01*
X221475000Y-112075000D02*
X222000000Y-111550000D01*
X222000000Y-107625000D02*
X224375000Y-105250000D01*
%TO.N,/SDA*%
X209633636Y-106275000D02*
X209634636Y-106276000D01*
X208342364Y-105201000D02*
X209416364Y-106275000D01*
X206757636Y-105201000D02*
X208342364Y-105201000D01*
X195050000Y-106225000D02*
X205733636Y-106225000D01*
X191375000Y-107100000D02*
X194175000Y-107100000D01*
X183925000Y-106325000D02*
X190600000Y-106325000D01*
X194175000Y-107100000D02*
X195050000Y-106225000D01*
X179975000Y-107025000D02*
X180650000Y-107700000D01*
X190600000Y-106325000D02*
X191375000Y-107100000D01*
X209416364Y-106275000D02*
X209633636Y-106275000D01*
X182550000Y-107700000D02*
X183925000Y-106325000D01*
X205733636Y-106225000D02*
X206757636Y-105201000D01*
X180650000Y-107700000D02*
X182550000Y-107700000D01*
X209634636Y-106276000D02*
X210215364Y-106276000D01*
X210215364Y-106276000D02*
X210216364Y-106275000D01*
X210216364Y-106275000D02*
X210726225Y-106275000D01*
%TO.N,/PD_RST*%
X182775000Y-109375000D02*
X182775000Y-108350000D01*
X182775000Y-108350000D02*
X184051000Y-107074000D01*
X184051000Y-107074000D02*
X190499000Y-107074000D01*
X190499000Y-107074000D02*
X191175000Y-107750000D01*
X191175000Y-107750000D02*
X207375000Y-107750000D01*
X207375000Y-107750000D02*
X208068750Y-107056250D01*
X208068750Y-107056250D02*
X208068750Y-105918750D01*
%TO.N,/SCL*%
X180950000Y-106850000D02*
X181149000Y-107049000D01*
X181149000Y-107049000D02*
X182317479Y-107049000D01*
X205425000Y-105600000D02*
X206425000Y-104600000D01*
X182317479Y-107049000D02*
X183691479Y-105675000D01*
X190950000Y-105675000D02*
X191725000Y-106450000D01*
X206425000Y-104600000D02*
X208950000Y-104600000D01*
X183691479Y-105675000D02*
X190950000Y-105675000D01*
X191725000Y-106450000D02*
X193925000Y-106450000D01*
X193925000Y-106450000D02*
X194775000Y-105600000D01*
X194775000Y-105600000D02*
X205425000Y-105600000D01*
X208950000Y-104600000D02*
X209925000Y-105575000D01*
%TO.N,/PD_ATTACH*%
X209324000Y-108399000D02*
X209462500Y-108537500D01*
X195302000Y-108399000D02*
X209324000Y-108399000D01*
X195251000Y-108450000D02*
X195302000Y-108399000D01*
X209462500Y-108537500D02*
X209477335Y-108537500D01*
X209477335Y-108537500D02*
X209615835Y-108399000D01*
%TO.N,/CC2*%
X195419975Y-106925000D02*
X206025000Y-106925000D01*
X206025000Y-106925000D02*
X206700000Y-106250000D01*
X189650000Y-89825000D02*
X189650000Y-90630000D01*
X193625000Y-105050000D02*
X184750000Y-96175000D01*
X189050000Y-89225000D02*
X189650000Y-89825000D01*
X184750000Y-96175000D02*
X184750000Y-90425000D01*
X185950000Y-89225000D02*
X189050000Y-89225000D01*
X184750000Y-90425000D02*
X185950000Y-89225000D01*
%TO.N,/NRST*%
X179867525Y-109257475D02*
X181035050Y-110425000D01*
X181035050Y-110425000D02*
X188100000Y-110425000D01*
X188100000Y-110425000D02*
X188475000Y-110800000D01*
D26*
%TO.N,+20V*%
X213962500Y-89375000D02*
X227889466Y-89375000D01*
X227889466Y-89375000D02*
X231982233Y-93467767D01*
X213300000Y-88712500D02*
X213962500Y-89375000D01*
D25*
%TO.N,PD_VDD*%
X222175000Y-105975000D02*
X222175000Y-105950000D01*
X222175000Y-105950000D02*
X220950000Y-104725000D01*
X220950000Y-104725000D02*
X220950000Y-103050000D01*
%TO.N,/BOOT1*%
X178400000Y-106800000D02*
X167535000Y-106800000D01*
X167535000Y-106800000D02*
X166010000Y-105275000D01*
X181325000Y-109725000D02*
X178400000Y-106800000D01*
%TO.N,/BOOT0*%
X181075000Y-105675000D02*
X179000000Y-105675000D01*
X181450000Y-105300000D02*
X181075000Y-105675000D01*
X179000000Y-105675000D02*
X172025000Y-98700000D01*
%TO.N,Net-(Q2-G)*%
X224375000Y-102550000D02*
X224375000Y-105250000D01*
X221625000Y-101175000D02*
X223000000Y-101175000D01*
X223000000Y-101175000D02*
X224375000Y-102550000D01*
%TO.N,/PD_ALERT*%
X210625000Y-108600000D02*
X210125000Y-109100000D01*
X216575000Y-109050000D02*
X214244673Y-106719673D01*
X216575000Y-110075000D02*
X216575000Y-109050000D01*
X210625000Y-107418162D02*
X210625000Y-108600000D01*
X197000000Y-109100000D02*
X195500000Y-110600000D01*
X214244673Y-106719673D02*
X211323489Y-106719673D01*
X211323489Y-106719673D02*
X210625000Y-107418162D01*
X210125000Y-109100000D02*
X197000000Y-109100000D01*
%TO.N,Net-(U4-DISCH)*%
X213550000Y-110450000D02*
X211613853Y-108513853D01*
X213558430Y-112822213D02*
X213550000Y-112813783D01*
X211613853Y-108513853D02*
X211613853Y-107420673D01*
X213550000Y-112813783D02*
X213550000Y-110450000D01*
%TO.N,/POWER_OK_3*%
X212632476Y-110532476D02*
X211800000Y-109700000D01*
X211800000Y-109700000D02*
X203975000Y-109700000D01*
X201925000Y-111750000D02*
X195125000Y-111750000D01*
X203975000Y-109700000D02*
X201925000Y-111750000D01*
X195125000Y-111750000D02*
X191850000Y-108475000D01*
%TO.N,/PWM*%
X185700000Y-86375000D02*
X183650000Y-88425000D01*
X183650000Y-88425000D02*
X183650000Y-103850000D01*
X183650000Y-103850000D02*
X183200000Y-104300000D01*
X198662500Y-87912500D02*
X197125000Y-86375000D01*
X197125000Y-86375000D02*
X185700000Y-86375000D01*
X183200000Y-104300000D02*
X182200000Y-104300000D01*
D24*
%TO.N,/PD_GPIO*%
X207925000Y-112425000D02*
X209600000Y-112425000D01*
X206625000Y-111125000D02*
X207925000Y-112425000D01*
D27*
%TO.N,/CC1*%
X192510381Y-92750000D02*
X192200000Y-92439619D01*
X192200000Y-92439619D02*
X192200000Y-91980000D01*
X214175000Y-98375000D02*
X205625000Y-98375000D01*
X205625000Y-98375000D02*
X200000000Y-92750000D01*
X200000000Y-92750000D02*
X192510381Y-92750000D01*
X216600000Y-100800000D02*
X214175000Y-98375000D01*
X216600000Y-104975000D02*
X216600000Y-100800000D01*
%TO.N,/U_P*%
X190500000Y-90630000D02*
X190500000Y-91094702D01*
X191350000Y-91944702D02*
X191350000Y-91980000D01*
X190500000Y-91094702D02*
X191350000Y-91944702D01*
%TD*%
%TA.AperFunction,Conductor*%
%TO.N,GND*%
G36*
X185230073Y-85995185D02*
G01*
X185275828Y-86047989D01*
X185285772Y-86117147D01*
X185256747Y-86180703D01*
X185250715Y-86187181D01*
X183289513Y-88148383D01*
X183289509Y-88148389D01*
X183230201Y-88251112D01*
X183230200Y-88251117D01*
X183199500Y-88365691D01*
X183199500Y-92305192D01*
X183179815Y-92372231D01*
X183127011Y-92417986D01*
X183057853Y-92427930D01*
X182994297Y-92398905D01*
X182987819Y-92392873D01*
X182964672Y-92369726D01*
X182964668Y-92369723D01*
X182858133Y-92298538D01*
X182858124Y-92298533D01*
X182739744Y-92249499D01*
X182739738Y-92249497D01*
X182614071Y-92224500D01*
X182614069Y-92224500D01*
X182485931Y-92224500D01*
X182485929Y-92224500D01*
X182360261Y-92249497D01*
X182360255Y-92249499D01*
X182241875Y-92298533D01*
X182241866Y-92298538D01*
X182135331Y-92369723D01*
X182130621Y-92373589D01*
X182129283Y-92371958D01*
X182076358Y-92400858D01*
X182006666Y-92395874D01*
X181970280Y-92372489D01*
X181969379Y-92373589D01*
X181964668Y-92369723D01*
X181858133Y-92298538D01*
X181858124Y-92298533D01*
X181739744Y-92249499D01*
X181739738Y-92249497D01*
X181614071Y-92224500D01*
X181614069Y-92224500D01*
X181485931Y-92224500D01*
X181485929Y-92224500D01*
X181360261Y-92249497D01*
X181360255Y-92249499D01*
X181241875Y-92298533D01*
X181241866Y-92298538D01*
X181135331Y-92369723D01*
X181130621Y-92373589D01*
X181129283Y-92371958D01*
X181076358Y-92400858D01*
X181006666Y-92395874D01*
X180970280Y-92372489D01*
X180969379Y-92373589D01*
X180964668Y-92369723D01*
X180858133Y-92298538D01*
X180858124Y-92298533D01*
X180739744Y-92249499D01*
X180739738Y-92249497D01*
X180614071Y-92224500D01*
X180614069Y-92224500D01*
X180485931Y-92224500D01*
X180485929Y-92224500D01*
X180360261Y-92249497D01*
X180360255Y-92249499D01*
X180241875Y-92298533D01*
X180241866Y-92298538D01*
X180135331Y-92369723D01*
X180130621Y-92373589D01*
X180129283Y-92371958D01*
X180076358Y-92400858D01*
X180006666Y-92395874D01*
X179970280Y-92372489D01*
X179969379Y-92373589D01*
X179964668Y-92369723D01*
X179858133Y-92298538D01*
X179858124Y-92298533D01*
X179739744Y-92249499D01*
X179739738Y-92249497D01*
X179614071Y-92224500D01*
X179614069Y-92224500D01*
X179485931Y-92224500D01*
X179485929Y-92224500D01*
X179360261Y-92249497D01*
X179360255Y-92249499D01*
X179241875Y-92298533D01*
X179241866Y-92298538D01*
X179135331Y-92369723D01*
X179135327Y-92369726D01*
X179044726Y-92460327D01*
X179044723Y-92460331D01*
X178973538Y-92566866D01*
X178973533Y-92566875D01*
X178924499Y-92685255D01*
X178924497Y-92685261D01*
X178899500Y-92810928D01*
X178899500Y-92810931D01*
X178899500Y-92939069D01*
X178899500Y-92939071D01*
X178899499Y-92939071D01*
X178924497Y-93064738D01*
X178924499Y-93064744D01*
X178973533Y-93183124D01*
X178973538Y-93183133D01*
X179044723Y-93289668D01*
X179044726Y-93289672D01*
X179135327Y-93380273D01*
X179135331Y-93380276D01*
X179241866Y-93451461D01*
X179241872Y-93451464D01*
X179241873Y-93451465D01*
X179360256Y-93500501D01*
X179360260Y-93500501D01*
X179360261Y-93500502D01*
X179485928Y-93525500D01*
X179485931Y-93525500D01*
X179614071Y-93525500D01*
X179698615Y-93508682D01*
X179739744Y-93500501D01*
X179858127Y-93451465D01*
X179964669Y-93380276D01*
X179964673Y-93380271D01*
X179969379Y-93376411D01*
X179970720Y-93378045D01*
X180023611Y-93349148D01*
X180093304Y-93354114D01*
X180129715Y-93377514D01*
X180130621Y-93376411D01*
X180135331Y-93380276D01*
X180241866Y-93451461D01*
X180241872Y-93451464D01*
X180241873Y-93451465D01*
X180360256Y-93500501D01*
X180360260Y-93500501D01*
X180360261Y-93500502D01*
X180485928Y-93525500D01*
X180485931Y-93525500D01*
X180614071Y-93525500D01*
X180698615Y-93508682D01*
X180739744Y-93500501D01*
X180858127Y-93451465D01*
X180964669Y-93380276D01*
X180964673Y-93380271D01*
X180969379Y-93376411D01*
X180970720Y-93378045D01*
X181023611Y-93349148D01*
X181093304Y-93354114D01*
X181129715Y-93377514D01*
X181130621Y-93376411D01*
X181135331Y-93380276D01*
X181241866Y-93451461D01*
X181241872Y-93451464D01*
X181241873Y-93451465D01*
X181360256Y-93500501D01*
X181360260Y-93500501D01*
X181360261Y-93500502D01*
X181485928Y-93525500D01*
X181485931Y-93525500D01*
X181614071Y-93525500D01*
X181698615Y-93508682D01*
X181739744Y-93500501D01*
X181858127Y-93451465D01*
X181964669Y-93380276D01*
X181964673Y-93380271D01*
X181969379Y-93376411D01*
X181970720Y-93378045D01*
X182023611Y-93349148D01*
X182093304Y-93354114D01*
X182129715Y-93377514D01*
X182130621Y-93376411D01*
X182135331Y-93380276D01*
X182241866Y-93451461D01*
X182241872Y-93451464D01*
X182241873Y-93451465D01*
X182360256Y-93500501D01*
X182360260Y-93500501D01*
X182360261Y-93500502D01*
X182485928Y-93525500D01*
X182485931Y-93525500D01*
X182614071Y-93525500D01*
X182698615Y-93508682D01*
X182739744Y-93500501D01*
X182858127Y-93451465D01*
X182964669Y-93380276D01*
X182974447Y-93370498D01*
X182987819Y-93357127D01*
X183049142Y-93323642D01*
X183118834Y-93328626D01*
X183174767Y-93370498D01*
X183199184Y-93435962D01*
X183199500Y-93444808D01*
X183199500Y-95005192D01*
X183179815Y-95072231D01*
X183127011Y-95117986D01*
X183057853Y-95127930D01*
X182994297Y-95098905D01*
X182987819Y-95092873D01*
X182964672Y-95069726D01*
X182964668Y-95069723D01*
X182858133Y-94998538D01*
X182858124Y-94998533D01*
X182739744Y-94949499D01*
X182739738Y-94949497D01*
X182614071Y-94924500D01*
X182614069Y-94924500D01*
X182485931Y-94924500D01*
X182485929Y-94924500D01*
X182360261Y-94949497D01*
X182360255Y-94949499D01*
X182241875Y-94998533D01*
X182241866Y-94998538D01*
X182135331Y-95069723D01*
X182130621Y-95073589D01*
X182129283Y-95071958D01*
X182076358Y-95100858D01*
X182006666Y-95095874D01*
X181970280Y-95072489D01*
X181969379Y-95073589D01*
X181964668Y-95069723D01*
X181858133Y-94998538D01*
X181858124Y-94998533D01*
X181739744Y-94949499D01*
X181739738Y-94949497D01*
X181614071Y-94924500D01*
X181614069Y-94924500D01*
X181485931Y-94924500D01*
X181485929Y-94924500D01*
X181360261Y-94949497D01*
X181360255Y-94949499D01*
X181241875Y-94998533D01*
X181241866Y-94998538D01*
X181135331Y-95069723D01*
X181130621Y-95073589D01*
X181129283Y-95071958D01*
X181076358Y-95100858D01*
X181006666Y-95095874D01*
X180970280Y-95072489D01*
X180969379Y-95073589D01*
X180964668Y-95069723D01*
X180858133Y-94998538D01*
X180858124Y-94998533D01*
X180739744Y-94949499D01*
X180739738Y-94949497D01*
X180614071Y-94924500D01*
X180614069Y-94924500D01*
X180485931Y-94924500D01*
X180485929Y-94924500D01*
X180360261Y-94949497D01*
X180360255Y-94949499D01*
X180241875Y-94998533D01*
X180241866Y-94998538D01*
X180135331Y-95069723D01*
X180130621Y-95073589D01*
X180129283Y-95071958D01*
X180076358Y-95100858D01*
X180006666Y-95095874D01*
X179970280Y-95072489D01*
X179969379Y-95073589D01*
X179964668Y-95069723D01*
X179858133Y-94998538D01*
X179858124Y-94998533D01*
X179739744Y-94949499D01*
X179739738Y-94949497D01*
X179614071Y-94924500D01*
X179614069Y-94924500D01*
X179485931Y-94924500D01*
X179485929Y-94924500D01*
X179360261Y-94949497D01*
X179360255Y-94949499D01*
X179241875Y-94998533D01*
X179241866Y-94998538D01*
X179135331Y-95069723D01*
X179135327Y-95069726D01*
X179044726Y-95160327D01*
X179044723Y-95160331D01*
X178973538Y-95266866D01*
X178973533Y-95266875D01*
X178924499Y-95385255D01*
X178924497Y-95385261D01*
X178899500Y-95510928D01*
X178899500Y-95510931D01*
X178899500Y-95639069D01*
X178899500Y-95639071D01*
X178899499Y-95639071D01*
X178924497Y-95764738D01*
X178924499Y-95764744D01*
X178973533Y-95883124D01*
X178973538Y-95883133D01*
X179044723Y-95989668D01*
X179044726Y-95989672D01*
X179135327Y-96080273D01*
X179135331Y-96080276D01*
X179241866Y-96151461D01*
X179241872Y-96151464D01*
X179241873Y-96151465D01*
X179360256Y-96200501D01*
X179360260Y-96200501D01*
X179360261Y-96200502D01*
X179485928Y-96225500D01*
X179485931Y-96225500D01*
X179614071Y-96225500D01*
X179698615Y-96208682D01*
X179739744Y-96200501D01*
X179858127Y-96151465D01*
X179964669Y-96080276D01*
X179964673Y-96080271D01*
X179969379Y-96076411D01*
X179970720Y-96078045D01*
X180023611Y-96049148D01*
X180093304Y-96054114D01*
X180129715Y-96077514D01*
X180130621Y-96076411D01*
X180135331Y-96080276D01*
X180241866Y-96151461D01*
X180241872Y-96151464D01*
X180241873Y-96151465D01*
X180360256Y-96200501D01*
X180360260Y-96200501D01*
X180360261Y-96200502D01*
X180485928Y-96225500D01*
X180485931Y-96225500D01*
X180614071Y-96225500D01*
X180698615Y-96208682D01*
X180739744Y-96200501D01*
X180858127Y-96151465D01*
X180964669Y-96080276D01*
X180964673Y-96080271D01*
X180969379Y-96076411D01*
X180970720Y-96078045D01*
X181023611Y-96049148D01*
X181093304Y-96054114D01*
X181129715Y-96077514D01*
X181130621Y-96076411D01*
X181135331Y-96080276D01*
X181241866Y-96151461D01*
X181241872Y-96151464D01*
X181241873Y-96151465D01*
X181360256Y-96200501D01*
X181360260Y-96200501D01*
X181360261Y-96200502D01*
X181485928Y-96225500D01*
X181485931Y-96225500D01*
X181614071Y-96225500D01*
X181698615Y-96208682D01*
X181739744Y-96200501D01*
X181858127Y-96151465D01*
X181964669Y-96080276D01*
X181964673Y-96080271D01*
X181969379Y-96076411D01*
X181970720Y-96078045D01*
X182023611Y-96049148D01*
X182093304Y-96054114D01*
X182129715Y-96077514D01*
X182130621Y-96076411D01*
X182135331Y-96080276D01*
X182241866Y-96151461D01*
X182241872Y-96151464D01*
X182241873Y-96151465D01*
X182360256Y-96200501D01*
X182360260Y-96200501D01*
X182360261Y-96200502D01*
X182485928Y-96225500D01*
X182485931Y-96225500D01*
X182614071Y-96225500D01*
X182698615Y-96208682D01*
X182739744Y-96200501D01*
X182858127Y-96151465D01*
X182964669Y-96080276D01*
X182974447Y-96070498D01*
X182987819Y-96057127D01*
X183049142Y-96023642D01*
X183118834Y-96028626D01*
X183174767Y-96070498D01*
X183199184Y-96135962D01*
X183199500Y-96144808D01*
X183199500Y-103612035D01*
X183190855Y-103641475D01*
X183184332Y-103671462D01*
X183180577Y-103676477D01*
X183179815Y-103679074D01*
X183163181Y-103699716D01*
X183049716Y-103813181D01*
X182988393Y-103846666D01*
X182962035Y-103849500D01*
X182720808Y-103849500D01*
X182653769Y-103829815D01*
X182633127Y-103813181D01*
X182614672Y-103794726D01*
X182614668Y-103794723D01*
X182508133Y-103723538D01*
X182508124Y-103723533D01*
X182389744Y-103674499D01*
X182389738Y-103674497D01*
X182264071Y-103649500D01*
X182264069Y-103649500D01*
X182135931Y-103649500D01*
X182135929Y-103649500D01*
X182010261Y-103674497D01*
X182010255Y-103674499D01*
X181891875Y-103723533D01*
X181891866Y-103723538D01*
X181785331Y-103794723D01*
X181785327Y-103794726D01*
X181694726Y-103885327D01*
X181694723Y-103885331D01*
X181623538Y-103991866D01*
X181623533Y-103991875D01*
X181574499Y-104110255D01*
X181574497Y-104110261D01*
X181549500Y-104235928D01*
X181549500Y-104235931D01*
X181549500Y-104364069D01*
X181549500Y-104364071D01*
X181549499Y-104364071D01*
X181575687Y-104495718D01*
X181574482Y-104495957D01*
X181575052Y-104559366D01*
X181537806Y-104618481D01*
X181474514Y-104648075D01*
X181455766Y-104649500D01*
X181385929Y-104649500D01*
X181260261Y-104674497D01*
X181260255Y-104674499D01*
X181141875Y-104723533D01*
X181141866Y-104723538D01*
X181035331Y-104794723D01*
X181035327Y-104794726D01*
X180944726Y-104885327D01*
X180944723Y-104885331D01*
X180873538Y-104991866D01*
X180873533Y-104991875D01*
X180824499Y-105110255D01*
X180824497Y-105110261D01*
X180821627Y-105124692D01*
X180789241Y-105186603D01*
X180728525Y-105221177D01*
X180700010Y-105224500D01*
X179237966Y-105224500D01*
X179170927Y-105204815D01*
X179150285Y-105188181D01*
X173076175Y-99114071D01*
X176724499Y-99114071D01*
X176749497Y-99239738D01*
X176749499Y-99239744D01*
X176798533Y-99358124D01*
X176798538Y-99358133D01*
X176869723Y-99464668D01*
X176869726Y-99464672D01*
X176960327Y-99555273D01*
X176960331Y-99555276D01*
X177066866Y-99626461D01*
X177066872Y-99626464D01*
X177066873Y-99626465D01*
X177185256Y-99675501D01*
X177185260Y-99675501D01*
X177185261Y-99675502D01*
X177310928Y-99700500D01*
X177310931Y-99700500D01*
X177439071Y-99700500D01*
X177523615Y-99683682D01*
X177564744Y-99675501D01*
X177683127Y-99626465D01*
X177789669Y-99555276D01*
X177880276Y-99464669D01*
X177951465Y-99358127D01*
X178000501Y-99239744D01*
X178022572Y-99128788D01*
X178025500Y-99114071D01*
X178025500Y-98985928D01*
X178000502Y-98860261D01*
X178000501Y-98860260D01*
X178000501Y-98860256D01*
X177951465Y-98741873D01*
X177951464Y-98741872D01*
X177951461Y-98741866D01*
X177880276Y-98635331D01*
X177880273Y-98635327D01*
X177789672Y-98544726D01*
X177789668Y-98544723D01*
X177683133Y-98473538D01*
X177683124Y-98473533D01*
X177564744Y-98424499D01*
X177564738Y-98424497D01*
X177439071Y-98399500D01*
X177439069Y-98399500D01*
X177310931Y-98399500D01*
X177310929Y-98399500D01*
X177185261Y-98424497D01*
X177185255Y-98424499D01*
X177066875Y-98473533D01*
X177066866Y-98473538D01*
X176960331Y-98544723D01*
X176960327Y-98544726D01*
X176869726Y-98635327D01*
X176869723Y-98635331D01*
X176798538Y-98741866D01*
X176798533Y-98741875D01*
X176749499Y-98860255D01*
X176749497Y-98860261D01*
X176724500Y-98985928D01*
X176724500Y-98985931D01*
X176724500Y-99114069D01*
X176724500Y-99114071D01*
X176724499Y-99114071D01*
X173076175Y-99114071D01*
X172711819Y-98749715D01*
X172678334Y-98688392D01*
X172675500Y-98662034D01*
X172675500Y-98635928D01*
X172650502Y-98510261D01*
X172650501Y-98510260D01*
X172650501Y-98510256D01*
X172605039Y-98400501D01*
X172601466Y-98391875D01*
X172601461Y-98391866D01*
X172530276Y-98285331D01*
X172530273Y-98285327D01*
X172439672Y-98194726D01*
X172439668Y-98194723D01*
X172333133Y-98123538D01*
X172333124Y-98123533D01*
X172214744Y-98074499D01*
X172214738Y-98074497D01*
X172089071Y-98049500D01*
X172089069Y-98049500D01*
X171960931Y-98049500D01*
X171960929Y-98049500D01*
X171835261Y-98074497D01*
X171835255Y-98074499D01*
X171716875Y-98123533D01*
X171716866Y-98123538D01*
X171610331Y-98194723D01*
X171610327Y-98194726D01*
X171519726Y-98285327D01*
X171519723Y-98285331D01*
X171448538Y-98391866D01*
X171448533Y-98391875D01*
X171399499Y-98510255D01*
X171399497Y-98510261D01*
X171374500Y-98635928D01*
X171374500Y-98635931D01*
X171374500Y-98764069D01*
X171374500Y-98764071D01*
X171374499Y-98764071D01*
X171399497Y-98889738D01*
X171399499Y-98889744D01*
X171448533Y-99008124D01*
X171448538Y-99008133D01*
X171519723Y-99114668D01*
X171519726Y-99114672D01*
X171610327Y-99205273D01*
X171610331Y-99205276D01*
X171716866Y-99276461D01*
X171716872Y-99276464D01*
X171716873Y-99276465D01*
X171835256Y-99325501D01*
X171835260Y-99325501D01*
X171835261Y-99325502D01*
X171960928Y-99350500D01*
X171960931Y-99350500D01*
X171987035Y-99350500D01*
X172054074Y-99370185D01*
X172074715Y-99386818D01*
X178723386Y-106035490D01*
X178809585Y-106085256D01*
X178826114Y-106094799D01*
X178940691Y-106125500D01*
X179526000Y-106125500D01*
X179534685Y-106128050D01*
X179543647Y-106126762D01*
X179567687Y-106137740D01*
X179593039Y-106145185D01*
X179598966Y-106152025D01*
X179607203Y-106155787D01*
X179621492Y-106178021D01*
X179638794Y-106197989D01*
X179641081Y-106208503D01*
X179644977Y-106214565D01*
X179650000Y-106249500D01*
X179650000Y-106393529D01*
X179630315Y-106460568D01*
X179594891Y-106496631D01*
X179560331Y-106519723D01*
X179560327Y-106519726D01*
X179469726Y-106610327D01*
X179469723Y-106610331D01*
X179398538Y-106716866D01*
X179398533Y-106716875D01*
X179349499Y-106835255D01*
X179349495Y-106835268D01*
X179348774Y-106838894D01*
X179347873Y-106840615D01*
X179347730Y-106841088D01*
X179347640Y-106841060D01*
X179316384Y-106900803D01*
X179255665Y-106935372D01*
X179185896Y-106931626D01*
X179139478Y-106902374D01*
X178676616Y-106439513D01*
X178676614Y-106439511D01*
X178582570Y-106385214D01*
X178573889Y-106380202D01*
X178573888Y-106380201D01*
X178573887Y-106380201D01*
X178535065Y-106369799D01*
X178535062Y-106369798D01*
X178534886Y-106369750D01*
X178534886Y-106369751D01*
X178534885Y-106369750D01*
X178468370Y-106351928D01*
X178459309Y-106349500D01*
X178459308Y-106349500D01*
X169401916Y-106349500D01*
X169334877Y-106329815D01*
X169289122Y-106277011D01*
X169279178Y-106207853D01*
X169308203Y-106144297D01*
X169314235Y-106137819D01*
X169368527Y-106083527D01*
X169427553Y-106024501D01*
X169533996Y-105877994D01*
X169616211Y-105716639D01*
X169672171Y-105544409D01*
X169695275Y-105398538D01*
X169700500Y-105365551D01*
X169700500Y-105184448D01*
X169677721Y-105040634D01*
X169672171Y-105005591D01*
X169633097Y-104885331D01*
X169616212Y-104833363D01*
X169616211Y-104833360D01*
X169569595Y-104741873D01*
X169533996Y-104672006D01*
X169495108Y-104618481D01*
X169427558Y-104525505D01*
X169427554Y-104525500D01*
X169299499Y-104397445D01*
X169299494Y-104397441D01*
X169152997Y-104291006D01*
X169152996Y-104291005D01*
X169152994Y-104291004D01*
X169101300Y-104264664D01*
X168991639Y-104208788D01*
X168991636Y-104208787D01*
X168819410Y-104152829D01*
X168640551Y-104124500D01*
X168640546Y-104124500D01*
X168459454Y-104124500D01*
X168459449Y-104124500D01*
X168280589Y-104152829D01*
X168108363Y-104208787D01*
X168108360Y-104208788D01*
X167947002Y-104291006D01*
X167800505Y-104397441D01*
X167800500Y-104397445D01*
X167672445Y-104525500D01*
X167672441Y-104525505D01*
X167566006Y-104672002D01*
X167483788Y-104833360D01*
X167483787Y-104833363D01*
X167427829Y-105005589D01*
X167402473Y-105165678D01*
X167372544Y-105228813D01*
X167313232Y-105265744D01*
X167243369Y-105264746D01*
X167185137Y-105226136D01*
X167157527Y-105165678D01*
X167137721Y-105040634D01*
X167132171Y-105005591D01*
X167093097Y-104885331D01*
X167076212Y-104833363D01*
X167076211Y-104833360D01*
X167029595Y-104741873D01*
X166993996Y-104672006D01*
X166955108Y-104618481D01*
X166887558Y-104525505D01*
X166887554Y-104525500D01*
X166759499Y-104397445D01*
X166759494Y-104397441D01*
X166612997Y-104291006D01*
X166612996Y-104291005D01*
X166612994Y-104291004D01*
X166561300Y-104264664D01*
X166451639Y-104208788D01*
X166451636Y-104208787D01*
X166279410Y-104152829D01*
X166100551Y-104124500D01*
X166100546Y-104124500D01*
X165919454Y-104124500D01*
X165919449Y-104124500D01*
X165740589Y-104152829D01*
X165568363Y-104208787D01*
X165568360Y-104208788D01*
X165407002Y-104291006D01*
X165260505Y-104397441D01*
X165260500Y-104397445D01*
X165132445Y-104525500D01*
X165132441Y-104525505D01*
X165026006Y-104672002D01*
X164943788Y-104833360D01*
X164943787Y-104833363D01*
X164887829Y-105005589D01*
X164859500Y-105184448D01*
X164859500Y-105365551D01*
X164887829Y-105544410D01*
X164943787Y-105716636D01*
X164943788Y-105716639D01*
X164998748Y-105824502D01*
X165025225Y-105876466D01*
X165026006Y-105877997D01*
X165132441Y-106024494D01*
X165132445Y-106024499D01*
X165260500Y-106152554D01*
X165260505Y-106152558D01*
X165359525Y-106224499D01*
X165407006Y-106258996D01*
X165490450Y-106301513D01*
X165568360Y-106341211D01*
X165568363Y-106341212D01*
X165643947Y-106365770D01*
X165740591Y-106397171D01*
X165823429Y-106410291D01*
X165919449Y-106425500D01*
X165919454Y-106425500D01*
X166100551Y-106425500D01*
X166279409Y-106397171D01*
X166302501Y-106389668D01*
X166369912Y-106367764D01*
X166439753Y-106365770D01*
X166495911Y-106398015D01*
X167258386Y-107160490D01*
X167361113Y-107219799D01*
X167385321Y-107226284D01*
X167385324Y-107226286D01*
X167385325Y-107226286D01*
X167399705Y-107230139D01*
X167475691Y-107250500D01*
X170889644Y-107250500D01*
X170956683Y-107270185D01*
X171002438Y-107322989D01*
X171012382Y-107392147D01*
X170983357Y-107455703D01*
X170945939Y-107484985D01*
X170793386Y-107562715D01*
X170627786Y-107683028D01*
X170483028Y-107827786D01*
X170362715Y-107993386D01*
X170269781Y-108175776D01*
X170206522Y-108370465D01*
X170182692Y-108520926D01*
X170174500Y-108572648D01*
X170174500Y-108777352D01*
X170176116Y-108787552D01*
X170206522Y-108979534D01*
X170269781Y-109174223D01*
X170362715Y-109356613D01*
X170483028Y-109522213D01*
X170627786Y-109666971D01*
X170765292Y-109766873D01*
X170793390Y-109787287D01*
X170905708Y-109844516D01*
X170975776Y-109880218D01*
X170975778Y-109880218D01*
X170975781Y-109880220D01*
X171041625Y-109901614D01*
X171170465Y-109943477D01*
X171220899Y-109951465D01*
X171372648Y-109975500D01*
X171372649Y-109975500D01*
X171577351Y-109975500D01*
X171577352Y-109975500D01*
X171779534Y-109943477D01*
X171974219Y-109880220D01*
X172156610Y-109787287D01*
X172249590Y-109719732D01*
X172322213Y-109666971D01*
X172322215Y-109666968D01*
X172322219Y-109666966D01*
X172466966Y-109522219D01*
X172466968Y-109522215D01*
X172466971Y-109522213D01*
X172527376Y-109439071D01*
X172587287Y-109356610D01*
X172680220Y-109174219D01*
X172743477Y-108979534D01*
X172775500Y-108777352D01*
X172775500Y-108572648D01*
X172764727Y-108504630D01*
X172743477Y-108370465D01*
X172688341Y-108200776D01*
X172680220Y-108175781D01*
X172680218Y-108175778D01*
X172680218Y-108175776D01*
X172623383Y-108064233D01*
X172587287Y-107993390D01*
X172552614Y-107945666D01*
X172466971Y-107827786D01*
X172322213Y-107683028D01*
X172156613Y-107562715D01*
X172156612Y-107562714D01*
X172156610Y-107562713D01*
X172061157Y-107514077D01*
X172004061Y-107484985D01*
X171953265Y-107437010D01*
X171936470Y-107369189D01*
X171959008Y-107303054D01*
X172013723Y-107259603D01*
X172060356Y-107250500D01*
X178162035Y-107250500D01*
X178229074Y-107270185D01*
X178249716Y-107286819D01*
X179503217Y-108540320D01*
X179536702Y-108601643D01*
X179531718Y-108671335D01*
X179489846Y-108727268D01*
X179484428Y-108731102D01*
X179452858Y-108752196D01*
X179452852Y-108752201D01*
X179362251Y-108842802D01*
X179362248Y-108842806D01*
X179291063Y-108949341D01*
X179291058Y-108949350D01*
X179242024Y-109067730D01*
X179242022Y-109067736D01*
X179217025Y-109193403D01*
X179217025Y-109193406D01*
X179217025Y-109321544D01*
X179217025Y-109321546D01*
X179217024Y-109321546D01*
X179242022Y-109447213D01*
X179242024Y-109447219D01*
X179291058Y-109565599D01*
X179291063Y-109565608D01*
X179362248Y-109672143D01*
X179362251Y-109672147D01*
X179452852Y-109762748D01*
X179452856Y-109762751D01*
X179559391Y-109833936D01*
X179559397Y-109833939D01*
X179559398Y-109833940D01*
X179677781Y-109882976D01*
X179677785Y-109882976D01*
X179677786Y-109882977D01*
X179803453Y-109907975D01*
X179803456Y-109907975D01*
X179829560Y-109907975D01*
X179896599Y-109927660D01*
X179917240Y-109944293D01*
X180758436Y-110785490D01*
X180758438Y-110785491D01*
X180758442Y-110785494D01*
X180861160Y-110844798D01*
X180861163Y-110844799D01*
X180878703Y-110849498D01*
X180878706Y-110849500D01*
X180878707Y-110849500D01*
X180899212Y-110854994D01*
X180975741Y-110875500D01*
X187725010Y-110875500D01*
X187792049Y-110895185D01*
X187837804Y-110947989D01*
X187846627Y-110975308D01*
X187849497Y-110989738D01*
X187849499Y-110989744D01*
X187898533Y-111108124D01*
X187898538Y-111108133D01*
X187969723Y-111214668D01*
X187969726Y-111214672D01*
X188060327Y-111305273D01*
X188060331Y-111305276D01*
X188166866Y-111376461D01*
X188166875Y-111376466D01*
X188193692Y-111387574D01*
X188285256Y-111425501D01*
X188285260Y-111425501D01*
X188285261Y-111425502D01*
X188410928Y-111450500D01*
X188410931Y-111450500D01*
X188539071Y-111450500D01*
X188626376Y-111433133D01*
X188664744Y-111425501D01*
X188783127Y-111376465D01*
X188889669Y-111305276D01*
X188898279Y-111296666D01*
X188908127Y-111286819D01*
X188969450Y-111253334D01*
X188995808Y-111250500D01*
X189662035Y-111250500D01*
X189729074Y-111270185D01*
X189749716Y-111286819D01*
X192513181Y-114050284D01*
X192527884Y-114077211D01*
X192544477Y-114103030D01*
X192545368Y-114109230D01*
X192546666Y-114111607D01*
X192549500Y-114137965D01*
X192549500Y-114319192D01*
X192529815Y-114386231D01*
X192513181Y-114406873D01*
X192494726Y-114425327D01*
X192494723Y-114425331D01*
X192423538Y-114531866D01*
X192423533Y-114531875D01*
X192374499Y-114650255D01*
X192374497Y-114650261D01*
X192349500Y-114775928D01*
X192349500Y-114775931D01*
X192349500Y-114904069D01*
X192349500Y-114904071D01*
X192349499Y-114904071D01*
X192374497Y-115029738D01*
X192374499Y-115029744D01*
X192423533Y-115148124D01*
X192423537Y-115148131D01*
X192445907Y-115181610D01*
X192466784Y-115248287D01*
X192448299Y-115315667D01*
X192396320Y-115362357D01*
X192342804Y-115374500D01*
X151887000Y-115374500D01*
X151819961Y-115354815D01*
X151774206Y-115302011D01*
X151763000Y-115250500D01*
X151763000Y-113105552D01*
X152750000Y-113105552D01*
X152750000Y-113294447D01*
X152779548Y-113481002D01*
X152837914Y-113660637D01*
X152923666Y-113828933D01*
X153001627Y-113936239D01*
X153469726Y-113468141D01*
X153509890Y-113537708D01*
X153612292Y-113640110D01*
X153681857Y-113680273D01*
X153213759Y-114148370D01*
X153213759Y-114148371D01*
X153321066Y-114226333D01*
X153489362Y-114312085D01*
X153668997Y-114370451D01*
X153855553Y-114400000D01*
X154044447Y-114400000D01*
X154231002Y-114370451D01*
X154410637Y-114312085D01*
X154578940Y-114226329D01*
X154686239Y-114148373D01*
X154686240Y-114148371D01*
X154218141Y-113680273D01*
X154287708Y-113640110D01*
X154390110Y-113537708D01*
X154430273Y-113468142D01*
X154898371Y-113936240D01*
X154898373Y-113936239D01*
X154976329Y-113828940D01*
X155062085Y-113660637D01*
X155120451Y-113481002D01*
X155150000Y-113294447D01*
X155150000Y-113105552D01*
X159250000Y-113105552D01*
X159250000Y-113294447D01*
X159279548Y-113481002D01*
X159337914Y-113660637D01*
X159423666Y-113828933D01*
X159501627Y-113936239D01*
X159969726Y-113468141D01*
X160009890Y-113537708D01*
X160112292Y-113640110D01*
X160181857Y-113680273D01*
X159713759Y-114148370D01*
X159713759Y-114148371D01*
X159821066Y-114226333D01*
X159989362Y-114312085D01*
X160168997Y-114370451D01*
X160355553Y-114400000D01*
X160544447Y-114400000D01*
X160731002Y-114370451D01*
X160910637Y-114312085D01*
X161078940Y-114226329D01*
X161186239Y-114148373D01*
X161186240Y-114148371D01*
X160718141Y-113680273D01*
X160787708Y-113640110D01*
X160890110Y-113537708D01*
X160930273Y-113468142D01*
X161398371Y-113936240D01*
X161398373Y-113936239D01*
X161476329Y-113828940D01*
X161562085Y-113660637D01*
X161620451Y-113481002D01*
X161650000Y-113294447D01*
X161650000Y-113105551D01*
X161648342Y-113095083D01*
X161646040Y-113080552D01*
X163775000Y-113080552D01*
X163775000Y-113269447D01*
X163804548Y-113456002D01*
X163862914Y-113635637D01*
X163948666Y-113803933D01*
X164026627Y-113911239D01*
X164494726Y-113443141D01*
X164534890Y-113512708D01*
X164637292Y-113615110D01*
X164706857Y-113655273D01*
X164238759Y-114123370D01*
X164238759Y-114123371D01*
X164346066Y-114201333D01*
X164514362Y-114287085D01*
X164693997Y-114345451D01*
X164880553Y-114375000D01*
X165069447Y-114375000D01*
X165256002Y-114345451D01*
X165435637Y-114287085D01*
X165603940Y-114201329D01*
X165711239Y-114123373D01*
X165711240Y-114123371D01*
X165243141Y-113655273D01*
X165312708Y-113615110D01*
X165415110Y-113512708D01*
X165455273Y-113443142D01*
X165923371Y-113911240D01*
X165923373Y-113911239D01*
X166001329Y-113803940D01*
X166087085Y-113635637D01*
X166145451Y-113456002D01*
X166175000Y-113269447D01*
X166175000Y-113080552D01*
X170275000Y-113080552D01*
X170275000Y-113269447D01*
X170304548Y-113456002D01*
X170362914Y-113635637D01*
X170448666Y-113803933D01*
X170526627Y-113911239D01*
X170994726Y-113443141D01*
X171034890Y-113512708D01*
X171137292Y-113615110D01*
X171206857Y-113655273D01*
X170738759Y-114123370D01*
X170738759Y-114123371D01*
X170846066Y-114201333D01*
X171014362Y-114287085D01*
X171193997Y-114345451D01*
X171380553Y-114375000D01*
X171569447Y-114375000D01*
X171756002Y-114345451D01*
X171935637Y-114287085D01*
X172103940Y-114201329D01*
X172211239Y-114123373D01*
X172211240Y-114123371D01*
X171743141Y-113655273D01*
X171812708Y-113615110D01*
X171915110Y-113512708D01*
X171955273Y-113443142D01*
X172423371Y-113911240D01*
X172423373Y-113911239D01*
X172501329Y-113803940D01*
X172587085Y-113635637D01*
X172645451Y-113456002D01*
X172675000Y-113269447D01*
X172675000Y-113080552D01*
X172645451Y-112893997D01*
X172587085Y-112714362D01*
X172541079Y-112624071D01*
X185939499Y-112624071D01*
X185964497Y-112749738D01*
X185964499Y-112749744D01*
X186013533Y-112868124D01*
X186013538Y-112868133D01*
X186084723Y-112974668D01*
X186084726Y-112974672D01*
X186175327Y-113065273D01*
X186175331Y-113065276D01*
X186281866Y-113136461D01*
X186281872Y-113136464D01*
X186281873Y-113136465D01*
X186400256Y-113185501D01*
X186400260Y-113185501D01*
X186400261Y-113185502D01*
X186525928Y-113210500D01*
X186525931Y-113210500D01*
X186654071Y-113210500D01*
X186759489Y-113189530D01*
X186779744Y-113185501D01*
X186898127Y-113136465D01*
X187004669Y-113065276D01*
X187095276Y-112974669D01*
X187166465Y-112868127D01*
X187215501Y-112749744D01*
X187223682Y-112708615D01*
X187240500Y-112624071D01*
X187240500Y-112495928D01*
X187215502Y-112370261D01*
X187215501Y-112370260D01*
X187215501Y-112370256D01*
X187177574Y-112278692D01*
X187166466Y-112251875D01*
X187166461Y-112251866D01*
X187095276Y-112145331D01*
X187095273Y-112145327D01*
X187004672Y-112054726D01*
X187004668Y-112054723D01*
X186898133Y-111983538D01*
X186898124Y-111983533D01*
X186779744Y-111934499D01*
X186779738Y-111934497D01*
X186654071Y-111909500D01*
X186654069Y-111909500D01*
X186525931Y-111909500D01*
X186525929Y-111909500D01*
X186400261Y-111934497D01*
X186400255Y-111934499D01*
X186281875Y-111983533D01*
X186281866Y-111983538D01*
X186175331Y-112054723D01*
X186175327Y-112054726D01*
X186084726Y-112145327D01*
X186084723Y-112145331D01*
X186013538Y-112251866D01*
X186013533Y-112251875D01*
X185964499Y-112370255D01*
X185964497Y-112370261D01*
X185939500Y-112495928D01*
X185939500Y-112495931D01*
X185939500Y-112624069D01*
X185939500Y-112624071D01*
X185939499Y-112624071D01*
X172541079Y-112624071D01*
X172501368Y-112546134D01*
X172501367Y-112546132D01*
X172501335Y-112546069D01*
X172423371Y-112438759D01*
X172423370Y-112438759D01*
X171955272Y-112906857D01*
X171915110Y-112837292D01*
X171812708Y-112734890D01*
X171743141Y-112694726D01*
X172211239Y-112226627D01*
X172103933Y-112148666D01*
X171935637Y-112062914D01*
X171756002Y-112004548D01*
X171569447Y-111975000D01*
X171380553Y-111975000D01*
X171193997Y-112004548D01*
X171014362Y-112062914D01*
X170846064Y-112148667D01*
X170846062Y-112148668D01*
X170738759Y-112226626D01*
X170738759Y-112226627D01*
X171206858Y-112694726D01*
X171137292Y-112734890D01*
X171034890Y-112837292D01*
X170994726Y-112906858D01*
X170526627Y-112438759D01*
X170526626Y-112438759D01*
X170448668Y-112546062D01*
X170448667Y-112546064D01*
X170362914Y-112714362D01*
X170304548Y-112893997D01*
X170275000Y-113080552D01*
X166175000Y-113080552D01*
X166145451Y-112893997D01*
X166087085Y-112714362D01*
X166001333Y-112546066D01*
X165923371Y-112438759D01*
X165923370Y-112438759D01*
X165455272Y-112906857D01*
X165415110Y-112837292D01*
X165312708Y-112734890D01*
X165243141Y-112694726D01*
X165711239Y-112226627D01*
X165603933Y-112148666D01*
X165435637Y-112062914D01*
X165256002Y-112004548D01*
X165069447Y-111975000D01*
X164880553Y-111975000D01*
X164693997Y-112004548D01*
X164514362Y-112062914D01*
X164346064Y-112148667D01*
X164346062Y-112148668D01*
X164238759Y-112226626D01*
X164238759Y-112226627D01*
X164706858Y-112694726D01*
X164637292Y-112734890D01*
X164534890Y-112837292D01*
X164494726Y-112906858D01*
X164026627Y-112438759D01*
X164026626Y-112438759D01*
X163948668Y-112546062D01*
X163948667Y-112546064D01*
X163862914Y-112714362D01*
X163804548Y-112893997D01*
X163775000Y-113080552D01*
X161646040Y-113080552D01*
X161620452Y-112918997D01*
X161562085Y-112739362D01*
X161476333Y-112571066D01*
X161398371Y-112463759D01*
X161398370Y-112463759D01*
X160930272Y-112931857D01*
X160890110Y-112862292D01*
X160787708Y-112759890D01*
X160718141Y-112719726D01*
X161186239Y-112251627D01*
X161078933Y-112173666D01*
X160910637Y-112087914D01*
X160731002Y-112029548D01*
X160544447Y-112000000D01*
X160355553Y-112000000D01*
X160168997Y-112029548D01*
X159989362Y-112087914D01*
X159821064Y-112173667D01*
X159821062Y-112173668D01*
X159713759Y-112251626D01*
X159713759Y-112251627D01*
X160181858Y-112719726D01*
X160112292Y-112759890D01*
X160009890Y-112862292D01*
X159969726Y-112931858D01*
X159501627Y-112463759D01*
X159501626Y-112463759D01*
X159423668Y-112571062D01*
X159423667Y-112571064D01*
X159337914Y-112739362D01*
X159279548Y-112918997D01*
X159250000Y-113105552D01*
X155150000Y-113105552D01*
X155120451Y-112918997D01*
X155062085Y-112739362D01*
X154976333Y-112571066D01*
X154898371Y-112463759D01*
X154898370Y-112463759D01*
X154430272Y-112931857D01*
X154390110Y-112862292D01*
X154287708Y-112759890D01*
X154218141Y-112719726D01*
X154686239Y-112251627D01*
X154578933Y-112173666D01*
X154410637Y-112087914D01*
X154231002Y-112029548D01*
X154044447Y-112000000D01*
X153855553Y-112000000D01*
X153668997Y-112029548D01*
X153489362Y-112087914D01*
X153321064Y-112173667D01*
X153321062Y-112173668D01*
X153213759Y-112251626D01*
X153213759Y-112251627D01*
X153681858Y-112719726D01*
X153612292Y-112759890D01*
X153509890Y-112862292D01*
X153469726Y-112931858D01*
X153001627Y-112463759D01*
X153001626Y-112463759D01*
X152923668Y-112571062D01*
X152923667Y-112571064D01*
X152837914Y-112739362D01*
X152779548Y-112918997D01*
X152750000Y-113105552D01*
X151763000Y-113105552D01*
X151763000Y-111239071D01*
X176674499Y-111239071D01*
X176699497Y-111364738D01*
X176699499Y-111364744D01*
X176748533Y-111483124D01*
X176748538Y-111483133D01*
X176819723Y-111589668D01*
X176819726Y-111589672D01*
X176910327Y-111680273D01*
X176910331Y-111680276D01*
X177016866Y-111751461D01*
X177016872Y-111751464D01*
X177016873Y-111751465D01*
X177135256Y-111800501D01*
X177135260Y-111800501D01*
X177135261Y-111800502D01*
X177260928Y-111825500D01*
X177260931Y-111825500D01*
X177389071Y-111825500D01*
X177473615Y-111808682D01*
X177514744Y-111800501D01*
X177633127Y-111751465D01*
X177739669Y-111680276D01*
X177830276Y-111589669D01*
X177901465Y-111483127D01*
X177950501Y-111364744D01*
X177966002Y-111286819D01*
X177975500Y-111239071D01*
X177975500Y-111110928D01*
X177950502Y-110985261D01*
X177950501Y-110985260D01*
X177950501Y-110985256D01*
X177908744Y-110884445D01*
X177901466Y-110866875D01*
X177901461Y-110866866D01*
X177830276Y-110760331D01*
X177830273Y-110760327D01*
X177739672Y-110669726D01*
X177739668Y-110669723D01*
X177633133Y-110598538D01*
X177633124Y-110598533D01*
X177514744Y-110549499D01*
X177514738Y-110549497D01*
X177389071Y-110524500D01*
X177389069Y-110524500D01*
X177260931Y-110524500D01*
X177260929Y-110524500D01*
X177135261Y-110549497D01*
X177135255Y-110549499D01*
X177016875Y-110598533D01*
X177016866Y-110598538D01*
X176910331Y-110669723D01*
X176910327Y-110669726D01*
X176819726Y-110760327D01*
X176819723Y-110760331D01*
X176748538Y-110866866D01*
X176748533Y-110866875D01*
X176699499Y-110985255D01*
X176699497Y-110985261D01*
X176674500Y-111110928D01*
X176674500Y-111110931D01*
X176674500Y-111239069D01*
X176674500Y-111239071D01*
X176674499Y-111239071D01*
X151763000Y-111239071D01*
X151763000Y-108597648D01*
X152649500Y-108597648D01*
X152649500Y-108802351D01*
X152681522Y-109004534D01*
X152744781Y-109199223D01*
X152770238Y-109249184D01*
X152831203Y-109368834D01*
X152837715Y-109381613D01*
X152958028Y-109547213D01*
X153102786Y-109691971D01*
X153247178Y-109796876D01*
X153268390Y-109812287D01*
X153383697Y-109871039D01*
X153450776Y-109905218D01*
X153450778Y-109905218D01*
X153450781Y-109905220D01*
X153542431Y-109934999D01*
X153645465Y-109968477D01*
X153746557Y-109984488D01*
X153847648Y-110000500D01*
X153847649Y-110000500D01*
X154052351Y-110000500D01*
X154052352Y-110000500D01*
X154254534Y-109968477D01*
X154449219Y-109905220D01*
X154631610Y-109812287D01*
X154750218Y-109726114D01*
X154797213Y-109691971D01*
X154797215Y-109691968D01*
X154797219Y-109691966D01*
X154941966Y-109547219D01*
X154941968Y-109547215D01*
X154941971Y-109547213D01*
X155013192Y-109449184D01*
X155062287Y-109381610D01*
X155155220Y-109199219D01*
X155218477Y-109004534D01*
X155250500Y-108802352D01*
X155250500Y-108597648D01*
X159149500Y-108597648D01*
X159149500Y-108802351D01*
X159181522Y-109004534D01*
X159244781Y-109199223D01*
X159270238Y-109249184D01*
X159331203Y-109368834D01*
X159337715Y-109381613D01*
X159458028Y-109547213D01*
X159602786Y-109691971D01*
X159747178Y-109796876D01*
X159768390Y-109812287D01*
X159883697Y-109871039D01*
X159950776Y-109905218D01*
X159950778Y-109905218D01*
X159950781Y-109905220D01*
X160042431Y-109934999D01*
X160145465Y-109968477D01*
X160246557Y-109984488D01*
X160347648Y-110000500D01*
X160347649Y-110000500D01*
X160552351Y-110000500D01*
X160552352Y-110000500D01*
X160754534Y-109968477D01*
X160949219Y-109905220D01*
X161131610Y-109812287D01*
X161250218Y-109726114D01*
X161297213Y-109691971D01*
X161297215Y-109691968D01*
X161297219Y-109691966D01*
X161441966Y-109547219D01*
X161441968Y-109547215D01*
X161441971Y-109547213D01*
X161513192Y-109449184D01*
X161562287Y-109381610D01*
X161655220Y-109199219D01*
X161718477Y-109004534D01*
X161750500Y-108802352D01*
X161750500Y-108597648D01*
X161746540Y-108572648D01*
X163674500Y-108572648D01*
X163674500Y-108777352D01*
X163676116Y-108787552D01*
X163706522Y-108979534D01*
X163769781Y-109174223D01*
X163862715Y-109356613D01*
X163983028Y-109522213D01*
X164127786Y-109666971D01*
X164265292Y-109766873D01*
X164293390Y-109787287D01*
X164405708Y-109844516D01*
X164475776Y-109880218D01*
X164475778Y-109880218D01*
X164475781Y-109880220D01*
X164541625Y-109901614D01*
X164670465Y-109943477D01*
X164720899Y-109951465D01*
X164872648Y-109975500D01*
X164872649Y-109975500D01*
X165077351Y-109975500D01*
X165077352Y-109975500D01*
X165279534Y-109943477D01*
X165474219Y-109880220D01*
X165656610Y-109787287D01*
X165749590Y-109719732D01*
X165822213Y-109666971D01*
X165822215Y-109666968D01*
X165822219Y-109666966D01*
X165966966Y-109522219D01*
X165966968Y-109522215D01*
X165966971Y-109522213D01*
X166027376Y-109439071D01*
X166087287Y-109356610D01*
X166180220Y-109174219D01*
X166243477Y-108979534D01*
X166275500Y-108777352D01*
X166275500Y-108572648D01*
X166264727Y-108504630D01*
X166243477Y-108370465D01*
X166188341Y-108200776D01*
X166180220Y-108175781D01*
X166180218Y-108175778D01*
X166180218Y-108175776D01*
X166123383Y-108064233D01*
X166087287Y-107993390D01*
X166052614Y-107945666D01*
X165966971Y-107827786D01*
X165822213Y-107683028D01*
X165656613Y-107562715D01*
X165656612Y-107562714D01*
X165656610Y-107562713D01*
X165581613Y-107524500D01*
X165474223Y-107469781D01*
X165279534Y-107406522D01*
X165104995Y-107378878D01*
X165077352Y-107374500D01*
X164872648Y-107374500D01*
X164848329Y-107378351D01*
X164670465Y-107406522D01*
X164475776Y-107469781D01*
X164293386Y-107562715D01*
X164127786Y-107683028D01*
X163983028Y-107827786D01*
X163862715Y-107993386D01*
X163769781Y-108175776D01*
X163706522Y-108370465D01*
X163682692Y-108520926D01*
X163674500Y-108572648D01*
X161746540Y-108572648D01*
X161738348Y-108520926D01*
X161718477Y-108395465D01*
X161681049Y-108280276D01*
X161655220Y-108200781D01*
X161655218Y-108200778D01*
X161655218Y-108200776D01*
X161595272Y-108083127D01*
X161562287Y-108018390D01*
X161537542Y-107984331D01*
X161441971Y-107852786D01*
X161297213Y-107708028D01*
X161131613Y-107587715D01*
X161131612Y-107587714D01*
X161131610Y-107587713D01*
X161046182Y-107544185D01*
X160949223Y-107494781D01*
X160754534Y-107431522D01*
X160579995Y-107403878D01*
X160552352Y-107399500D01*
X160347648Y-107399500D01*
X160323329Y-107403351D01*
X160145465Y-107431522D01*
X159950776Y-107494781D01*
X159768386Y-107587715D01*
X159602786Y-107708028D01*
X159458028Y-107852786D01*
X159337715Y-108018386D01*
X159244781Y-108200776D01*
X159181522Y-108395465D01*
X159149500Y-108597648D01*
X155250500Y-108597648D01*
X155238348Y-108520926D01*
X155218477Y-108395465D01*
X155181049Y-108280276D01*
X155155220Y-108200781D01*
X155155218Y-108200778D01*
X155155218Y-108200776D01*
X155095272Y-108083127D01*
X155062287Y-108018390D01*
X155037542Y-107984331D01*
X154941971Y-107852786D01*
X154797213Y-107708028D01*
X154631613Y-107587715D01*
X154631612Y-107587714D01*
X154631610Y-107587713D01*
X154546182Y-107544185D01*
X154449223Y-107494781D01*
X154254534Y-107431522D01*
X154079995Y-107403878D01*
X154052352Y-107399500D01*
X153847648Y-107399500D01*
X153823329Y-107403351D01*
X153645465Y-107431522D01*
X153450776Y-107494781D01*
X153268386Y-107587715D01*
X153102786Y-107708028D01*
X152958028Y-107852786D01*
X152837715Y-108018386D01*
X152744781Y-108200776D01*
X152681522Y-108395465D01*
X152649500Y-108597648D01*
X151763000Y-108597648D01*
X151763000Y-102584999D01*
X164969265Y-102584999D01*
X164969266Y-102585000D01*
X165532555Y-102585000D01*
X165510000Y-102669174D01*
X165510000Y-102800826D01*
X165532555Y-102885000D01*
X164969265Y-102885000D01*
X165000348Y-103041266D01*
X165000350Y-103041274D01*
X165079500Y-103232358D01*
X165079505Y-103232368D01*
X165194410Y-103404335D01*
X165194413Y-103404339D01*
X165340660Y-103550586D01*
X165340664Y-103550589D01*
X165512631Y-103665494D01*
X165512641Y-103665499D01*
X165703725Y-103744649D01*
X165703733Y-103744651D01*
X165859999Y-103775734D01*
X165860000Y-103775734D01*
X165860000Y-103212445D01*
X165944174Y-103235000D01*
X166075826Y-103235000D01*
X166160000Y-103212445D01*
X166160000Y-103775734D01*
X166316266Y-103744651D01*
X166316274Y-103744649D01*
X166507358Y-103665499D01*
X166507368Y-103665494D01*
X166679335Y-103550589D01*
X166679339Y-103550586D01*
X166825586Y-103404339D01*
X166825589Y-103404335D01*
X166940494Y-103232368D01*
X166940499Y-103232358D01*
X167019649Y-103041274D01*
X167019651Y-103041266D01*
X167050734Y-102885000D01*
X166487445Y-102885000D01*
X166510000Y-102800826D01*
X166510000Y-102669174D01*
X166487445Y-102585000D01*
X167050734Y-102585000D01*
X167050734Y-102584999D01*
X167509265Y-102584999D01*
X167509266Y-102585000D01*
X168072555Y-102585000D01*
X168050000Y-102669174D01*
X168050000Y-102800826D01*
X168072555Y-102885000D01*
X167509265Y-102885000D01*
X167540348Y-103041266D01*
X167540350Y-103041274D01*
X167619500Y-103232358D01*
X167619505Y-103232368D01*
X167734410Y-103404335D01*
X167734413Y-103404339D01*
X167880660Y-103550586D01*
X167880664Y-103550589D01*
X168052631Y-103665494D01*
X168052641Y-103665499D01*
X168243725Y-103744649D01*
X168243733Y-103744651D01*
X168399999Y-103775734D01*
X168400000Y-103775734D01*
X168400000Y-103212445D01*
X168484174Y-103235000D01*
X168615826Y-103235000D01*
X168700000Y-103212445D01*
X168700000Y-103775734D01*
X168856266Y-103744651D01*
X168856274Y-103744649D01*
X169047358Y-103665499D01*
X169047368Y-103665494D01*
X169219335Y-103550589D01*
X169219339Y-103550586D01*
X169365586Y-103404339D01*
X169365589Y-103404335D01*
X169480494Y-103232368D01*
X169480499Y-103232358D01*
X169559649Y-103041274D01*
X169559651Y-103041266D01*
X169590734Y-102885000D01*
X169027445Y-102885000D01*
X169050000Y-102800826D01*
X169050000Y-102669174D01*
X169027445Y-102585000D01*
X169590734Y-102585000D01*
X169590734Y-102584999D01*
X169559651Y-102428733D01*
X169559649Y-102428725D01*
X169480499Y-102237641D01*
X169480494Y-102237631D01*
X169365589Y-102065664D01*
X169365586Y-102065660D01*
X169219339Y-101919413D01*
X169219335Y-101919410D01*
X169047368Y-101804505D01*
X169047358Y-101804500D01*
X168856274Y-101725350D01*
X168856266Y-101725348D01*
X168700000Y-101694264D01*
X168700000Y-102257554D01*
X168615826Y-102235000D01*
X168484174Y-102235000D01*
X168400000Y-102257554D01*
X168400000Y-101694265D01*
X168399999Y-101694264D01*
X168243733Y-101725348D01*
X168243725Y-101725350D01*
X168052641Y-101804500D01*
X168052631Y-101804505D01*
X167880664Y-101919410D01*
X167880660Y-101919413D01*
X167734413Y-102065660D01*
X167734410Y-102065664D01*
X167619505Y-102237631D01*
X167619500Y-102237641D01*
X167540350Y-102428725D01*
X167540348Y-102428733D01*
X167509265Y-102584999D01*
X167050734Y-102584999D01*
X167019651Y-102428733D01*
X167019649Y-102428725D01*
X166940499Y-102237641D01*
X166940494Y-102237631D01*
X166825589Y-102065664D01*
X166825586Y-102065660D01*
X166679339Y-101919413D01*
X166679335Y-101919410D01*
X166507368Y-101804505D01*
X166507358Y-101804500D01*
X166316274Y-101725350D01*
X166316266Y-101725348D01*
X166160000Y-101694264D01*
X166160000Y-102257554D01*
X166075826Y-102235000D01*
X165944174Y-102235000D01*
X165860000Y-102257554D01*
X165860000Y-101694265D01*
X165859999Y-101694264D01*
X165703733Y-101725348D01*
X165703725Y-101725350D01*
X165512641Y-101804500D01*
X165512631Y-101804505D01*
X165340664Y-101919410D01*
X165340660Y-101919413D01*
X165194413Y-102065660D01*
X165194410Y-102065664D01*
X165079505Y-102237631D01*
X165079500Y-102237641D01*
X165000350Y-102428725D01*
X165000348Y-102428733D01*
X164969265Y-102584999D01*
X151763000Y-102584999D01*
X151763000Y-99300131D01*
X164859500Y-99300131D01*
X164859500Y-101089856D01*
X164859502Y-101089882D01*
X164862413Y-101114987D01*
X164862415Y-101114991D01*
X164907793Y-101217764D01*
X164907794Y-101217765D01*
X164987235Y-101297206D01*
X165090009Y-101342585D01*
X165115135Y-101345500D01*
X166904864Y-101345499D01*
X166904879Y-101345497D01*
X166904882Y-101345497D01*
X166929987Y-101342586D01*
X166929988Y-101342585D01*
X166929991Y-101342585D01*
X167032765Y-101297206D01*
X167112206Y-101217765D01*
X167157585Y-101114991D01*
X167160500Y-101089865D01*
X167160499Y-100352125D01*
X167180183Y-100285089D01*
X167232987Y-100239334D01*
X167302146Y-100229390D01*
X167365702Y-100258415D01*
X167403476Y-100317193D01*
X167406972Y-100332729D01*
X167427829Y-100464410D01*
X167483787Y-100636636D01*
X167483788Y-100636639D01*
X167566006Y-100797997D01*
X167672441Y-100944494D01*
X167672445Y-100944499D01*
X167800500Y-101072554D01*
X167800505Y-101072558D01*
X167928287Y-101165396D01*
X167947006Y-101178996D01*
X168023094Y-101217765D01*
X168108360Y-101261211D01*
X168108363Y-101261212D01*
X168194476Y-101289191D01*
X168280591Y-101317171D01*
X168363429Y-101330291D01*
X168459449Y-101345500D01*
X168459454Y-101345500D01*
X168640551Y-101345500D01*
X168727259Y-101331765D01*
X168819409Y-101317171D01*
X168991639Y-101261211D01*
X169152994Y-101178996D01*
X169299501Y-101072553D01*
X169427553Y-100944501D01*
X169533996Y-100797994D01*
X169616211Y-100636639D01*
X169672171Y-100464409D01*
X169686765Y-100372259D01*
X169700500Y-100285551D01*
X169700500Y-100104448D01*
X169677661Y-99960255D01*
X169672171Y-99925591D01*
X169616211Y-99753361D01*
X169616211Y-99753360D01*
X169587740Y-99697484D01*
X169533996Y-99592006D01*
X169441481Y-99464669D01*
X169427558Y-99445505D01*
X169427554Y-99445500D01*
X169299499Y-99317445D01*
X169299494Y-99317441D01*
X169152997Y-99211006D01*
X169152996Y-99211005D01*
X169152994Y-99211004D01*
X169076906Y-99172235D01*
X168991639Y-99128788D01*
X168991636Y-99128787D01*
X168819410Y-99072829D01*
X168640551Y-99044500D01*
X168640546Y-99044500D01*
X168459454Y-99044500D01*
X168459449Y-99044500D01*
X168280589Y-99072829D01*
X168108363Y-99128787D01*
X168108360Y-99128788D01*
X167947002Y-99211006D01*
X167800505Y-99317441D01*
X167800500Y-99317445D01*
X167672445Y-99445500D01*
X167672441Y-99445505D01*
X167566006Y-99592002D01*
X167483788Y-99753360D01*
X167483787Y-99753363D01*
X167427829Y-99925589D01*
X167406972Y-100057271D01*
X167377042Y-100120405D01*
X167317731Y-100157336D01*
X167247868Y-100156338D01*
X167189636Y-100117728D01*
X167161522Y-100053764D01*
X167160499Y-100037872D01*
X167160499Y-99300143D01*
X167160499Y-99300136D01*
X167160497Y-99300117D01*
X167157586Y-99275012D01*
X167157585Y-99275010D01*
X167157585Y-99275009D01*
X167112206Y-99172235D01*
X167032765Y-99092794D01*
X167032763Y-99092793D01*
X166929992Y-99047415D01*
X166904865Y-99044500D01*
X165115143Y-99044500D01*
X165115117Y-99044502D01*
X165090012Y-99047413D01*
X165090008Y-99047415D01*
X164987235Y-99092793D01*
X164907794Y-99172234D01*
X164862415Y-99275006D01*
X164862415Y-99275008D01*
X164859500Y-99300131D01*
X151763000Y-99300131D01*
X151763000Y-91299448D01*
X152924500Y-91299448D01*
X152924500Y-91480551D01*
X152952829Y-91659410D01*
X153008787Y-91831636D01*
X153008788Y-91831639D01*
X153038988Y-91890908D01*
X153089210Y-91989474D01*
X153091006Y-91992997D01*
X153197441Y-92139494D01*
X153197445Y-92139499D01*
X153325500Y-92267554D01*
X153325505Y-92267558D01*
X153438290Y-92349500D01*
X153472006Y-92373996D01*
X153558341Y-92417986D01*
X153633360Y-92456211D01*
X153633363Y-92456212D01*
X153704281Y-92479254D01*
X153805591Y-92512171D01*
X153878639Y-92523740D01*
X153965678Y-92537527D01*
X154028813Y-92567456D01*
X154065744Y-92626768D01*
X154064746Y-92696631D01*
X154026136Y-92754863D01*
X153965678Y-92782473D01*
X153805589Y-92807829D01*
X153633363Y-92863787D01*
X153633360Y-92863788D01*
X153472002Y-92946006D01*
X153325505Y-93052441D01*
X153325500Y-93052445D01*
X153197445Y-93180500D01*
X153197441Y-93180505D01*
X153091006Y-93327002D01*
X153008788Y-93488360D01*
X153008787Y-93488363D01*
X152952829Y-93660589D01*
X152924500Y-93839448D01*
X152924500Y-94020551D01*
X152952829Y-94199410D01*
X153008787Y-94371636D01*
X153008788Y-94371639D01*
X153091006Y-94532997D01*
X153197441Y-94679494D01*
X153197445Y-94679499D01*
X153325500Y-94807554D01*
X153325505Y-94807558D01*
X153453287Y-94900396D01*
X153472006Y-94913996D01*
X153577484Y-94967740D01*
X153633360Y-94996211D01*
X153633363Y-94996212D01*
X153719476Y-95024191D01*
X153805591Y-95052171D01*
X153909716Y-95068662D01*
X153937270Y-95073027D01*
X154000405Y-95102956D01*
X154037336Y-95162268D01*
X154036338Y-95232130D01*
X153997728Y-95290363D01*
X153933765Y-95318477D01*
X153917872Y-95319500D01*
X153180143Y-95319500D01*
X153180117Y-95319502D01*
X153155012Y-95322413D01*
X153155008Y-95322415D01*
X153052235Y-95367793D01*
X152972794Y-95447234D01*
X152927415Y-95550006D01*
X152927415Y-95550008D01*
X152924500Y-95575131D01*
X152924500Y-97364856D01*
X152924502Y-97364882D01*
X152927413Y-97389987D01*
X152927415Y-97389991D01*
X152972793Y-97492764D01*
X152972794Y-97492765D01*
X153052235Y-97572206D01*
X153155009Y-97617585D01*
X153180135Y-97620500D01*
X154969864Y-97620499D01*
X154969879Y-97620497D01*
X154969882Y-97620497D01*
X154994987Y-97617586D01*
X154994988Y-97617585D01*
X154994991Y-97617585D01*
X155097765Y-97572206D01*
X155177206Y-97492765D01*
X155222585Y-97389991D01*
X155225500Y-97364865D01*
X155225500Y-97200943D01*
X162379500Y-97200943D01*
X162379500Y-97359057D01*
X162408388Y-97466866D01*
X162420423Y-97511783D01*
X162420426Y-97511790D01*
X162499475Y-97648709D01*
X162499479Y-97648714D01*
X162499480Y-97648716D01*
X162611284Y-97760520D01*
X162611286Y-97760521D01*
X162611290Y-97760524D01*
X162748209Y-97839573D01*
X162748216Y-97839577D01*
X162900943Y-97880500D01*
X162900945Y-97880500D01*
X163059055Y-97880500D01*
X163059057Y-97880500D01*
X163211784Y-97839577D01*
X163348716Y-97760520D01*
X163392319Y-97716917D01*
X163453642Y-97683432D01*
X163523334Y-97688416D01*
X163567681Y-97716917D01*
X163611284Y-97760520D01*
X163611286Y-97760521D01*
X163611290Y-97760524D01*
X163748209Y-97839573D01*
X163748216Y-97839577D01*
X163900943Y-97880500D01*
X163900945Y-97880500D01*
X164059055Y-97880500D01*
X164059057Y-97880500D01*
X164211784Y-97839577D01*
X164348716Y-97760520D01*
X164392319Y-97716917D01*
X164453642Y-97683432D01*
X164523334Y-97688416D01*
X164567681Y-97716917D01*
X164611284Y-97760520D01*
X164611286Y-97760521D01*
X164611290Y-97760524D01*
X164748209Y-97839573D01*
X164748216Y-97839577D01*
X164900943Y-97880500D01*
X164900945Y-97880500D01*
X165059055Y-97880500D01*
X165059057Y-97880500D01*
X165211784Y-97839577D01*
X165348716Y-97760520D01*
X165392319Y-97716917D01*
X165453642Y-97683432D01*
X165523334Y-97688416D01*
X165567681Y-97716917D01*
X165611284Y-97760520D01*
X165611286Y-97760521D01*
X165611290Y-97760524D01*
X165748209Y-97839573D01*
X165748216Y-97839577D01*
X165900943Y-97880500D01*
X165900945Y-97880500D01*
X166059055Y-97880500D01*
X166059057Y-97880500D01*
X166211784Y-97839577D01*
X166348716Y-97760520D01*
X166460520Y-97648716D01*
X166539577Y-97511784D01*
X166580500Y-97359057D01*
X166580500Y-97200943D01*
X166539577Y-97048216D01*
X166480000Y-96945024D01*
X166460524Y-96911290D01*
X166460518Y-96911282D01*
X166348717Y-96799481D01*
X166348709Y-96799475D01*
X166211790Y-96720426D01*
X166211786Y-96720424D01*
X166211784Y-96720423D01*
X166059057Y-96679500D01*
X165900943Y-96679500D01*
X165748216Y-96720423D01*
X165748209Y-96720426D01*
X165611290Y-96799475D01*
X165611282Y-96799481D01*
X165567681Y-96843083D01*
X165506358Y-96876568D01*
X165436666Y-96871584D01*
X165392319Y-96843083D01*
X165348717Y-96799481D01*
X165348709Y-96799475D01*
X165211790Y-96720426D01*
X165211786Y-96720424D01*
X165211784Y-96720423D01*
X165059057Y-96679500D01*
X164900943Y-96679500D01*
X164748216Y-96720423D01*
X164748209Y-96720426D01*
X164611290Y-96799475D01*
X164611282Y-96799481D01*
X164567681Y-96843083D01*
X164506358Y-96876568D01*
X164436666Y-96871584D01*
X164392319Y-96843083D01*
X164348717Y-96799481D01*
X164348709Y-96799475D01*
X164211790Y-96720426D01*
X164211786Y-96720424D01*
X164211784Y-96720423D01*
X164059057Y-96679500D01*
X163900943Y-96679500D01*
X163748216Y-96720423D01*
X163748209Y-96720426D01*
X163611290Y-96799475D01*
X163611282Y-96799481D01*
X163567681Y-96843083D01*
X163506358Y-96876568D01*
X163436666Y-96871584D01*
X163392319Y-96843083D01*
X163348717Y-96799481D01*
X163348709Y-96799475D01*
X163211790Y-96720426D01*
X163211786Y-96720424D01*
X163211784Y-96720423D01*
X163059057Y-96679500D01*
X162900943Y-96679500D01*
X162748216Y-96720423D01*
X162748209Y-96720426D01*
X162611290Y-96799475D01*
X162611282Y-96799481D01*
X162499481Y-96911282D01*
X162499475Y-96911290D01*
X162420426Y-97048209D01*
X162420423Y-97048216D01*
X162379500Y-97200943D01*
X155225500Y-97200943D01*
X155225499Y-95986751D01*
X155245184Y-95919713D01*
X155261818Y-95899071D01*
X155799071Y-95361819D01*
X155860394Y-95328334D01*
X155886752Y-95325500D01*
X175408248Y-95325500D01*
X175475287Y-95345185D01*
X175495929Y-95361819D01*
X179182597Y-99048487D01*
X179281904Y-99105822D01*
X179392665Y-99135500D01*
X179507335Y-99135500D01*
X180214193Y-99135500D01*
X180281232Y-99155185D01*
X180301875Y-99171820D01*
X180335327Y-99205273D01*
X180335331Y-99205276D01*
X180441866Y-99276461D01*
X180441872Y-99276464D01*
X180441873Y-99276465D01*
X180560256Y-99325501D01*
X180560260Y-99325501D01*
X180560261Y-99325502D01*
X180685928Y-99350500D01*
X180685931Y-99350500D01*
X180814071Y-99350500D01*
X180898615Y-99333682D01*
X180939744Y-99325501D01*
X181058127Y-99276465D01*
X181164669Y-99205276D01*
X181255276Y-99114669D01*
X181326465Y-99008127D01*
X181375501Y-98889744D01*
X181391002Y-98811819D01*
X181400500Y-98764071D01*
X181400500Y-98635928D01*
X181388120Y-98573692D01*
X181394347Y-98504100D01*
X181437210Y-98448923D01*
X181503099Y-98425678D01*
X181509737Y-98425500D01*
X181539071Y-98425500D01*
X181623615Y-98408682D01*
X181664744Y-98400501D01*
X181783127Y-98351465D01*
X181889669Y-98280276D01*
X181980276Y-98189669D01*
X182051465Y-98083127D01*
X182100501Y-97964744D01*
X182125399Y-97839577D01*
X182125500Y-97839071D01*
X182125500Y-97710928D01*
X182100502Y-97585261D01*
X182100501Y-97585260D01*
X182100501Y-97585256D01*
X182051465Y-97466873D01*
X182051464Y-97466872D01*
X182051461Y-97466866D01*
X181980276Y-97360331D01*
X181980273Y-97360327D01*
X181889672Y-97269726D01*
X181889668Y-97269723D01*
X181783133Y-97198538D01*
X181783124Y-97198533D01*
X181664744Y-97149499D01*
X181664738Y-97149497D01*
X181539071Y-97124500D01*
X181539069Y-97124500D01*
X181410931Y-97124500D01*
X181410929Y-97124500D01*
X181285261Y-97149497D01*
X181285255Y-97149499D01*
X181166875Y-97198533D01*
X181166866Y-97198538D01*
X181060331Y-97269723D01*
X181060327Y-97269726D01*
X181026875Y-97303180D01*
X180965553Y-97336666D01*
X180939193Y-97339500D01*
X179946752Y-97339500D01*
X179879713Y-97319815D01*
X179859071Y-97303181D01*
X176137404Y-93581514D01*
X176137396Y-93581508D01*
X176038103Y-93524181D01*
X176038098Y-93524179D01*
X176010406Y-93516759D01*
X175927335Y-93494500D01*
X175927332Y-93494500D01*
X155220326Y-93494500D01*
X155153287Y-93474815D01*
X155109841Y-93426795D01*
X155058996Y-93327006D01*
X155038425Y-93298692D01*
X154952558Y-93180505D01*
X154952554Y-93180500D01*
X154824499Y-93052445D01*
X154824494Y-93052441D01*
X154677997Y-92946006D01*
X154677996Y-92946005D01*
X154677994Y-92946004D01*
X154626300Y-92919664D01*
X154516639Y-92863788D01*
X154516636Y-92863787D01*
X154344410Y-92807829D01*
X154184321Y-92782473D01*
X154121186Y-92752544D01*
X154084255Y-92693232D01*
X154085253Y-92623370D01*
X154123863Y-92565137D01*
X154184321Y-92537527D01*
X154254425Y-92526422D01*
X154344409Y-92512171D01*
X154516639Y-92456211D01*
X154677994Y-92373996D01*
X154824501Y-92267553D01*
X154952553Y-92139501D01*
X155058996Y-91992994D01*
X155141211Y-91831639D01*
X155197171Y-91659409D01*
X155216806Y-91535438D01*
X155225500Y-91480551D01*
X155225500Y-91299448D01*
X155207263Y-91184311D01*
X155197171Y-91120591D01*
X155141211Y-90948361D01*
X155141211Y-90948360D01*
X155111363Y-90889782D01*
X155058996Y-90787006D01*
X155015570Y-90727235D01*
X154952558Y-90640505D01*
X154952554Y-90640500D01*
X154824499Y-90512445D01*
X154824494Y-90512441D01*
X154677997Y-90406006D01*
X154677996Y-90406005D01*
X154677994Y-90406004D01*
X154598876Y-90365691D01*
X154516639Y-90323788D01*
X154516636Y-90323787D01*
X154344410Y-90267829D01*
X154165551Y-90239500D01*
X154165546Y-90239500D01*
X153984454Y-90239500D01*
X153984449Y-90239500D01*
X153805589Y-90267829D01*
X153633363Y-90323787D01*
X153633360Y-90323788D01*
X153472002Y-90406006D01*
X153325505Y-90512441D01*
X153325500Y-90512445D01*
X153197445Y-90640500D01*
X153197441Y-90640505D01*
X153091006Y-90787002D01*
X153008788Y-90948360D01*
X153008787Y-90948363D01*
X152952829Y-91120589D01*
X152924500Y-91299448D01*
X151763000Y-91299448D01*
X151763000Y-88699999D01*
X153034265Y-88699999D01*
X153034266Y-88700000D01*
X153597555Y-88700000D01*
X153575000Y-88784174D01*
X153575000Y-88915826D01*
X153597555Y-89000000D01*
X153034265Y-89000000D01*
X153065348Y-89156266D01*
X153065350Y-89156274D01*
X153144500Y-89347358D01*
X153144505Y-89347368D01*
X153259410Y-89519335D01*
X153259413Y-89519339D01*
X153405660Y-89665586D01*
X153405664Y-89665589D01*
X153577631Y-89780494D01*
X153577641Y-89780499D01*
X153768725Y-89859649D01*
X153768733Y-89859651D01*
X153924999Y-89890734D01*
X153925000Y-89890734D01*
X153925000Y-89327445D01*
X154009174Y-89350000D01*
X154140826Y-89350000D01*
X154225000Y-89327445D01*
X154225000Y-89890734D01*
X154381266Y-89859651D01*
X154381274Y-89859649D01*
X154572358Y-89780499D01*
X154572368Y-89780494D01*
X154744335Y-89665589D01*
X154744339Y-89665586D01*
X154890586Y-89519339D01*
X154890589Y-89519335D01*
X155005494Y-89347368D01*
X155005499Y-89347358D01*
X155084649Y-89156274D01*
X155084651Y-89156266D01*
X155112935Y-89014071D01*
X169274499Y-89014071D01*
X169299497Y-89139738D01*
X169299499Y-89139744D01*
X169348533Y-89258124D01*
X169348538Y-89258133D01*
X169419723Y-89364668D01*
X169419726Y-89364672D01*
X169510327Y-89455273D01*
X169510331Y-89455276D01*
X169616866Y-89526461D01*
X169616872Y-89526464D01*
X169616873Y-89526465D01*
X169735256Y-89575501D01*
X169735260Y-89575501D01*
X169735261Y-89575502D01*
X169860928Y-89600500D01*
X169860931Y-89600500D01*
X169989071Y-89600500D01*
X170080901Y-89582233D01*
X170114744Y-89575501D01*
X170233127Y-89526465D01*
X170339669Y-89455276D01*
X170430276Y-89364669D01*
X170501465Y-89258127D01*
X170550501Y-89139744D01*
X170569747Y-89042993D01*
X170575500Y-89014071D01*
X170575500Y-88885928D01*
X170550502Y-88760261D01*
X170550501Y-88760260D01*
X170550501Y-88760256D01*
X170507734Y-88657007D01*
X170501466Y-88641875D01*
X170501461Y-88641866D01*
X170430276Y-88535331D01*
X170430273Y-88535327D01*
X170339672Y-88444726D01*
X170339668Y-88444723D01*
X170233133Y-88373538D01*
X170233124Y-88373533D01*
X170114744Y-88324499D01*
X170114738Y-88324497D01*
X169989071Y-88299500D01*
X169989069Y-88299500D01*
X169860931Y-88299500D01*
X169860929Y-88299500D01*
X169735261Y-88324497D01*
X169735255Y-88324499D01*
X169616875Y-88373533D01*
X169616866Y-88373538D01*
X169510331Y-88444723D01*
X169510327Y-88444726D01*
X169419726Y-88535327D01*
X169419723Y-88535331D01*
X169348538Y-88641866D01*
X169348533Y-88641875D01*
X169299499Y-88760255D01*
X169299497Y-88760261D01*
X169274500Y-88885928D01*
X169274500Y-88885931D01*
X169274500Y-89014069D01*
X169274500Y-89014071D01*
X169274499Y-89014071D01*
X155112935Y-89014071D01*
X155115734Y-89000000D01*
X154552445Y-89000000D01*
X154575000Y-88915826D01*
X154575000Y-88784174D01*
X154552445Y-88700000D01*
X155115734Y-88700000D01*
X155115734Y-88699999D01*
X155084651Y-88543733D01*
X155084649Y-88543725D01*
X155005499Y-88352641D01*
X155005494Y-88352631D01*
X154890589Y-88180664D01*
X154890586Y-88180660D01*
X154744339Y-88034413D01*
X154744335Y-88034410D01*
X154572368Y-87919505D01*
X154572358Y-87919500D01*
X154381274Y-87840350D01*
X154381266Y-87840348D01*
X154225000Y-87809264D01*
X154225000Y-88372554D01*
X154140826Y-88350000D01*
X154009174Y-88350000D01*
X153925000Y-88372554D01*
X153925000Y-87809265D01*
X153924999Y-87809264D01*
X153768733Y-87840348D01*
X153768725Y-87840350D01*
X153577641Y-87919500D01*
X153577631Y-87919505D01*
X153405664Y-88034410D01*
X153405660Y-88034413D01*
X153259413Y-88180660D01*
X153259410Y-88180664D01*
X153144505Y-88352631D01*
X153144500Y-88352641D01*
X153065350Y-88543725D01*
X153065348Y-88543733D01*
X153034265Y-88699999D01*
X151763000Y-88699999D01*
X151763000Y-86099500D01*
X151782685Y-86032461D01*
X151835489Y-85986706D01*
X151887000Y-85975500D01*
X185163034Y-85975500D01*
X185230073Y-85995185D01*
G37*
%TD.AperFunction*%
%TA.AperFunction,Conductor*%
G36*
X251105039Y-85995185D02*
G01*
X251150794Y-86047989D01*
X251162000Y-86099500D01*
X251162000Y-115250500D01*
X251142315Y-115317539D01*
X251089511Y-115363294D01*
X251038000Y-115374500D01*
X233086965Y-115374500D01*
X233019926Y-115354815D01*
X232974171Y-115302011D01*
X232964227Y-115232853D01*
X232993252Y-115169297D01*
X232999284Y-115162819D01*
X234975284Y-113186819D01*
X235036607Y-113153334D01*
X235062965Y-113150500D01*
X235089071Y-113150500D01*
X235190432Y-113130337D01*
X235214744Y-113125501D01*
X235333127Y-113076465D01*
X235439669Y-113005276D01*
X235530276Y-112914669D01*
X235601465Y-112808127D01*
X235650501Y-112689744D01*
X235672519Y-112579055D01*
X235675500Y-112564071D01*
X235675500Y-112435928D01*
X235650502Y-112310261D01*
X235650501Y-112310260D01*
X235650501Y-112310256D01*
X235605169Y-112200816D01*
X235601466Y-112191875D01*
X235601461Y-112191866D01*
X235530276Y-112085331D01*
X235530273Y-112085327D01*
X235439672Y-111994726D01*
X235439668Y-111994723D01*
X235333133Y-111923538D01*
X235333124Y-111923533D01*
X235214744Y-111874499D01*
X235214738Y-111874497D01*
X235089071Y-111849500D01*
X235089069Y-111849500D01*
X234960931Y-111849500D01*
X234960929Y-111849500D01*
X234835261Y-111874497D01*
X234835255Y-111874499D01*
X234716875Y-111923533D01*
X234716866Y-111923538D01*
X234610331Y-111994723D01*
X234610327Y-111994726D01*
X234519726Y-112085327D01*
X234519723Y-112085331D01*
X234448538Y-112191866D01*
X234448533Y-112191875D01*
X234399499Y-112310255D01*
X234399497Y-112310261D01*
X234374500Y-112435928D01*
X234374500Y-112462035D01*
X234354815Y-112529074D01*
X234338181Y-112549716D01*
X232299716Y-114588181D01*
X232238393Y-114621666D01*
X232212035Y-114624500D01*
X216293451Y-114624500D01*
X216226412Y-114604815D01*
X216180657Y-114552011D01*
X216170713Y-114482853D01*
X216199738Y-114419297D01*
X216205770Y-114412819D01*
X216244951Y-114373637D01*
X216244954Y-114373634D01*
X216316143Y-114267092D01*
X216365179Y-114148709D01*
X216381881Y-114064744D01*
X216390178Y-114023036D01*
X216390178Y-113996930D01*
X216409863Y-113929891D01*
X216426497Y-113909249D01*
X217098865Y-113236881D01*
X217378490Y-112957256D01*
X217439812Y-112923772D01*
X217509504Y-112928756D01*
X217565437Y-112970628D01*
X217589854Y-113036092D01*
X217587787Y-113069129D01*
X217574500Y-113135926D01*
X217574500Y-113135931D01*
X217574500Y-113264069D01*
X217574500Y-113264071D01*
X217574499Y-113264071D01*
X217599497Y-113389738D01*
X217599499Y-113389744D01*
X217648533Y-113508124D01*
X217648538Y-113508133D01*
X217719723Y-113614668D01*
X217719726Y-113614672D01*
X217810327Y-113705273D01*
X217810331Y-113705276D01*
X217916866Y-113776461D01*
X217916872Y-113776464D01*
X217916873Y-113776465D01*
X218035256Y-113825501D01*
X218035260Y-113825501D01*
X218035261Y-113825502D01*
X218160928Y-113850500D01*
X218160931Y-113850500D01*
X218289071Y-113850500D01*
X218397455Y-113828940D01*
X218414744Y-113825501D01*
X218533127Y-113776465D01*
X218639669Y-113705276D01*
X218730276Y-113614669D01*
X218742788Y-113595943D01*
X226824500Y-113595943D01*
X226824500Y-113754057D01*
X226847714Y-113840691D01*
X226865423Y-113906783D01*
X226865426Y-113906790D01*
X226944475Y-114043709D01*
X226944479Y-114043714D01*
X226944480Y-114043716D01*
X227056284Y-114155520D01*
X227056286Y-114155521D01*
X227056290Y-114155524D01*
X227135628Y-114201329D01*
X227193216Y-114234577D01*
X227345943Y-114275500D01*
X227345945Y-114275500D01*
X227504055Y-114275500D01*
X227504057Y-114275500D01*
X227656784Y-114234577D01*
X227793716Y-114155520D01*
X227837319Y-114111917D01*
X227898642Y-114078432D01*
X227968334Y-114083416D01*
X228012681Y-114111917D01*
X228056284Y-114155520D01*
X228056286Y-114155521D01*
X228056290Y-114155524D01*
X228135628Y-114201329D01*
X228193216Y-114234577D01*
X228345943Y-114275500D01*
X228345945Y-114275500D01*
X228504055Y-114275500D01*
X228504057Y-114275500D01*
X228656784Y-114234577D01*
X228793716Y-114155520D01*
X228837319Y-114111917D01*
X228898642Y-114078432D01*
X228968334Y-114083416D01*
X229012681Y-114111917D01*
X229056284Y-114155520D01*
X229056286Y-114155521D01*
X229056290Y-114155524D01*
X229135628Y-114201329D01*
X229193216Y-114234577D01*
X229345943Y-114275500D01*
X229345945Y-114275500D01*
X229504055Y-114275500D01*
X229504057Y-114275500D01*
X229656784Y-114234577D01*
X229793716Y-114155520D01*
X229837319Y-114111917D01*
X229898642Y-114078432D01*
X229968334Y-114083416D01*
X230012681Y-114111917D01*
X230056284Y-114155520D01*
X230056286Y-114155521D01*
X230056290Y-114155524D01*
X230135628Y-114201329D01*
X230193216Y-114234577D01*
X230345943Y-114275500D01*
X230345945Y-114275500D01*
X230504055Y-114275500D01*
X230504057Y-114275500D01*
X230656784Y-114234577D01*
X230793716Y-114155520D01*
X230905520Y-114043716D01*
X230984577Y-113906784D01*
X231025500Y-113754057D01*
X231025500Y-113595943D01*
X230984577Y-113443216D01*
X230937866Y-113362309D01*
X230905524Y-113306290D01*
X230905518Y-113306282D01*
X230793717Y-113194481D01*
X230787265Y-113189530D01*
X230788178Y-113188338D01*
X230746208Y-113144325D01*
X230732982Y-113075718D01*
X230758947Y-113010852D01*
X230787654Y-112985977D01*
X230787265Y-112985470D01*
X230793709Y-112980523D01*
X230793716Y-112980520D01*
X230905520Y-112868716D01*
X230984577Y-112731784D01*
X231025500Y-112579057D01*
X231025500Y-112420943D01*
X230984577Y-112268216D01*
X230908819Y-112136999D01*
X230892347Y-112069099D01*
X230908820Y-112013000D01*
X230913700Y-112004548D01*
X230984577Y-111881784D01*
X231025500Y-111729057D01*
X231025500Y-111570943D01*
X230984577Y-111418216D01*
X230924838Y-111314744D01*
X230905524Y-111281290D01*
X230905518Y-111281282D01*
X230793717Y-111169481D01*
X230793709Y-111169475D01*
X230656790Y-111090426D01*
X230656786Y-111090424D01*
X230656784Y-111090423D01*
X230504057Y-111049500D01*
X230345943Y-111049500D01*
X230193216Y-111090423D01*
X230193209Y-111090426D01*
X230056290Y-111169475D01*
X230056282Y-111169481D01*
X229944481Y-111281282D01*
X229944475Y-111281290D01*
X229865426Y-111418209D01*
X229865423Y-111418216D01*
X229824500Y-111570943D01*
X229824500Y-111729057D01*
X229865093Y-111880550D01*
X229865423Y-111881783D01*
X229865423Y-111881784D01*
X229941180Y-112013001D01*
X229957652Y-112080901D01*
X229941180Y-112136999D01*
X229865423Y-112268215D01*
X229865423Y-112268216D01*
X229824500Y-112420943D01*
X229824500Y-112579057D01*
X229860132Y-112712035D01*
X229865423Y-112731783D01*
X229865426Y-112731790D01*
X229944475Y-112868709D01*
X229944479Y-112868714D01*
X229944480Y-112868716D01*
X230056284Y-112980520D01*
X230056286Y-112980521D01*
X230062735Y-112985470D01*
X230061821Y-112986659D01*
X230103795Y-113030683D01*
X230117016Y-113099290D01*
X230091047Y-113164154D01*
X230077396Y-113178881D01*
X230067363Y-113188083D01*
X230056284Y-113194480D01*
X230010787Y-113239976D01*
X230008818Y-113241783D01*
X229979765Y-113256056D01*
X229951358Y-113271568D01*
X229948594Y-113271370D01*
X229946108Y-113272592D01*
X229913953Y-113268893D01*
X229881666Y-113266584D01*
X229879002Y-113264872D01*
X229876696Y-113264607D01*
X229869761Y-113258933D01*
X229837319Y-113238083D01*
X229793717Y-113194481D01*
X229793709Y-113194475D01*
X229656790Y-113115426D01*
X229656786Y-113115424D01*
X229656784Y-113115423D01*
X229504057Y-113074500D01*
X229345943Y-113074500D01*
X229193216Y-113115423D01*
X229193209Y-113115426D01*
X229056290Y-113194475D01*
X229056282Y-113194481D01*
X229012681Y-113238083D01*
X228951358Y-113271568D01*
X228881666Y-113266584D01*
X228837319Y-113238083D01*
X228793717Y-113194481D01*
X228793709Y-113194475D01*
X228656790Y-113115426D01*
X228656786Y-113115424D01*
X228656784Y-113115423D01*
X228504057Y-113074500D01*
X228345943Y-113074500D01*
X228193216Y-113115423D01*
X228193209Y-113115426D01*
X228056290Y-113194475D01*
X228056282Y-113194481D01*
X228012681Y-113238083D01*
X227951358Y-113271568D01*
X227881666Y-113266584D01*
X227837319Y-113238083D01*
X227793717Y-113194481D01*
X227793709Y-113194475D01*
X227656790Y-113115426D01*
X227656786Y-113115424D01*
X227656784Y-113115423D01*
X227504057Y-113074500D01*
X227345943Y-113074500D01*
X227193216Y-113115423D01*
X227193209Y-113115426D01*
X227056290Y-113194475D01*
X227056282Y-113194481D01*
X226944481Y-113306282D01*
X226944475Y-113306290D01*
X226865426Y-113443209D01*
X226865423Y-113443216D01*
X226824500Y-113595943D01*
X218742788Y-113595943D01*
X218781700Y-113537708D01*
X218794251Y-113518925D01*
X218794251Y-113518924D01*
X218801459Y-113508136D01*
X218801461Y-113508133D01*
X218801465Y-113508127D01*
X218850501Y-113389744D01*
X218862885Y-113327489D01*
X218875500Y-113264071D01*
X218875500Y-113135928D01*
X218850502Y-113010261D01*
X218850501Y-113010260D01*
X218850501Y-113010256D01*
X218801465Y-112891873D01*
X218801464Y-112891872D01*
X218801461Y-112891866D01*
X218730276Y-112785331D01*
X218730273Y-112785327D01*
X218682127Y-112737181D01*
X218648642Y-112675858D01*
X218653626Y-112606166D01*
X218695498Y-112550233D01*
X218760962Y-112525816D01*
X218769808Y-112525500D01*
X221534307Y-112525500D01*
X221534309Y-112525500D01*
X221614411Y-112504036D01*
X221631339Y-112499501D01*
X221631340Y-112499500D01*
X221648887Y-112494799D01*
X221751614Y-112435489D01*
X222360489Y-111826614D01*
X222419799Y-111723887D01*
X222441903Y-111641392D01*
X222450500Y-111609309D01*
X222450500Y-107862965D01*
X222470185Y-107795926D01*
X222486819Y-107775284D01*
X224325284Y-105936819D01*
X224386607Y-105903334D01*
X224412965Y-105900500D01*
X224439071Y-105900500D01*
X224523615Y-105883682D01*
X224564744Y-105875501D01*
X224683127Y-105826465D01*
X224789669Y-105755276D01*
X224880276Y-105664669D01*
X224951465Y-105558127D01*
X225000501Y-105439744D01*
X225016737Y-105358124D01*
X225025500Y-105314071D01*
X225025500Y-105290901D01*
X225025500Y-105185931D01*
X225000501Y-105060256D01*
X224982901Y-105017766D01*
X234833889Y-105017766D01*
X234833890Y-105017767D01*
X235200224Y-105017767D01*
X235191619Y-105032672D01*
X235167767Y-105121689D01*
X235167767Y-105213845D01*
X235191619Y-105302862D01*
X235200224Y-105317767D01*
X234833890Y-105317767D01*
X234844666Y-105371943D01*
X234844668Y-105371951D01*
X234897431Y-105499333D01*
X234897438Y-105499346D01*
X234974042Y-105613993D01*
X235071540Y-105711491D01*
X235186187Y-105788095D01*
X235186200Y-105788102D01*
X235313581Y-105840864D01*
X235313593Y-105840867D01*
X235367766Y-105851643D01*
X235367767Y-105851643D01*
X235367767Y-105485309D01*
X235382672Y-105493915D01*
X235471689Y-105517767D01*
X235563845Y-105517767D01*
X235652862Y-105493915D01*
X235667767Y-105485309D01*
X235667767Y-105851643D01*
X235721940Y-105840867D01*
X235721952Y-105840864D01*
X235849333Y-105788102D01*
X235849346Y-105788095D01*
X235963993Y-105711491D01*
X236061491Y-105613993D01*
X236138095Y-105499346D01*
X236138102Y-105499333D01*
X236190865Y-105371951D01*
X236190867Y-105371943D01*
X236201644Y-105317767D01*
X235835310Y-105317767D01*
X235843915Y-105302862D01*
X235867767Y-105213845D01*
X235867767Y-105121689D01*
X235843915Y-105032672D01*
X235835310Y-105017767D01*
X236201644Y-105017767D01*
X236201644Y-105017766D01*
X246533889Y-105017766D01*
X246533890Y-105017767D01*
X246900224Y-105017767D01*
X246891619Y-105032672D01*
X246867767Y-105121689D01*
X246867767Y-105213845D01*
X246891619Y-105302862D01*
X246900224Y-105317767D01*
X246533890Y-105317767D01*
X246544666Y-105371943D01*
X246544668Y-105371951D01*
X246597431Y-105499333D01*
X246597438Y-105499346D01*
X246674042Y-105613993D01*
X246771540Y-105711491D01*
X246886187Y-105788095D01*
X246886200Y-105788102D01*
X247013581Y-105840864D01*
X247013593Y-105840867D01*
X247067766Y-105851643D01*
X247067767Y-105851643D01*
X247067767Y-105485309D01*
X247082672Y-105493915D01*
X247171689Y-105517767D01*
X247263845Y-105517767D01*
X247352862Y-105493915D01*
X247367767Y-105485309D01*
X247367767Y-105851643D01*
X247421940Y-105840867D01*
X247421952Y-105840864D01*
X247549333Y-105788102D01*
X247549346Y-105788095D01*
X247663993Y-105711491D01*
X247761491Y-105613993D01*
X247838095Y-105499346D01*
X247838102Y-105499333D01*
X247890865Y-105371951D01*
X247890867Y-105371943D01*
X247901644Y-105317767D01*
X247535310Y-105317767D01*
X247543915Y-105302862D01*
X247567767Y-105213845D01*
X247567767Y-105121689D01*
X247543915Y-105032672D01*
X247535310Y-105017767D01*
X247901644Y-105017767D01*
X247901644Y-105017766D01*
X247890867Y-104963590D01*
X247890865Y-104963582D01*
X247838102Y-104836200D01*
X247838095Y-104836187D01*
X247761491Y-104721540D01*
X247663993Y-104624042D01*
X247549346Y-104547438D01*
X247549333Y-104547431D01*
X247421951Y-104494668D01*
X247421943Y-104494666D01*
X247367767Y-104483889D01*
X247367767Y-104850224D01*
X247352862Y-104841619D01*
X247263845Y-104817767D01*
X247171689Y-104817767D01*
X247082672Y-104841619D01*
X247067767Y-104850224D01*
X247067767Y-104483890D01*
X247067766Y-104483889D01*
X247013590Y-104494666D01*
X247013582Y-104494668D01*
X246886200Y-104547431D01*
X246886187Y-104547438D01*
X246771540Y-104624042D01*
X246674042Y-104721540D01*
X246597438Y-104836187D01*
X246597431Y-104836200D01*
X246544668Y-104963582D01*
X246544666Y-104963590D01*
X246533889Y-105017766D01*
X236201644Y-105017766D01*
X236190867Y-104963590D01*
X236190865Y-104963582D01*
X236138102Y-104836200D01*
X236138095Y-104836187D01*
X236061491Y-104721540D01*
X235963993Y-104624042D01*
X235849346Y-104547438D01*
X235849333Y-104547431D01*
X235721951Y-104494668D01*
X235721943Y-104494666D01*
X235667767Y-104483889D01*
X235667767Y-104850224D01*
X235652862Y-104841619D01*
X235563845Y-104817767D01*
X235471689Y-104817767D01*
X235382672Y-104841619D01*
X235367767Y-104850224D01*
X235367767Y-104483890D01*
X235367766Y-104483889D01*
X235313590Y-104494666D01*
X235313582Y-104494668D01*
X235186200Y-104547431D01*
X235186187Y-104547438D01*
X235071540Y-104624042D01*
X234974042Y-104721540D01*
X234897438Y-104836187D01*
X234897431Y-104836200D01*
X234844668Y-104963582D01*
X234844666Y-104963590D01*
X234833889Y-105017766D01*
X224982901Y-105017766D01*
X224955629Y-104951925D01*
X224951466Y-104941875D01*
X224951461Y-104941866D01*
X224880276Y-104835331D01*
X224880273Y-104835327D01*
X224861819Y-104816873D01*
X224828334Y-104755550D01*
X224825500Y-104729192D01*
X224825500Y-102490693D01*
X224825500Y-102490691D01*
X224794799Y-102376114D01*
X224794799Y-102376113D01*
X224794799Y-102376112D01*
X224735492Y-102273389D01*
X224735488Y-102273384D01*
X224114355Y-101652251D01*
X224038164Y-101576060D01*
X230974626Y-101576060D01*
X230974626Y-101688406D01*
X230999054Y-101751461D01*
X231015211Y-101793166D01*
X231030909Y-101812985D01*
X231030917Y-101812995D01*
X231801466Y-102583543D01*
X231801470Y-102583546D01*
X231801472Y-102583548D01*
X231821300Y-102599255D01*
X231926060Y-102639840D01*
X231926062Y-102639840D01*
X232038406Y-102639840D01*
X232143166Y-102599255D01*
X232162994Y-102583550D01*
X232933548Y-101812994D01*
X232949255Y-101793166D01*
X232989840Y-101688406D01*
X232989840Y-101576060D01*
X242674626Y-101576060D01*
X242674626Y-101688406D01*
X242699054Y-101751461D01*
X242715211Y-101793166D01*
X242730909Y-101812985D01*
X242730917Y-101812995D01*
X243501466Y-102583543D01*
X243501470Y-102583546D01*
X243501472Y-102583548D01*
X243521300Y-102599255D01*
X243626060Y-102639840D01*
X243626062Y-102639840D01*
X243738406Y-102639840D01*
X243843166Y-102599255D01*
X243862994Y-102583550D01*
X244633548Y-101812994D01*
X244649255Y-101793166D01*
X244689840Y-101688406D01*
X244689840Y-101576060D01*
X244649255Y-101471300D01*
X244633550Y-101451472D01*
X244443289Y-101261211D01*
X243862999Y-100680922D01*
X243843166Y-100665211D01*
X243843163Y-100665210D01*
X243738406Y-100624626D01*
X243626060Y-100624626D01*
X243521299Y-100665211D01*
X243501480Y-100680909D01*
X243501470Y-100680917D01*
X242730922Y-101451466D01*
X242715211Y-101471299D01*
X242715211Y-101471300D01*
X242674626Y-101576060D01*
X232989840Y-101576060D01*
X232949255Y-101471300D01*
X232933550Y-101451472D01*
X232743289Y-101261211D01*
X232162999Y-100680922D01*
X232143166Y-100665211D01*
X232143163Y-100665210D01*
X232038406Y-100624626D01*
X231926060Y-100624626D01*
X231821299Y-100665211D01*
X231801480Y-100680909D01*
X231801470Y-100680917D01*
X231030922Y-101451466D01*
X231015211Y-101471299D01*
X231015211Y-101471300D01*
X230974626Y-101576060D01*
X224038164Y-101576060D01*
X223276616Y-100814513D01*
X223276614Y-100814511D01*
X223206446Y-100773999D01*
X223173884Y-100755199D01*
X223144300Y-100747273D01*
X223144299Y-100747272D01*
X223144299Y-100747273D01*
X223101803Y-100735886D01*
X223059309Y-100724500D01*
X223059308Y-100724500D01*
X222145808Y-100724500D01*
X222078769Y-100704815D01*
X222058127Y-100688181D01*
X222039672Y-100669726D01*
X222039668Y-100669723D01*
X221933133Y-100598538D01*
X221933124Y-100598533D01*
X221814744Y-100549499D01*
X221814738Y-100549497D01*
X221689071Y-100524500D01*
X221689069Y-100524500D01*
X221560931Y-100524500D01*
X221560929Y-100524500D01*
X221435261Y-100549497D01*
X221435255Y-100549499D01*
X221316875Y-100598533D01*
X221316866Y-100598538D01*
X221210331Y-100669723D01*
X221210327Y-100669726D01*
X221119726Y-100760327D01*
X221119723Y-100760331D01*
X221048538Y-100866866D01*
X221048533Y-100866875D01*
X220999499Y-100985255D01*
X220999497Y-100985261D01*
X220974500Y-101110928D01*
X220974500Y-101110931D01*
X220974500Y-101239069D01*
X220974500Y-101239071D01*
X220974499Y-101239071D01*
X220999497Y-101364738D01*
X220999499Y-101364744D01*
X221048533Y-101483124D01*
X221048538Y-101483133D01*
X221119723Y-101589668D01*
X221119726Y-101589672D01*
X221210327Y-101680273D01*
X221210331Y-101680276D01*
X221316866Y-101751461D01*
X221316872Y-101751464D01*
X221316873Y-101751465D01*
X221435256Y-101800501D01*
X221435260Y-101800501D01*
X221435261Y-101800502D01*
X221560928Y-101825500D01*
X221560931Y-101825500D01*
X221689071Y-101825500D01*
X221794640Y-101804500D01*
X221814744Y-101800501D01*
X221933127Y-101751465D01*
X222039669Y-101680276D01*
X222039672Y-101680273D01*
X222058127Y-101661819D01*
X222119450Y-101628334D01*
X222145808Y-101625500D01*
X222762035Y-101625500D01*
X222829074Y-101645185D01*
X222849716Y-101661819D01*
X223888181Y-102700284D01*
X223921666Y-102761607D01*
X223924500Y-102787965D01*
X223924500Y-104729192D01*
X223904815Y-104796231D01*
X223888181Y-104816873D01*
X223869726Y-104835327D01*
X223869723Y-104835331D01*
X223798538Y-104941866D01*
X223798533Y-104941875D01*
X223749499Y-105060255D01*
X223749497Y-105060261D01*
X223724500Y-105185928D01*
X223724500Y-105212034D01*
X223704815Y-105279073D01*
X223688181Y-105299715D01*
X223031260Y-105956635D01*
X222969937Y-105990120D01*
X222900245Y-105985136D01*
X222844312Y-105943264D01*
X222821962Y-105893145D01*
X222818643Y-105876461D01*
X222800501Y-105785256D01*
X222755039Y-105675501D01*
X222751466Y-105666875D01*
X222751461Y-105666866D01*
X222680276Y-105560331D01*
X222680273Y-105560327D01*
X222589672Y-105469726D01*
X222589668Y-105469723D01*
X222483133Y-105398538D01*
X222483124Y-105398533D01*
X222364744Y-105349499D01*
X222364738Y-105349497D01*
X222239071Y-105324500D01*
X222239069Y-105324500D01*
X222237966Y-105324500D01*
X222237408Y-105324336D01*
X222233009Y-105323903D01*
X222233091Y-105323068D01*
X222170927Y-105304815D01*
X222150285Y-105288181D01*
X221436819Y-104574715D01*
X221403334Y-104513392D01*
X221400500Y-104487034D01*
X221400500Y-103570807D01*
X221420185Y-103503768D01*
X221436821Y-103483124D01*
X221455274Y-103464671D01*
X221455276Y-103464669D01*
X221526465Y-103358127D01*
X221575501Y-103239744D01*
X221600500Y-103114069D01*
X221600500Y-102985931D01*
X221600500Y-102985928D01*
X221575502Y-102860261D01*
X221575501Y-102860260D01*
X221575501Y-102860256D01*
X221526465Y-102741873D01*
X221526464Y-102741872D01*
X221526461Y-102741866D01*
X221455276Y-102635331D01*
X221455273Y-102635327D01*
X221364672Y-102544726D01*
X221364668Y-102544723D01*
X221258133Y-102473538D01*
X221258124Y-102473533D01*
X221139744Y-102424499D01*
X221139738Y-102424497D01*
X221014071Y-102399500D01*
X221014069Y-102399500D01*
X220885931Y-102399500D01*
X220885929Y-102399500D01*
X220760261Y-102424497D01*
X220760255Y-102424499D01*
X220641875Y-102473533D01*
X220641866Y-102473538D01*
X220535331Y-102544723D01*
X220535327Y-102544726D01*
X220444726Y-102635327D01*
X220444723Y-102635331D01*
X220373538Y-102741866D01*
X220373533Y-102741875D01*
X220324499Y-102860255D01*
X220324497Y-102860261D01*
X220299500Y-102985928D01*
X220299500Y-102985931D01*
X220299500Y-103114069D01*
X220299500Y-103114071D01*
X220299499Y-103114071D01*
X220324497Y-103239738D01*
X220324499Y-103239744D01*
X220373533Y-103358124D01*
X220373538Y-103358133D01*
X220444723Y-103464668D01*
X220444725Y-103464671D01*
X220463179Y-103483124D01*
X220496666Y-103544446D01*
X220499500Y-103570807D01*
X220499500Y-104784309D01*
X220518496Y-104855201D01*
X220518495Y-104855201D01*
X220518496Y-104855203D01*
X220530199Y-104898883D01*
X220530200Y-104898885D01*
X220530201Y-104898887D01*
X220589511Y-105001614D01*
X220589513Y-105001616D01*
X221488181Y-105900284D01*
X221521666Y-105961607D01*
X221524500Y-105987965D01*
X221524500Y-106039069D01*
X221524500Y-106039071D01*
X221524499Y-106039071D01*
X221549497Y-106164738D01*
X221549499Y-106164744D01*
X221598533Y-106283124D01*
X221598538Y-106283133D01*
X221669723Y-106389668D01*
X221669726Y-106389672D01*
X221760327Y-106480273D01*
X221760331Y-106480276D01*
X221866866Y-106551461D01*
X221866872Y-106551464D01*
X221866873Y-106551465D01*
X221985256Y-106600501D01*
X222093145Y-106621962D01*
X222155056Y-106654347D01*
X222189630Y-106715062D01*
X222185891Y-106784832D01*
X222156635Y-106831260D01*
X221639513Y-107348383D01*
X221639511Y-107348386D01*
X221580200Y-107451113D01*
X221575461Y-107468797D01*
X221575462Y-107468798D01*
X221549500Y-107565691D01*
X221549500Y-111312035D01*
X221529815Y-111379074D01*
X221513181Y-111399716D01*
X221324716Y-111588181D01*
X221263393Y-111621666D01*
X221237035Y-111624500D01*
X217564334Y-111624500D01*
X217473968Y-111648713D01*
X217473967Y-111648712D01*
X217449758Y-111655200D01*
X217449749Y-111655204D01*
X217347035Y-111714505D01*
X217347027Y-111714511D01*
X217137181Y-111924358D01*
X217075858Y-111957843D01*
X217006166Y-111952859D01*
X216950233Y-111910987D01*
X216925816Y-111845523D01*
X216925500Y-111836677D01*
X216925500Y-111240693D01*
X216925500Y-111240691D01*
X216895877Y-111130136D01*
X216895877Y-111130135D01*
X216894799Y-111126112D01*
X216835492Y-111023389D01*
X216835488Y-111023384D01*
X216717576Y-110905472D01*
X216684091Y-110844149D01*
X216689075Y-110774457D01*
X216730947Y-110718524D01*
X216759607Y-110704017D01*
X216759116Y-110702832D01*
X216764744Y-110700501D01*
X216883127Y-110651465D01*
X216989669Y-110580276D01*
X217080276Y-110489669D01*
X217151465Y-110383127D01*
X217200501Y-110264744D01*
X217216298Y-110185331D01*
X217225500Y-110139071D01*
X217225500Y-110010928D01*
X217200502Y-109885261D01*
X217200501Y-109885260D01*
X217200501Y-109885256D01*
X217151465Y-109766873D01*
X217151464Y-109766872D01*
X217151461Y-109766866D01*
X217080276Y-109660331D01*
X217080273Y-109660327D01*
X217061819Y-109641873D01*
X217028334Y-109580550D01*
X217025500Y-109554192D01*
X217025500Y-108990693D01*
X217025500Y-108990691D01*
X216999834Y-108894905D01*
X216994800Y-108876117D01*
X216994799Y-108876114D01*
X216994799Y-108876113D01*
X216935489Y-108773386D01*
X214521287Y-106359184D01*
X214469923Y-106329529D01*
X214418561Y-106299874D01*
X214402310Y-106295520D01*
X214394346Y-106293386D01*
X214394343Y-106293385D01*
X214335577Y-106277639D01*
X214303982Y-106269173D01*
X214303981Y-106269173D01*
X211490074Y-106269173D01*
X211423035Y-106249488D01*
X211377280Y-106196684D01*
X211368457Y-106169365D01*
X211351727Y-106085261D01*
X211351726Y-106085257D01*
X211351726Y-106085256D01*
X211302690Y-105966873D01*
X211302689Y-105966872D01*
X211302686Y-105966866D01*
X211231501Y-105860331D01*
X211231498Y-105860327D01*
X211140897Y-105769726D01*
X211140893Y-105769723D01*
X211034358Y-105698538D01*
X211034349Y-105698533D01*
X210915969Y-105649499D01*
X210915963Y-105649497D01*
X210790296Y-105624500D01*
X210790294Y-105624500D01*
X210699073Y-105624500D01*
X210632034Y-105604815D01*
X210586279Y-105552011D01*
X210576809Y-105516882D01*
X210576689Y-105516906D01*
X210576332Y-105515113D01*
X210575670Y-105512656D01*
X210575500Y-105510937D01*
X210575500Y-105510931D01*
X210550501Y-105385256D01*
X210508196Y-105283124D01*
X210501466Y-105266875D01*
X210501461Y-105266866D01*
X210430276Y-105160331D01*
X210430273Y-105160327D01*
X210339672Y-105069726D01*
X210339668Y-105069723D01*
X210233133Y-104998538D01*
X210233124Y-104998533D01*
X210114744Y-104949499D01*
X210114738Y-104949497D01*
X209989071Y-104924500D01*
X209989069Y-104924500D01*
X209962965Y-104924500D01*
X209895926Y-104904815D01*
X209875284Y-104888181D01*
X209226616Y-104239513D01*
X209226614Y-104239511D01*
X209173399Y-104208787D01*
X209123888Y-104180201D01*
X209111780Y-104176957D01*
X209099673Y-104173713D01*
X209099670Y-104173712D01*
X209061478Y-104163478D01*
X209009309Y-104149500D01*
X206365691Y-104149500D01*
X206296944Y-104167920D01*
X206251112Y-104180201D01*
X206251107Y-104180204D01*
X206148393Y-104239505D01*
X206148385Y-104239511D01*
X205274716Y-105113181D01*
X205213393Y-105146666D01*
X205187035Y-105149500D01*
X194715691Y-105149500D01*
X194646944Y-105167920D01*
X194601112Y-105180201D01*
X194601107Y-105180204D01*
X194498393Y-105239505D01*
X194498389Y-105239508D01*
X194478054Y-105259843D01*
X194416730Y-105293327D01*
X194347038Y-105288341D01*
X194291105Y-105246469D01*
X194266690Y-105181004D01*
X194268757Y-105147967D01*
X194275500Y-105114070D01*
X194275500Y-104985928D01*
X194250502Y-104860261D01*
X194250501Y-104860260D01*
X194250501Y-104860256D01*
X194206212Y-104753334D01*
X194201466Y-104741875D01*
X194201461Y-104741866D01*
X194130276Y-104635331D01*
X194130273Y-104635327D01*
X194039672Y-104544726D01*
X194039668Y-104544723D01*
X193933133Y-104473538D01*
X193933124Y-104473533D01*
X193814744Y-104424499D01*
X193814738Y-104424497D01*
X193689071Y-104399500D01*
X193689069Y-104399500D01*
X193662965Y-104399500D01*
X193595926Y-104379815D01*
X193575284Y-104363181D01*
X185236819Y-96024716D01*
X185203334Y-95963393D01*
X185200500Y-95937035D01*
X185200500Y-90662965D01*
X185220185Y-90595926D01*
X185236819Y-90575284D01*
X185488316Y-90323787D01*
X185741375Y-90070727D01*
X185802696Y-90037244D01*
X185872387Y-90042228D01*
X185928321Y-90084099D01*
X185952738Y-90149564D01*
X185950673Y-90182591D01*
X185950000Y-90185971D01*
X185950000Y-90850000D01*
X186300000Y-90850000D01*
X186300000Y-91150000D01*
X185950000Y-91150000D01*
X185950000Y-91814023D01*
X185974977Y-91939590D01*
X185974979Y-91939598D01*
X186023978Y-92057891D01*
X186023978Y-92057892D01*
X186095110Y-92164349D01*
X186095116Y-92164356D01*
X186185643Y-92254883D01*
X186185650Y-92254889D01*
X186292108Y-92326021D01*
X186410399Y-92375019D01*
X186410402Y-92375020D01*
X186450000Y-92382896D01*
X186450000Y-92009808D01*
X186484204Y-92029556D01*
X186560504Y-92050000D01*
X186639496Y-92050000D01*
X186715796Y-92029556D01*
X186750000Y-92009808D01*
X186750000Y-92382895D01*
X186789597Y-92375020D01*
X186789600Y-92375019D01*
X186907891Y-92326021D01*
X186907892Y-92326021D01*
X187014349Y-92254889D01*
X187014356Y-92254883D01*
X187104883Y-92164356D01*
X187104889Y-92164349D01*
X187176020Y-92057893D01*
X187188838Y-92026948D01*
X187232679Y-91972544D01*
X187298972Y-91950478D01*
X187366672Y-91967756D01*
X187414283Y-92018893D01*
X187423175Y-92042305D01*
X187460778Y-92182640D01*
X187460780Y-92182645D01*
X187488027Y-92229840D01*
X187737867Y-91979999D01*
X187488026Y-91730158D01*
X187488026Y-91730159D01*
X187481388Y-91741657D01*
X187430822Y-91789874D01*
X187362215Y-91803098D01*
X187297350Y-91777131D01*
X187256820Y-91720217D01*
X187250000Y-91679659D01*
X187250000Y-91150000D01*
X186900000Y-91150000D01*
X186900000Y-90850000D01*
X187249998Y-90850000D01*
X187275712Y-90824286D01*
X187337035Y-90790801D01*
X187406727Y-90795785D01*
X187462661Y-90837656D01*
X187470782Y-90849969D01*
X187488027Y-90879839D01*
X187737867Y-90629999D01*
X187488026Y-90380158D01*
X187488026Y-90380159D01*
X187481388Y-90391657D01*
X187430822Y-90439874D01*
X187362215Y-90453098D01*
X187297350Y-90427131D01*
X187256820Y-90370217D01*
X187250000Y-90329659D01*
X187250000Y-90185980D01*
X187249999Y-90185976D01*
X187225022Y-90060409D01*
X187225020Y-90060401D01*
X187176023Y-89942112D01*
X187126764Y-89868390D01*
X187105887Y-89801713D01*
X187124372Y-89734333D01*
X187176351Y-89687643D01*
X187229867Y-89675500D01*
X188812035Y-89675500D01*
X188879074Y-89695185D01*
X188899716Y-89711819D01*
X188985487Y-89797590D01*
X189018972Y-89858913D01*
X189013988Y-89928605D01*
X188972116Y-89984538D01*
X188906652Y-90008955D01*
X188873617Y-90006889D01*
X188861606Y-90004500D01*
X188738394Y-90004500D01*
X188738389Y-90004500D01*
X188617555Y-90028535D01*
X188617545Y-90028538D01*
X188503716Y-90075687D01*
X188503707Y-90075692D01*
X188401267Y-90144141D01*
X188401263Y-90144144D01*
X188379676Y-90165732D01*
X188318353Y-90199217D01*
X188248661Y-90194233D01*
X188229994Y-90185438D01*
X188152643Y-90140779D01*
X188019115Y-90105000D01*
X187880885Y-90105000D01*
X187747353Y-90140779D01*
X187700159Y-90168026D01*
X187700158Y-90168026D01*
X187962132Y-90430000D01*
X187910218Y-90430000D01*
X187836709Y-90460448D01*
X187780448Y-90516709D01*
X187750000Y-90590218D01*
X187750000Y-90669782D01*
X187780448Y-90743291D01*
X187836709Y-90799552D01*
X187910218Y-90830000D01*
X187962130Y-90830000D01*
X187700158Y-91091971D01*
X187747357Y-91119221D01*
X187747356Y-91119221D01*
X187880885Y-91155000D01*
X188019115Y-91155000D01*
X188152643Y-91119220D01*
X188229994Y-91074562D01*
X188297894Y-91058089D01*
X188362224Y-91079754D01*
X188371620Y-91086211D01*
X188401267Y-91115858D01*
X188503714Y-91184311D01*
X188530541Y-91195423D01*
X188541283Y-91202805D01*
X188555443Y-91220204D01*
X188572911Y-91234281D01*
X188577070Y-91246779D01*
X188585386Y-91256997D01*
X188587891Y-91279291D01*
X188594975Y-91300576D01*
X188591717Y-91313339D01*
X188593188Y-91326430D01*
X188583243Y-91346537D01*
X188577695Y-91368275D01*
X188568053Y-91377251D01*
X188562214Y-91389058D01*
X188542978Y-91400596D01*
X188526557Y-91415885D01*
X188518508Y-91419560D01*
X188503722Y-91425684D01*
X188503707Y-91425692D01*
X188401267Y-91494141D01*
X188401263Y-91494144D01*
X188379676Y-91515732D01*
X188318353Y-91549217D01*
X188248661Y-91544233D01*
X188229994Y-91535438D01*
X188152643Y-91490779D01*
X188019115Y-91455000D01*
X187880885Y-91455000D01*
X187747353Y-91490779D01*
X187700159Y-91518026D01*
X187700158Y-91518026D01*
X187962132Y-91780000D01*
X187910218Y-91780000D01*
X187836709Y-91810448D01*
X187780448Y-91866709D01*
X187750000Y-91940218D01*
X187750000Y-92019782D01*
X187780448Y-92093291D01*
X187836709Y-92149552D01*
X187910218Y-92180000D01*
X187962130Y-92180000D01*
X187700158Y-92441971D01*
X187747357Y-92469221D01*
X187747356Y-92469221D01*
X187880885Y-92505000D01*
X188019115Y-92505000D01*
X188152643Y-92469220D01*
X188229994Y-92424562D01*
X188297894Y-92408089D01*
X188363921Y-92430941D01*
X188379676Y-92444268D01*
X188401263Y-92465855D01*
X188401267Y-92465858D01*
X188503707Y-92534307D01*
X188503713Y-92534310D01*
X188503714Y-92534311D01*
X188617548Y-92581463D01*
X188738389Y-92605499D01*
X188738393Y-92605500D01*
X188738394Y-92605500D01*
X188861607Y-92605500D01*
X188861608Y-92605499D01*
X188982452Y-92581463D01*
X189096286Y-92534311D01*
X189096291Y-92534307D01*
X189096294Y-92534306D01*
X189156108Y-92494339D01*
X189222785Y-92473460D01*
X189290165Y-92491944D01*
X189293892Y-92494339D01*
X189353705Y-92534306D01*
X189353713Y-92534310D01*
X189353714Y-92534311D01*
X189467548Y-92581463D01*
X189588389Y-92605499D01*
X189588393Y-92605500D01*
X189588394Y-92605500D01*
X189711607Y-92605500D01*
X189711608Y-92605499D01*
X189832452Y-92581463D01*
X189946286Y-92534311D01*
X189946291Y-92534307D01*
X189946294Y-92534306D01*
X190006108Y-92494339D01*
X190072785Y-92473460D01*
X190140165Y-92491944D01*
X190143892Y-92494339D01*
X190203705Y-92534306D01*
X190203713Y-92534310D01*
X190203714Y-92534311D01*
X190317548Y-92581463D01*
X190438389Y-92605499D01*
X190438393Y-92605500D01*
X190438394Y-92605500D01*
X190561607Y-92605500D01*
X190561608Y-92605499D01*
X190682452Y-92581463D01*
X190796286Y-92534311D01*
X190796291Y-92534307D01*
X190796294Y-92534306D01*
X190856108Y-92494339D01*
X190922785Y-92473460D01*
X190990165Y-92491944D01*
X190993892Y-92494339D01*
X191053705Y-92534306D01*
X191053713Y-92534310D01*
X191053714Y-92534311D01*
X191167548Y-92581463D01*
X191288389Y-92605499D01*
X191288393Y-92605500D01*
X191288394Y-92605500D01*
X191411607Y-92605500D01*
X191411608Y-92605499D01*
X191532452Y-92581463D01*
X191646286Y-92534311D01*
X191646290Y-92534307D01*
X191651661Y-92531438D01*
X191652809Y-92533587D01*
X191709222Y-92515896D01*
X191776611Y-92534350D01*
X191823324Y-92586307D01*
X191826052Y-92592419D01*
X191826791Y-92594204D01*
X191826793Y-92594207D01*
X191879520Y-92685532D01*
X192264468Y-93070480D01*
X192355793Y-93123207D01*
X192457654Y-93150500D01*
X198160290Y-93150500D01*
X198227329Y-93170185D01*
X198273084Y-93222989D01*
X198283028Y-93292147D01*
X198281907Y-93298692D01*
X198274500Y-93335928D01*
X198274500Y-93335931D01*
X198274500Y-93464069D01*
X198274500Y-93464071D01*
X198274499Y-93464071D01*
X198299497Y-93589738D01*
X198299499Y-93589744D01*
X198348533Y-93708124D01*
X198348538Y-93708133D01*
X198419723Y-93814668D01*
X198419726Y-93814672D01*
X198510327Y-93905273D01*
X198510331Y-93905276D01*
X198616866Y-93976461D01*
X198616872Y-93976464D01*
X198616873Y-93976465D01*
X198735256Y-94025501D01*
X198735260Y-94025501D01*
X198735261Y-94025502D01*
X198860928Y-94050500D01*
X198860931Y-94050500D01*
X198989071Y-94050500D01*
X199073615Y-94033682D01*
X199114744Y-94025501D01*
X199233127Y-93976465D01*
X199339669Y-93905276D01*
X199430276Y-93814669D01*
X199501465Y-93708127D01*
X199550501Y-93589744D01*
X199569447Y-93494500D01*
X199575500Y-93464071D01*
X199575500Y-93335928D01*
X199568093Y-93298692D01*
X199569970Y-93277707D01*
X199566972Y-93256853D01*
X199573022Y-93243605D01*
X199574320Y-93229100D01*
X199587244Y-93212462D01*
X199595997Y-93193297D01*
X199608249Y-93185422D01*
X199617183Y-93173923D01*
X199637049Y-93166914D01*
X199654775Y-93155523D01*
X199679357Y-93151988D01*
X199683072Y-93150678D01*
X199689710Y-93150500D01*
X199782745Y-93150500D01*
X199849784Y-93170185D01*
X199870426Y-93186819D01*
X205379087Y-98695480D01*
X205470412Y-98748207D01*
X205572273Y-98775500D01*
X205677727Y-98775500D01*
X213957745Y-98775500D01*
X214024784Y-98795185D01*
X214045426Y-98811819D01*
X216163181Y-100929574D01*
X216196666Y-100990897D01*
X216199500Y-101017255D01*
X216199500Y-104404192D01*
X216179815Y-104471231D01*
X216163181Y-104491873D01*
X216094726Y-104560327D01*
X216094723Y-104560331D01*
X216023538Y-104666866D01*
X216023533Y-104666875D01*
X215974499Y-104785255D01*
X215974497Y-104785261D01*
X215949500Y-104910928D01*
X215949500Y-104910931D01*
X215949500Y-105039069D01*
X215949500Y-105039071D01*
X215949499Y-105039071D01*
X215974497Y-105164738D01*
X215974499Y-105164744D01*
X216023533Y-105283124D01*
X216023538Y-105283133D01*
X216094723Y-105389668D01*
X216094726Y-105389672D01*
X216185327Y-105480273D01*
X216185331Y-105480276D01*
X216291866Y-105551461D01*
X216291875Y-105551466D01*
X216307949Y-105558124D01*
X216410256Y-105600501D01*
X216410260Y-105600501D01*
X216410261Y-105600502D01*
X216535928Y-105625500D01*
X216535931Y-105625500D01*
X216664071Y-105625500D01*
X216751376Y-105608133D01*
X216789744Y-105600501D01*
X216908127Y-105551465D01*
X217014669Y-105480276D01*
X217105276Y-105389669D01*
X217176465Y-105283127D01*
X217225501Y-105164744D01*
X217244402Y-105069724D01*
X217250500Y-105039071D01*
X217250500Y-104910928D01*
X217225502Y-104785261D01*
X217225501Y-104785260D01*
X217225501Y-104785256D01*
X217176465Y-104666873D01*
X217176464Y-104666872D01*
X217176461Y-104666866D01*
X217105276Y-104560331D01*
X217105273Y-104560327D01*
X217036819Y-104491873D01*
X217003334Y-104430550D01*
X217000500Y-104404192D01*
X217000500Y-100747273D01*
X217000499Y-100747269D01*
X216989251Y-100705290D01*
X216989124Y-100704815D01*
X216973207Y-100645412D01*
X216920480Y-100554087D01*
X214420913Y-98054520D01*
X214375250Y-98028156D01*
X214329589Y-98001793D01*
X214278657Y-97988146D01*
X214227727Y-97974500D01*
X214227726Y-97974500D01*
X205842255Y-97974500D01*
X205775216Y-97954815D01*
X205754574Y-97938181D01*
X200331995Y-92515602D01*
X217099500Y-92515602D01*
X217099500Y-92784397D01*
X217134582Y-93050880D01*
X217134583Y-93050885D01*
X217134584Y-93050891D01*
X217138296Y-93064744D01*
X217204152Y-93310524D01*
X217307011Y-93558850D01*
X217307019Y-93558866D01*
X217358787Y-93648529D01*
X217441413Y-93791641D01*
X217441415Y-93791644D01*
X217441416Y-93791645D01*
X217605042Y-94004888D01*
X217605048Y-94004895D01*
X217795104Y-94194951D01*
X217795111Y-94194957D01*
X217920387Y-94291084D01*
X218008359Y-94358587D01*
X218157781Y-94444856D01*
X218241133Y-94492980D01*
X218241149Y-94492988D01*
X218358300Y-94541513D01*
X218489474Y-94595847D01*
X218749109Y-94665416D01*
X218937319Y-94690193D01*
X219015602Y-94700500D01*
X219015603Y-94700500D01*
X219284398Y-94700500D01*
X219344905Y-94692534D01*
X219550891Y-94665416D01*
X219810526Y-94595847D01*
X219997457Y-94518417D01*
X220058850Y-94492988D01*
X220058853Y-94492986D01*
X220058859Y-94492984D01*
X220291641Y-94358587D01*
X220504890Y-94194956D01*
X220694956Y-94004890D01*
X220858587Y-93791641D01*
X220992984Y-93558859D01*
X221095847Y-93310526D01*
X221165416Y-93050891D01*
X221200500Y-92784397D01*
X221200500Y-92515603D01*
X221165416Y-92249109D01*
X221095847Y-91989474D01*
X221044325Y-91865088D01*
X220992988Y-91741149D01*
X220992980Y-91741133D01*
X220944964Y-91657968D01*
X220858587Y-91508359D01*
X220740527Y-91354500D01*
X220694957Y-91295111D01*
X220694951Y-91295104D01*
X220504895Y-91105048D01*
X220504888Y-91105042D01*
X220302741Y-90949930D01*
X220291645Y-90941416D01*
X220291644Y-90941415D01*
X220291641Y-90941413D01*
X220165072Y-90868338D01*
X220142197Y-90855131D01*
X222099500Y-90855131D01*
X222099500Y-94444856D01*
X222099502Y-94444882D01*
X222102413Y-94469987D01*
X222102415Y-94469991D01*
X222147793Y-94572764D01*
X222147794Y-94572765D01*
X222227235Y-94652206D01*
X222330009Y-94697585D01*
X222355135Y-94700500D01*
X225944864Y-94700499D01*
X225944879Y-94700497D01*
X225944882Y-94700497D01*
X225969987Y-94697586D01*
X225969988Y-94697585D01*
X225969991Y-94697585D01*
X226072765Y-94652206D01*
X226152206Y-94572765D01*
X226197585Y-94469991D01*
X226200500Y-94444865D01*
X226200499Y-90855136D01*
X226200497Y-90855117D01*
X226197586Y-90830012D01*
X226197585Y-90830010D01*
X226197585Y-90830009D01*
X226152206Y-90727235D01*
X226072765Y-90647794D01*
X226056246Y-90640500D01*
X225969992Y-90602415D01*
X225944865Y-90599500D01*
X222355143Y-90599500D01*
X222355117Y-90599502D01*
X222330012Y-90602413D01*
X222330008Y-90602415D01*
X222227235Y-90647793D01*
X222147794Y-90727234D01*
X222102415Y-90830006D01*
X222102415Y-90830008D01*
X222099500Y-90855131D01*
X220142197Y-90855131D01*
X220058866Y-90807019D01*
X220058850Y-90807011D01*
X219810524Y-90704152D01*
X219656810Y-90662965D01*
X219550891Y-90634584D01*
X219550885Y-90634583D01*
X219550880Y-90634582D01*
X219284398Y-90599500D01*
X219284397Y-90599500D01*
X219015603Y-90599500D01*
X219015602Y-90599500D01*
X218749119Y-90634582D01*
X218749112Y-90634583D01*
X218749109Y-90634584D01*
X218727012Y-90640505D01*
X218489475Y-90704152D01*
X218241149Y-90807011D01*
X218241133Y-90807019D01*
X218008354Y-90941416D01*
X217795111Y-91105042D01*
X217795104Y-91105048D01*
X217605048Y-91295104D01*
X217605042Y-91295111D01*
X217441416Y-91508354D01*
X217307019Y-91741133D01*
X217307011Y-91741149D01*
X217204152Y-91989475D01*
X217134585Y-92249106D01*
X217134582Y-92249119D01*
X217099500Y-92515602D01*
X200331995Y-92515602D01*
X200245915Y-92429522D01*
X200245913Y-92429520D01*
X200200250Y-92403156D01*
X200154589Y-92376793D01*
X200103657Y-92363146D01*
X200052727Y-92349500D01*
X200052726Y-92349500D01*
X195896571Y-92349500D01*
X195829532Y-92329815D01*
X195783777Y-92277011D01*
X195773833Y-92207853D01*
X195793469Y-92156609D01*
X195826022Y-92107889D01*
X195875020Y-91989598D01*
X195875022Y-91989590D01*
X195899999Y-91864023D01*
X195900000Y-91864020D01*
X195900000Y-91200000D01*
X195550000Y-91200000D01*
X195550000Y-90900000D01*
X195900000Y-90900000D01*
X195900000Y-90235980D01*
X195899999Y-90235976D01*
X195875022Y-90110409D01*
X195875020Y-90110401D01*
X195826021Y-89992108D01*
X195826021Y-89992107D01*
X195754889Y-89885650D01*
X195754883Y-89885643D01*
X195664356Y-89795116D01*
X195664349Y-89795110D01*
X195557891Y-89723978D01*
X195439599Y-89674979D01*
X195439593Y-89674977D01*
X195400000Y-89667101D01*
X195400000Y-90040191D01*
X195365796Y-90020444D01*
X195289496Y-90000000D01*
X195210504Y-90000000D01*
X195134204Y-90020444D01*
X195100000Y-90040191D01*
X195100000Y-89667102D01*
X195099999Y-89667101D01*
X195060406Y-89674977D01*
X195060400Y-89674979D01*
X194942108Y-89723978D01*
X194942107Y-89723978D01*
X194835650Y-89795110D01*
X194835643Y-89795116D01*
X194745116Y-89885643D01*
X194745110Y-89885650D01*
X194673978Y-89992107D01*
X194673978Y-89992108D01*
X194624979Y-90110401D01*
X194624977Y-90110409D01*
X194600000Y-90235976D01*
X194600000Y-90329661D01*
X194580315Y-90396700D01*
X194527511Y-90442455D01*
X194458353Y-90452399D01*
X194394797Y-90423374D01*
X194368613Y-90391660D01*
X194361973Y-90380159D01*
X194361971Y-90380158D01*
X194112130Y-90629999D01*
X194361971Y-90879840D01*
X194361972Y-90879840D01*
X194368613Y-90868338D01*
X194419180Y-90820122D01*
X194487787Y-90806899D01*
X194552652Y-90832867D01*
X194593180Y-90889782D01*
X194593866Y-90893866D01*
X194600000Y-90900000D01*
X194950000Y-90900000D01*
X194950000Y-91200000D01*
X194600000Y-91200000D01*
X194600000Y-91679661D01*
X194580315Y-91746700D01*
X194527511Y-91792455D01*
X194458353Y-91802399D01*
X194394797Y-91773374D01*
X194368613Y-91741660D01*
X194361973Y-91730159D01*
X194361971Y-91730158D01*
X194100000Y-91992129D01*
X194100000Y-91940218D01*
X194069552Y-91866709D01*
X194013291Y-91810448D01*
X193939782Y-91780000D01*
X193887866Y-91780000D01*
X194149839Y-91518027D01*
X194102645Y-91490780D01*
X194102640Y-91490778D01*
X193969115Y-91455000D01*
X193830885Y-91455000D01*
X193697355Y-91490779D01*
X193620003Y-91535438D01*
X193552103Y-91551910D01*
X193487775Y-91530245D01*
X193478379Y-91523788D01*
X193448733Y-91494142D01*
X193346286Y-91425689D01*
X193319455Y-91414575D01*
X193308716Y-91407195D01*
X193294555Y-91389795D01*
X193277089Y-91375720D01*
X193272928Y-91363221D01*
X193264614Y-91353004D01*
X193262108Y-91330712D01*
X193255024Y-91309426D01*
X193258282Y-91296660D01*
X193256811Y-91283571D01*
X193266755Y-91263463D01*
X193272303Y-91241727D01*
X193281944Y-91232750D01*
X193287784Y-91220942D01*
X193307021Y-91209402D01*
X193323440Y-91194116D01*
X193331493Y-91190439D01*
X193346279Y-91184314D01*
X193346279Y-91184313D01*
X193346286Y-91184311D01*
X193448733Y-91115858D01*
X193470323Y-91094267D01*
X193531641Y-91060783D01*
X193601333Y-91065765D01*
X193620005Y-91074562D01*
X193697352Y-91119219D01*
X193697353Y-91119220D01*
X193830885Y-91155000D01*
X193969115Y-91155000D01*
X194102645Y-91119220D01*
X194149840Y-91091972D01*
X194149840Y-91091971D01*
X193887869Y-90830000D01*
X193939782Y-90830000D01*
X194013291Y-90799552D01*
X194069552Y-90743291D01*
X194100000Y-90669782D01*
X194100000Y-90590218D01*
X194069552Y-90516709D01*
X194013291Y-90460448D01*
X193939782Y-90430000D01*
X193887866Y-90430000D01*
X194149839Y-90168027D01*
X194102645Y-90140780D01*
X194102640Y-90140778D01*
X193969115Y-90105000D01*
X193830885Y-90105000D01*
X193697355Y-90140779D01*
X193620003Y-90185438D01*
X193552103Y-90201910D01*
X193486076Y-90179057D01*
X193470323Y-90165731D01*
X193448736Y-90144144D01*
X193448732Y-90144141D01*
X193346292Y-90075692D01*
X193346283Y-90075687D01*
X193253472Y-90037244D01*
X193232452Y-90028537D01*
X193232448Y-90028536D01*
X193232444Y-90028535D01*
X193111610Y-90004500D01*
X193111606Y-90004500D01*
X192988394Y-90004500D01*
X192988389Y-90004500D01*
X192867555Y-90028535D01*
X192867545Y-90028538D01*
X192753716Y-90075687D01*
X192753707Y-90075692D01*
X192693891Y-90115661D01*
X192627214Y-90136539D01*
X192559833Y-90118055D01*
X192556109Y-90115661D01*
X192496292Y-90075692D01*
X192496283Y-90075687D01*
X192403472Y-90037244D01*
X192382452Y-90028537D01*
X192382448Y-90028536D01*
X192382444Y-90028535D01*
X192261610Y-90004500D01*
X192261606Y-90004500D01*
X192138394Y-90004500D01*
X192138389Y-90004500D01*
X192017555Y-90028535D01*
X192017545Y-90028538D01*
X191903716Y-90075687D01*
X191903707Y-90075692D01*
X191843891Y-90115661D01*
X191777214Y-90136539D01*
X191709833Y-90118055D01*
X191706109Y-90115661D01*
X191646292Y-90075692D01*
X191646283Y-90075687D01*
X191553472Y-90037244D01*
X191532452Y-90028537D01*
X191532448Y-90028536D01*
X191532444Y-90028535D01*
X191411610Y-90004500D01*
X191411606Y-90004500D01*
X191288394Y-90004500D01*
X191288389Y-90004500D01*
X191167555Y-90028535D01*
X191167545Y-90028538D01*
X191053716Y-90075687D01*
X191053707Y-90075692D01*
X190993891Y-90115661D01*
X190927214Y-90136539D01*
X190859833Y-90118055D01*
X190856109Y-90115661D01*
X190796292Y-90075692D01*
X190796283Y-90075687D01*
X190703472Y-90037244D01*
X190682452Y-90028537D01*
X190682448Y-90028536D01*
X190682444Y-90028535D01*
X190561610Y-90004500D01*
X190561606Y-90004500D01*
X190438394Y-90004500D01*
X190438389Y-90004500D01*
X190317555Y-90028535D01*
X190317541Y-90028539D01*
X190271952Y-90047423D01*
X190202483Y-90054892D01*
X190140004Y-90023617D01*
X190104352Y-89963527D01*
X190100500Y-89932862D01*
X190100500Y-89765693D01*
X190100500Y-89765691D01*
X190069799Y-89651114D01*
X190069799Y-89651113D01*
X190010489Y-89548386D01*
X189326614Y-88864511D01*
X189257314Y-88824500D01*
X189223888Y-88805201D01*
X189211780Y-88801957D01*
X189199673Y-88798713D01*
X189199670Y-88798712D01*
X189160367Y-88788181D01*
X189117038Y-88776571D01*
X212649499Y-88776571D01*
X212674497Y-88902238D01*
X212674499Y-88902244D01*
X212723533Y-89020624D01*
X212723538Y-89020633D01*
X212794723Y-89127168D01*
X212794726Y-89127172D01*
X212885327Y-89217773D01*
X212885331Y-89217776D01*
X212991866Y-89288961D01*
X212991879Y-89288968D01*
X213047252Y-89311904D01*
X213110256Y-89338001D01*
X213119198Y-89339779D01*
X213181109Y-89372162D01*
X213182691Y-89373716D01*
X213624485Y-89815510D01*
X213624487Y-89815511D01*
X213624491Y-89815514D01*
X213743650Y-89884310D01*
X213743651Y-89884310D01*
X213746847Y-89886155D01*
X213750015Y-89887984D01*
X213890025Y-89925500D01*
X227610079Y-89925500D01*
X227677118Y-89945185D01*
X227697760Y-89961819D01*
X230965774Y-93229832D01*
X230999259Y-93291155D01*
X230994275Y-93360847D01*
X230993720Y-93362306D01*
X230974626Y-93411594D01*
X230974626Y-93523940D01*
X230996930Y-93581513D01*
X231015211Y-93628700D01*
X231030909Y-93648519D01*
X231030917Y-93648529D01*
X231801466Y-94419077D01*
X231801470Y-94419080D01*
X231801472Y-94419082D01*
X231821300Y-94434789D01*
X231926060Y-94475374D01*
X231926062Y-94475374D01*
X232038406Y-94475374D01*
X232143166Y-94434789D01*
X232162994Y-94419084D01*
X232933548Y-93648528D01*
X232949255Y-93628700D01*
X232989840Y-93523940D01*
X232989840Y-93411594D01*
X242674626Y-93411594D01*
X242674626Y-93523940D01*
X242696930Y-93581513D01*
X242715211Y-93628700D01*
X242730909Y-93648519D01*
X242730917Y-93648529D01*
X243501466Y-94419077D01*
X243501470Y-94419080D01*
X243501472Y-94419082D01*
X243521300Y-94434789D01*
X243626060Y-94475374D01*
X243626062Y-94475374D01*
X243738406Y-94475374D01*
X243843166Y-94434789D01*
X243862994Y-94419084D01*
X244633548Y-93648528D01*
X244649255Y-93628700D01*
X244689840Y-93523940D01*
X244689840Y-93411594D01*
X244649255Y-93306834D01*
X244633550Y-93287006D01*
X244469750Y-93123206D01*
X243862999Y-92516456D01*
X243843166Y-92500745D01*
X243843163Y-92500744D01*
X243738406Y-92460160D01*
X243626060Y-92460160D01*
X243521299Y-92500745D01*
X243501480Y-92516443D01*
X243501470Y-92516451D01*
X242730922Y-93287000D01*
X242715211Y-93306833D01*
X242715210Y-93306836D01*
X242700291Y-93345344D01*
X242674626Y-93411594D01*
X232989840Y-93411594D01*
X232949255Y-93306834D01*
X232933550Y-93287006D01*
X232769750Y-93123206D01*
X232162999Y-92516456D01*
X232143166Y-92500745D01*
X232143163Y-92500744D01*
X232038406Y-92460160D01*
X231926060Y-92460160D01*
X231876772Y-92479254D01*
X231807149Y-92485116D01*
X231745409Y-92452405D01*
X231744298Y-92451308D01*
X229429576Y-90136585D01*
X229075223Y-89782232D01*
X234833889Y-89782232D01*
X234833890Y-89782233D01*
X235200224Y-89782233D01*
X235191619Y-89797138D01*
X235167767Y-89886155D01*
X235167767Y-89978311D01*
X235191619Y-90067328D01*
X235200224Y-90082233D01*
X234833890Y-90082233D01*
X234844666Y-90136409D01*
X234844668Y-90136417D01*
X234897431Y-90263799D01*
X234897438Y-90263812D01*
X234974042Y-90378459D01*
X235071540Y-90475957D01*
X235186187Y-90552561D01*
X235186200Y-90552568D01*
X235313581Y-90605330D01*
X235313593Y-90605333D01*
X235367766Y-90616109D01*
X235367767Y-90616109D01*
X235367767Y-90249775D01*
X235382672Y-90258381D01*
X235471689Y-90282233D01*
X235563845Y-90282233D01*
X235652862Y-90258381D01*
X235667767Y-90249775D01*
X235667767Y-90616109D01*
X235721940Y-90605333D01*
X235721952Y-90605330D01*
X235849333Y-90552568D01*
X235849346Y-90552561D01*
X235963993Y-90475957D01*
X236061491Y-90378459D01*
X236138095Y-90263812D01*
X236138102Y-90263799D01*
X236190865Y-90136417D01*
X236190867Y-90136409D01*
X236201644Y-90082233D01*
X235835310Y-90082233D01*
X235843915Y-90067328D01*
X235867767Y-89978311D01*
X235867767Y-89886155D01*
X235843915Y-89797138D01*
X235835310Y-89782233D01*
X236201644Y-89782233D01*
X236201644Y-89782232D01*
X246533889Y-89782232D01*
X246533890Y-89782233D01*
X246900224Y-89782233D01*
X246891619Y-89797138D01*
X246867767Y-89886155D01*
X246867767Y-89978311D01*
X246891619Y-90067328D01*
X246900224Y-90082233D01*
X246533890Y-90082233D01*
X246544666Y-90136409D01*
X246544668Y-90136417D01*
X246597431Y-90263799D01*
X246597438Y-90263812D01*
X246674042Y-90378459D01*
X246771540Y-90475957D01*
X246886187Y-90552561D01*
X246886200Y-90552568D01*
X247013581Y-90605330D01*
X247013593Y-90605333D01*
X247067766Y-90616109D01*
X247067767Y-90616109D01*
X247067767Y-90249775D01*
X247082672Y-90258381D01*
X247171689Y-90282233D01*
X247263845Y-90282233D01*
X247352862Y-90258381D01*
X247367767Y-90249775D01*
X247367767Y-90616109D01*
X247421940Y-90605333D01*
X247421952Y-90605330D01*
X247549333Y-90552568D01*
X247549346Y-90552561D01*
X247663993Y-90475957D01*
X247761491Y-90378459D01*
X247838095Y-90263812D01*
X247838102Y-90263799D01*
X247890865Y-90136417D01*
X247890867Y-90136409D01*
X247901644Y-90082233D01*
X247535310Y-90082233D01*
X247543915Y-90067328D01*
X247567767Y-89978311D01*
X247567767Y-89886155D01*
X247543915Y-89797138D01*
X247535310Y-89782233D01*
X247901644Y-89782233D01*
X247901644Y-89782232D01*
X247890867Y-89728056D01*
X247890865Y-89728048D01*
X247838102Y-89600666D01*
X247838095Y-89600653D01*
X247761491Y-89486006D01*
X247663993Y-89388508D01*
X247549346Y-89311904D01*
X247549333Y-89311897D01*
X247421951Y-89259134D01*
X247421943Y-89259132D01*
X247367767Y-89248355D01*
X247367767Y-89614690D01*
X247352862Y-89606085D01*
X247263845Y-89582233D01*
X247171689Y-89582233D01*
X247082672Y-89606085D01*
X247067767Y-89614690D01*
X247067767Y-89248356D01*
X247067766Y-89248355D01*
X247013590Y-89259132D01*
X247013582Y-89259134D01*
X246886200Y-89311897D01*
X246886187Y-89311904D01*
X246771540Y-89388508D01*
X246674042Y-89486006D01*
X246597438Y-89600653D01*
X246597431Y-89600666D01*
X246544668Y-89728048D01*
X246544666Y-89728056D01*
X246533889Y-89782232D01*
X236201644Y-89782232D01*
X236190867Y-89728056D01*
X236190865Y-89728048D01*
X236138102Y-89600666D01*
X236138095Y-89600653D01*
X236061491Y-89486006D01*
X235963993Y-89388508D01*
X235849346Y-89311904D01*
X235849333Y-89311897D01*
X235721951Y-89259134D01*
X235721943Y-89259132D01*
X235667767Y-89248355D01*
X235667767Y-89614690D01*
X235652862Y-89606085D01*
X235563845Y-89582233D01*
X235471689Y-89582233D01*
X235382672Y-89606085D01*
X235367767Y-89614690D01*
X235367767Y-89248356D01*
X235367766Y-89248355D01*
X235313590Y-89259132D01*
X235313582Y-89259134D01*
X235186200Y-89311897D01*
X235186187Y-89311904D01*
X235071540Y-89388508D01*
X234974042Y-89486006D01*
X234897438Y-89600653D01*
X234897431Y-89600666D01*
X234844668Y-89728048D01*
X234844666Y-89728056D01*
X234833889Y-89782232D01*
X229075223Y-89782232D01*
X228227482Y-88934491D01*
X228227481Y-88934490D01*
X228101951Y-88862016D01*
X228101946Y-88862014D01*
X228037698Y-88844798D01*
X228037698Y-88844799D01*
X227983463Y-88830267D01*
X227961941Y-88824500D01*
X227961940Y-88824500D01*
X227552328Y-88824500D01*
X227485289Y-88804815D01*
X227439534Y-88752011D01*
X227429590Y-88682853D01*
X227458615Y-88619297D01*
X227504876Y-88585939D01*
X227623907Y-88536635D01*
X227623907Y-88536634D01*
X227623914Y-88536632D01*
X227787782Y-88427139D01*
X227927139Y-88287782D01*
X228036632Y-88123914D01*
X228112051Y-87941835D01*
X228127775Y-87862784D01*
X228150500Y-87748543D01*
X228150500Y-87551456D01*
X228112052Y-87358170D01*
X228112051Y-87358169D01*
X228112051Y-87358165D01*
X228102884Y-87336033D01*
X228036635Y-87176092D01*
X228036628Y-87176079D01*
X227927139Y-87012218D01*
X227927136Y-87012214D01*
X227787785Y-86872863D01*
X227787781Y-86872860D01*
X227623920Y-86763371D01*
X227623907Y-86763364D01*
X227441839Y-86687950D01*
X227441829Y-86687947D01*
X227248543Y-86649500D01*
X227248541Y-86649500D01*
X227051459Y-86649500D01*
X227051457Y-86649500D01*
X226858170Y-86687947D01*
X226858160Y-86687950D01*
X226676092Y-86763364D01*
X226676079Y-86763371D01*
X226512218Y-86872860D01*
X226512214Y-86872863D01*
X226372863Y-87012214D01*
X226372860Y-87012218D01*
X226263371Y-87176079D01*
X226263364Y-87176092D01*
X226187950Y-87358160D01*
X226187947Y-87358170D01*
X226149500Y-87551456D01*
X226149500Y-87551459D01*
X226149500Y-87748541D01*
X226149500Y-87748543D01*
X226149499Y-87748543D01*
X226187947Y-87941829D01*
X226187950Y-87941839D01*
X226263364Y-88123907D01*
X226263371Y-88123920D01*
X226372860Y-88287781D01*
X226372863Y-88287785D01*
X226512214Y-88427136D01*
X226512218Y-88427139D01*
X226676079Y-88536628D01*
X226676092Y-88536635D01*
X226795124Y-88585939D01*
X226849528Y-88629779D01*
X226871593Y-88696074D01*
X226854314Y-88763773D01*
X226803177Y-88811384D01*
X226747672Y-88824500D01*
X216552328Y-88824500D01*
X216485289Y-88804815D01*
X216439534Y-88752011D01*
X216429590Y-88682853D01*
X216458615Y-88619297D01*
X216504876Y-88585939D01*
X216623907Y-88536635D01*
X216623907Y-88536634D01*
X216623914Y-88536632D01*
X216787782Y-88427139D01*
X216927139Y-88287782D01*
X217036632Y-88123914D01*
X217112051Y-87941835D01*
X217127775Y-87862784D01*
X217150500Y-87748543D01*
X217150500Y-87551456D01*
X217112052Y-87358170D01*
X217112051Y-87358169D01*
X217112051Y-87358165D01*
X217102884Y-87336033D01*
X217036635Y-87176092D01*
X217036628Y-87176079D01*
X216927139Y-87012218D01*
X216927136Y-87012214D01*
X216787785Y-86872863D01*
X216787781Y-86872860D01*
X216623920Y-86763371D01*
X216623907Y-86763364D01*
X216441839Y-86687950D01*
X216441829Y-86687947D01*
X216248543Y-86649500D01*
X216248541Y-86649500D01*
X216051459Y-86649500D01*
X216051457Y-86649500D01*
X215858170Y-86687947D01*
X215858160Y-86687950D01*
X215676092Y-86763364D01*
X215676079Y-86763371D01*
X215512218Y-86872860D01*
X215512214Y-86872863D01*
X215372863Y-87012214D01*
X215372860Y-87012218D01*
X215263371Y-87176079D01*
X215263364Y-87176092D01*
X215187950Y-87358160D01*
X215187947Y-87358170D01*
X215149500Y-87551456D01*
X215149500Y-87551459D01*
X215149500Y-87748541D01*
X215149500Y-87748543D01*
X215149499Y-87748543D01*
X215187947Y-87941829D01*
X215187950Y-87941839D01*
X215263364Y-88123907D01*
X215263371Y-88123920D01*
X215372860Y-88287781D01*
X215372863Y-88287785D01*
X215512214Y-88427136D01*
X215512218Y-88427139D01*
X215676079Y-88536628D01*
X215676092Y-88536635D01*
X215795124Y-88585939D01*
X215849528Y-88629779D01*
X215871593Y-88696074D01*
X215854314Y-88763773D01*
X215803177Y-88811384D01*
X215747672Y-88824500D01*
X214241887Y-88824500D01*
X214174848Y-88804815D01*
X214154206Y-88788181D01*
X213961216Y-88595191D01*
X213927731Y-88533868D01*
X213927279Y-88531697D01*
X213925501Y-88522756D01*
X213905886Y-88475402D01*
X213876468Y-88404379D01*
X213876461Y-88404366D01*
X213805276Y-88297831D01*
X213805273Y-88297827D01*
X213714672Y-88207226D01*
X213714668Y-88207223D01*
X213608133Y-88136038D01*
X213608124Y-88136033D01*
X213489744Y-88086999D01*
X213489738Y-88086997D01*
X213364071Y-88062000D01*
X213364069Y-88062000D01*
X213235931Y-88062000D01*
X213235929Y-88062000D01*
X213110261Y-88086997D01*
X213110255Y-88086999D01*
X212991875Y-88136033D01*
X212991866Y-88136038D01*
X212885331Y-88207223D01*
X212885327Y-88207226D01*
X212794726Y-88297827D01*
X212794723Y-88297831D01*
X212723538Y-88404366D01*
X212723533Y-88404375D01*
X212674499Y-88522755D01*
X212674497Y-88522761D01*
X212649500Y-88648428D01*
X212649500Y-88648431D01*
X212649500Y-88776569D01*
X212649500Y-88776571D01*
X212649499Y-88776571D01*
X189117038Y-88776571D01*
X189109309Y-88774500D01*
X187114102Y-88774500D01*
X187047063Y-88754815D01*
X187001308Y-88702011D01*
X186991364Y-88632853D01*
X187020389Y-88569297D01*
X187026421Y-88562819D01*
X187104883Y-88484356D01*
X187104889Y-88484349D01*
X187176021Y-88377892D01*
X187176021Y-88377891D01*
X187225020Y-88259598D01*
X187225022Y-88259590D01*
X187249999Y-88134023D01*
X187250000Y-88134020D01*
X187250000Y-87820000D01*
X186900000Y-87820000D01*
X186900000Y-87520000D01*
X187250000Y-87520000D01*
X187250000Y-87205980D01*
X187249999Y-87205976D01*
X187225022Y-87080409D01*
X187225020Y-87080401D01*
X187190455Y-86996953D01*
X187182986Y-86927484D01*
X187214261Y-86865004D01*
X187274350Y-86829352D01*
X187305016Y-86825500D01*
X194544984Y-86825500D01*
X194612023Y-86845185D01*
X194657778Y-86897989D01*
X194667722Y-86967147D01*
X194659545Y-86996953D01*
X194624979Y-87080401D01*
X194624977Y-87080409D01*
X194600000Y-87205976D01*
X194600000Y-87520000D01*
X194950000Y-87520000D01*
X194950000Y-87820000D01*
X194600000Y-87820000D01*
X194600000Y-88134023D01*
X194624977Y-88259590D01*
X194624979Y-88259598D01*
X194673978Y-88377891D01*
X194673978Y-88377892D01*
X194745110Y-88484349D01*
X194745116Y-88484356D01*
X194835643Y-88574883D01*
X194835650Y-88574889D01*
X194942108Y-88646021D01*
X195060399Y-88695019D01*
X195060402Y-88695020D01*
X195100000Y-88702896D01*
X195100000Y-88279808D01*
X195134204Y-88299556D01*
X195210504Y-88320000D01*
X195289496Y-88320000D01*
X195365796Y-88299556D01*
X195400000Y-88279808D01*
X195400000Y-88702895D01*
X195439597Y-88695020D01*
X195439600Y-88695019D01*
X195557891Y-88646021D01*
X195557892Y-88646021D01*
X195664349Y-88574889D01*
X195664356Y-88574883D01*
X195754883Y-88484356D01*
X195754889Y-88484349D01*
X195826021Y-88377892D01*
X195826021Y-88377891D01*
X195875020Y-88259598D01*
X195875022Y-88259590D01*
X195899999Y-88134023D01*
X195900000Y-88134020D01*
X195900000Y-87820000D01*
X195550000Y-87820000D01*
X195550000Y-87520000D01*
X195900000Y-87520000D01*
X195900000Y-87205980D01*
X195899999Y-87205976D01*
X195875022Y-87080409D01*
X195875020Y-87080401D01*
X195840455Y-86996953D01*
X195832986Y-86927484D01*
X195864261Y-86865004D01*
X195924350Y-86829352D01*
X195955016Y-86825500D01*
X196887035Y-86825500D01*
X196954074Y-86845185D01*
X196974716Y-86861819D01*
X197975681Y-87862784D01*
X198009166Y-87924107D01*
X198012000Y-87950465D01*
X198012000Y-87976569D01*
X198012000Y-87976571D01*
X198011999Y-87976571D01*
X198036997Y-88102238D01*
X198036999Y-88102244D01*
X198086033Y-88220624D01*
X198086038Y-88220633D01*
X198157223Y-88327168D01*
X198157226Y-88327172D01*
X198247827Y-88417773D01*
X198247831Y-88417776D01*
X198354366Y-88488961D01*
X198354372Y-88488964D01*
X198354373Y-88488965D01*
X198472756Y-88538001D01*
X198472760Y-88538001D01*
X198472761Y-88538002D01*
X198598428Y-88563000D01*
X198598431Y-88563000D01*
X198726571Y-88563000D01*
X198827148Y-88542993D01*
X198852244Y-88538001D01*
X198970627Y-88488965D01*
X199077169Y-88417776D01*
X199167776Y-88327169D01*
X199238965Y-88220627D01*
X199288001Y-88102244D01*
X199301494Y-88034413D01*
X199313000Y-87976571D01*
X199313000Y-87848428D01*
X199288002Y-87722761D01*
X199288001Y-87722760D01*
X199288001Y-87722756D01*
X199238965Y-87604373D01*
X199238964Y-87604372D01*
X199238961Y-87604366D01*
X199167776Y-87497831D01*
X199167773Y-87497827D01*
X199077172Y-87407226D01*
X199077168Y-87407223D01*
X198970633Y-87336038D01*
X198970624Y-87336033D01*
X198852244Y-87286999D01*
X198852238Y-87286997D01*
X198726571Y-87262000D01*
X198726569Y-87262000D01*
X198700465Y-87262000D01*
X198633426Y-87242315D01*
X198612784Y-87225681D01*
X197574284Y-86187181D01*
X197540799Y-86125858D01*
X197545783Y-86056166D01*
X197587655Y-86000233D01*
X197653119Y-85975816D01*
X197661965Y-85975500D01*
X251038000Y-85975500D01*
X251105039Y-85995185D01*
G37*
%TD.AperFunction*%
%TA.AperFunction,Conductor*%
G36*
X203878368Y-110536248D02*
G01*
X203934301Y-110578120D01*
X203949595Y-110604977D01*
X203998533Y-110723123D01*
X203998538Y-110723133D01*
X204069723Y-110829668D01*
X204069725Y-110829671D01*
X204088179Y-110848124D01*
X204121666Y-110909446D01*
X204124500Y-110935807D01*
X204124500Y-113009309D01*
X204135538Y-113050502D01*
X204141968Y-113074500D01*
X204155201Y-113123888D01*
X204167001Y-113144325D01*
X204214511Y-113226614D01*
X204214513Y-113226616D01*
X205400716Y-114412819D01*
X205434201Y-114474142D01*
X205429217Y-114543834D01*
X205387345Y-114599767D01*
X205321881Y-114624184D01*
X205313035Y-114624500D01*
X197662965Y-114624500D01*
X197595926Y-114604815D01*
X197575284Y-114588181D01*
X195399284Y-112412181D01*
X195365799Y-112350858D01*
X195370783Y-112281166D01*
X195412655Y-112225233D01*
X195478119Y-112200816D01*
X195486965Y-112200500D01*
X201984308Y-112200500D01*
X201984309Y-112200500D01*
X202074673Y-112176286D01*
X202098887Y-112169799D01*
X202201614Y-112110489D01*
X203747355Y-110564747D01*
X203808676Y-110531264D01*
X203878368Y-110536248D01*
G37*
%TD.AperFunction*%
%TA.AperFunction,Conductor*%
G36*
X206849712Y-110154734D02*
G01*
X206864730Y-110154045D01*
X206882560Y-110164380D01*
X206902329Y-110170185D01*
X206912172Y-110181544D01*
X206925179Y-110189084D01*
X206934590Y-110207416D01*
X206948084Y-110222989D01*
X206950223Y-110237867D01*
X206957089Y-110251241D01*
X206958708Y-110286498D01*
X206958110Y-110292644D01*
X206949500Y-110335931D01*
X206949500Y-110381219D01*
X206948918Y-110387206D01*
X206938030Y-110414267D01*
X206929815Y-110442247D01*
X206925146Y-110446291D01*
X206922840Y-110452026D01*
X206899048Y-110468906D01*
X206877011Y-110488002D01*
X206870895Y-110488881D01*
X206865856Y-110492457D01*
X206828398Y-110494991D01*
X206807853Y-110497946D01*
X206804870Y-110496583D01*
X206801309Y-110496825D01*
X206689073Y-110474500D01*
X206689069Y-110474500D01*
X206560931Y-110474500D01*
X206560929Y-110474500D01*
X206435261Y-110499497D01*
X206435255Y-110499499D01*
X206316875Y-110548533D01*
X206316866Y-110548538D01*
X206210331Y-110619723D01*
X206210327Y-110619726D01*
X206119726Y-110710327D01*
X206119723Y-110710331D01*
X206048538Y-110816866D01*
X206048533Y-110816875D01*
X205999499Y-110935255D01*
X205999497Y-110935261D01*
X205974500Y-111060928D01*
X205974500Y-111060931D01*
X205974500Y-111189069D01*
X205974500Y-111189071D01*
X205974499Y-111189071D01*
X205999497Y-111314738D01*
X205999499Y-111314744D01*
X206048533Y-111433124D01*
X206048538Y-111433133D01*
X206119723Y-111539668D01*
X206119726Y-111539672D01*
X206210327Y-111630273D01*
X206210331Y-111630276D01*
X206316866Y-111701461D01*
X206316872Y-111701464D01*
X206316873Y-111701465D01*
X206435256Y-111750501D01*
X206435260Y-111750501D01*
X206435261Y-111750502D01*
X206560928Y-111775500D01*
X206560931Y-111775500D01*
X206608248Y-111775500D01*
X206675287Y-111795185D01*
X206695929Y-111811819D01*
X207657597Y-112773487D01*
X207756904Y-112830822D01*
X207867665Y-112860500D01*
X207982335Y-112860500D01*
X209064193Y-112860500D01*
X209131232Y-112880185D01*
X209151875Y-112896820D01*
X209185327Y-112930273D01*
X209185331Y-112930276D01*
X209291866Y-113001461D01*
X209291875Y-113001466D01*
X209310810Y-113009309D01*
X209410256Y-113050501D01*
X209410260Y-113050501D01*
X209410261Y-113050502D01*
X209535928Y-113075500D01*
X209535931Y-113075500D01*
X209664071Y-113075500D01*
X209748615Y-113058682D01*
X209789744Y-113050501D01*
X209908127Y-113001465D01*
X210014669Y-112930276D01*
X210105276Y-112839669D01*
X210176465Y-112733127D01*
X210225501Y-112614744D01*
X210239163Y-112546062D01*
X210250500Y-112489071D01*
X210250500Y-112360928D01*
X210225502Y-112235261D01*
X210225501Y-112235260D01*
X210225501Y-112235256D01*
X210184802Y-112137000D01*
X210176466Y-112116875D01*
X210176461Y-112116866D01*
X210105276Y-112010331D01*
X210105273Y-112010327D01*
X210014672Y-111919726D01*
X210014668Y-111919723D01*
X209908133Y-111848538D01*
X209908124Y-111848533D01*
X209789744Y-111799499D01*
X209789738Y-111799497D01*
X209664071Y-111774500D01*
X209664069Y-111774500D01*
X209535931Y-111774500D01*
X209535929Y-111774500D01*
X209410261Y-111799497D01*
X209410255Y-111799499D01*
X209291875Y-111848533D01*
X209291866Y-111848538D01*
X209185331Y-111919723D01*
X209185327Y-111919726D01*
X209151875Y-111953180D01*
X209090553Y-111986666D01*
X209064193Y-111989500D01*
X208156752Y-111989500D01*
X208089713Y-111969815D01*
X208069071Y-111953181D01*
X207363677Y-111247787D01*
X207330192Y-111186464D01*
X207335176Y-111116772D01*
X207377048Y-111060839D01*
X207442512Y-111036422D01*
X207475548Y-111038488D01*
X207513668Y-111046071D01*
X207535930Y-111050500D01*
X207535931Y-111050500D01*
X207664071Y-111050500D01*
X207748615Y-111033682D01*
X207789744Y-111025501D01*
X207908127Y-110976465D01*
X208014669Y-110905276D01*
X208105276Y-110814669D01*
X208176465Y-110708127D01*
X208225501Y-110589744D01*
X208243182Y-110500858D01*
X208250500Y-110464071D01*
X208250500Y-110335928D01*
X208243093Y-110298692D01*
X208249320Y-110229100D01*
X208292183Y-110173923D01*
X208358072Y-110150678D01*
X208364710Y-110150500D01*
X211562035Y-110150500D01*
X211629074Y-110170185D01*
X211649716Y-110186819D01*
X211945657Y-110482760D01*
X211979142Y-110544083D01*
X211981976Y-110570441D01*
X211981976Y-110596545D01*
X211981976Y-110596547D01*
X211981975Y-110596547D01*
X212006973Y-110722214D01*
X212006975Y-110722220D01*
X212056009Y-110840600D01*
X212056014Y-110840609D01*
X212127199Y-110947144D01*
X212127202Y-110947148D01*
X212217803Y-111037749D01*
X212217807Y-111037752D01*
X212324342Y-111108937D01*
X212324348Y-111108940D01*
X212324349Y-111108941D01*
X212442732Y-111157977D01*
X212442736Y-111157977D01*
X212442737Y-111157978D01*
X212568404Y-111182976D01*
X212568407Y-111182976D01*
X212696547Y-111182976D01*
X212781091Y-111166158D01*
X212822220Y-111157977D01*
X212928047Y-111114142D01*
X212997517Y-111106673D01*
X213059996Y-111137948D01*
X213095648Y-111198037D01*
X213099500Y-111228703D01*
X213099500Y-112309835D01*
X213079815Y-112376874D01*
X213063181Y-112397516D01*
X213053156Y-112407540D01*
X213053153Y-112407544D01*
X212981968Y-112514079D01*
X212981963Y-112514088D01*
X212932929Y-112632468D01*
X212932927Y-112632474D01*
X212907930Y-112758141D01*
X212907930Y-112758144D01*
X212907930Y-112886282D01*
X212907930Y-112886284D01*
X212907929Y-112886284D01*
X212932927Y-113011951D01*
X212932929Y-113011957D01*
X212981963Y-113130337D01*
X212981968Y-113130346D01*
X213053153Y-113236881D01*
X213053156Y-113236885D01*
X213097704Y-113281433D01*
X213131189Y-113342756D01*
X213126205Y-113412448D01*
X213097704Y-113456795D01*
X213094171Y-113460327D01*
X213094168Y-113460331D01*
X213022983Y-113566866D01*
X213022978Y-113566875D01*
X212973944Y-113685255D01*
X212973942Y-113685261D01*
X212948945Y-113810928D01*
X212948945Y-113810931D01*
X212948945Y-113939069D01*
X212948945Y-113939071D01*
X212948944Y-113939071D01*
X212956352Y-113976308D01*
X212950125Y-114045900D01*
X212907262Y-114101077D01*
X212841373Y-114124322D01*
X212834735Y-114124500D01*
X206437965Y-114124500D01*
X206370926Y-114104815D01*
X206350284Y-114088181D01*
X205061819Y-112799716D01*
X205028334Y-112738393D01*
X205025500Y-112712035D01*
X205025500Y-110935807D01*
X205045185Y-110868768D01*
X205061821Y-110848124D01*
X205080274Y-110829671D01*
X205080276Y-110829669D01*
X205151465Y-110723127D01*
X205200501Y-110604744D01*
X205214190Y-110535928D01*
X205225500Y-110479071D01*
X205225500Y-110350928D01*
X205215109Y-110298692D01*
X205221336Y-110229101D01*
X205264198Y-110173923D01*
X205330088Y-110150678D01*
X205336726Y-110150500D01*
X206835290Y-110150500D01*
X206849712Y-110154734D01*
G37*
%TD.AperFunction*%
%TA.AperFunction,Conductor*%
G36*
X214073747Y-107189858D02*
G01*
X214094389Y-107206492D01*
X216088181Y-109200284D01*
X216121666Y-109261607D01*
X216124500Y-109287965D01*
X216124500Y-109554192D01*
X216104815Y-109621231D01*
X216088181Y-109641873D01*
X216069726Y-109660327D01*
X216069723Y-109660331D01*
X215998538Y-109766866D01*
X215998530Y-109766881D01*
X215986106Y-109796876D01*
X215942265Y-109851279D01*
X215875970Y-109873343D01*
X215847355Y-109871039D01*
X215739072Y-109849500D01*
X215739069Y-109849500D01*
X215610931Y-109849500D01*
X215610929Y-109849500D01*
X215485261Y-109874497D01*
X215485255Y-109874499D01*
X215366875Y-109923533D01*
X215366866Y-109923538D01*
X215260331Y-109994723D01*
X215260327Y-109994726D01*
X215169726Y-110085327D01*
X215169723Y-110085331D01*
X215098538Y-110191866D01*
X215098533Y-110191875D01*
X215049499Y-110310255D01*
X215049497Y-110310261D01*
X215024500Y-110435928D01*
X215024500Y-110435931D01*
X215024500Y-110564069D01*
X215024500Y-110564071D01*
X215024499Y-110564071D01*
X215049497Y-110689738D01*
X215049499Y-110689744D01*
X215098533Y-110808124D01*
X215098538Y-110808133D01*
X215169723Y-110914668D01*
X215169726Y-110914672D01*
X215260327Y-111005273D01*
X215260331Y-111005276D01*
X215366866Y-111076461D01*
X215366872Y-111076464D01*
X215366873Y-111076465D01*
X215485256Y-111125501D01*
X215485260Y-111125501D01*
X215485261Y-111125502D01*
X215610928Y-111150500D01*
X215610931Y-111150500D01*
X215637035Y-111150500D01*
X215704074Y-111170185D01*
X215724716Y-111186819D01*
X215988181Y-111450284D01*
X216021666Y-111511607D01*
X216024500Y-111537965D01*
X216024500Y-112007802D01*
X216004815Y-112074841D01*
X215988181Y-112095483D01*
X215399193Y-112684470D01*
X215373514Y-112704175D01*
X215359081Y-112712508D01*
X215359075Y-112712512D01*
X214403439Y-113668149D01*
X214342116Y-113701634D01*
X214272424Y-113696650D01*
X214216491Y-113654778D01*
X214201197Y-113627921D01*
X214175911Y-113566875D01*
X214175906Y-113566866D01*
X214104721Y-113460331D01*
X214104718Y-113460327D01*
X214060171Y-113415780D01*
X214026686Y-113354457D01*
X214031670Y-113284765D01*
X214060171Y-113240418D01*
X214063703Y-113236885D01*
X214063706Y-113236882D01*
X214134895Y-113130340D01*
X214183931Y-113011957D01*
X214200179Y-112930276D01*
X214208930Y-112886284D01*
X214208930Y-112758141D01*
X214183932Y-112632474D01*
X214183931Y-112632473D01*
X214183931Y-112632469D01*
X214139623Y-112525500D01*
X214134896Y-112514088D01*
X214134891Y-112514079D01*
X214063706Y-112407544D01*
X214063703Y-112407540D01*
X214036819Y-112380656D01*
X214003334Y-112319333D01*
X214000500Y-112292975D01*
X214000500Y-110390693D01*
X214000500Y-110390691D01*
X213969799Y-110276114D01*
X213931776Y-110210256D01*
X213910489Y-110173386D01*
X212100672Y-108363569D01*
X212067187Y-108302246D01*
X212064353Y-108275888D01*
X212064353Y-107941480D01*
X212084038Y-107874441D01*
X212100674Y-107853797D01*
X212119127Y-107835344D01*
X212119129Y-107835342D01*
X212190318Y-107728800D01*
X212239354Y-107610417D01*
X212255881Y-107527334D01*
X212264353Y-107484744D01*
X212264353Y-107356601D01*
X212256747Y-107318365D01*
X212262974Y-107248773D01*
X212305837Y-107193596D01*
X212371726Y-107170351D01*
X212378364Y-107170173D01*
X214006708Y-107170173D01*
X214073747Y-107189858D01*
G37*
%TD.AperFunction*%
%TA.AperFunction,Conductor*%
G36*
X203255073Y-109570185D02*
G01*
X203300828Y-109622989D01*
X203310772Y-109692147D01*
X203281747Y-109755703D01*
X203275715Y-109762181D01*
X201774716Y-111263181D01*
X201713393Y-111296666D01*
X201687035Y-111299500D01*
X196019808Y-111299500D01*
X195952769Y-111279815D01*
X195907014Y-111227011D01*
X195897070Y-111157853D01*
X195926095Y-111094297D01*
X195932127Y-111087819D01*
X196005273Y-111014672D01*
X196005276Y-111014669D01*
X196076465Y-110908127D01*
X196125501Y-110789744D01*
X196141298Y-110710331D01*
X196150500Y-110664071D01*
X196150500Y-110637965D01*
X196170185Y-110570926D01*
X196186819Y-110550284D01*
X197150284Y-109586819D01*
X197211607Y-109553334D01*
X197237965Y-109550500D01*
X203188034Y-109550500D01*
X203255073Y-109570185D01*
G37*
%TD.AperFunction*%
%TA.AperFunction,Conductor*%
G36*
X194553329Y-108220185D02*
G01*
X194599084Y-108272989D01*
X194609028Y-108342147D01*
X194607907Y-108348692D01*
X194600500Y-108385928D01*
X194600500Y-108385931D01*
X194600500Y-108514069D01*
X194600500Y-108514071D01*
X194600499Y-108514071D01*
X194625497Y-108639738D01*
X194625499Y-108639744D01*
X194674533Y-108758124D01*
X194674538Y-108758133D01*
X194745723Y-108864668D01*
X194745726Y-108864672D01*
X194836327Y-108955273D01*
X194836331Y-108955276D01*
X194942866Y-109026461D01*
X194942872Y-109026464D01*
X194942873Y-109026465D01*
X195061256Y-109075501D01*
X195061260Y-109075501D01*
X195061261Y-109075502D01*
X195186928Y-109100500D01*
X195186931Y-109100500D01*
X195315071Y-109100500D01*
X195399615Y-109083682D01*
X195440744Y-109075501D01*
X195559127Y-109026465D01*
X195665669Y-108955276D01*
X195735127Y-108885817D01*
X195796448Y-108852334D01*
X195822807Y-108849500D01*
X196314035Y-108849500D01*
X196381074Y-108869185D01*
X196426829Y-108921989D01*
X196436773Y-108991147D01*
X196407748Y-109054703D01*
X196401716Y-109061181D01*
X195549716Y-109913181D01*
X195488393Y-109946666D01*
X195462035Y-109949500D01*
X195435929Y-109949500D01*
X195310261Y-109974497D01*
X195310255Y-109974499D01*
X195191875Y-110023533D01*
X195191866Y-110023538D01*
X195085331Y-110094723D01*
X195085327Y-110094726D01*
X194994726Y-110185327D01*
X194994723Y-110185331D01*
X194923538Y-110291866D01*
X194923533Y-110291875D01*
X194874499Y-110410255D01*
X194874497Y-110410261D01*
X194849500Y-110535928D01*
X194849500Y-110538035D01*
X194849187Y-110539097D01*
X194848903Y-110541991D01*
X194848354Y-110541936D01*
X194829815Y-110605074D01*
X194777011Y-110650829D01*
X194707853Y-110660773D01*
X194644297Y-110631748D01*
X194637819Y-110625716D01*
X192536819Y-108524716D01*
X192525851Y-108504630D01*
X192511078Y-108487149D01*
X192507783Y-108471541D01*
X192503334Y-108463393D01*
X192501553Y-108453164D01*
X192500500Y-108445137D01*
X192500500Y-108410931D01*
X192487321Y-108344679D01*
X192486790Y-108340629D01*
X192491583Y-108309985D01*
X192494347Y-108279100D01*
X192496935Y-108275767D01*
X192497588Y-108271599D01*
X192518183Y-108248415D01*
X192537210Y-108223923D01*
X192541188Y-108222519D01*
X192543992Y-108219364D01*
X192573860Y-108210993D01*
X192603099Y-108200678D01*
X192609737Y-108200500D01*
X194486290Y-108200500D01*
X194553329Y-108220185D01*
G37*
%TD.AperFunction*%
%TA.AperFunction,Conductor*%
G36*
X189427528Y-107544185D02*
G01*
X189473283Y-107596989D01*
X189483227Y-107666147D01*
X189482106Y-107672692D01*
X189474500Y-107710928D01*
X189474500Y-107710931D01*
X189474500Y-107839069D01*
X189474500Y-107839071D01*
X189474499Y-107839071D01*
X189499497Y-107964738D01*
X189499499Y-107964744D01*
X189548533Y-108083124D01*
X189548538Y-108083133D01*
X189619723Y-108189668D01*
X189619726Y-108189672D01*
X189710327Y-108280273D01*
X189710331Y-108280276D01*
X189816866Y-108351461D01*
X189816872Y-108351464D01*
X189816873Y-108351465D01*
X189935256Y-108400501D01*
X189935260Y-108400501D01*
X189935261Y-108400502D01*
X190060928Y-108425500D01*
X190060931Y-108425500D01*
X190087035Y-108425500D01*
X190154074Y-108445185D01*
X190174716Y-108461819D01*
X190950716Y-109237819D01*
X190984201Y-109299142D01*
X190979217Y-109368834D01*
X190937345Y-109424767D01*
X190871881Y-109449184D01*
X190863035Y-109449500D01*
X185163877Y-109449500D01*
X185096838Y-109429815D01*
X185051083Y-109377011D01*
X185041139Y-109307853D01*
X185060776Y-109256608D01*
X185076460Y-109233135D01*
X185076461Y-109233132D01*
X185076465Y-109233127D01*
X185125501Y-109114744D01*
X185150177Y-108990693D01*
X185150500Y-108989071D01*
X185150500Y-108860928D01*
X185125502Y-108735261D01*
X185125501Y-108735260D01*
X185125501Y-108735256D01*
X185076465Y-108616873D01*
X185076464Y-108616872D01*
X185076461Y-108616866D01*
X185005276Y-108510331D01*
X185005273Y-108510327D01*
X184914672Y-108419726D01*
X184914668Y-108419723D01*
X184808133Y-108348538D01*
X184808124Y-108348533D01*
X184689744Y-108299499D01*
X184689738Y-108299497D01*
X184564071Y-108274500D01*
X184564069Y-108274500D01*
X184435931Y-108274500D01*
X184435929Y-108274500D01*
X184310261Y-108299497D01*
X184310255Y-108299499D01*
X184191875Y-108348533D01*
X184191866Y-108348538D01*
X184085331Y-108419723D01*
X184085327Y-108419726D01*
X183994726Y-108510327D01*
X183994723Y-108510331D01*
X183923538Y-108616866D01*
X183923533Y-108616875D01*
X183874499Y-108735255D01*
X183874497Y-108735261D01*
X183849500Y-108860928D01*
X183849500Y-108860931D01*
X183849500Y-108989069D01*
X183849500Y-108989071D01*
X183849499Y-108989071D01*
X183874497Y-109114738D01*
X183874499Y-109114744D01*
X183923533Y-109233124D01*
X183923538Y-109233133D01*
X183994723Y-109339668D01*
X183994725Y-109339671D01*
X184013179Y-109358124D01*
X184046666Y-109419446D01*
X184049500Y-109445807D01*
X184049500Y-109684309D01*
X184060425Y-109725085D01*
X184060444Y-109725153D01*
X184060702Y-109726114D01*
X184080201Y-109798887D01*
X184082908Y-109803576D01*
X184086569Y-109816355D01*
X184086382Y-109844516D01*
X184089392Y-109872521D01*
X184086153Y-109878989D01*
X184086106Y-109886223D01*
X184070722Y-109909815D01*
X184058115Y-109934999D01*
X184051894Y-109938689D01*
X184047943Y-109944749D01*
X184022246Y-109956278D01*
X183998025Y-109970649D01*
X183987186Y-109972010D01*
X183984196Y-109973352D01*
X183980697Y-109972825D01*
X183967363Y-109974500D01*
X183388764Y-109974500D01*
X183321725Y-109954815D01*
X183275970Y-109902011D01*
X183266026Y-109832853D01*
X183285662Y-109781609D01*
X183351461Y-109683133D01*
X183351461Y-109683132D01*
X183351465Y-109683127D01*
X183400501Y-109564744D01*
X183417318Y-109480201D01*
X183425500Y-109439071D01*
X183425500Y-109310928D01*
X183400502Y-109185261D01*
X183400501Y-109185260D01*
X183400501Y-109185256D01*
X183355039Y-109075501D01*
X183351466Y-109066875D01*
X183351461Y-109066866D01*
X183280276Y-108960331D01*
X183280273Y-108960327D01*
X183261819Y-108941873D01*
X183228334Y-108880550D01*
X183225500Y-108854192D01*
X183225500Y-108587965D01*
X183245185Y-108520926D01*
X183261819Y-108500284D01*
X184201284Y-107560819D01*
X184262607Y-107527334D01*
X184288965Y-107524500D01*
X189360489Y-107524500D01*
X189427528Y-107544185D01*
G37*
%TD.AperFunction*%
%TA.AperFunction,Conductor*%
G36*
X184305703Y-96320095D02*
G01*
X184331886Y-96351806D01*
X184389511Y-96451614D01*
X184389513Y-96451616D01*
X192938181Y-105000284D01*
X192971666Y-105061607D01*
X192974500Y-105087965D01*
X192974500Y-105114069D01*
X192974500Y-105114071D01*
X192974499Y-105114071D01*
X192999497Y-105239738D01*
X192999499Y-105239744D01*
X193048533Y-105358124D01*
X193048538Y-105358133D01*
X193119723Y-105464668D01*
X193119726Y-105464672D01*
X193210327Y-105555273D01*
X193210331Y-105555276D01*
X193316866Y-105626461D01*
X193316872Y-105626464D01*
X193316873Y-105626465D01*
X193435256Y-105675501D01*
X193435260Y-105675501D01*
X193435261Y-105675502D01*
X193560928Y-105700500D01*
X193560931Y-105700500D01*
X193689070Y-105700500D01*
X193722967Y-105693757D01*
X193792559Y-105699984D01*
X193847737Y-105742846D01*
X193870982Y-105808735D01*
X193854915Y-105876732D01*
X193834842Y-105903055D01*
X193774714Y-105963182D01*
X193713394Y-105996666D01*
X193687035Y-105999500D01*
X191962965Y-105999500D01*
X191895926Y-105979815D01*
X191875284Y-105963181D01*
X191226616Y-105314513D01*
X191226614Y-105314511D01*
X191144107Y-105266875D01*
X191123888Y-105255201D01*
X191111780Y-105251957D01*
X191099673Y-105248713D01*
X191099670Y-105248712D01*
X191025405Y-105228813D01*
X191009309Y-105224500D01*
X183632170Y-105224500D01*
X183517593Y-105255201D01*
X183508748Y-105260308D01*
X183508746Y-105260309D01*
X183414868Y-105314508D01*
X183414863Y-105314512D01*
X182167195Y-106562181D01*
X182105872Y-106595666D01*
X182079514Y-106598500D01*
X181630582Y-106598500D01*
X181563543Y-106578815D01*
X181527480Y-106543391D01*
X181455276Y-106435331D01*
X181455273Y-106435327D01*
X181364672Y-106344726D01*
X181364668Y-106344723D01*
X181276143Y-106285572D01*
X181257315Y-106263044D01*
X181236461Y-106242370D01*
X181235166Y-106236540D01*
X181231338Y-106231960D01*
X181227678Y-106202826D01*
X181221313Y-106174162D01*
X181223375Y-106168559D01*
X181222631Y-106162635D01*
X181235303Y-106136147D01*
X181245445Y-106108592D01*
X181250749Y-106103863D01*
X181252786Y-106099607D01*
X181270293Y-106083527D01*
X181276397Y-106078915D01*
X181351614Y-106035489D01*
X181406363Y-105980739D01*
X181413224Y-105975557D01*
X181438186Y-105966122D01*
X181461607Y-105953334D01*
X181476166Y-105951768D01*
X181478581Y-105950856D01*
X181480618Y-105951289D01*
X181487965Y-105950500D01*
X181514071Y-105950500D01*
X181598615Y-105933682D01*
X181639744Y-105925501D01*
X181758127Y-105876465D01*
X181864669Y-105805276D01*
X181955276Y-105714669D01*
X182026465Y-105608127D01*
X182075501Y-105489744D01*
X182093644Y-105398535D01*
X182100500Y-105364071D01*
X182100500Y-105235928D01*
X182074313Y-105104282D01*
X182075517Y-105104042D01*
X182074948Y-105040634D01*
X182112194Y-104981519D01*
X182175486Y-104951925D01*
X182194234Y-104950500D01*
X182264071Y-104950500D01*
X182348615Y-104933682D01*
X182389744Y-104925501D01*
X182508127Y-104876465D01*
X182614669Y-104805276D01*
X182623714Y-104796231D01*
X182633127Y-104786819D01*
X182694450Y-104753334D01*
X182720808Y-104750500D01*
X183259308Y-104750500D01*
X183259309Y-104750500D01*
X183349673Y-104726286D01*
X183373887Y-104719799D01*
X183476614Y-104660489D01*
X184010489Y-104126614D01*
X184069799Y-104023887D01*
X184092407Y-103939511D01*
X184100500Y-103909309D01*
X184100500Y-100214071D01*
X184399499Y-100214071D01*
X184424497Y-100339738D01*
X184424499Y-100339744D01*
X184473533Y-100458124D01*
X184473538Y-100458133D01*
X184544723Y-100564668D01*
X184544726Y-100564672D01*
X184635327Y-100655273D01*
X184635331Y-100655276D01*
X184741866Y-100726461D01*
X184741872Y-100726464D01*
X184741873Y-100726465D01*
X184860256Y-100775501D01*
X184860260Y-100775501D01*
X184860261Y-100775502D01*
X184985928Y-100800500D01*
X184985931Y-100800500D01*
X185114071Y-100800500D01*
X185198615Y-100783682D01*
X185239744Y-100775501D01*
X185358127Y-100726465D01*
X185464669Y-100655276D01*
X185555276Y-100564669D01*
X185626465Y-100458127D01*
X185675501Y-100339744D01*
X185691679Y-100258415D01*
X185700500Y-100214071D01*
X185700500Y-100085928D01*
X185675502Y-99960261D01*
X185675501Y-99960260D01*
X185675501Y-99960256D01*
X185626465Y-99841873D01*
X185626464Y-99841872D01*
X185626461Y-99841866D01*
X185555276Y-99735331D01*
X185555273Y-99735327D01*
X185464672Y-99644726D01*
X185464668Y-99644723D01*
X185358133Y-99573538D01*
X185358124Y-99573533D01*
X185239744Y-99524499D01*
X185239738Y-99524497D01*
X185114071Y-99499500D01*
X185114069Y-99499500D01*
X184985931Y-99499500D01*
X184985929Y-99499500D01*
X184860261Y-99524497D01*
X184860255Y-99524499D01*
X184741875Y-99573533D01*
X184741866Y-99573538D01*
X184635331Y-99644723D01*
X184635327Y-99644726D01*
X184544726Y-99735327D01*
X184544723Y-99735331D01*
X184473538Y-99841866D01*
X184473533Y-99841875D01*
X184424499Y-99960255D01*
X184424497Y-99960261D01*
X184399500Y-100085928D01*
X184399500Y-100085931D01*
X184399500Y-100214069D01*
X184399500Y-100214071D01*
X184399499Y-100214071D01*
X184100500Y-100214071D01*
X184100500Y-96413808D01*
X184120185Y-96346769D01*
X184172989Y-96301014D01*
X184242147Y-96291070D01*
X184305703Y-96320095D01*
G37*
%TD.AperFunction*%
%TA.AperFunction,Conductor*%
G36*
X185907925Y-86906692D02*
G01*
X185963858Y-86948564D01*
X185988275Y-87014028D01*
X185979153Y-87070324D01*
X185974980Y-87080397D01*
X185974977Y-87080409D01*
X185950000Y-87205976D01*
X185950000Y-87520000D01*
X186300000Y-87520000D01*
X186300000Y-87820000D01*
X185950000Y-87820000D01*
X185950000Y-88134023D01*
X185974977Y-88259590D01*
X185974979Y-88259598D01*
X186023978Y-88377891D01*
X186023978Y-88377892D01*
X186095110Y-88484349D01*
X186095116Y-88484356D01*
X186173579Y-88562819D01*
X186207064Y-88624142D01*
X186202080Y-88693834D01*
X186160208Y-88749767D01*
X186094744Y-88774184D01*
X186085898Y-88774500D01*
X185890691Y-88774500D01*
X185821944Y-88792920D01*
X185776112Y-88805201D01*
X185776107Y-88805204D01*
X185732695Y-88830267D01*
X185732696Y-88830268D01*
X185673389Y-88864508D01*
X185673383Y-88864513D01*
X184389513Y-90148383D01*
X184389511Y-90148386D01*
X184338941Y-90235976D01*
X184331887Y-90248193D01*
X184281319Y-90296408D01*
X184212712Y-90309630D01*
X184147848Y-90283662D01*
X184107320Y-90226748D01*
X184100500Y-90186192D01*
X184100500Y-88662965D01*
X184120185Y-88595926D01*
X184136819Y-88575284D01*
X184989348Y-87722755D01*
X185776912Y-86935191D01*
X185838233Y-86901708D01*
X185907925Y-86906692D01*
G37*
%TD.AperFunction*%
%TD*%
M02*
