%TF.GenerationSoftware,KiCad,Pcbnew,9.0.6-unknown-202512120022~866d92e1f6~ubuntu24.04.1*%
%TF.CreationDate,2026-01-02T23:01:16+02:00*%
%TF.ProjectId,TalTechHeat,54616c54-6563-4684-9865-61742e6b6963,rev?*%
%TF.SameCoordinates,Original*%
%TF.FileFunction,Legend,Bot*%
%TF.FilePolarity,Positive*%
%FSLAX46Y46*%
G04 Gerber Fmt 4.6, Leading zero omitted, Abs format (unit mm)*
G04 Created by KiCad (PCBNEW 9.0.6-unknown-202512120022~866d92e1f6~ubuntu24.04.1) date 2026-01-02 23:01:16*
%MOMM*%
%LPD*%
G01*
G04 APERTURE LIST*
%ADD10C,0.150000*%
G04 APERTURE END LIST*
D10*
X219283333Y-96004819D02*
X219283333Y-96719104D01*
X219283333Y-96719104D02*
X219330952Y-96861961D01*
X219330952Y-96861961D02*
X219426190Y-96957200D01*
X219426190Y-96957200D02*
X219569047Y-97004819D01*
X219569047Y-97004819D02*
X219664285Y-97004819D01*
X218902380Y-96004819D02*
X218283333Y-96004819D01*
X218283333Y-96004819D02*
X218616666Y-96385771D01*
X218616666Y-96385771D02*
X218473809Y-96385771D01*
X218473809Y-96385771D02*
X218378571Y-96433390D01*
X218378571Y-96433390D02*
X218330952Y-96481009D01*
X218330952Y-96481009D02*
X218283333Y-96576247D01*
X218283333Y-96576247D02*
X218283333Y-96814342D01*
X218283333Y-96814342D02*
X218330952Y-96909580D01*
X218330952Y-96909580D02*
X218378571Y-96957200D01*
X218378571Y-96957200D02*
X218473809Y-97004819D01*
X218473809Y-97004819D02*
X218759523Y-97004819D01*
X218759523Y-97004819D02*
X218854761Y-96957200D01*
X218854761Y-96957200D02*
X218902380Y-96909580D01*
X216721428Y-92764700D02*
X215578571Y-92764700D01*
X216149999Y-93336128D02*
X216149999Y-92193271D01*
X227721428Y-92764700D02*
X226578571Y-92764700D01*
M02*
