M48
; DRILL file {KiCad 9.0.6-unknown-202512120022~866d92e1f6~ubuntu24.04.1} date 2026-01-02T23:01:14+0200
; FORMAT={-:-/ absolute / inch / decimal}
; #@! TF.CreationDate,2026-01-02T23:01:14+02:00
; #@! TF.GenerationSoftware,Kicad,Pcbnew,9.0.6-unknown-202512120022~866d92e1f6~ubuntu24.04.1
; #@! TF.FileFunction,Plated,1,4,PTH
FMAT,2
INCH
; #@! TA.AperFunction,Plated,PTH,ViaDrill
T1C0.0118
; #@! TA.AperFunction,Plated,PTH,ViaDrill
T2C0.0157
; #@! TA.AperFunction,Plated,PTH,ComponentDrill
T3C0.0157
; #@! TA.AperFunction,Plated,PTH,ComponentDrill
T4C0.0236
; #@! TA.AperFunction,Plated,PTH,ComponentDrill
T5C0.0276
; #@! TA.AperFunction,Plated,PTH,ComponentDrill
T6C0.0394
; #@! TA.AperFunction,Plated,PTH,ComponentDrill
T7C0.0433
; #@! TA.AperFunction,Plated,PTH,ComponentDrill
T8C0.0748
%
G90
G05
T1
X7.6998Y-4.2126
X8.1378Y-4.1831
T2
X6.0592Y-3.904
X6.0592Y-4.004
X6.0592Y-4.104
X6.0592Y-4.204
X6.1592Y-3.504
X6.1592Y-3.604
X6.1592Y-4.404
X6.1592Y-4.504
X6.2592Y-3.504
X6.2592Y-3.604
X6.2592Y-3.704
X6.2592Y-3.904
X6.2592Y-4.104
X6.2592Y-4.204
X6.3592Y-3.504
X6.3592Y-3.604
X6.3592Y-3.704
X6.3592Y-3.904
X6.4592Y-3.604
X6.4592Y-3.904
X6.4592Y-4.104
X6.5592Y-3.604
X6.5592Y-4.404
X6.6592Y-3.604
X6.6592Y-4.404
X6.6592Y-4.504
X6.7726Y-3.8858
X6.7904Y-3.9518
X6.8592Y-3.704
X6.8592Y-4.504
X6.8691Y-4.1102
X6.9449Y-3.9429
X6.9498Y-3.8287
X6.9592Y-4.504
X6.9813Y-4.0443
X7.0443Y-4.3189
X7.0531Y-4.1073
X7.0541Y-4.189
X7.0592Y-3.504
X7.0814Y-4.3015
X7.0856Y-4.2136
X7.1161Y-3.8858
X7.124Y-4.2067
X7.128Y-3.7697
X7.1388Y-4.3199
X7.1437Y-4.1457
X7.1447Y-3.8494
X7.1592Y-3.504
X7.1614Y-4.2894
X7.1624Y-4.185
X7.1732Y-4.1063
X7.1949Y-4.1368
X7.1959Y-4.3061
X7.2539Y-4.251
X7.2638Y-4.2884
X7.313Y-3.7392
X7.378Y-4.375
X7.4203Y-4.3622
X7.4852Y-4.2431
X7.5512Y-4.1693
X7.5531Y-4.2707
X7.5592Y-3.504
X7.5846Y-4.4242
X7.5886Y-4.1693
X7.5984Y-4.5089
X7.6161Y-3.5266
X7.622Y-4.2756
X7.6592Y-4.504
X7.6791Y-4.2756
X7.6969Y-4.3543
X7.7559Y-4.3396
X7.7592Y-3.504
X7.7592Y-3.604
X7.811Y-4.501
X7.8214Y-3.4611
X7.8583Y-3.7618
X7.9104Y-3.748
X7.9592Y-3.504
X8.0541Y-4.347
X8.0591Y-3.7539
X8.0591Y-3.7943
X8.0592Y-3.504
X8.0592Y-3.704
X8.0965Y-4.3465
X8.1083Y-3.7047
X8.1201Y-3.8435
X8.1348Y-4.375
X8.1592Y-3.704
X8.1663Y-3.8425
X8.1917Y-4.17
X8.1959Y-3.5453
X8.2077Y-3.7037
X8.2077Y-4.3474
X8.2116Y-3.8425
X8.252Y-4.4262
X8.2526Y-4.2677
X8.2648Y-4.1565
X8.2963Y-4.1841
X8.3313Y-4.2292
X8.369Y-4.5049
X8.3714Y-4.3517
X8.3976Y-3.4518
X8.3976Y-3.4926
X8.4078Y-4.4418
X8.4163Y-4.2343
X8.4902Y-4.4006
X8.4911Y-4.3504
X8.5108Y-4.503
X8.5266Y-4.3337
X8.5276Y-4.1329
X8.5592Y-3.904
X8.5719Y-4.122
X8.6555Y-4.2215
X8.6565Y-4.314
X8.6929Y-3.9498
X8.6978Y-4.4587
X8.6988Y-4.0571
X8.7254Y-3.9833
X8.747Y-4.1722
X8.7815Y-4.5039
X8.8337Y-4.1437
X8.8888Y-4.4587
X9.0592Y-3.504
X9.0592Y-4.104
X9.0592Y-4.204
X9.0592Y-4.304
X9.0592Y-4.504
X9.1592Y-3.504
X9.1592Y-3.604
X9.1592Y-4.104
X9.1592Y-4.204
X9.1592Y-4.304
X9.1592Y-4.404
X9.1592Y-4.504
X9.2592Y-3.604
X9.2592Y-4.204
X9.2592Y-4.304
X9.2592Y-4.404
X9.2592Y-4.504
X9.3592Y-3.504
X9.3592Y-3.604
X9.3592Y-4.104
X9.3592Y-4.204
X9.3592Y-4.304
X9.3592Y-4.404
X9.3592Y-4.504
X9.4592Y-3.504
X9.4592Y-3.604
X9.4592Y-4.104
X9.4592Y-4.204
X9.4592Y-4.304
X9.4592Y-4.404
X9.4592Y-4.504
X9.5592Y-3.504
X9.5592Y-3.604
X9.5592Y-4.104
X9.5592Y-4.204
X9.5592Y-4.304
X9.5592Y-4.404
X9.5592Y-4.504
X9.6592Y-3.504
X9.6592Y-3.604
X9.6592Y-4.104
X9.6592Y-4.204
X9.6592Y-4.304
X9.6592Y-4.404
X9.6592Y-4.504
X9.7592Y-3.604
X9.7592Y-3.704
X9.7592Y-3.804
X9.7592Y-3.904
X9.7592Y-4.004
X9.7592Y-4.204
X9.7592Y-4.304
X9.7592Y-4.404
X9.7592Y-4.504
T3
X7.3996Y-3.5681
X7.3996Y-3.6213
X7.4331Y-3.5681
X7.4331Y-3.6213
X7.4665Y-3.5681
X7.4665Y-3.6213
X7.5Y-3.5681
X7.5Y-3.6213
X7.5335Y-3.5681
X7.5335Y-3.6213
X7.5669Y-3.5681
X7.5669Y-3.6213
X7.6004Y-3.5681
X7.6004Y-3.6213
X7.6339Y-3.5681
X7.6339Y-3.6213
T5
X9.1332Y-3.6798
X9.1332Y-4.0013
X9.2724Y-3.5406
X9.2724Y-4.1405
X9.5938Y-3.6798
X9.5938Y-4.0013
X9.733Y-3.5406
X9.733Y-4.1405
T6
X6.0659Y-3.498
X6.0659Y-3.598
X6.0659Y-3.698
X6.0659Y-3.798
X6.5358Y-3.9447
X6.5358Y-4.0447
X6.5358Y-4.1447
X6.6358Y-3.9447
X6.6358Y-4.0447
X6.6358Y-4.1447
X8.5098Y-3.4508
X8.9429Y-3.4508
T7
X6.061Y-4.2795
X6.061Y-4.4567
X6.3169Y-4.2795
X6.3169Y-4.4567
X6.4951Y-4.2785
X6.4951Y-4.4557
X6.751Y-4.2785
X6.751Y-4.4557
T8
X8.628Y-3.6476
X8.8248Y-3.6476
T4
G00X7.3465Y-3.4378
M15
G01X7.3465Y-3.4654
M16
G05
G00X7.3465Y-3.5531
M15
G01X7.3465Y-3.6122
M16
G05
G00X7.687Y-3.4378
M15
G01X7.687Y-3.4654
M16
G05
G00X7.687Y-3.5551
M15
G01X7.687Y-3.6142
M16
G05
M30
