%TF.GenerationSoftware,KiCad,Pcbnew,9.0.6-unknown-202512120022~866d92e1f6~ubuntu24.04.1*%
%TF.CreationDate,2026-01-05T09:17:52+02:00*%
%TF.ProjectId,TalTechHeat,54616c54-6563-4684-9865-61742e6b6963,1.2*%
%TF.SameCoordinates,Original*%
%TF.FileFunction,Legend,Bot*%
%TF.FilePolarity,Positive*%
%FSLAX46Y46*%
G04 Gerber Fmt 4.6, Leading zero omitted, Abs format (unit mm)*
G04 Created by KiCad (PCBNEW 9.0.6-unknown-202512120022~866d92e1f6~ubuntu24.04.1) date 2026-01-05 09:17:52*
%MOMM*%
%LPD*%
G01*
G04 APERTURE LIST*
%ADD10C,0.160000*%
%ADD11C,0.000000*%
G04 APERTURE END LIST*
D10*
X219283333Y-96004299D02*
X219283333Y-96718584D01*
X219283333Y-96718584D02*
X219330952Y-96861441D01*
X219330952Y-96861441D02*
X219426190Y-96956680D01*
X219426190Y-96956680D02*
X219569047Y-97004299D01*
X219569047Y-97004299D02*
X219664285Y-97004299D01*
X218902380Y-96004299D02*
X218283333Y-96004299D01*
X218283333Y-96004299D02*
X218616666Y-96385251D01*
X218616666Y-96385251D02*
X218473809Y-96385251D01*
X218473809Y-96385251D02*
X218378571Y-96432870D01*
X218378571Y-96432870D02*
X218330952Y-96480489D01*
X218330952Y-96480489D02*
X218283333Y-96575727D01*
X218283333Y-96575727D02*
X218283333Y-96813822D01*
X218283333Y-96813822D02*
X218330952Y-96909060D01*
X218330952Y-96909060D02*
X218378571Y-96956680D01*
X218378571Y-96956680D02*
X218473809Y-97004299D01*
X218473809Y-97004299D02*
X218759523Y-97004299D01*
X218759523Y-97004299D02*
X218854761Y-96956680D01*
X218854761Y-96956680D02*
X218902380Y-96909060D01*
X216530951Y-92723346D02*
X215769047Y-92723346D01*
X216149999Y-93104299D02*
X216149999Y-92342394D01*
X227530951Y-92723346D02*
X226769047Y-92723346D01*
D11*
%TO.C,G\u002A\u002A\u002A*%
G36*
X171051001Y-91354933D02*
G01*
X171051001Y-92836600D01*
X170043467Y-92836600D01*
X169035934Y-92836600D01*
X169035934Y-92447133D01*
X169035934Y-92057666D01*
X169594734Y-92057666D01*
X170153534Y-92057666D01*
X170153534Y-90965466D01*
X170153534Y-89873266D01*
X170602267Y-89873266D01*
X171051001Y-89873266D01*
X171051001Y-91354933D01*
G37*
G36*
X176486600Y-90262733D02*
G01*
X176486600Y-90652199D01*
X176088667Y-90652199D01*
X175690734Y-90652199D01*
X175690734Y-91744400D01*
X175690734Y-92836600D01*
X175242001Y-92836600D01*
X174793267Y-92836600D01*
X174793267Y-91744400D01*
X174793267Y-90652199D01*
X174403800Y-90652199D01*
X174014334Y-90652199D01*
X174014334Y-90262733D01*
X174014334Y-89873266D01*
X175250467Y-89873266D01*
X176486600Y-89873266D01*
X176486600Y-90262733D01*
G37*
G36*
X176486600Y-93420800D02*
G01*
X176486600Y-93818733D01*
X176088667Y-93818733D01*
X175690734Y-93818733D01*
X175690734Y-94910933D01*
X175690734Y-96003133D01*
X175242001Y-96003133D01*
X174793267Y-96003133D01*
X174793267Y-94910933D01*
X174793267Y-93818733D01*
X174403800Y-93818733D01*
X174014334Y-93818733D01*
X174014334Y-93420800D01*
X174014334Y-93022866D01*
X175250467Y-93022866D01*
X176486600Y-93022866D01*
X176486600Y-93420800D01*
G37*
G36*
X172680834Y-93026979D02*
G01*
X173802667Y-93031333D01*
X173806993Y-94517233D01*
X173811319Y-96003133D01*
X172685160Y-96003133D01*
X171559001Y-96003133D01*
X171559001Y-95613666D01*
X171559001Y-95224199D01*
X172236334Y-95224199D01*
X172913667Y-95224199D01*
X172913667Y-95063333D01*
X172913667Y-94902466D01*
X172253267Y-94902466D01*
X171592867Y-94902466D01*
X171592867Y-94504533D01*
X171592867Y-94106599D01*
X172253267Y-94106599D01*
X172913667Y-94106599D01*
X172913667Y-93962666D01*
X172913667Y-93818733D01*
X172236334Y-93818733D01*
X171559001Y-93818733D01*
X171559001Y-93420679D01*
X171559001Y-93022624D01*
X172680834Y-93026979D01*
G37*
G36*
X167837900Y-93026818D02*
G01*
X168282400Y-93031333D01*
X168286726Y-94517233D01*
X168291052Y-96003133D01*
X167842226Y-96003133D01*
X167393400Y-96003133D01*
X167393400Y-95435866D01*
X167393400Y-94868599D01*
X166860000Y-94868599D01*
X166326600Y-94868599D01*
X166326600Y-95435866D01*
X166326600Y-96003133D01*
X165877775Y-96003133D01*
X165428949Y-96003133D01*
X165433275Y-94517233D01*
X165437601Y-93031333D01*
X165881859Y-93026819D01*
X166326117Y-93022305D01*
X166330592Y-93551752D01*
X166335067Y-94081199D01*
X166864234Y-94085674D01*
X167393400Y-94090149D01*
X167393400Y-93556226D01*
X167393400Y-93022304D01*
X167837900Y-93026818D01*
G37*
G36*
X174102292Y-91693515D02*
G01*
X174172719Y-91885452D01*
X174238616Y-92065074D01*
X174299090Y-92229946D01*
X174353248Y-92377634D01*
X174400198Y-92505703D01*
X174439046Y-92611718D01*
X174468900Y-92693246D01*
X174488867Y-92747851D01*
X174498054Y-92773100D01*
X174520832Y-92836600D01*
X174014310Y-92836600D01*
X173507788Y-92836600D01*
X173455534Y-92667266D01*
X173403280Y-92497933D01*
X172871334Y-92497933D01*
X172339388Y-92497933D01*
X172287134Y-92667266D01*
X172234880Y-92836600D01*
X171728358Y-92836600D01*
X171221836Y-92836600D01*
X171244613Y-92773100D01*
X171250307Y-92757428D01*
X171267528Y-92710300D01*
X171294871Y-92635610D01*
X171331442Y-92535792D01*
X171376349Y-92413282D01*
X171428700Y-92270513D01*
X171487601Y-92109920D01*
X171552159Y-91933937D01*
X171621483Y-91745000D01*
X171640764Y-91692461D01*
X172591934Y-91692461D01*
X172591937Y-91692833D01*
X172596031Y-91702650D01*
X172610979Y-91709701D01*
X172641381Y-91714425D01*
X172691840Y-91717258D01*
X172766957Y-91718637D01*
X172871334Y-91719000D01*
X172966864Y-91718685D01*
X173045127Y-91717347D01*
X173098119Y-91714567D01*
X173130367Y-91709932D01*
X173146396Y-91703026D01*
X173150734Y-91693438D01*
X173148584Y-91682362D01*
X173138049Y-91642456D01*
X173120113Y-91579100D01*
X173096314Y-91497381D01*
X173068194Y-91402384D01*
X173037292Y-91299194D01*
X173005149Y-91192899D01*
X172973305Y-91088583D01*
X172943301Y-90991333D01*
X172916677Y-90906235D01*
X172894972Y-90838374D01*
X172879729Y-90792836D01*
X172872486Y-90774707D01*
X172867093Y-90776568D01*
X172856790Y-90799090D01*
X172851114Y-90817866D01*
X172836481Y-90865936D01*
X172814597Y-90937677D01*
X172786896Y-91028394D01*
X172754812Y-91133388D01*
X172719777Y-91247961D01*
X172689649Y-91347210D01*
X172658020Y-91453188D01*
X172631104Y-91545329D01*
X172610230Y-91619007D01*
X172596730Y-91669593D01*
X172591934Y-91692461D01*
X171640764Y-91692461D01*
X171694679Y-91545543D01*
X171770854Y-91338000D01*
X171828273Y-91181563D01*
X171902019Y-90980609D01*
X171972000Y-90789885D01*
X172037336Y-90611786D01*
X172097149Y-90448707D01*
X172150561Y-90303044D01*
X172196692Y-90177194D01*
X172234666Y-90073552D01*
X172263602Y-89994514D01*
X172282622Y-89942475D01*
X172290849Y-89919833D01*
X172307380Y-89873266D01*
X172871334Y-89873266D01*
X173435287Y-89873266D01*
X173451819Y-89919833D01*
X173456966Y-89934030D01*
X173473393Y-89979006D01*
X173499954Y-90051575D01*
X173535769Y-90149342D01*
X173579960Y-90269911D01*
X173631649Y-90410887D01*
X173689957Y-90569872D01*
X173754006Y-90744472D01*
X173822918Y-90932290D01*
X173895813Y-91130932D01*
X173971814Y-91338000D01*
X174028227Y-91491697D01*
X174102264Y-91693438D01*
X174102292Y-91693515D01*
G37*
G36*
X169979057Y-92994523D02*
G01*
X170082562Y-93005539D01*
X170299033Y-93053331D01*
X170516014Y-93131072D01*
X170713718Y-93234555D01*
X170890520Y-93362396D01*
X171044793Y-93513212D01*
X171174912Y-93685618D01*
X171279251Y-93878231D01*
X171356184Y-94089666D01*
X171369873Y-94145842D01*
X171389848Y-94272290D01*
X171401453Y-94414705D01*
X171404296Y-94561939D01*
X171397983Y-94702842D01*
X171382123Y-94826266D01*
X171375003Y-94862098D01*
X171313923Y-95074908D01*
X171223519Y-95270993D01*
X171103235Y-95451378D01*
X170952514Y-95617089D01*
X170928754Y-95639362D01*
X170764901Y-95771048D01*
X170586742Y-95876670D01*
X170389705Y-95958574D01*
X170169222Y-96019105D01*
X170147875Y-96023442D01*
X170025362Y-96040315D01*
X169885817Y-96048888D01*
X169739257Y-96049349D01*
X169595700Y-96041886D01*
X169465164Y-96026685D01*
X169357667Y-96003934D01*
X169311403Y-95989871D01*
X169112041Y-95908411D01*
X168929789Y-95798991D01*
X168767309Y-95663752D01*
X168627266Y-95504835D01*
X168512321Y-95324380D01*
X168486876Y-95276020D01*
X168464570Y-95229744D01*
X168455851Y-95201945D01*
X168458982Y-95186197D01*
X168472225Y-95176070D01*
X168482632Y-95170751D01*
X168523605Y-95150956D01*
X168584983Y-95122084D01*
X168661653Y-95086468D01*
X168748502Y-95046440D01*
X168840418Y-95004332D01*
X168932288Y-94962478D01*
X169018998Y-94923208D01*
X169095435Y-94888856D01*
X169156487Y-94861753D01*
X169197040Y-94844232D01*
X169211982Y-94838626D01*
X169216977Y-94851087D01*
X169273901Y-94954677D01*
X169353565Y-95055391D01*
X169446985Y-95143261D01*
X169545176Y-95208320D01*
X169585973Y-95226169D01*
X169695326Y-95252236D01*
X169817648Y-95257274D01*
X169944078Y-95242053D01*
X170065752Y-95207338D01*
X170173807Y-95153898D01*
X170216663Y-95124119D01*
X170321776Y-95024700D01*
X170403810Y-94905495D01*
X170461542Y-94771256D01*
X170493746Y-94626737D01*
X170499199Y-94476689D01*
X170476676Y-94325865D01*
X170424952Y-94179018D01*
X170407447Y-94143939D01*
X170326873Y-94024171D01*
X170227590Y-93927127D01*
X170113922Y-93853709D01*
X169990188Y-93804815D01*
X169860709Y-93781345D01*
X169729806Y-93784200D01*
X169601801Y-93814279D01*
X169481015Y-93872481D01*
X169371767Y-93959707D01*
X169364300Y-93967417D01*
X169319013Y-94022083D01*
X169273434Y-94087644D01*
X169235334Y-94152187D01*
X169212485Y-94203804D01*
X169212035Y-94203803D01*
X169192770Y-94195938D01*
X169148737Y-94176229D01*
X169084935Y-94147023D01*
X169006361Y-94110666D01*
X168918017Y-94069504D01*
X168824900Y-94025885D01*
X168732010Y-93982156D01*
X168644346Y-93940662D01*
X168566908Y-93903750D01*
X168504693Y-93873768D01*
X168462702Y-93853061D01*
X168445933Y-93843976D01*
X168446365Y-93834642D01*
X168460225Y-93801456D01*
X168486550Y-93751213D01*
X168521465Y-93690558D01*
X168561096Y-93626142D01*
X168601570Y-93564612D01*
X168639013Y-93512617D01*
X168660740Y-93485213D01*
X168801320Y-93338719D01*
X168965137Y-93213161D01*
X169146917Y-93112095D01*
X169341389Y-93039074D01*
X169371088Y-93031357D01*
X169471969Y-93013218D01*
X169593037Y-93000021D01*
X169724463Y-92992209D01*
X169856414Y-92990229D01*
X169979057Y-92994523D01*
G37*
%TD*%
M02*
