%TF.GenerationSoftware,KiCad,Pcbnew,9.0.6-unknown-202512120022~866d92e1f6~ubuntu24.04.1*%
%TF.CreationDate,2026-01-02T23:01:16+02:00*%
%TF.ProjectId,TalTechHeat,54616c54-6563-4684-9865-61742e6b6963,rev?*%
%TF.SameCoordinates,Original*%
%TF.FileFunction,Copper,L4,Bot*%
%TF.FilePolarity,Positive*%
%FSLAX46Y46*%
G04 Gerber Fmt 4.6, Leading zero omitted, Abs format (unit mm)*
G04 Created by KiCad (PCBNEW 9.0.6-unknown-202512120022~866d92e1f6~ubuntu24.04.1) date 2026-01-02 23:01:16*
%MOMM*%
%LPD*%
G01*
G04 APERTURE LIST*
G04 Aperture macros list*
%AMRotRect*
0 Rectangle, with rotation*
0 The origin of the aperture is its center*
0 $1 length*
0 $2 width*
0 $3 Rotation angle, in degrees counterclockwise*
0 Add horizontal line*
21,1,$1,$2,0,0,$3*%
G04 Aperture macros list end*
%TA.AperFunction,ComponentPad*%
%ADD10R,1.700000X1.700000*%
%TD*%
%TA.AperFunction,ComponentPad*%
%ADD11O,1.700000X1.700000*%
%TD*%
%TA.AperFunction,ComponentPad*%
%ADD12RotRect,1.000000X1.000000X45.000000*%
%TD*%
%TA.AperFunction,ComponentPad*%
%ADD13C,1.000000*%
%TD*%
%TA.AperFunction,ComponentPad*%
%ADD14C,2.000000*%
%TD*%
%TA.AperFunction,ComponentPad*%
%ADD15O,0.900000X2.400000*%
%TD*%
%TA.AperFunction,ComponentPad*%
%ADD16O,0.900000X1.700000*%
%TD*%
%TA.AperFunction,ComponentPad*%
%ADD17C,0.650000*%
%TD*%
%TA.AperFunction,ComponentPad*%
%ADD18RotRect,1.000000X1.000000X315.000000*%
%TD*%
%TA.AperFunction,ComponentPad*%
%ADD19C,1.400000*%
%TD*%
%TA.AperFunction,ComponentPad*%
%ADD20R,3.500000X3.500000*%
%TD*%
%TA.AperFunction,ComponentPad*%
%ADD21C,3.500000*%
%TD*%
%TA.AperFunction,ViaPad*%
%ADD22C,0.700000*%
%TD*%
%TA.AperFunction,ViaPad*%
%ADD23C,0.600000*%
%TD*%
%TA.AperFunction,Conductor*%
%ADD24C,0.400000*%
%TD*%
%TA.AperFunction,Conductor*%
%ADD25C,0.300000*%
%TD*%
%TA.AperFunction,Conductor*%
%ADD26C,0.500000*%
%TD*%
%TA.AperFunction,Conductor*%
%ADD27C,0.270000*%
%TD*%
%TA.AperFunction,Conductor*%
%ADD28C,0.200000*%
%TD*%
G04 APERTURE END LIST*
D10*
%TO.P,J1,1,Pin_1*%
%TO.N,+3.3V*%
X166010000Y-100195000D03*
D11*
%TO.P,J1,2,Pin_2*%
%TO.N,/BOOT0*%
X168550000Y-100195000D03*
%TO.P,J1,3,Pin_3*%
%TO.N,GND*%
X166010000Y-102735000D03*
%TO.P,J1,4,Pin_4*%
X168550000Y-102735000D03*
%TO.P,J1,5,Pin_5*%
%TO.N,/BOOT1*%
X166010000Y-105275000D03*
%TO.P,J1,6,Pin_6*%
%TO.N,+3.3V*%
X168550000Y-105275000D03*
%TD*%
D12*
%TO.P,C15,1*%
%TO.N,+20V*%
X243682233Y-93467767D03*
D13*
%TO.P,C15,2*%
%TO.N,GND*%
X247217767Y-89932233D03*
%TD*%
D12*
%TO.P,C16,1*%
%TO.N,+20V*%
X231982233Y-93467767D03*
D13*
%TO.P,C16,2*%
%TO.N,GND*%
X235517767Y-89932233D03*
%TD*%
D14*
%TO.P,SW2,1,1*%
%TO.N,/BUT1*%
X153950000Y-108700000D03*
X160450000Y-108700000D03*
%TO.P,SW2,2,2*%
%TO.N,GND*%
X153950000Y-113200000D03*
X160450000Y-113200000D03*
%TD*%
%TO.P,SW3,1,1*%
%TO.N,/BUT2*%
X164975000Y-108675000D03*
X171475000Y-108675000D03*
%TO.P,SW3,2,2*%
%TO.N,GND*%
X164975000Y-113175000D03*
X171475000Y-113175000D03*
%TD*%
D15*
%TO.P,U3,0,case*%
%TO.N,GND*%
X195250000Y-91050000D03*
D16*
X195250000Y-87670000D03*
D15*
X186600000Y-91000000D03*
D16*
X186600000Y-87670000D03*
D17*
%TO.P,U3,A1,GND*%
X193900000Y-91980000D03*
%TO.P,U3,A4,VBUS*%
%TO.N,VBUS*%
X193050000Y-91980000D03*
%TO.P,U3,A5,CC1*%
%TO.N,/CC1*%
X192200000Y-91980000D03*
%TO.P,U3,A6,DP1*%
%TO.N,/U_P*%
X191350000Y-91980000D03*
%TO.P,U3,A7,DN1*%
%TO.N,/U_N*%
X190500000Y-91980000D03*
%TO.P,U3,A8,SBU1*%
%TO.N,unconnected-(U3-SBU1-PadA8)*%
X189650000Y-91980000D03*
%TO.P,U3,A9,VBUS*%
%TO.N,VBUS*%
X188800000Y-91980000D03*
%TO.P,U3,A12,GND*%
%TO.N,GND*%
X187950000Y-91980000D03*
%TO.P,U3,B1,GND*%
X187950000Y-90630000D03*
%TO.P,U3,B4,VBUS*%
%TO.N,VBUS*%
X188800000Y-90630000D03*
%TO.P,U3,B5,CC2*%
%TO.N,/CC2*%
X189650000Y-90630000D03*
%TO.P,U3,B6,DP2*%
%TO.N,/U_P*%
X190500000Y-90630000D03*
%TO.P,U3,B7,DN2*%
%TO.N,/U_N*%
X191350000Y-90630000D03*
%TO.P,U3,B8,SBU2*%
%TO.N,unconnected-(U3-SBU2-PadB8)*%
X192200000Y-90630000D03*
%TO.P,U3,B9,VBUS*%
%TO.N,VBUS*%
X193050000Y-90630000D03*
%TO.P,U3,B12,GND*%
%TO.N,GND*%
X193900000Y-90630000D03*
%TD*%
D10*
%TO.P,J2,1,Pin_1*%
%TO.N,/SDA*%
X154075000Y-96470000D03*
D11*
%TO.P,J2,2,Pin_2*%
%TO.N,/SCL*%
X154075000Y-93930000D03*
%TO.P,J2,3,Pin_3*%
%TO.N,+3.3V*%
X154075000Y-91390000D03*
%TO.P,J2,4,Pin_4*%
%TO.N,GND*%
X154075000Y-88850000D03*
%TD*%
D18*
%TO.P,C17,1*%
%TO.N,+20V*%
X231982233Y-101632233D03*
D13*
%TO.P,C17,2*%
%TO.N,GND*%
X235517767Y-105167767D03*
%TD*%
D18*
%TO.P,C14,1*%
%TO.N,+20V*%
X243682233Y-101632233D03*
D13*
%TO.P,C14,2*%
%TO.N,GND*%
X247217767Y-105167767D03*
%TD*%
D19*
%TO.P,J3,*%
%TO.N,*%
X227150000Y-87650000D03*
X216150000Y-87650000D03*
D20*
%TO.P,J3,1,Pin_1*%
%TO.N,+20V*%
X224150000Y-92650000D03*
D21*
%TO.P,J3,2,Pin_2*%
%TO.N,/RETURN_HEAT*%
X219150000Y-92650000D03*
%TD*%
D22*
%TO.N,+3.3V*%
X199600000Y-95550000D03*
X212573585Y-114425000D03*
%TO.N,GND*%
X205650000Y-110400000D03*
X220925000Y-113250000D03*
X166602500Y-111861750D03*
X176762500Y-114401750D03*
X237722500Y-109321750D03*
X240262500Y-106781750D03*
X193600000Y-108600000D03*
X194542500Y-114401750D03*
X187400000Y-111125000D03*
X158982500Y-89001750D03*
X164062500Y-104241750D03*
X237722500Y-89001750D03*
X232642500Y-91541750D03*
X230102500Y-104241750D03*
X232642500Y-114401750D03*
X153902500Y-104241750D03*
X247882500Y-101701750D03*
X158982500Y-106781750D03*
X204702500Y-89001750D03*
X161522500Y-99161750D03*
X177325000Y-102725000D03*
X247882500Y-114401750D03*
X156442500Y-111861750D03*
X178925000Y-109700000D03*
X206250000Y-97625000D03*
X205950000Y-94100000D03*
X207242500Y-94081750D03*
X230102500Y-89001750D03*
X169142500Y-114401750D03*
X237722500Y-104241750D03*
X240262500Y-114401750D03*
X197082500Y-91541750D03*
X169142500Y-111861750D03*
X247882500Y-94081750D03*
X242802500Y-104241750D03*
X247882500Y-109321750D03*
X158982500Y-104241750D03*
X230102500Y-114401750D03*
X240262500Y-109321750D03*
X245342500Y-106781750D03*
X232642500Y-89001750D03*
X208175000Y-90050000D03*
X240262500Y-89001750D03*
X245342500Y-114401750D03*
X242802500Y-106781750D03*
X225775000Y-113250000D03*
X156442500Y-114401750D03*
X174222500Y-94081750D03*
X181050000Y-95750000D03*
X202162500Y-89001750D03*
X219875000Y-109575000D03*
X184250000Y-107975000D03*
X153902500Y-99161750D03*
X213300000Y-87675000D03*
X242802500Y-109321750D03*
X247882500Y-99161750D03*
X217725000Y-104700000D03*
X179302500Y-89001750D03*
X242802500Y-91541750D03*
X247882500Y-106781750D03*
X232642500Y-106781750D03*
X207425000Y-97600000D03*
X179150000Y-104325000D03*
X247882500Y-91541750D03*
X200925000Y-95200000D03*
X217402500Y-99161750D03*
X240262500Y-91541750D03*
X235182500Y-111861750D03*
X174475000Y-104400000D03*
X242802500Y-111861750D03*
X174222500Y-114401750D03*
X181900000Y-108950000D03*
X172475000Y-100375000D03*
X181842500Y-89001750D03*
X161522500Y-94081750D03*
X208475000Y-110425000D03*
X181925000Y-106300000D03*
X245342500Y-109321750D03*
X237722500Y-114401750D03*
X156442500Y-91541750D03*
X237722500Y-111861750D03*
X230102500Y-106781750D03*
X237722500Y-106781750D03*
X235182500Y-109321750D03*
X193450000Y-89575000D03*
X230102500Y-109321750D03*
X164062500Y-91541750D03*
X169142500Y-91541750D03*
X176525000Y-97250000D03*
X161522500Y-91541750D03*
X197000000Y-110225000D03*
X245342500Y-104241750D03*
X197082500Y-89001750D03*
X158982500Y-94081750D03*
X232642500Y-104241750D03*
X240262500Y-111861750D03*
X247882500Y-111861750D03*
X215650000Y-111775000D03*
X161522500Y-89001750D03*
X182750000Y-105075000D03*
X237722500Y-91541750D03*
X208575000Y-97600000D03*
X179175000Y-106400000D03*
X164062500Y-99161750D03*
X192002500Y-89001750D03*
X245342500Y-91541750D03*
X219850000Y-107225000D03*
X220800000Y-100325000D03*
X153902500Y-101701750D03*
X242802500Y-89001750D03*
X240262500Y-104241750D03*
X153902500Y-106781750D03*
X232642500Y-111861750D03*
X176400000Y-100150000D03*
X158982500Y-99161750D03*
X185750000Y-94975000D03*
X232642500Y-109321750D03*
X204700000Y-96375000D03*
X198400000Y-114325000D03*
X213775000Y-107550000D03*
X247882500Y-96621750D03*
X242802500Y-114401750D03*
X235182500Y-91541750D03*
X156442500Y-89001750D03*
X204700000Y-95350000D03*
X245342500Y-111861750D03*
X204702500Y-94081750D03*
X166602500Y-91541750D03*
X158982500Y-91541750D03*
X235182500Y-114401750D03*
X208475000Y-94075000D03*
X245342500Y-89001750D03*
X235182500Y-106781750D03*
%TO.N,/NRST*%
X179867525Y-109257475D03*
X193000000Y-114525000D03*
X188475000Y-110800000D03*
%TO.N,+20V*%
X213300000Y-88712500D03*
%TO.N,PD_VDD*%
X222175000Y-105975000D03*
X220950000Y-103050000D03*
%TO.N,/BOOT1*%
X181325000Y-109725000D03*
%TO.N,/BOOT0*%
X172025000Y-98700000D03*
X181450000Y-105300000D03*
%TO.N,/SDA*%
X179975000Y-107025000D03*
X180750000Y-98700000D03*
X210726225Y-106275000D03*
%TO.N,/SCL*%
X181475000Y-97775000D03*
X209925000Y-105575000D03*
X180950000Y-106850000D03*
%TO.N,Net-(Q2-G)*%
X216175000Y-114375000D03*
X221625000Y-101175000D03*
X224375000Y-105250000D03*
%TO.N,/VCC-DIV*%
X190125000Y-107775000D03*
X223050000Y-114400000D03*
%TO.N,/PD_RST*%
X182775000Y-109375000D03*
X208068750Y-105918750D03*
%TO.N,/PD_ALERT*%
X216575000Y-110075000D03*
X195500000Y-110600000D03*
%TO.N,Net-(U4-DISCH)*%
X211613853Y-107420673D03*
X213558430Y-112822213D03*
%TO.N,Net-(U4-VBUS_VS_DISCH)*%
X204575000Y-110415000D03*
X215675000Y-110500000D03*
%TO.N,/POWER_OK_3*%
X212632476Y-110532476D03*
X191850000Y-108475000D03*
%TO.N,/PWM*%
X198662500Y-87912500D03*
X182200000Y-104300000D03*
%TO.N,/PD_GPIO*%
X206625000Y-111125000D03*
X209600000Y-112425000D03*
X192650000Y-112375000D03*
X184500000Y-108925000D03*
%TO.N,/PD_ATTACH*%
X195050000Y-108600000D03*
X209615835Y-108399000D03*
%TO.N,/CC1*%
X216600000Y-104975000D03*
D23*
%TO.N,/CC2*%
X195575000Y-107000000D03*
X206700000Y-106250000D03*
D22*
%TO.N,/U_N*%
X191800000Y-105899000D03*
%TO.N,/U_P*%
X192750000Y-105899000D03*
%TD*%
D24*
%TO.N,+3.3V*%
X212573585Y-114425000D02*
X215075000Y-114425000D01*
X171100000Y-99725000D02*
X169550000Y-98175000D01*
X214725000Y-106420768D02*
X214725000Y-103425000D01*
X217126000Y-108821768D02*
X214725000Y-106420768D01*
X217350000Y-109050000D02*
X217126000Y-108826000D01*
X215863925Y-113624000D02*
X215876000Y-113624000D01*
X211675000Y-100375000D02*
X204425000Y-100375000D01*
X215424000Y-114076000D02*
X215424000Y-114063925D01*
X217350000Y-112150000D02*
X217350000Y-109050000D01*
X169550000Y-98175000D02*
X166775000Y-98175000D01*
X166010000Y-98940000D02*
X166010000Y-100195000D01*
X166775000Y-98175000D02*
X166010000Y-98940000D01*
X214725000Y-103425000D02*
X211675000Y-100375000D01*
X169800000Y-105275000D02*
X171100000Y-103975000D01*
X215075000Y-114425000D02*
X215424000Y-114076000D01*
X215424000Y-114063925D02*
X215863925Y-113624000D01*
X215876000Y-113624000D02*
X217350000Y-112150000D01*
X168550000Y-105275000D02*
X169800000Y-105275000D01*
X204425000Y-100375000D02*
X199600000Y-95550000D01*
X217126000Y-108826000D02*
X217126000Y-108821768D01*
X171100000Y-103975000D02*
X171100000Y-99725000D01*
D25*
%TO.N,/NRST*%
X188475000Y-110800000D02*
X188475000Y-113200000D01*
X179867525Y-109257475D02*
X181035050Y-110425000D01*
X189800000Y-114525000D02*
X193000000Y-114525000D01*
X181035050Y-110425000D02*
X188100000Y-110425000D01*
X188475000Y-113200000D02*
X189800000Y-114525000D01*
X188100000Y-110425000D02*
X188475000Y-110800000D01*
D26*
%TO.N,+20V*%
X213962500Y-89375000D02*
X227889466Y-89375000D01*
X227889466Y-89375000D02*
X231982233Y-93467767D01*
X213300000Y-88712500D02*
X213962500Y-89375000D01*
D25*
%TO.N,PD_VDD*%
X222175000Y-105975000D02*
X222175000Y-105950000D01*
X222175000Y-105950000D02*
X220950000Y-104725000D01*
X220950000Y-104725000D02*
X220950000Y-103050000D01*
%TO.N,/BOOT1*%
X178525000Y-106925000D02*
X167660000Y-106925000D01*
X181325000Y-109725000D02*
X178525000Y-106925000D01*
X167660000Y-106925000D02*
X166010000Y-105275000D01*
%TO.N,/BOOT0*%
X181075000Y-105675000D02*
X179000000Y-105675000D01*
X181450000Y-105300000D02*
X181075000Y-105675000D01*
X179000000Y-105675000D02*
X172025000Y-98700000D01*
%TO.N,/SDA*%
X179975000Y-107025000D02*
X180500000Y-107550000D01*
X204925000Y-107097000D02*
X206804250Y-105217750D01*
X209416364Y-106275000D02*
X210726225Y-106275000D01*
X196592654Y-107097000D02*
X204925000Y-107097000D01*
X183502000Y-106573000D02*
X190706521Y-106573000D01*
X190706521Y-106573000D02*
X191382520Y-107249000D01*
X208359114Y-105217750D02*
X209416364Y-106275000D01*
X191382520Y-107249000D02*
X194405346Y-107249000D01*
X182525000Y-107550000D02*
X183502000Y-106573000D01*
X195305346Y-106349000D02*
X195844654Y-106349000D01*
X180500000Y-107550000D02*
X182525000Y-107550000D01*
X195844654Y-106349000D02*
X196592654Y-107097000D01*
X206804250Y-105217750D02*
X208359114Y-105217750D01*
D27*
X180750000Y-98700000D02*
X178520000Y-96470000D01*
D25*
X194405346Y-107249000D02*
X195305346Y-106349000D01*
D27*
X178520000Y-96470000D02*
X154075000Y-96470000D01*
%TO.N,/SCL*%
X179675000Y-95975000D02*
X156120000Y-95975000D01*
D25*
X209066750Y-104716750D02*
X209925000Y-105575000D01*
X181149000Y-107049000D02*
X182317479Y-107049000D01*
X191590041Y-106748000D02*
X194197826Y-106748000D01*
X204838480Y-106475000D02*
X206596729Y-104716750D01*
X180950000Y-106850000D02*
X181149000Y-107049000D01*
X194197826Y-106748000D02*
X195097825Y-105848000D01*
X182317479Y-107049000D02*
X183294479Y-106072000D01*
X196052174Y-105848000D02*
X196679174Y-106475000D01*
D27*
X156120000Y-95975000D02*
X154075000Y-93930000D01*
D25*
X206596729Y-104716750D02*
X209066750Y-104716750D01*
X183294479Y-106072000D02*
X190914043Y-106072000D01*
X196679174Y-106475000D02*
X204838480Y-106475000D01*
X190914043Y-106072000D02*
X191590041Y-106748000D01*
D27*
X181475000Y-97775000D02*
X179675000Y-95975000D01*
D25*
X195097825Y-105848000D02*
X196052174Y-105848000D01*
%TO.N,Net-(Q2-G)*%
X217075000Y-114375000D02*
X219375000Y-112075000D01*
X219375000Y-112075000D02*
X221475000Y-112075000D01*
X222000000Y-111550000D02*
X222000000Y-107625000D01*
X221475000Y-112075000D02*
X222000000Y-111550000D01*
X224375000Y-102550000D02*
X224375000Y-105250000D01*
X221625000Y-101175000D02*
X223000000Y-101175000D01*
X216175000Y-114375000D02*
X217075000Y-114375000D01*
X223000000Y-101175000D02*
X224375000Y-102550000D01*
X222000000Y-107625000D02*
X224375000Y-105250000D01*
%TO.N,/VCC-DIV*%
X222725000Y-115150000D02*
X223050000Y-114825000D01*
X223050000Y-114825000D02*
X223050000Y-114400000D01*
X190125000Y-107775000D02*
X197500000Y-115150000D01*
X197500000Y-115150000D02*
X222725000Y-115150000D01*
%TO.N,/PD_RST*%
X182775000Y-108025000D02*
X183726000Y-107074000D01*
X183726000Y-107074000D02*
X190499000Y-107074000D01*
X182775000Y-109375000D02*
X182775000Y-108025000D01*
X195616480Y-107750000D02*
X195965480Y-108099000D01*
X191175000Y-107750000D02*
X195616480Y-107750000D01*
X207501000Y-108099000D02*
X208068750Y-107531250D01*
X190499000Y-107074000D02*
X191175000Y-107750000D01*
X195965480Y-108099000D02*
X207501000Y-108099000D01*
X208068750Y-107531250D02*
X208068750Y-105918750D01*
%TO.N,/PD_ALERT*%
X210625000Y-108600000D02*
X210125000Y-109100000D01*
X216575000Y-109050000D02*
X214244673Y-106719673D01*
X216575000Y-110075000D02*
X216575000Y-109050000D01*
X210625000Y-107418162D02*
X210625000Y-108600000D01*
X197000000Y-109100000D02*
X195500000Y-110600000D01*
X214244673Y-106719673D02*
X211323489Y-106719673D01*
X211323489Y-106719673D02*
X210625000Y-107418162D01*
X210125000Y-109100000D02*
X197000000Y-109100000D01*
%TO.N,Net-(U4-DISCH)*%
X213550000Y-110450000D02*
X211613853Y-108513853D01*
X213558430Y-112822213D02*
X213550000Y-112813783D01*
X211613853Y-108513853D02*
X211613853Y-107420673D01*
X213550000Y-112813783D02*
X213550000Y-110450000D01*
%TO.N,Net-(U4-VBUS_VS_DISCH)*%
X204575000Y-110415000D02*
X204575000Y-112950000D01*
X216475000Y-111300000D02*
X215675000Y-110500000D01*
X211872585Y-114134636D02*
X212283221Y-113724000D01*
X211872585Y-114136051D02*
X211872585Y-114134636D01*
X216475000Y-112245768D02*
X216475000Y-111300000D01*
X211359636Y-114649000D02*
X211872585Y-114136051D01*
X215647768Y-113073000D02*
X216475000Y-112245768D01*
X204575000Y-112950000D02*
X206274000Y-114649000D01*
X206274000Y-114649000D02*
X211359636Y-114649000D01*
X212283221Y-113724000D02*
X214984693Y-113724000D01*
X215635693Y-113073000D02*
X215647768Y-113073000D01*
X214984693Y-113724000D02*
X215635693Y-113073000D01*
%TO.N,/POWER_OK_3*%
X212632476Y-110532476D02*
X211800000Y-109700000D01*
X211800000Y-109700000D02*
X203975000Y-109700000D01*
X201925000Y-111750000D02*
X195125000Y-111750000D01*
X203975000Y-109700000D02*
X201925000Y-111750000D01*
X195125000Y-111750000D02*
X191850000Y-108475000D01*
%TO.N,/PWM*%
X185700000Y-86375000D02*
X183650000Y-88425000D01*
X183650000Y-88425000D02*
X183650000Y-103850000D01*
X183650000Y-103850000D02*
X183200000Y-104300000D01*
X198662500Y-87912500D02*
X197125000Y-86375000D01*
X197125000Y-86375000D02*
X185700000Y-86375000D01*
X183200000Y-104300000D02*
X182200000Y-104300000D01*
%TO.N,/PD_GPIO*%
X184500000Y-109625000D02*
X184775000Y-109900000D01*
D27*
X207925000Y-112425000D02*
X209600000Y-112425000D01*
D25*
X190175000Y-109900000D02*
X192650000Y-112375000D01*
X184500000Y-108925000D02*
X184500000Y-109625000D01*
D27*
X206625000Y-111125000D02*
X207925000Y-112425000D01*
D25*
X184775000Y-109900000D02*
X190175000Y-109900000D01*
%TO.N,/PD_ATTACH*%
X195050000Y-108600000D02*
X209400000Y-108600000D01*
X209477335Y-108537500D02*
X209615835Y-108399000D01*
X209462500Y-108537500D02*
X209477335Y-108537500D01*
X209400000Y-108600000D02*
X209462500Y-108537500D01*
D28*
%TO.N,/CC1*%
X192510381Y-92750000D02*
X192200000Y-92439619D01*
X192200000Y-92439619D02*
X192200000Y-91980000D01*
X214175000Y-98375000D02*
X205625000Y-98375000D01*
X205625000Y-98375000D02*
X200000000Y-92750000D01*
X200000000Y-92750000D02*
X192510381Y-92750000D01*
X216600000Y-100800000D02*
X214175000Y-98375000D01*
X216600000Y-104975000D02*
X216600000Y-100800000D01*
D25*
%TO.N,/CC2*%
X195575000Y-107000000D02*
X196173000Y-107598000D01*
X205352000Y-107598000D02*
X206700000Y-106250000D01*
X196173000Y-107598000D02*
X205352000Y-107598000D01*
D28*
%TO.N,/U_N*%
X191126000Y-90370702D02*
X190759298Y-90004000D01*
X190759298Y-90004000D02*
X190724000Y-90004000D01*
X191350000Y-90630000D02*
X191126000Y-90406000D01*
X192049999Y-104918197D02*
X192049999Y-105649001D01*
X184450000Y-99468198D02*
X188556802Y-103575000D01*
X185731802Y-89025000D02*
X184450000Y-90306802D01*
X190706802Y-103575000D02*
X192049999Y-104918197D01*
X184450000Y-90306802D02*
X184450000Y-99468198D01*
X189745000Y-89025000D02*
X185731802Y-89025000D01*
X188556802Y-103575000D02*
X190706802Y-103575000D01*
X191126000Y-90406000D02*
X191126000Y-90370702D01*
X192049999Y-105649001D02*
X191800000Y-105899000D01*
X190724000Y-90004000D02*
X189745000Y-89025000D01*
%TO.N,/U_P*%
X190500000Y-90416397D02*
X189558603Y-89475000D01*
X192500001Y-104731803D02*
X192500001Y-105649001D01*
X189558603Y-89475000D02*
X185918198Y-89475000D01*
X190500000Y-90630000D02*
X190500000Y-91094702D01*
X192500001Y-105649001D02*
X192750000Y-105899000D01*
X191350000Y-91944702D02*
X191350000Y-91980000D01*
X188743198Y-103125000D02*
X190893198Y-103125000D01*
X184900000Y-99281802D02*
X188743198Y-103125000D01*
X184900000Y-90493198D02*
X184900000Y-99281802D01*
X190500000Y-91094702D02*
X191350000Y-91944702D01*
X190893198Y-103125000D02*
X192500001Y-104731803D01*
X185918198Y-89475000D02*
X184900000Y-90493198D01*
X190500000Y-90630000D02*
X190500000Y-90416397D01*
%TD*%
%TA.AperFunction,Conductor*%
%TO.N,GND*%
G36*
X185371495Y-85995185D02*
G01*
X185417250Y-86047989D01*
X185427194Y-86117147D01*
X185398169Y-86180703D01*
X185392137Y-86187181D01*
X183374210Y-88205107D01*
X183374208Y-88205109D01*
X183369530Y-88209788D01*
X183339385Y-88262001D01*
X183338601Y-88263359D01*
X183323386Y-88289709D01*
X183299500Y-88378856D01*
X183299500Y-103653456D01*
X183290855Y-103682896D01*
X183284332Y-103712883D01*
X183280577Y-103717898D01*
X183279815Y-103720495D01*
X183263181Y-103741137D01*
X183091137Y-103913181D01*
X183029814Y-103946666D01*
X183003456Y-103949500D01*
X182679386Y-103949500D01*
X182612347Y-103929815D01*
X182591705Y-103913181D01*
X182538017Y-103859493D01*
X182538011Y-103859488D01*
X182412488Y-103787017D01*
X182412489Y-103787017D01*
X182401006Y-103783940D01*
X182272475Y-103749500D01*
X182127525Y-103749500D01*
X181998993Y-103783940D01*
X181987511Y-103787017D01*
X181861988Y-103859488D01*
X181861982Y-103859493D01*
X181759493Y-103961982D01*
X181759488Y-103961988D01*
X181687017Y-104087511D01*
X181687016Y-104087515D01*
X181649500Y-104227525D01*
X181649500Y-104372475D01*
X181687016Y-104512485D01*
X181687017Y-104512488D01*
X181729332Y-104585779D01*
X181745805Y-104653679D01*
X181722953Y-104719706D01*
X181668031Y-104762896D01*
X181598478Y-104769538D01*
X181589862Y-104767556D01*
X181522475Y-104749500D01*
X181377525Y-104749500D01*
X181273421Y-104777395D01*
X181237511Y-104787017D01*
X181111988Y-104859488D01*
X181111982Y-104859493D01*
X181009493Y-104961982D01*
X181009488Y-104961988D01*
X180937017Y-105087511D01*
X180937016Y-105087515D01*
X180924430Y-105134488D01*
X180898142Y-105232594D01*
X180861776Y-105292254D01*
X180798929Y-105322783D01*
X180778367Y-105324500D01*
X179196544Y-105324500D01*
X179129505Y-105304815D01*
X179108863Y-105288181D01*
X172611819Y-98791137D01*
X172578334Y-98729814D01*
X172575500Y-98703456D01*
X172575500Y-98627527D01*
X172575500Y-98627525D01*
X172537984Y-98487515D01*
X172465509Y-98361985D01*
X172363015Y-98259491D01*
X172363013Y-98259490D01*
X172363011Y-98259488D01*
X172237488Y-98187017D01*
X172237489Y-98187017D01*
X172226006Y-98183940D01*
X172097475Y-98149500D01*
X171952525Y-98149500D01*
X171823993Y-98183940D01*
X171812511Y-98187017D01*
X171686988Y-98259488D01*
X171686982Y-98259493D01*
X171584493Y-98361982D01*
X171584488Y-98361988D01*
X171512017Y-98487511D01*
X171512016Y-98487515D01*
X171474500Y-98627525D01*
X171474500Y-98772475D01*
X171512016Y-98912485D01*
X171512017Y-98912488D01*
X171584488Y-99038011D01*
X171584490Y-99038013D01*
X171584491Y-99038015D01*
X171686985Y-99140509D01*
X171686986Y-99140510D01*
X171686988Y-99140511D01*
X171812511Y-99212982D01*
X171812512Y-99212982D01*
X171812515Y-99212984D01*
X171952525Y-99250500D01*
X172028456Y-99250500D01*
X172095495Y-99270185D01*
X172116137Y-99286819D01*
X178784788Y-105955470D01*
X178846718Y-105991225D01*
X178854664Y-105995813D01*
X178864712Y-106001614D01*
X178953856Y-106025500D01*
X178953857Y-106025500D01*
X178953858Y-106025500D01*
X181121142Y-106025500D01*
X181121144Y-106025500D01*
X181210288Y-106001614D01*
X181228282Y-105991225D01*
X181290212Y-105955470D01*
X181363877Y-105881804D01*
X181369423Y-105877400D01*
X181395495Y-105866815D01*
X181420186Y-105853334D01*
X181431777Y-105852087D01*
X181434161Y-105851120D01*
X181436570Y-105851572D01*
X181446544Y-105850500D01*
X181522472Y-105850500D01*
X181522475Y-105850500D01*
X181662485Y-105812984D01*
X181788015Y-105740509D01*
X181890509Y-105638015D01*
X181962984Y-105512485D01*
X182000500Y-105372475D01*
X182000500Y-105227525D01*
X181962984Y-105087515D01*
X181920666Y-105014219D01*
X181904194Y-104946321D01*
X181927046Y-104880294D01*
X181981967Y-104837103D01*
X182051520Y-104830461D01*
X182060110Y-104832436D01*
X182127525Y-104850500D01*
X182127529Y-104850500D01*
X182272472Y-104850500D01*
X182272475Y-104850500D01*
X182412485Y-104812984D01*
X182538015Y-104740509D01*
X182591705Y-104686819D01*
X182653028Y-104653334D01*
X182679386Y-104650500D01*
X183246142Y-104650500D01*
X183246144Y-104650500D01*
X183335288Y-104626614D01*
X183345912Y-104620480D01*
X183415212Y-104580470D01*
X183930470Y-104065212D01*
X183976614Y-103985288D01*
X184000500Y-103896144D01*
X184000500Y-99743031D01*
X184020185Y-99675992D01*
X184072989Y-99630237D01*
X184142147Y-99620293D01*
X184205703Y-99649318D01*
X184212181Y-99655350D01*
X188316342Y-103759511D01*
X188372291Y-103815460D01*
X188372293Y-103815461D01*
X188372297Y-103815464D01*
X188424194Y-103845426D01*
X188440813Y-103855021D01*
X188517240Y-103875500D01*
X190530969Y-103875500D01*
X190598008Y-103895185D01*
X190618650Y-103911819D01*
X191713180Y-105006349D01*
X191727883Y-105033276D01*
X191744476Y-105059095D01*
X191745367Y-105065295D01*
X191746665Y-105067672D01*
X191749499Y-105094030D01*
X191749499Y-105247464D01*
X191729814Y-105314503D01*
X191677010Y-105360258D01*
X191657599Y-105367236D01*
X191595469Y-105383884D01*
X191587511Y-105386017D01*
X191461988Y-105458488D01*
X191461982Y-105458493D01*
X191359493Y-105560982D01*
X191359488Y-105560988D01*
X191287017Y-105686511D01*
X191287017Y-105686512D01*
X191287016Y-105686514D01*
X191287016Y-105686515D01*
X191285947Y-105690506D01*
X191283335Y-105700252D01*
X191246968Y-105759911D01*
X191184119Y-105790438D01*
X191114744Y-105782140D01*
X191101562Y-105775541D01*
X191049332Y-105745386D01*
X191049330Y-105745385D01*
X191045697Y-105744412D01*
X191045697Y-105744411D01*
X190960188Y-105721500D01*
X190960187Y-105721500D01*
X183248335Y-105721500D01*
X183248333Y-105721500D01*
X183177393Y-105740507D01*
X183177394Y-105740508D01*
X183159194Y-105745385D01*
X183159188Y-105745387D01*
X183079270Y-105791527D01*
X183079265Y-105791531D01*
X182208616Y-106662181D01*
X182147293Y-106695666D01*
X182120935Y-106698500D01*
X181569786Y-106698500D01*
X181502747Y-106678815D01*
X181462399Y-106636501D01*
X181433223Y-106585968D01*
X181390509Y-106511985D01*
X181288015Y-106409491D01*
X181288013Y-106409490D01*
X181288011Y-106409488D01*
X181162488Y-106337017D01*
X181162489Y-106337017D01*
X181140395Y-106331097D01*
X181022475Y-106299500D01*
X180877525Y-106299500D01*
X180759605Y-106331097D01*
X180737511Y-106337017D01*
X180611988Y-106409488D01*
X180611982Y-106409493D01*
X180509493Y-106511982D01*
X180509491Y-106511985D01*
X180490859Y-106544257D01*
X180440291Y-106592472D01*
X180371684Y-106605694D01*
X180321547Y-106585968D01*
X180320054Y-106588555D01*
X180187488Y-106512017D01*
X180187489Y-106512017D01*
X180176006Y-106508940D01*
X180047475Y-106474500D01*
X179902525Y-106474500D01*
X179773993Y-106508940D01*
X179762511Y-106512017D01*
X179636988Y-106584488D01*
X179636982Y-106584493D01*
X179534493Y-106686982D01*
X179534488Y-106686988D01*
X179462017Y-106812511D01*
X179462016Y-106812515D01*
X179424500Y-106952525D01*
X179424500Y-106952527D01*
X179424500Y-107029456D01*
X179404815Y-107096495D01*
X179352011Y-107142250D01*
X179282853Y-107152194D01*
X179219297Y-107123169D01*
X179212819Y-107117137D01*
X178740213Y-106644531D01*
X178740208Y-106644527D01*
X178660290Y-106598387D01*
X178660289Y-106598386D01*
X178660288Y-106598386D01*
X178571144Y-106574500D01*
X178571143Y-106574500D01*
X167856543Y-106574500D01*
X167789504Y-106554815D01*
X167768862Y-106538181D01*
X167017786Y-105787105D01*
X166984301Y-105725782D01*
X166989285Y-105656090D01*
X166990891Y-105652005D01*
X167020130Y-105581420D01*
X167060500Y-105378465D01*
X167060500Y-105171535D01*
X167020130Y-104968580D01*
X166940941Y-104777402D01*
X166825977Y-104605345D01*
X166825976Y-104605344D01*
X166825975Y-104605342D01*
X166679657Y-104459024D01*
X166593626Y-104401541D01*
X166507598Y-104344059D01*
X166414972Y-104305692D01*
X166316420Y-104264870D01*
X166316412Y-104264868D01*
X166113469Y-104224500D01*
X166113465Y-104224500D01*
X165906535Y-104224500D01*
X165906530Y-104224500D01*
X165703587Y-104264868D01*
X165703579Y-104264870D01*
X165512403Y-104344058D01*
X165340342Y-104459024D01*
X165194024Y-104605342D01*
X165079058Y-104777403D01*
X164999870Y-104968579D01*
X164999868Y-104968587D01*
X164959500Y-105171530D01*
X164959500Y-105378469D01*
X164999868Y-105581412D01*
X164999870Y-105581420D01*
X165075173Y-105763218D01*
X165079059Y-105772598D01*
X165133005Y-105853334D01*
X165194024Y-105944657D01*
X165340342Y-106090975D01*
X165340345Y-106090977D01*
X165512402Y-106205941D01*
X165703580Y-106285130D01*
X165904077Y-106325011D01*
X165906530Y-106325499D01*
X165906534Y-106325500D01*
X165906535Y-106325500D01*
X166113466Y-106325500D01*
X166113467Y-106325499D01*
X166316420Y-106285130D01*
X166386972Y-106255905D01*
X166456440Y-106248437D01*
X166518919Y-106279711D01*
X166522105Y-106282786D01*
X167379531Y-107140212D01*
X167444788Y-107205469D01*
X167444791Y-107205470D01*
X167444794Y-107205473D01*
X167524706Y-107251611D01*
X167524707Y-107251611D01*
X167524712Y-107251614D01*
X167613856Y-107275500D01*
X171114411Y-107275500D01*
X171181450Y-107295185D01*
X171227205Y-107347989D01*
X171237149Y-107417147D01*
X171208124Y-107480703D01*
X171152730Y-107517431D01*
X171014163Y-107562454D01*
X170845800Y-107648240D01*
X170758579Y-107711610D01*
X170692927Y-107759310D01*
X170692925Y-107759312D01*
X170692924Y-107759312D01*
X170559312Y-107892924D01*
X170559312Y-107892925D01*
X170559310Y-107892927D01*
X170539506Y-107920185D01*
X170448240Y-108045800D01*
X170362454Y-108214163D01*
X170304059Y-108393881D01*
X170274500Y-108580513D01*
X170274500Y-108769486D01*
X170304059Y-108956118D01*
X170362454Y-109135836D01*
X170434387Y-109277011D01*
X170448240Y-109304199D01*
X170559310Y-109457073D01*
X170692927Y-109590690D01*
X170845801Y-109701760D01*
X170914928Y-109736982D01*
X171014163Y-109787545D01*
X171014165Y-109787545D01*
X171014168Y-109787547D01*
X171100226Y-109815509D01*
X171193881Y-109845940D01*
X171380514Y-109875500D01*
X171380519Y-109875500D01*
X171569486Y-109875500D01*
X171756118Y-109845940D01*
X171761184Y-109844294D01*
X171935832Y-109787547D01*
X172104199Y-109701760D01*
X172257073Y-109590690D01*
X172390690Y-109457073D01*
X172501760Y-109304199D01*
X172587547Y-109135832D01*
X172645940Y-108956118D01*
X172651746Y-108919460D01*
X172675500Y-108769486D01*
X172675500Y-108580513D01*
X172645940Y-108393881D01*
X172592631Y-108229815D01*
X172587547Y-108214168D01*
X172587545Y-108214165D01*
X172587545Y-108214163D01*
X172529630Y-108100500D01*
X172501760Y-108045801D01*
X172390690Y-107892927D01*
X172257073Y-107759310D01*
X172104199Y-107648240D01*
X171935836Y-107562454D01*
X171797270Y-107517431D01*
X171739595Y-107477993D01*
X171712397Y-107413634D01*
X171724312Y-107344788D01*
X171771556Y-107293312D01*
X171835589Y-107275500D01*
X178328456Y-107275500D01*
X178395495Y-107295185D01*
X178416137Y-107311819D01*
X179663616Y-108559298D01*
X179697101Y-108620621D01*
X179692117Y-108690313D01*
X179650245Y-108746246D01*
X179637936Y-108754366D01*
X179529510Y-108816966D01*
X179529507Y-108816968D01*
X179427018Y-108919457D01*
X179427013Y-108919463D01*
X179354542Y-109044986D01*
X179354541Y-109044990D01*
X179317025Y-109185000D01*
X179317025Y-109329950D01*
X179351989Y-109460435D01*
X179354542Y-109469963D01*
X179427013Y-109595486D01*
X179427015Y-109595488D01*
X179427016Y-109595490D01*
X179529510Y-109697984D01*
X179529511Y-109697985D01*
X179529513Y-109697986D01*
X179655036Y-109770457D01*
X179655037Y-109770457D01*
X179655040Y-109770459D01*
X179795050Y-109807975D01*
X179870981Y-109807975D01*
X179938020Y-109827660D01*
X179958662Y-109844294D01*
X180819838Y-110705470D01*
X180888239Y-110744961D01*
X180899762Y-110751614D01*
X180988906Y-110775500D01*
X180988907Y-110775500D01*
X181081194Y-110775500D01*
X187803367Y-110775500D01*
X187870406Y-110795185D01*
X187916161Y-110847989D01*
X187923142Y-110867406D01*
X187924500Y-110872474D01*
X187924500Y-110872475D01*
X187953166Y-110979456D01*
X187962017Y-111012488D01*
X188034488Y-111138011D01*
X188034493Y-111138017D01*
X188088181Y-111191705D01*
X188121666Y-111253028D01*
X188124500Y-111279386D01*
X188124500Y-113246144D01*
X188139065Y-113300501D01*
X188139065Y-113300502D01*
X188148384Y-113335284D01*
X188148385Y-113335286D01*
X188194527Y-113415208D01*
X188194529Y-113415211D01*
X188194530Y-113415212D01*
X189584788Y-114805470D01*
X189645478Y-114840509D01*
X189645479Y-114840510D01*
X189651889Y-114844210D01*
X189664712Y-114851614D01*
X189753856Y-114875500D01*
X192520614Y-114875500D01*
X192587653Y-114895185D01*
X192608295Y-114911819D01*
X192661985Y-114965509D01*
X192661986Y-114965510D01*
X192661988Y-114965511D01*
X192787511Y-115037982D01*
X192787512Y-115037982D01*
X192787515Y-115037984D01*
X192927525Y-115075500D01*
X192927528Y-115075500D01*
X193072472Y-115075500D01*
X193072475Y-115075500D01*
X193212485Y-115037984D01*
X193338015Y-114965509D01*
X193440509Y-114863015D01*
X193512984Y-114737485D01*
X193550500Y-114597475D01*
X193550500Y-114452525D01*
X193512984Y-114312515D01*
X193504892Y-114298500D01*
X193440511Y-114186988D01*
X193440506Y-114186982D01*
X193338017Y-114084493D01*
X193338011Y-114084488D01*
X193212488Y-114012017D01*
X193212489Y-114012017D01*
X193201006Y-114008940D01*
X193072475Y-113974500D01*
X192927525Y-113974500D01*
X192798993Y-114008940D01*
X192787511Y-114012017D01*
X192661988Y-114084488D01*
X192661982Y-114084493D01*
X192608295Y-114138181D01*
X192546972Y-114171666D01*
X192520614Y-114174500D01*
X189996544Y-114174500D01*
X189929505Y-114154815D01*
X189908863Y-114138181D01*
X188861819Y-113091137D01*
X188828334Y-113029814D01*
X188825500Y-113003456D01*
X188825500Y-111279386D01*
X188845185Y-111212347D01*
X188861819Y-111191705D01*
X188877497Y-111176027D01*
X188915509Y-111138015D01*
X188987984Y-111012485D01*
X189025500Y-110872475D01*
X189025500Y-110727525D01*
X188987984Y-110587515D01*
X188987879Y-110587334D01*
X188915511Y-110461988D01*
X188910562Y-110455539D01*
X188911630Y-110454719D01*
X188882220Y-110400858D01*
X188887204Y-110331166D01*
X188929076Y-110275233D01*
X188994540Y-110250816D01*
X189003386Y-110250500D01*
X189978456Y-110250500D01*
X190045495Y-110270185D01*
X190066137Y-110286819D01*
X192063181Y-112283863D01*
X192096666Y-112345186D01*
X192099500Y-112371544D01*
X192099500Y-112447475D01*
X192109341Y-112484201D01*
X192137017Y-112587488D01*
X192209488Y-112713011D01*
X192209490Y-112713013D01*
X192209491Y-112713015D01*
X192311985Y-112815509D01*
X192311986Y-112815510D01*
X192311988Y-112815511D01*
X192437511Y-112887982D01*
X192437512Y-112887982D01*
X192437515Y-112887984D01*
X192577525Y-112925500D01*
X192577528Y-112925500D01*
X192722472Y-112925500D01*
X192722475Y-112925500D01*
X192862485Y-112887984D01*
X192988015Y-112815509D01*
X193090509Y-112713015D01*
X193162984Y-112587485D01*
X193200500Y-112447475D01*
X193200500Y-112302525D01*
X193162984Y-112162515D01*
X193148197Y-112136904D01*
X193090511Y-112036988D01*
X193090506Y-112036982D01*
X192988017Y-111934493D01*
X192988011Y-111934488D01*
X192862488Y-111862017D01*
X192862489Y-111862017D01*
X192851006Y-111858940D01*
X192722475Y-111824500D01*
X192722472Y-111824500D01*
X192646544Y-111824500D01*
X192579505Y-111804815D01*
X192558863Y-111788181D01*
X190390213Y-109619531D01*
X190390208Y-109619527D01*
X190310290Y-109573387D01*
X190310289Y-109573386D01*
X190310288Y-109573386D01*
X190221144Y-109549500D01*
X190221143Y-109549500D01*
X184974500Y-109549500D01*
X184965814Y-109546949D01*
X184956853Y-109548238D01*
X184932812Y-109537259D01*
X184907461Y-109529815D01*
X184901533Y-109522974D01*
X184893297Y-109519213D01*
X184879007Y-109496978D01*
X184861706Y-109477011D01*
X184859418Y-109466496D01*
X184855523Y-109460435D01*
X184850500Y-109425500D01*
X184850500Y-109404386D01*
X184870185Y-109337347D01*
X184886819Y-109316705D01*
X184900999Y-109302525D01*
X184940509Y-109263015D01*
X185012984Y-109137485D01*
X185050500Y-108997475D01*
X185050500Y-108852525D01*
X185012984Y-108712515D01*
X185009785Y-108706975D01*
X184940511Y-108586988D01*
X184940506Y-108586982D01*
X184838017Y-108484493D01*
X184838011Y-108484488D01*
X184712488Y-108412017D01*
X184712489Y-108412017D01*
X184686264Y-108404990D01*
X184572475Y-108374500D01*
X184427525Y-108374500D01*
X184313736Y-108404990D01*
X184287511Y-108412017D01*
X184161988Y-108484488D01*
X184161982Y-108484493D01*
X184059493Y-108586982D01*
X184059488Y-108586988D01*
X183987017Y-108712511D01*
X183987016Y-108712515D01*
X183949500Y-108852525D01*
X183949500Y-108997475D01*
X183980451Y-109112984D01*
X183987017Y-109137488D01*
X184059488Y-109263011D01*
X184059493Y-109263017D01*
X184113181Y-109316705D01*
X184146666Y-109378028D01*
X184149500Y-109404386D01*
X184149500Y-109671144D01*
X184160720Y-109713015D01*
X184173386Y-109760287D01*
X184173387Y-109760290D01*
X184219527Y-109840208D01*
X184219531Y-109840213D01*
X184242137Y-109862819D01*
X184275622Y-109924142D01*
X184270638Y-109993834D01*
X184228766Y-110049767D01*
X184163302Y-110074184D01*
X184154456Y-110074500D01*
X183127204Y-110074500D01*
X183060165Y-110054815D01*
X183014410Y-110002011D01*
X183004466Y-109932853D01*
X183033491Y-109869297D01*
X183065204Y-109843113D01*
X183091969Y-109827660D01*
X183113015Y-109815509D01*
X183215509Y-109713015D01*
X183287984Y-109587485D01*
X183325500Y-109447475D01*
X183325500Y-109302525D01*
X183287984Y-109162515D01*
X183287012Y-109160832D01*
X183215511Y-109036988D01*
X183215506Y-109036982D01*
X183161819Y-108983295D01*
X183128334Y-108921972D01*
X183125500Y-108895614D01*
X183125500Y-108221544D01*
X183145185Y-108154505D01*
X183161819Y-108133863D01*
X183834863Y-107460819D01*
X183896186Y-107427334D01*
X183922544Y-107424500D01*
X189487397Y-107424500D01*
X189554436Y-107444185D01*
X189600191Y-107496989D01*
X189610135Y-107566147D01*
X189607173Y-107580589D01*
X189574500Y-107702525D01*
X189574500Y-107847475D01*
X189604247Y-107958491D01*
X189612017Y-107987488D01*
X189684488Y-108113011D01*
X189684490Y-108113013D01*
X189684491Y-108113015D01*
X189786985Y-108215509D01*
X189786986Y-108215510D01*
X189786988Y-108215511D01*
X189912511Y-108287982D01*
X189912512Y-108287982D01*
X189912515Y-108287984D01*
X190052525Y-108325500D01*
X190128456Y-108325500D01*
X190195495Y-108345185D01*
X190216137Y-108361819D01*
X197017137Y-115162819D01*
X197050622Y-115224142D01*
X197045638Y-115293834D01*
X197003766Y-115349767D01*
X196938302Y-115374184D01*
X196929456Y-115374500D01*
X151887000Y-115374500D01*
X151819961Y-115354815D01*
X151774206Y-115302011D01*
X151763000Y-115250500D01*
X151763000Y-108605513D01*
X152749500Y-108605513D01*
X152749500Y-108794486D01*
X152779059Y-108981118D01*
X152837454Y-109160836D01*
X152900460Y-109284491D01*
X152923240Y-109329199D01*
X153034310Y-109482073D01*
X153167927Y-109615690D01*
X153320801Y-109726760D01*
X153340869Y-109736985D01*
X153489163Y-109812545D01*
X153489165Y-109812545D01*
X153489168Y-109812547D01*
X153535681Y-109827660D01*
X153668881Y-109870940D01*
X153855514Y-109900500D01*
X153855519Y-109900500D01*
X154044486Y-109900500D01*
X154231118Y-109870940D01*
X154236175Y-109869297D01*
X154410832Y-109812547D01*
X154579199Y-109726760D01*
X154732073Y-109615690D01*
X154865690Y-109482073D01*
X154976760Y-109329199D01*
X155062547Y-109160832D01*
X155120940Y-108981118D01*
X155124900Y-108956118D01*
X155150500Y-108794486D01*
X155150500Y-108605513D01*
X159249500Y-108605513D01*
X159249500Y-108794486D01*
X159279059Y-108981118D01*
X159337454Y-109160836D01*
X159400460Y-109284491D01*
X159423240Y-109329199D01*
X159534310Y-109482073D01*
X159667927Y-109615690D01*
X159820801Y-109726760D01*
X159840869Y-109736985D01*
X159989163Y-109812545D01*
X159989165Y-109812545D01*
X159989168Y-109812547D01*
X160035681Y-109827660D01*
X160168881Y-109870940D01*
X160355514Y-109900500D01*
X160355519Y-109900500D01*
X160544486Y-109900500D01*
X160731118Y-109870940D01*
X160736175Y-109869297D01*
X160910832Y-109812547D01*
X161079199Y-109726760D01*
X161232073Y-109615690D01*
X161365690Y-109482073D01*
X161476760Y-109329199D01*
X161562547Y-109160832D01*
X161620940Y-108981118D01*
X161624900Y-108956118D01*
X161650500Y-108794486D01*
X161650500Y-108605512D01*
X161648842Y-108595044D01*
X161646540Y-108580513D01*
X163774500Y-108580513D01*
X163774500Y-108769486D01*
X163804059Y-108956118D01*
X163862454Y-109135836D01*
X163934387Y-109277011D01*
X163948240Y-109304199D01*
X164059310Y-109457073D01*
X164192927Y-109590690D01*
X164345801Y-109701760D01*
X164414928Y-109736982D01*
X164514163Y-109787545D01*
X164514165Y-109787545D01*
X164514168Y-109787547D01*
X164600226Y-109815509D01*
X164693881Y-109845940D01*
X164880514Y-109875500D01*
X164880519Y-109875500D01*
X165069486Y-109875500D01*
X165256118Y-109845940D01*
X165261184Y-109844294D01*
X165435832Y-109787547D01*
X165604199Y-109701760D01*
X165757073Y-109590690D01*
X165890690Y-109457073D01*
X166001760Y-109304199D01*
X166087547Y-109135832D01*
X166145940Y-108956118D01*
X166151746Y-108919460D01*
X166175500Y-108769486D01*
X166175500Y-108580513D01*
X166145940Y-108393881D01*
X166092631Y-108229815D01*
X166087547Y-108214168D01*
X166087545Y-108214165D01*
X166087545Y-108214163D01*
X166029630Y-108100500D01*
X166001760Y-108045801D01*
X165890690Y-107892927D01*
X165757073Y-107759310D01*
X165604199Y-107648240D01*
X165435836Y-107562454D01*
X165256118Y-107504059D01*
X165069486Y-107474500D01*
X165069481Y-107474500D01*
X164880519Y-107474500D01*
X164880514Y-107474500D01*
X164693881Y-107504059D01*
X164514163Y-107562454D01*
X164345800Y-107648240D01*
X164258579Y-107711610D01*
X164192927Y-107759310D01*
X164192925Y-107759312D01*
X164192924Y-107759312D01*
X164059312Y-107892924D01*
X164059312Y-107892925D01*
X164059310Y-107892927D01*
X164039506Y-107920185D01*
X163948240Y-108045800D01*
X163862454Y-108214163D01*
X163804059Y-108393881D01*
X163774500Y-108580513D01*
X161646540Y-108580513D01*
X161620940Y-108418881D01*
X161570133Y-108262515D01*
X161562547Y-108239168D01*
X161562545Y-108239165D01*
X161562545Y-108239163D01*
X161510482Y-108136985D01*
X161476760Y-108070801D01*
X161365690Y-107917927D01*
X161232073Y-107784310D01*
X161079199Y-107673240D01*
X161072057Y-107669601D01*
X160910836Y-107587454D01*
X160731118Y-107529059D01*
X160544486Y-107499500D01*
X160544481Y-107499500D01*
X160355519Y-107499500D01*
X160355514Y-107499500D01*
X160168881Y-107529059D01*
X159989163Y-107587454D01*
X159820800Y-107673240D01*
X159748379Y-107725858D01*
X159667927Y-107784310D01*
X159667925Y-107784312D01*
X159667924Y-107784312D01*
X159534312Y-107917924D01*
X159534312Y-107917925D01*
X159534310Y-107917927D01*
X159504837Y-107958493D01*
X159423240Y-108070800D01*
X159337454Y-108239163D01*
X159279059Y-108418881D01*
X159249500Y-108605513D01*
X155150500Y-108605513D01*
X155120940Y-108418881D01*
X155070133Y-108262515D01*
X155062547Y-108239168D01*
X155062545Y-108239165D01*
X155062545Y-108239163D01*
X155010482Y-108136985D01*
X154976760Y-108070801D01*
X154865690Y-107917927D01*
X154732073Y-107784310D01*
X154579199Y-107673240D01*
X154572057Y-107669601D01*
X154410836Y-107587454D01*
X154231118Y-107529059D01*
X154044486Y-107499500D01*
X154044481Y-107499500D01*
X153855519Y-107499500D01*
X153855514Y-107499500D01*
X153668881Y-107529059D01*
X153489163Y-107587454D01*
X153320800Y-107673240D01*
X153248379Y-107725858D01*
X153167927Y-107784310D01*
X153167925Y-107784312D01*
X153167924Y-107784312D01*
X153034312Y-107917924D01*
X153034312Y-107917925D01*
X153034310Y-107917927D01*
X153004837Y-107958493D01*
X152923240Y-108070800D01*
X152837454Y-108239163D01*
X152779059Y-108418881D01*
X152749500Y-108605513D01*
X151763000Y-108605513D01*
X151763000Y-99325247D01*
X164959500Y-99325247D01*
X164959500Y-101064752D01*
X164971131Y-101123229D01*
X164971132Y-101123230D01*
X165015447Y-101189552D01*
X165081769Y-101233867D01*
X165081770Y-101233868D01*
X165140247Y-101245499D01*
X165140250Y-101245500D01*
X165140252Y-101245500D01*
X166879750Y-101245500D01*
X166879751Y-101245499D01*
X166894568Y-101242552D01*
X166938229Y-101233868D01*
X166938229Y-101233867D01*
X166938231Y-101233867D01*
X167004552Y-101189552D01*
X167048867Y-101123231D01*
X167048867Y-101123229D01*
X167048868Y-101123229D01*
X167060499Y-101064752D01*
X167060500Y-101064750D01*
X167060500Y-100091530D01*
X167499500Y-100091530D01*
X167499500Y-100298469D01*
X167539868Y-100501412D01*
X167539870Y-100501420D01*
X167589365Y-100620912D01*
X167619059Y-100692598D01*
X167664388Y-100760438D01*
X167734024Y-100864657D01*
X167880342Y-101010975D01*
X167880345Y-101010977D01*
X168052402Y-101125941D01*
X168243580Y-101205130D01*
X168388052Y-101233867D01*
X168446530Y-101245499D01*
X168446534Y-101245500D01*
X168446535Y-101245500D01*
X168653466Y-101245500D01*
X168653467Y-101245499D01*
X168856420Y-101205130D01*
X169047598Y-101125941D01*
X169219655Y-101010977D01*
X169365977Y-100864655D01*
X169480941Y-100692598D01*
X169560130Y-100501420D01*
X169600500Y-100298465D01*
X169600500Y-100091535D01*
X169560130Y-99888580D01*
X169480941Y-99697402D01*
X169365977Y-99525345D01*
X169365975Y-99525342D01*
X169219657Y-99379024D01*
X169051655Y-99266770D01*
X169047598Y-99264059D01*
X168856420Y-99184870D01*
X168856412Y-99184868D01*
X168653469Y-99144500D01*
X168653465Y-99144500D01*
X168446535Y-99144500D01*
X168446530Y-99144500D01*
X168243587Y-99184868D01*
X168243579Y-99184870D01*
X168052403Y-99264058D01*
X167880342Y-99379024D01*
X167734024Y-99525342D01*
X167619058Y-99697403D01*
X167539870Y-99888579D01*
X167539868Y-99888587D01*
X167499500Y-100091530D01*
X167060500Y-100091530D01*
X167060500Y-99325249D01*
X167060499Y-99325247D01*
X167048868Y-99266770D01*
X167048867Y-99266769D01*
X167004552Y-99200447D01*
X166938230Y-99156132D01*
X166938229Y-99156131D01*
X166879752Y-99144500D01*
X166879748Y-99144500D01*
X166671255Y-99144500D01*
X166604216Y-99124815D01*
X166558461Y-99072011D01*
X166548517Y-99002853D01*
X166577542Y-98939297D01*
X166583574Y-98932819D01*
X166904574Y-98611819D01*
X166965897Y-98578334D01*
X166992255Y-98575500D01*
X169332745Y-98575500D01*
X169399784Y-98595185D01*
X169420426Y-98611819D01*
X170663181Y-99854574D01*
X170696666Y-99915897D01*
X170699500Y-99942255D01*
X170699500Y-103757745D01*
X170679815Y-103824784D01*
X170663181Y-103845426D01*
X169685465Y-104823141D01*
X169624142Y-104856626D01*
X169554450Y-104851642D01*
X169498517Y-104809770D01*
X169483220Y-104782905D01*
X169480941Y-104777403D01*
X169480937Y-104777395D01*
X169365977Y-104605344D01*
X169219657Y-104459024D01*
X169133626Y-104401541D01*
X169047598Y-104344059D01*
X168954972Y-104305692D01*
X168856420Y-104264870D01*
X168856412Y-104264868D01*
X168653469Y-104224500D01*
X168653465Y-104224500D01*
X168446535Y-104224500D01*
X168446530Y-104224500D01*
X168243587Y-104264868D01*
X168243579Y-104264870D01*
X168052403Y-104344058D01*
X167880342Y-104459024D01*
X167734024Y-104605342D01*
X167619058Y-104777403D01*
X167539870Y-104968579D01*
X167539868Y-104968587D01*
X167499500Y-105171530D01*
X167499500Y-105378469D01*
X167539868Y-105581412D01*
X167539870Y-105581420D01*
X167615173Y-105763218D01*
X167619059Y-105772598D01*
X167673005Y-105853334D01*
X167734024Y-105944657D01*
X167880342Y-106090975D01*
X167880345Y-106090977D01*
X168052402Y-106205941D01*
X168243580Y-106285130D01*
X168444077Y-106325011D01*
X168446530Y-106325499D01*
X168446534Y-106325500D01*
X168446535Y-106325500D01*
X168653466Y-106325500D01*
X168653467Y-106325499D01*
X168856420Y-106285130D01*
X169047598Y-106205941D01*
X169219655Y-106090977D01*
X169365977Y-105944655D01*
X169480941Y-105772598D01*
X169489454Y-105752045D01*
X169533296Y-105697643D01*
X169599590Y-105675579D01*
X169604015Y-105675500D01*
X169852725Y-105675500D01*
X169852727Y-105675500D01*
X169954588Y-105648207D01*
X170045913Y-105595480D01*
X171335703Y-104305687D01*
X171335708Y-104305684D01*
X171345911Y-104295480D01*
X171345913Y-104295480D01*
X171420480Y-104220913D01*
X171473207Y-104129587D01*
X171479490Y-104106138D01*
X171485212Y-104084787D01*
X171491673Y-104060670D01*
X171500501Y-104027727D01*
X171500501Y-103922273D01*
X171500501Y-103914678D01*
X171500500Y-103914660D01*
X171500500Y-99672275D01*
X171500499Y-99672271D01*
X171495965Y-99655350D01*
X171476898Y-99584187D01*
X171476898Y-99584186D01*
X171476898Y-99584185D01*
X171473207Y-99570413D01*
X171473207Y-99570412D01*
X171447187Y-99525345D01*
X171420480Y-99479087D01*
X169795913Y-97854520D01*
X169734682Y-97819168D01*
X169704589Y-97801793D01*
X169653657Y-97788146D01*
X169602727Y-97774500D01*
X166722273Y-97774500D01*
X166620413Y-97801793D01*
X166620412Y-97801793D01*
X166620410Y-97801794D01*
X166620407Y-97801795D01*
X166590318Y-97819168D01*
X166590317Y-97819169D01*
X166559702Y-97836844D01*
X166529088Y-97854519D01*
X166529085Y-97854521D01*
X165689522Y-98694084D01*
X165689520Y-98694087D01*
X165636793Y-98785412D01*
X165623429Y-98835288D01*
X165623429Y-98835289D01*
X165623428Y-98835288D01*
X165609500Y-98887271D01*
X165609500Y-99020500D01*
X165589815Y-99087539D01*
X165537011Y-99133294D01*
X165485500Y-99144500D01*
X165140247Y-99144500D01*
X165081770Y-99156131D01*
X165081769Y-99156132D01*
X165015447Y-99200447D01*
X164971132Y-99266769D01*
X164971131Y-99266770D01*
X164959500Y-99325247D01*
X151763000Y-99325247D01*
X151763000Y-93826530D01*
X153024500Y-93826530D01*
X153024500Y-94033469D01*
X153064868Y-94236412D01*
X153064870Y-94236420D01*
X153144058Y-94427596D01*
X153259024Y-94599657D01*
X153405342Y-94745975D01*
X153405345Y-94745977D01*
X153577402Y-94860941D01*
X153768580Y-94940130D01*
X153971530Y-94980499D01*
X153971534Y-94980500D01*
X153971535Y-94980500D01*
X154178466Y-94980500D01*
X154178467Y-94980499D01*
X154381420Y-94940130D01*
X154466971Y-94904692D01*
X154536439Y-94897224D01*
X154598918Y-94928498D01*
X154602104Y-94931573D01*
X154878350Y-95207819D01*
X154911835Y-95269142D01*
X154906851Y-95338834D01*
X154864979Y-95394767D01*
X154799515Y-95419184D01*
X154790669Y-95419500D01*
X153205247Y-95419500D01*
X153146770Y-95431131D01*
X153146769Y-95431132D01*
X153080447Y-95475447D01*
X153036132Y-95541769D01*
X153036131Y-95541770D01*
X153024500Y-95600247D01*
X153024500Y-97339752D01*
X153036131Y-97398229D01*
X153036132Y-97398230D01*
X153080447Y-97464552D01*
X153146769Y-97508867D01*
X153146770Y-97508868D01*
X153205247Y-97520499D01*
X153205250Y-97520500D01*
X153205252Y-97520500D01*
X154944750Y-97520500D01*
X154944751Y-97520499D01*
X154959568Y-97517552D01*
X155003229Y-97508868D01*
X155003229Y-97508867D01*
X155003231Y-97508867D01*
X155069552Y-97464552D01*
X155113867Y-97398231D01*
X155113867Y-97398229D01*
X155113868Y-97398229D01*
X155125499Y-97339752D01*
X155125500Y-97339750D01*
X155125500Y-96929500D01*
X155145185Y-96862461D01*
X155197989Y-96816706D01*
X155249500Y-96805500D01*
X178329669Y-96805500D01*
X178396708Y-96825185D01*
X178417350Y-96841819D01*
X180163181Y-98587649D01*
X180196666Y-98648972D01*
X180199500Y-98675330D01*
X180199500Y-98772475D01*
X180237016Y-98912485D01*
X180237017Y-98912488D01*
X180309488Y-99038011D01*
X180309490Y-99038013D01*
X180309491Y-99038015D01*
X180411985Y-99140509D01*
X180411986Y-99140510D01*
X180411988Y-99140511D01*
X180537511Y-99212982D01*
X180537512Y-99212982D01*
X180537515Y-99212984D01*
X180677525Y-99250500D01*
X180677528Y-99250500D01*
X180822472Y-99250500D01*
X180822475Y-99250500D01*
X180962485Y-99212984D01*
X181088015Y-99140509D01*
X181190509Y-99038015D01*
X181262984Y-98912485D01*
X181300500Y-98772475D01*
X181300500Y-98627525D01*
X181262984Y-98487515D01*
X181262982Y-98487511D01*
X181260913Y-98479788D01*
X181262576Y-98409938D01*
X181301738Y-98352075D01*
X181365967Y-98324571D01*
X181396882Y-98324756D01*
X181402520Y-98325498D01*
X181402525Y-98325500D01*
X181402530Y-98325500D01*
X181547472Y-98325500D01*
X181547475Y-98325500D01*
X181687485Y-98287984D01*
X181813015Y-98215509D01*
X181915509Y-98113015D01*
X181987984Y-97987485D01*
X182025500Y-97847475D01*
X182025500Y-97702525D01*
X181987984Y-97562515D01*
X181957010Y-97508867D01*
X181915511Y-97436988D01*
X181915506Y-97436982D01*
X181813017Y-97334493D01*
X181813011Y-97334488D01*
X181687488Y-97262017D01*
X181687489Y-97262017D01*
X181676006Y-97258940D01*
X181547475Y-97224500D01*
X181450330Y-97224500D01*
X181383291Y-97204815D01*
X181362649Y-97188181D01*
X180635326Y-96460858D01*
X179881002Y-95706533D01*
X179804498Y-95662364D01*
X179804499Y-95662364D01*
X179783165Y-95656648D01*
X179719169Y-95639500D01*
X179719166Y-95639500D01*
X156310331Y-95639500D01*
X156243292Y-95619815D01*
X156222650Y-95603181D01*
X155076573Y-94457104D01*
X155043088Y-94395781D01*
X155048072Y-94326089D01*
X155049677Y-94322007D01*
X155085130Y-94236420D01*
X155125500Y-94033465D01*
X155125500Y-93826535D01*
X155085130Y-93623580D01*
X155005941Y-93432402D01*
X154890977Y-93260345D01*
X154890975Y-93260342D01*
X154744657Y-93114024D01*
X154618930Y-93030017D01*
X154572598Y-92999059D01*
X154551838Y-92990460D01*
X154381420Y-92919870D01*
X154381412Y-92919868D01*
X154178469Y-92879500D01*
X154178465Y-92879500D01*
X153971535Y-92879500D01*
X153971530Y-92879500D01*
X153768587Y-92919868D01*
X153768579Y-92919870D01*
X153577403Y-92999058D01*
X153405342Y-93114024D01*
X153259024Y-93260342D01*
X153144058Y-93432403D01*
X153064870Y-93623579D01*
X153064868Y-93623587D01*
X153024500Y-93826530D01*
X151763000Y-93826530D01*
X151763000Y-91286530D01*
X153024500Y-91286530D01*
X153024500Y-91493469D01*
X153064868Y-91696412D01*
X153064870Y-91696420D01*
X153101750Y-91785457D01*
X153144059Y-91887598D01*
X153159575Y-91910819D01*
X153259024Y-92059657D01*
X153405342Y-92205975D01*
X153405345Y-92205977D01*
X153577402Y-92320941D01*
X153768580Y-92400130D01*
X153917818Y-92429815D01*
X153971530Y-92440499D01*
X153971534Y-92440500D01*
X153971535Y-92440500D01*
X154178466Y-92440500D01*
X154178467Y-92440499D01*
X154381420Y-92400130D01*
X154572598Y-92320941D01*
X154744655Y-92205977D01*
X154890977Y-92059655D01*
X155005941Y-91887598D01*
X155085130Y-91696420D01*
X155125500Y-91493465D01*
X155125500Y-91286535D01*
X155085130Y-91083580D01*
X155005941Y-90892402D01*
X154890977Y-90720345D01*
X154890975Y-90720342D01*
X154744657Y-90574024D01*
X154658626Y-90516541D01*
X154572598Y-90459059D01*
X154381420Y-90379870D01*
X154381412Y-90379868D01*
X154178469Y-90339500D01*
X154178465Y-90339500D01*
X153971535Y-90339500D01*
X153971530Y-90339500D01*
X153768587Y-90379868D01*
X153768579Y-90379870D01*
X153577403Y-90459058D01*
X153405342Y-90574024D01*
X153259024Y-90720342D01*
X153144058Y-90892403D01*
X153064870Y-91083579D01*
X153064868Y-91083587D01*
X153024500Y-91286530D01*
X151763000Y-91286530D01*
X151763000Y-86099500D01*
X151782685Y-86032461D01*
X151835489Y-85986706D01*
X151887000Y-85975500D01*
X185304456Y-85975500D01*
X185371495Y-85995185D01*
G37*
%TD.AperFunction*%
%TA.AperFunction,Conductor*%
G36*
X251105039Y-85995185D02*
G01*
X251150794Y-86047989D01*
X251162000Y-86099500D01*
X251162000Y-115250500D01*
X251142315Y-115317539D01*
X251089511Y-115363294D01*
X251038000Y-115374500D01*
X223295543Y-115374500D01*
X223228504Y-115354815D01*
X223182749Y-115302011D01*
X223172805Y-115232853D01*
X223201830Y-115169297D01*
X223207862Y-115162819D01*
X223330469Y-115040212D01*
X223335932Y-115030749D01*
X223376612Y-114960292D01*
X223376612Y-114960291D01*
X223376614Y-114960288D01*
X223382590Y-114937984D01*
X223400500Y-114871144D01*
X223400500Y-114864422D01*
X223404014Y-114850017D01*
X223418288Y-114825364D01*
X223429808Y-114799323D01*
X223436778Y-114791745D01*
X223490509Y-114738015D01*
X223562984Y-114612485D01*
X223600500Y-114472475D01*
X223600500Y-114327525D01*
X223562984Y-114187515D01*
X223562676Y-114186982D01*
X223490511Y-114061988D01*
X223490506Y-114061982D01*
X223388017Y-113959493D01*
X223388011Y-113959488D01*
X223262488Y-113887017D01*
X223262489Y-113887017D01*
X223251006Y-113883940D01*
X223122475Y-113849500D01*
X222977525Y-113849500D01*
X222848993Y-113883940D01*
X222837511Y-113887017D01*
X222711988Y-113959488D01*
X222711982Y-113959493D01*
X222609493Y-114061982D01*
X222609488Y-114061988D01*
X222537017Y-114187511D01*
X222537016Y-114187515D01*
X222499500Y-114327525D01*
X222499500Y-114472475D01*
X222532993Y-114597472D01*
X222537017Y-114612489D01*
X222537018Y-114612492D01*
X222537603Y-114613504D01*
X222537836Y-114614465D01*
X222540128Y-114619999D01*
X222539265Y-114620356D01*
X222554073Y-114681405D01*
X222531219Y-114747431D01*
X222476296Y-114790619D01*
X222430214Y-114799500D01*
X217445544Y-114799500D01*
X217378505Y-114779815D01*
X217332750Y-114727011D01*
X217322806Y-114657853D01*
X217351831Y-114594297D01*
X217357863Y-114587819D01*
X219483863Y-112461819D01*
X219545186Y-112428334D01*
X219571544Y-112425500D01*
X221521142Y-112425500D01*
X221521144Y-112425500D01*
X221610288Y-112401614D01*
X221620164Y-112395912D01*
X221690212Y-112355470D01*
X222280470Y-111765212D01*
X222326614Y-111685288D01*
X222339289Y-111637984D01*
X222350500Y-111596144D01*
X222350500Y-107821544D01*
X222370185Y-107754505D01*
X222386819Y-107733863D01*
X224283863Y-105836819D01*
X224345186Y-105803334D01*
X224371544Y-105800500D01*
X224447472Y-105800500D01*
X224447475Y-105800500D01*
X224587485Y-105762984D01*
X224713015Y-105690509D01*
X224815509Y-105588015D01*
X224887984Y-105462485D01*
X224925500Y-105322475D01*
X224925500Y-105177525D01*
X224887984Y-105037515D01*
X224869990Y-105006349D01*
X224815511Y-104911988D01*
X224815506Y-104911982D01*
X224761819Y-104858295D01*
X224728334Y-104796972D01*
X224725500Y-104770614D01*
X224725500Y-102503858D01*
X224725500Y-102503856D01*
X224701614Y-102414712D01*
X224655470Y-102334788D01*
X223952915Y-101632233D01*
X231070699Y-101632233D01*
X231086259Y-101710465D01*
X231119388Y-101760046D01*
X231854419Y-102495077D01*
X231904000Y-102528206D01*
X231904002Y-102528207D01*
X231982233Y-102543767D01*
X232060464Y-102528207D01*
X232110044Y-102495079D01*
X232845079Y-101760044D01*
X232878207Y-101710464D01*
X232893767Y-101632233D01*
X242770699Y-101632233D01*
X242786259Y-101710465D01*
X242819388Y-101760046D01*
X243554419Y-102495077D01*
X243604000Y-102528206D01*
X243604002Y-102528207D01*
X243682233Y-102543767D01*
X243760464Y-102528207D01*
X243810044Y-102495079D01*
X244545079Y-101760044D01*
X244578207Y-101710464D01*
X244593767Y-101632233D01*
X244578207Y-101554002D01*
X244561056Y-101528334D01*
X244545077Y-101504419D01*
X243810046Y-100769388D01*
X243760465Y-100736259D01*
X243682233Y-100720699D01*
X243604000Y-100736259D01*
X243554419Y-100769388D01*
X242819388Y-101504419D01*
X242786259Y-101554000D01*
X242770699Y-101632233D01*
X232893767Y-101632233D01*
X232878207Y-101554002D01*
X232861056Y-101528334D01*
X232845077Y-101504419D01*
X232110046Y-100769388D01*
X232060465Y-100736259D01*
X231982233Y-100720699D01*
X231904000Y-100736259D01*
X231854419Y-100769388D01*
X231119388Y-101504419D01*
X231086259Y-101554000D01*
X231070699Y-101632233D01*
X223952915Y-101632233D01*
X223215212Y-100894530D01*
X223215211Y-100894529D01*
X223215208Y-100894527D01*
X223135290Y-100848387D01*
X223135289Y-100848386D01*
X223135288Y-100848386D01*
X223046144Y-100824500D01*
X223046143Y-100824500D01*
X222104386Y-100824500D01*
X222037347Y-100804815D01*
X222016705Y-100788181D01*
X221963017Y-100734493D01*
X221963011Y-100734488D01*
X221837488Y-100662017D01*
X221837489Y-100662017D01*
X221826006Y-100658940D01*
X221697475Y-100624500D01*
X221552525Y-100624500D01*
X221423993Y-100658940D01*
X221412511Y-100662017D01*
X221286988Y-100734488D01*
X221286982Y-100734493D01*
X221184493Y-100836982D01*
X221184488Y-100836988D01*
X221112017Y-100962511D01*
X221112016Y-100962515D01*
X221074500Y-101102525D01*
X221074500Y-101247475D01*
X221112016Y-101387485D01*
X221112017Y-101387488D01*
X221184488Y-101513011D01*
X221184490Y-101513013D01*
X221184491Y-101513015D01*
X221286985Y-101615509D01*
X221286986Y-101615510D01*
X221286988Y-101615511D01*
X221412511Y-101687982D01*
X221412512Y-101687982D01*
X221412515Y-101687984D01*
X221552525Y-101725500D01*
X221552528Y-101725500D01*
X221697472Y-101725500D01*
X221697475Y-101725500D01*
X221837485Y-101687984D01*
X221963015Y-101615509D01*
X222016705Y-101561819D01*
X222078028Y-101528334D01*
X222104386Y-101525500D01*
X222803456Y-101525500D01*
X222870495Y-101545185D01*
X222891137Y-101561819D01*
X223988181Y-102658863D01*
X224021666Y-102720186D01*
X224024500Y-102746544D01*
X224024500Y-104770614D01*
X224004815Y-104837653D01*
X223988181Y-104858295D01*
X223934493Y-104911982D01*
X223934488Y-104911988D01*
X223862017Y-105037511D01*
X223862016Y-105037515D01*
X223824500Y-105177525D01*
X223824500Y-105177527D01*
X223824500Y-105253456D01*
X223804815Y-105320495D01*
X223788181Y-105341137D01*
X222922299Y-106207018D01*
X222860976Y-106240503D01*
X222791284Y-106235519D01*
X222735351Y-106193647D01*
X222710934Y-106128183D01*
X222714844Y-106087242D01*
X222715176Y-106086003D01*
X222725500Y-106047475D01*
X222725500Y-105902525D01*
X222687984Y-105762515D01*
X222687696Y-105762017D01*
X222615511Y-105636988D01*
X222615506Y-105636982D01*
X222513017Y-105534493D01*
X222513011Y-105534488D01*
X222387488Y-105462017D01*
X222387489Y-105462017D01*
X222374318Y-105458488D01*
X222247475Y-105424500D01*
X222247472Y-105424500D01*
X222196544Y-105424500D01*
X222129505Y-105404815D01*
X222108863Y-105388181D01*
X221336819Y-104616137D01*
X221303334Y-104554814D01*
X221300500Y-104528456D01*
X221300500Y-103529386D01*
X221320185Y-103462347D01*
X221336819Y-103441705D01*
X221390509Y-103388015D01*
X221462984Y-103262485D01*
X221500500Y-103122475D01*
X221500500Y-102977525D01*
X221462984Y-102837515D01*
X221390509Y-102711985D01*
X221288015Y-102609491D01*
X221288013Y-102609490D01*
X221288011Y-102609488D01*
X221162488Y-102537017D01*
X221162489Y-102537017D01*
X221151006Y-102533940D01*
X221022475Y-102499500D01*
X220877525Y-102499500D01*
X220748993Y-102533940D01*
X220737511Y-102537017D01*
X220611988Y-102609488D01*
X220611982Y-102609493D01*
X220509493Y-102711982D01*
X220509488Y-102711988D01*
X220437017Y-102837511D01*
X220437016Y-102837515D01*
X220399500Y-102977525D01*
X220399500Y-103122475D01*
X220437016Y-103262485D01*
X220437017Y-103262488D01*
X220509488Y-103388011D01*
X220509493Y-103388017D01*
X220563181Y-103441705D01*
X220596666Y-103503028D01*
X220599500Y-103529386D01*
X220599500Y-104771145D01*
X220623163Y-104859460D01*
X220623383Y-104860283D01*
X220623386Y-104860289D01*
X220669527Y-104940208D01*
X220669531Y-104940213D01*
X221588181Y-105858863D01*
X221621666Y-105920186D01*
X221624500Y-105946544D01*
X221624500Y-106047475D01*
X221648424Y-106136759D01*
X221662017Y-106187488D01*
X221734488Y-106313011D01*
X221734490Y-106313013D01*
X221734491Y-106313015D01*
X221836985Y-106415509D01*
X221836986Y-106415510D01*
X221836988Y-106415511D01*
X221962511Y-106487982D01*
X221962512Y-106487982D01*
X221962515Y-106487984D01*
X222102525Y-106525500D01*
X222102528Y-106525500D01*
X222247473Y-106525500D01*
X222247475Y-106525500D01*
X222287243Y-106514844D01*
X222357092Y-106516506D01*
X222414955Y-106555667D01*
X222442460Y-106619896D01*
X222430874Y-106688798D01*
X222407018Y-106722299D01*
X221719529Y-107409788D01*
X221703828Y-107436985D01*
X221682804Y-107473400D01*
X221673386Y-107489712D01*
X221673385Y-107489714D01*
X221649500Y-107578856D01*
X221649500Y-111353456D01*
X221629815Y-111420495D01*
X221613181Y-111441137D01*
X221366137Y-111688181D01*
X221304814Y-111721666D01*
X221278456Y-111724500D01*
X219328856Y-111724500D01*
X219239712Y-111748386D01*
X219239709Y-111748387D01*
X219159791Y-111794527D01*
X219159786Y-111794531D01*
X216966137Y-113988181D01*
X216939209Y-114002884D01*
X216913391Y-114019477D01*
X216907190Y-114020368D01*
X216904814Y-114021666D01*
X216878456Y-114024500D01*
X216654386Y-114024500D01*
X216587347Y-114004815D01*
X216566705Y-113988181D01*
X216513017Y-113934493D01*
X216513015Y-113934491D01*
X216430788Y-113887017D01*
X216411348Y-113875793D01*
X216363132Y-113825226D01*
X216349910Y-113756619D01*
X216375878Y-113691754D01*
X216385660Y-113680732D01*
X217585703Y-112480687D01*
X217585708Y-112480684D01*
X217595911Y-112470480D01*
X217595913Y-112470480D01*
X217670480Y-112395913D01*
X217720527Y-112309229D01*
X217723207Y-112304588D01*
X217750500Y-112202727D01*
X217750500Y-112097273D01*
X217750500Y-108997273D01*
X217737967Y-108950499D01*
X217734621Y-108938011D01*
X217723208Y-108895413D01*
X217698446Y-108852525D01*
X217670480Y-108804087D01*
X217463805Y-108597412D01*
X217461939Y-108595506D01*
X217451583Y-108584695D01*
X217446480Y-108575855D01*
X217371913Y-108501288D01*
X217371910Y-108501286D01*
X216270124Y-107399500D01*
X215161819Y-106291194D01*
X215128334Y-106229871D01*
X215125500Y-106203513D01*
X215125500Y-103372275D01*
X215125500Y-103372273D01*
X215098207Y-103270413D01*
X215045480Y-103179087D01*
X214970913Y-103104520D01*
X211920913Y-100054520D01*
X211875250Y-100028156D01*
X211829589Y-100001793D01*
X211778657Y-99988146D01*
X211727727Y-99974500D01*
X211727726Y-99974500D01*
X204642255Y-99974500D01*
X204575216Y-99954815D01*
X204554574Y-99938181D01*
X200186819Y-95570426D01*
X200153334Y-95509103D01*
X200150500Y-95482745D01*
X200150500Y-95477527D01*
X200150500Y-95477525D01*
X200112984Y-95337515D01*
X200040509Y-95211985D01*
X199938015Y-95109491D01*
X199938013Y-95109490D01*
X199938011Y-95109488D01*
X199812488Y-95037017D01*
X199812489Y-95037017D01*
X199801006Y-95033940D01*
X199672475Y-94999500D01*
X199527525Y-94999500D01*
X199398993Y-95033940D01*
X199387511Y-95037017D01*
X199261988Y-95109488D01*
X199261982Y-95109493D01*
X199159493Y-95211982D01*
X199159488Y-95211988D01*
X199087017Y-95337511D01*
X199087016Y-95337515D01*
X199049500Y-95477525D01*
X199049500Y-95622475D01*
X199072024Y-95706533D01*
X199087017Y-95762488D01*
X199159488Y-95888011D01*
X199159490Y-95888013D01*
X199159491Y-95888015D01*
X199261985Y-95990509D01*
X199261986Y-95990510D01*
X199261988Y-95990511D01*
X199387511Y-96062982D01*
X199387512Y-96062982D01*
X199387515Y-96062984D01*
X199527525Y-96100500D01*
X199532745Y-96100500D01*
X199599784Y-96120185D01*
X199620426Y-96136819D01*
X204104519Y-100620912D01*
X204104520Y-100620913D01*
X204179087Y-100695480D01*
X204270413Y-100748207D01*
X204372273Y-100775500D01*
X204477727Y-100775500D01*
X211457745Y-100775500D01*
X211524784Y-100795185D01*
X211545426Y-100811819D01*
X214288181Y-103554574D01*
X214321666Y-103615897D01*
X214324500Y-103642255D01*
X214324500Y-106245173D01*
X214304815Y-106312212D01*
X214252011Y-106357967D01*
X214200500Y-106369173D01*
X211400725Y-106369173D01*
X211333686Y-106349488D01*
X211287931Y-106296684D01*
X211276725Y-106245173D01*
X211276725Y-106202527D01*
X211276725Y-106202525D01*
X211239209Y-106062515D01*
X211235916Y-106056812D01*
X211166736Y-105936988D01*
X211166731Y-105936982D01*
X211064242Y-105834493D01*
X211064236Y-105834488D01*
X210938713Y-105762017D01*
X210938714Y-105762017D01*
X210914765Y-105755600D01*
X210798700Y-105724500D01*
X210653750Y-105724500D01*
X210653748Y-105724500D01*
X210631592Y-105730437D01*
X210561742Y-105728774D01*
X210503880Y-105689611D01*
X210476377Y-105625382D01*
X210475500Y-105610662D01*
X210475500Y-105502527D01*
X210475500Y-105502525D01*
X210437984Y-105362515D01*
X210429892Y-105348500D01*
X210365511Y-105236988D01*
X210365506Y-105236982D01*
X210263017Y-105134493D01*
X210263011Y-105134488D01*
X210137488Y-105062017D01*
X210137489Y-105062017D01*
X210126006Y-105058940D01*
X209997475Y-105024500D01*
X209997472Y-105024500D01*
X209921544Y-105024500D01*
X209854505Y-105004815D01*
X209833863Y-104988181D01*
X209281963Y-104436281D01*
X209281958Y-104436277D01*
X209202040Y-104390137D01*
X209202039Y-104390136D01*
X209202038Y-104390136D01*
X209112894Y-104366250D01*
X206550585Y-104366250D01*
X206461441Y-104390136D01*
X206461440Y-104390136D01*
X206461438Y-104390137D01*
X206461435Y-104390138D01*
X206381523Y-104436276D01*
X206381514Y-104436283D01*
X204729617Y-106088181D01*
X204668294Y-106121666D01*
X204641936Y-106124500D01*
X196875718Y-106124500D01*
X196808679Y-106104815D01*
X196788037Y-106088181D01*
X196267387Y-105567531D01*
X196267382Y-105567527D01*
X196187464Y-105521387D01*
X196187462Y-105521386D01*
X196175754Y-105518249D01*
X196175753Y-105518248D01*
X196117079Y-105502527D01*
X196098318Y-105497500D01*
X195051681Y-105497500D01*
X194974243Y-105518248D01*
X194974244Y-105518249D01*
X194962536Y-105521386D01*
X194882612Y-105567531D01*
X194882609Y-105567533D01*
X194088963Y-106361181D01*
X194027640Y-106394666D01*
X194001282Y-106397500D01*
X193312627Y-106397500D01*
X193245588Y-106377815D01*
X193199833Y-106325011D01*
X193189889Y-106255853D01*
X193205238Y-106211502D01*
X193262984Y-106111485D01*
X193300500Y-105971475D01*
X193300500Y-105826525D01*
X193262984Y-105686515D01*
X193256624Y-105675500D01*
X193190511Y-105560988D01*
X193190506Y-105560982D01*
X193088017Y-105458493D01*
X193088011Y-105458488D01*
X192962488Y-105386017D01*
X192962489Y-105386017D01*
X192954530Y-105383884D01*
X192892405Y-105367237D01*
X192832747Y-105330874D01*
X192802218Y-105268027D01*
X192800501Y-105247464D01*
X192800501Y-104692243D01*
X192800501Y-104692241D01*
X192780023Y-104615815D01*
X192740461Y-104547292D01*
X191077709Y-102884540D01*
X191077707Y-102884539D01*
X191077702Y-102884535D01*
X191009193Y-102844982D01*
X191009188Y-102844979D01*
X190983711Y-102838152D01*
X190932760Y-102824500D01*
X190932758Y-102824500D01*
X188919031Y-102824500D01*
X188851992Y-102804815D01*
X188831350Y-102788181D01*
X185236819Y-99193650D01*
X185203334Y-99132327D01*
X185200500Y-99105969D01*
X185200500Y-90669031D01*
X185220185Y-90601992D01*
X185236819Y-90581350D01*
X186006350Y-89811819D01*
X186067673Y-89778334D01*
X186094031Y-89775500D01*
X189382770Y-89775500D01*
X189449809Y-89795185D01*
X189470451Y-89811819D01*
X189572736Y-89914104D01*
X189606221Y-89975427D01*
X189601237Y-90045119D01*
X189559365Y-90101052D01*
X189517150Y-90121559D01*
X189491370Y-90128466D01*
X189447162Y-90140312D01*
X189447161Y-90140313D01*
X189327338Y-90209492D01*
X189327333Y-90209496D01*
X189312681Y-90224149D01*
X189251358Y-90257634D01*
X189181666Y-90252650D01*
X189137319Y-90224149D01*
X189122666Y-90209496D01*
X189122661Y-90209492D01*
X189002838Y-90140313D01*
X189002837Y-90140312D01*
X189002836Y-90140312D01*
X188869183Y-90104500D01*
X188730817Y-90104500D01*
X188597164Y-90140312D01*
X188597161Y-90140313D01*
X188477338Y-90209492D01*
X188477333Y-90209496D01*
X188379496Y-90307333D01*
X188379492Y-90307338D01*
X188310313Y-90427161D01*
X188310312Y-90427164D01*
X188274500Y-90560817D01*
X188274500Y-90699183D01*
X188283528Y-90732874D01*
X188310312Y-90832835D01*
X188310313Y-90832838D01*
X188379492Y-90952661D01*
X188379494Y-90952664D01*
X188379495Y-90952665D01*
X188477335Y-91050505D01*
X188597164Y-91119688D01*
X188730817Y-91155500D01*
X188730819Y-91155500D01*
X188869181Y-91155500D01*
X188869183Y-91155500D01*
X189002836Y-91119688D01*
X189122665Y-91050505D01*
X189137319Y-91035851D01*
X189198642Y-91002366D01*
X189268334Y-91007350D01*
X189312681Y-91035851D01*
X189327335Y-91050505D01*
X189447164Y-91119688D01*
X189580817Y-91155500D01*
X189580819Y-91155500D01*
X189719181Y-91155500D01*
X189719183Y-91155500D01*
X189852836Y-91119688D01*
X189972665Y-91050505D01*
X189987318Y-91035851D01*
X189995262Y-91031513D01*
X190000689Y-91024265D01*
X190025444Y-91015031D01*
X190048638Y-91002366D01*
X190057670Y-91003011D01*
X190066153Y-90999848D01*
X190091970Y-91005464D01*
X190118330Y-91007349D01*
X190127385Y-91013168D01*
X190134426Y-91014700D01*
X190162680Y-91035851D01*
X190163181Y-91036352D01*
X190196666Y-91097675D01*
X190199500Y-91124033D01*
X190199500Y-91134264D01*
X190205275Y-91155816D01*
X190219979Y-91210692D01*
X190219982Y-91210697D01*
X190259535Y-91279206D01*
X190259541Y-91279214D01*
X190292874Y-91312547D01*
X190303086Y-91331249D01*
X190317263Y-91347160D01*
X190319496Y-91361302D01*
X190326359Y-91373870D01*
X190324838Y-91395126D01*
X190328163Y-91416174D01*
X190322396Y-91429278D01*
X190321375Y-91443562D01*
X190308603Y-91460622D01*
X190300021Y-91480126D01*
X190283892Y-91493631D01*
X190279503Y-91499495D01*
X190273670Y-91503605D01*
X190270481Y-91505717D01*
X190177335Y-91559495D01*
X190153868Y-91582961D01*
X190143477Y-91589845D01*
X190121523Y-91596622D01*
X190101358Y-91607634D01*
X190088772Y-91606733D01*
X190076717Y-91610456D01*
X190054584Y-91604288D01*
X190031666Y-91602650D01*
X190018626Y-91594269D01*
X190009411Y-91591702D01*
X190002416Y-91583851D01*
X189987319Y-91574149D01*
X189972666Y-91559496D01*
X189972661Y-91559492D01*
X189852838Y-91490313D01*
X189852837Y-91490312D01*
X189852836Y-91490312D01*
X189719183Y-91454500D01*
X189580817Y-91454500D01*
X189447164Y-91490312D01*
X189447161Y-91490313D01*
X189327338Y-91559492D01*
X189327333Y-91559496D01*
X189312681Y-91574149D01*
X189251358Y-91607634D01*
X189181666Y-91602650D01*
X189137319Y-91574149D01*
X189122666Y-91559496D01*
X189122661Y-91559492D01*
X189002838Y-91490313D01*
X189002837Y-91490312D01*
X189002836Y-91490312D01*
X188869183Y-91454500D01*
X188730817Y-91454500D01*
X188597164Y-91490312D01*
X188597161Y-91490313D01*
X188477338Y-91559492D01*
X188477333Y-91559496D01*
X188379496Y-91657333D01*
X188379492Y-91657338D01*
X188310313Y-91777161D01*
X188310312Y-91777164D01*
X188274500Y-91910817D01*
X188274500Y-92049183D01*
X188277307Y-92059657D01*
X188310312Y-92182835D01*
X188310313Y-92182838D01*
X188379492Y-92302661D01*
X188379494Y-92302664D01*
X188379495Y-92302665D01*
X188477335Y-92400505D01*
X188597164Y-92469688D01*
X188730817Y-92505500D01*
X188730819Y-92505500D01*
X188869181Y-92505500D01*
X188869183Y-92505500D01*
X189002836Y-92469688D01*
X189122665Y-92400505D01*
X189137319Y-92385851D01*
X189198642Y-92352366D01*
X189268334Y-92357350D01*
X189312681Y-92385851D01*
X189327335Y-92400505D01*
X189447164Y-92469688D01*
X189580817Y-92505500D01*
X189580819Y-92505500D01*
X189719181Y-92505500D01*
X189719183Y-92505500D01*
X189852836Y-92469688D01*
X189972665Y-92400505D01*
X189987319Y-92385851D01*
X190048642Y-92352366D01*
X190118334Y-92357350D01*
X190162681Y-92385851D01*
X190177335Y-92400505D01*
X190297164Y-92469688D01*
X190430817Y-92505500D01*
X190430819Y-92505500D01*
X190569181Y-92505500D01*
X190569183Y-92505500D01*
X190702836Y-92469688D01*
X190822665Y-92400505D01*
X190837319Y-92385851D01*
X190898642Y-92352366D01*
X190968334Y-92357350D01*
X191012681Y-92385851D01*
X191027335Y-92400505D01*
X191147164Y-92469688D01*
X191280817Y-92505500D01*
X191280819Y-92505500D01*
X191419181Y-92505500D01*
X191419183Y-92505500D01*
X191552836Y-92469688D01*
X191672665Y-92400505D01*
X191687318Y-92385851D01*
X191695262Y-92381513D01*
X191700689Y-92374265D01*
X191725444Y-92365031D01*
X191748638Y-92352366D01*
X191757670Y-92353011D01*
X191766153Y-92349848D01*
X191791970Y-92355464D01*
X191818330Y-92357349D01*
X191827385Y-92363168D01*
X191834426Y-92364700D01*
X191862680Y-92385851D01*
X191863181Y-92386352D01*
X191896666Y-92447675D01*
X191899500Y-92474033D01*
X191899500Y-92479181D01*
X191906552Y-92505499D01*
X191919979Y-92555610D01*
X191919981Y-92555613D01*
X191948448Y-92604918D01*
X191948448Y-92604921D01*
X191948450Y-92604921D01*
X191959540Y-92624130D01*
X192269921Y-92934511D01*
X192325870Y-92990460D01*
X192325872Y-92990461D01*
X192325876Y-92990464D01*
X192394385Y-93030017D01*
X192394392Y-93030021D01*
X192470819Y-93050500D01*
X199824167Y-93050500D01*
X199891206Y-93070185D01*
X199911848Y-93086819D01*
X205384540Y-98559511D01*
X205440489Y-98615460D01*
X205440491Y-98615461D01*
X205440495Y-98615464D01*
X205498534Y-98648972D01*
X205509011Y-98655021D01*
X205585438Y-98675500D01*
X205664562Y-98675500D01*
X213999167Y-98675500D01*
X214066206Y-98695185D01*
X214086848Y-98711819D01*
X216263181Y-100888152D01*
X216296666Y-100949475D01*
X216299500Y-100975833D01*
X216299500Y-104445613D01*
X216279815Y-104512652D01*
X216263182Y-104533294D01*
X216159488Y-104636988D01*
X216087017Y-104762511D01*
X216087016Y-104762515D01*
X216049500Y-104902525D01*
X216049500Y-105047475D01*
X216072817Y-105134493D01*
X216087017Y-105187488D01*
X216159488Y-105313011D01*
X216159490Y-105313013D01*
X216159491Y-105313015D01*
X216261985Y-105415509D01*
X216261986Y-105415510D01*
X216261988Y-105415511D01*
X216387511Y-105487982D01*
X216387512Y-105487982D01*
X216387515Y-105487984D01*
X216527525Y-105525500D01*
X216527528Y-105525500D01*
X216672472Y-105525500D01*
X216672475Y-105525500D01*
X216812485Y-105487984D01*
X216938015Y-105415509D01*
X217040509Y-105313015D01*
X217112984Y-105187485D01*
X217150500Y-105047475D01*
X217150500Y-104902525D01*
X217112984Y-104762515D01*
X217072412Y-104692243D01*
X217040511Y-104636988D01*
X217040510Y-104636987D01*
X217040509Y-104636985D01*
X216938015Y-104534491D01*
X216938014Y-104534490D01*
X216936818Y-104533294D01*
X216903334Y-104471971D01*
X216900500Y-104445613D01*
X216900500Y-100760439D01*
X216900500Y-100760438D01*
X216880021Y-100684011D01*
X216867322Y-100662016D01*
X216840464Y-100615495D01*
X216840458Y-100615487D01*
X214359512Y-98134541D01*
X214359507Y-98134537D01*
X214325633Y-98114981D01*
X214317872Y-98110500D01*
X214317870Y-98110498D01*
X214317870Y-98110499D01*
X214317868Y-98110498D01*
X214312189Y-98107219D01*
X214290990Y-98094979D01*
X214290991Y-98094979D01*
X214252775Y-98084739D01*
X214214562Y-98074500D01*
X214214560Y-98074500D01*
X205800833Y-98074500D01*
X205733794Y-98054815D01*
X205713152Y-98038181D01*
X200284599Y-92609628D01*
X200197120Y-92522149D01*
X217199500Y-92522149D01*
X217199500Y-92777850D01*
X217218198Y-92919868D01*
X217232874Y-93031340D01*
X217299050Y-93278312D01*
X217299053Y-93278322D01*
X217396894Y-93514531D01*
X217396899Y-93514542D01*
X217524734Y-93735957D01*
X217524745Y-93735973D01*
X217680388Y-93938811D01*
X217680394Y-93938818D01*
X217861181Y-94119605D01*
X217861187Y-94119610D01*
X218064035Y-94275261D01*
X218064042Y-94275265D01*
X218285457Y-94403100D01*
X218285462Y-94403102D01*
X218285465Y-94403104D01*
X218521687Y-94500950D01*
X218768660Y-94567126D01*
X219022157Y-94600500D01*
X219022164Y-94600500D01*
X219277836Y-94600500D01*
X219277843Y-94600500D01*
X219531340Y-94567126D01*
X219778313Y-94500950D01*
X220014535Y-94403104D01*
X220235965Y-94275261D01*
X220438813Y-94119610D01*
X220619610Y-93938813D01*
X220775261Y-93735965D01*
X220903104Y-93514535D01*
X221000950Y-93278313D01*
X221067126Y-93031340D01*
X221100500Y-92777843D01*
X221100500Y-92522157D01*
X221067126Y-92268660D01*
X221000950Y-92021687D01*
X220903104Y-91785465D01*
X220903102Y-91785462D01*
X220903100Y-91785457D01*
X220775265Y-91564042D01*
X220775261Y-91564035D01*
X220661803Y-91416174D01*
X220619611Y-91361188D01*
X220619605Y-91361181D01*
X220438818Y-91180394D01*
X220438811Y-91180388D01*
X220235973Y-91024745D01*
X220235971Y-91024743D01*
X220235965Y-91024739D01*
X220235960Y-91024736D01*
X220235957Y-91024734D01*
X220161155Y-90981547D01*
X220014542Y-90896899D01*
X220014531Y-90896894D01*
X219974342Y-90880247D01*
X222199500Y-90880247D01*
X222199500Y-94419752D01*
X222211131Y-94478229D01*
X222211132Y-94478230D01*
X222255447Y-94544552D01*
X222321769Y-94588867D01*
X222321770Y-94588868D01*
X222380247Y-94600499D01*
X222380250Y-94600500D01*
X222380252Y-94600500D01*
X225919750Y-94600500D01*
X225919751Y-94600499D01*
X225934568Y-94597552D01*
X225978229Y-94588868D01*
X225978229Y-94588867D01*
X225978231Y-94588867D01*
X226044552Y-94544552D01*
X226088867Y-94478231D01*
X226088867Y-94478229D01*
X226088868Y-94478229D01*
X226097552Y-94434568D01*
X226100500Y-94419748D01*
X226100500Y-90880252D01*
X226100500Y-90880249D01*
X226100499Y-90880247D01*
X226088868Y-90821770D01*
X226088867Y-90821769D01*
X226044552Y-90755447D01*
X225978230Y-90711132D01*
X225978229Y-90711131D01*
X225919752Y-90699500D01*
X225919748Y-90699500D01*
X222380252Y-90699500D01*
X222380247Y-90699500D01*
X222321770Y-90711131D01*
X222321769Y-90711132D01*
X222255447Y-90755447D01*
X222211132Y-90821769D01*
X222211131Y-90821770D01*
X222199500Y-90880247D01*
X219974342Y-90880247D01*
X219778322Y-90799053D01*
X219778315Y-90799051D01*
X219778313Y-90799050D01*
X219531340Y-90732874D01*
X219475007Y-90725457D01*
X219277850Y-90699500D01*
X219277843Y-90699500D01*
X219022157Y-90699500D01*
X219022149Y-90699500D01*
X218796826Y-90729165D01*
X218768660Y-90732874D01*
X218521687Y-90799050D01*
X218521677Y-90799053D01*
X218285468Y-90896894D01*
X218285457Y-90896899D01*
X218064042Y-91024734D01*
X218064026Y-91024745D01*
X217861188Y-91180388D01*
X217861181Y-91180394D01*
X217680394Y-91361181D01*
X217680388Y-91361188D01*
X217524745Y-91564026D01*
X217524734Y-91564042D01*
X217396899Y-91785457D01*
X217396894Y-91785468D01*
X217299053Y-92021677D01*
X217299050Y-92021687D01*
X217249671Y-92205975D01*
X217232874Y-92268661D01*
X217199500Y-92522149D01*
X200197120Y-92522149D01*
X200184511Y-92509540D01*
X200131927Y-92479181D01*
X200115989Y-92469979D01*
X200039562Y-92449500D01*
X200039560Y-92449500D01*
X193600504Y-92449500D01*
X193533465Y-92429815D01*
X193487710Y-92377011D01*
X193477766Y-92307853D01*
X193493117Y-92263500D01*
X193501162Y-92249565D01*
X193539688Y-92182836D01*
X193575500Y-92049183D01*
X193575500Y-91910817D01*
X193539688Y-91777164D01*
X193470505Y-91657335D01*
X193372665Y-91559495D01*
X193372664Y-91559494D01*
X193372661Y-91559492D01*
X193252838Y-91490313D01*
X193252837Y-91490312D01*
X193252836Y-91490312D01*
X193119183Y-91454500D01*
X192980817Y-91454500D01*
X192847164Y-91490312D01*
X192847161Y-91490313D01*
X192727338Y-91559492D01*
X192727333Y-91559496D01*
X192712681Y-91574149D01*
X192651358Y-91607634D01*
X192581666Y-91602650D01*
X192537319Y-91574149D01*
X192522666Y-91559496D01*
X192522661Y-91559492D01*
X192402838Y-91490313D01*
X192402837Y-91490312D01*
X192402836Y-91490312D01*
X192269183Y-91454500D01*
X192130817Y-91454500D01*
X191997164Y-91490312D01*
X191997161Y-91490313D01*
X191877338Y-91559492D01*
X191877333Y-91559496D01*
X191862681Y-91574149D01*
X191801358Y-91607634D01*
X191731666Y-91602650D01*
X191687319Y-91574149D01*
X191672666Y-91559496D01*
X191672661Y-91559492D01*
X191552838Y-91490313D01*
X191552837Y-91490312D01*
X191552836Y-91490312D01*
X191419183Y-91454500D01*
X191419182Y-91454500D01*
X191336131Y-91454500D01*
X191306690Y-91445855D01*
X191276704Y-91439332D01*
X191271688Y-91435577D01*
X191269092Y-91434815D01*
X191248450Y-91418181D01*
X191197450Y-91367181D01*
X191163965Y-91305858D01*
X191168949Y-91236166D01*
X191210821Y-91180233D01*
X191276285Y-91155816D01*
X191285131Y-91155500D01*
X191419181Y-91155500D01*
X191419183Y-91155500D01*
X191552836Y-91119688D01*
X191672665Y-91050505D01*
X191687319Y-91035851D01*
X191748642Y-91002366D01*
X191818334Y-91007350D01*
X191862681Y-91035851D01*
X191877335Y-91050505D01*
X191997164Y-91119688D01*
X192130817Y-91155500D01*
X192130819Y-91155500D01*
X192269181Y-91155500D01*
X192269183Y-91155500D01*
X192402836Y-91119688D01*
X192522665Y-91050505D01*
X192537319Y-91035851D01*
X192598642Y-91002366D01*
X192668334Y-91007350D01*
X192712681Y-91035851D01*
X192727335Y-91050505D01*
X192847164Y-91119688D01*
X192980817Y-91155500D01*
X192980819Y-91155500D01*
X193119181Y-91155500D01*
X193119183Y-91155500D01*
X193252836Y-91119688D01*
X193372665Y-91050505D01*
X193470505Y-90952665D01*
X193539688Y-90832836D01*
X193575500Y-90699183D01*
X193575500Y-90560817D01*
X193539688Y-90427164D01*
X193505096Y-90367249D01*
X193470507Y-90307338D01*
X193470503Y-90307333D01*
X193372666Y-90209496D01*
X193372661Y-90209492D01*
X193252838Y-90140313D01*
X193252837Y-90140312D01*
X193252836Y-90140312D01*
X193119183Y-90104500D01*
X192980817Y-90104500D01*
X192847164Y-90140312D01*
X192847161Y-90140313D01*
X192727338Y-90209492D01*
X192727333Y-90209496D01*
X192712681Y-90224149D01*
X192651358Y-90257634D01*
X192581666Y-90252650D01*
X192537319Y-90224149D01*
X192522666Y-90209496D01*
X192522661Y-90209492D01*
X192402838Y-90140313D01*
X192402837Y-90140312D01*
X192402836Y-90140312D01*
X192269183Y-90104500D01*
X192130817Y-90104500D01*
X191997164Y-90140312D01*
X191997161Y-90140313D01*
X191877338Y-90209492D01*
X191877333Y-90209496D01*
X191862681Y-90224149D01*
X191801358Y-90257634D01*
X191731666Y-90252650D01*
X191687319Y-90224149D01*
X191672666Y-90209496D01*
X191672661Y-90209492D01*
X191552838Y-90140313D01*
X191552837Y-90140312D01*
X191552836Y-90140312D01*
X191419183Y-90104500D01*
X191419182Y-90104500D01*
X191336131Y-90104500D01*
X191269092Y-90084815D01*
X191248450Y-90068181D01*
X190943810Y-89763541D01*
X190943809Y-89763540D01*
X190875287Y-89723979D01*
X190875284Y-89723978D01*
X190874432Y-89723486D01*
X190848750Y-89703779D01*
X189929510Y-88784539D01*
X189919321Y-88778657D01*
X189907460Y-88771809D01*
X189860989Y-88744979D01*
X189859232Y-88744508D01*
X189838718Y-88739011D01*
X189784562Y-88724500D01*
X185771364Y-88724500D01*
X185692240Y-88724500D01*
X185615812Y-88744978D01*
X185547291Y-88784540D01*
X185547288Y-88784542D01*
X184212181Y-90119650D01*
X184150858Y-90153135D01*
X184081166Y-90148151D01*
X184025233Y-90106279D01*
X184000816Y-90040815D01*
X184000500Y-90031969D01*
X184000500Y-88640025D01*
X212749500Y-88640025D01*
X212749500Y-88784975D01*
X212786886Y-88924500D01*
X212787017Y-88924988D01*
X212859488Y-89050511D01*
X212859490Y-89050513D01*
X212859491Y-89050515D01*
X212961985Y-89153009D01*
X213087515Y-89225484D01*
X213176132Y-89249228D01*
X213231719Y-89281322D01*
X213685886Y-89735489D01*
X213685888Y-89735490D01*
X213685892Y-89735493D01*
X213719712Y-89755019D01*
X213719716Y-89755020D01*
X213719717Y-89755021D01*
X213788614Y-89794799D01*
X213903191Y-89825500D01*
X227651501Y-89825500D01*
X227718540Y-89845185D01*
X227739182Y-89861819D01*
X231086654Y-93209292D01*
X231120139Y-93270615D01*
X231115155Y-93340307D01*
X231102077Y-93365861D01*
X231086259Y-93389534D01*
X231070699Y-93467767D01*
X231086259Y-93545999D01*
X231119388Y-93595580D01*
X231854419Y-94330611D01*
X231904000Y-94363740D01*
X231904002Y-94363741D01*
X231982233Y-94379301D01*
X232060464Y-94363741D01*
X232110044Y-94330613D01*
X232845079Y-93595578D01*
X232878207Y-93545998D01*
X232893767Y-93467767D01*
X242770699Y-93467767D01*
X242786259Y-93545999D01*
X242819388Y-93595580D01*
X243554419Y-94330611D01*
X243604000Y-94363740D01*
X243604002Y-94363741D01*
X243682233Y-94379301D01*
X243760464Y-94363741D01*
X243810044Y-94330613D01*
X244545079Y-93595578D01*
X244578207Y-93545998D01*
X244593767Y-93467767D01*
X244578207Y-93389536D01*
X244545079Y-93339956D01*
X244545077Y-93339953D01*
X243810046Y-92604922D01*
X243760465Y-92571793D01*
X243682233Y-92556233D01*
X243604000Y-92571793D01*
X243554419Y-92604922D01*
X242819388Y-93339953D01*
X242786259Y-93389534D01*
X242770699Y-93467767D01*
X232893767Y-93467767D01*
X232878207Y-93389536D01*
X232845079Y-93339956D01*
X232845077Y-93339953D01*
X232110046Y-92604922D01*
X232060465Y-92571793D01*
X231982233Y-92556233D01*
X231904000Y-92571793D01*
X231880327Y-92587611D01*
X231813649Y-92608487D01*
X231746270Y-92590001D01*
X231723758Y-92572188D01*
X228166082Y-89014513D01*
X228166080Y-89014511D01*
X228114716Y-88984856D01*
X228063354Y-88955201D01*
X228051246Y-88951957D01*
X228039139Y-88948713D01*
X228039136Y-88948712D01*
X228000944Y-88938478D01*
X227948775Y-88924500D01*
X227948774Y-88924500D01*
X214200465Y-88924500D01*
X214133426Y-88904815D01*
X214112784Y-88888181D01*
X213868822Y-88644219D01*
X213836728Y-88588631D01*
X213812984Y-88500015D01*
X213791613Y-88463000D01*
X213740511Y-88374488D01*
X213740506Y-88374482D01*
X213638017Y-88271993D01*
X213638011Y-88271988D01*
X213512488Y-88199517D01*
X213512489Y-88199517D01*
X213501006Y-88196440D01*
X213372475Y-88162000D01*
X213227525Y-88162000D01*
X213098993Y-88196440D01*
X213087511Y-88199517D01*
X212961988Y-88271988D01*
X212961982Y-88271993D01*
X212859493Y-88374482D01*
X212859488Y-88374488D01*
X212787017Y-88500011D01*
X212787016Y-88500015D01*
X212749500Y-88640025D01*
X184000500Y-88640025D01*
X184000500Y-88621544D01*
X184020185Y-88554505D01*
X184036819Y-88533863D01*
X185808863Y-86761819D01*
X185870186Y-86728334D01*
X185896544Y-86725500D01*
X196928456Y-86725500D01*
X196995495Y-86745185D01*
X197016137Y-86761819D01*
X198075681Y-87821362D01*
X198109166Y-87882685D01*
X198112000Y-87909043D01*
X198112000Y-87984975D01*
X198136535Y-88076540D01*
X198149517Y-88124988D01*
X198221988Y-88250511D01*
X198221990Y-88250513D01*
X198221991Y-88250515D01*
X198324485Y-88353009D01*
X198324486Y-88353010D01*
X198324488Y-88353011D01*
X198450011Y-88425482D01*
X198450012Y-88425482D01*
X198450015Y-88425484D01*
X198590025Y-88463000D01*
X198590028Y-88463000D01*
X198734972Y-88463000D01*
X198734975Y-88463000D01*
X198874985Y-88425484D01*
X199000515Y-88353009D01*
X199103009Y-88250515D01*
X199175484Y-88124985D01*
X199213000Y-87984975D01*
X199213000Y-87840025D01*
X199175484Y-87700015D01*
X199175482Y-87700011D01*
X199127681Y-87617217D01*
X199127680Y-87617215D01*
X199103012Y-87574491D01*
X199103009Y-87574485D01*
X199089828Y-87561304D01*
X215249500Y-87561304D01*
X215249500Y-87738695D01*
X215284103Y-87912658D01*
X215284106Y-87912667D01*
X215351983Y-88076540D01*
X215351990Y-88076553D01*
X215450535Y-88224034D01*
X215450538Y-88224038D01*
X215575961Y-88349461D01*
X215575965Y-88349464D01*
X215723446Y-88448009D01*
X215723459Y-88448016D01*
X215846363Y-88498923D01*
X215887334Y-88515894D01*
X215887336Y-88515894D01*
X215887341Y-88515896D01*
X216061304Y-88550499D01*
X216061307Y-88550500D01*
X216061309Y-88550500D01*
X216238693Y-88550500D01*
X216238694Y-88550499D01*
X216296682Y-88538964D01*
X216412658Y-88515896D01*
X216412661Y-88515894D01*
X216412666Y-88515894D01*
X216576547Y-88448013D01*
X216724035Y-88349464D01*
X216849464Y-88224035D01*
X216948013Y-88076547D01*
X217015894Y-87912666D01*
X217050500Y-87738691D01*
X217050500Y-87561309D01*
X217050500Y-87561306D01*
X217050499Y-87561304D01*
X226249500Y-87561304D01*
X226249500Y-87738695D01*
X226284103Y-87912658D01*
X226284106Y-87912667D01*
X226351983Y-88076540D01*
X226351990Y-88076553D01*
X226450535Y-88224034D01*
X226450538Y-88224038D01*
X226575961Y-88349461D01*
X226575965Y-88349464D01*
X226723446Y-88448009D01*
X226723459Y-88448016D01*
X226846363Y-88498923D01*
X226887334Y-88515894D01*
X226887336Y-88515894D01*
X226887341Y-88515896D01*
X227061304Y-88550499D01*
X227061307Y-88550500D01*
X227061309Y-88550500D01*
X227238693Y-88550500D01*
X227238694Y-88550499D01*
X227296682Y-88538964D01*
X227412658Y-88515896D01*
X227412661Y-88515894D01*
X227412666Y-88515894D01*
X227576547Y-88448013D01*
X227724035Y-88349464D01*
X227849464Y-88224035D01*
X227948013Y-88076547D01*
X228015894Y-87912666D01*
X228050500Y-87738691D01*
X228050500Y-87561309D01*
X228050500Y-87561306D01*
X228050499Y-87561304D01*
X228015896Y-87387341D01*
X228015893Y-87387332D01*
X227948016Y-87223459D01*
X227948009Y-87223446D01*
X227849464Y-87075965D01*
X227849461Y-87075961D01*
X227724038Y-86950538D01*
X227724034Y-86950535D01*
X227576553Y-86851990D01*
X227576540Y-86851983D01*
X227412667Y-86784106D01*
X227412658Y-86784103D01*
X227238694Y-86749500D01*
X227238691Y-86749500D01*
X227061309Y-86749500D01*
X227061306Y-86749500D01*
X226887341Y-86784103D01*
X226887332Y-86784106D01*
X226723459Y-86851983D01*
X226723446Y-86851990D01*
X226575965Y-86950535D01*
X226575961Y-86950538D01*
X226450538Y-87075961D01*
X226450535Y-87075965D01*
X226351990Y-87223446D01*
X226351983Y-87223459D01*
X226284106Y-87387332D01*
X226284103Y-87387341D01*
X226249500Y-87561304D01*
X217050499Y-87561304D01*
X217015896Y-87387341D01*
X217015893Y-87387332D01*
X216948016Y-87223459D01*
X216948009Y-87223446D01*
X216849464Y-87075965D01*
X216849461Y-87075961D01*
X216724038Y-86950538D01*
X216724034Y-86950535D01*
X216576553Y-86851990D01*
X216576540Y-86851983D01*
X216412667Y-86784106D01*
X216412658Y-86784103D01*
X216238694Y-86749500D01*
X216238691Y-86749500D01*
X216061309Y-86749500D01*
X216061306Y-86749500D01*
X215887341Y-86784103D01*
X215887332Y-86784106D01*
X215723459Y-86851983D01*
X215723446Y-86851990D01*
X215575965Y-86950535D01*
X215575961Y-86950538D01*
X215450538Y-87075961D01*
X215450535Y-87075965D01*
X215351990Y-87223446D01*
X215351983Y-87223459D01*
X215284106Y-87387332D01*
X215284103Y-87387341D01*
X215249500Y-87561304D01*
X199089828Y-87561304D01*
X199000515Y-87471991D01*
X199000513Y-87471990D01*
X199000511Y-87471988D01*
X198874988Y-87399517D01*
X198874989Y-87399517D01*
X198863506Y-87396440D01*
X198734975Y-87362000D01*
X198734972Y-87362000D01*
X198659043Y-87362000D01*
X198592004Y-87342315D01*
X198571362Y-87325681D01*
X197432863Y-86187181D01*
X197399378Y-86125858D01*
X197404362Y-86056166D01*
X197446234Y-86000233D01*
X197511698Y-85975816D01*
X197520544Y-85975500D01*
X251038000Y-85975500D01*
X251105039Y-85995185D01*
G37*
%TD.AperFunction*%
%TA.AperFunction,Conductor*%
G36*
X203943834Y-110329362D02*
G01*
X203999767Y-110371234D01*
X204024184Y-110436698D01*
X204024500Y-110445544D01*
X204024500Y-110487475D01*
X204061484Y-110625500D01*
X204062017Y-110627488D01*
X204134488Y-110753011D01*
X204134493Y-110753017D01*
X204188181Y-110806705D01*
X204221666Y-110868028D01*
X204224500Y-110894386D01*
X204224500Y-112996144D01*
X204234832Y-113034701D01*
X204248386Y-113085287D01*
X204248387Y-113085290D01*
X204294527Y-113165208D01*
X204294531Y-113165213D01*
X205717137Y-114587819D01*
X205750622Y-114649142D01*
X205745638Y-114718834D01*
X205703766Y-114774767D01*
X205638302Y-114799184D01*
X205629456Y-114799500D01*
X197696544Y-114799500D01*
X197629505Y-114779815D01*
X197608863Y-114763181D01*
X195157863Y-112312181D01*
X195124378Y-112250858D01*
X195129362Y-112181166D01*
X195171234Y-112125233D01*
X195236698Y-112100816D01*
X195245544Y-112100500D01*
X201971142Y-112100500D01*
X201971144Y-112100500D01*
X202060288Y-112076614D01*
X202140212Y-112030470D01*
X203812819Y-110357863D01*
X203874142Y-110324378D01*
X203943834Y-110329362D01*
G37*
%TD.AperFunction*%
%TA.AperFunction,Conductor*%
G36*
X211670495Y-110070185D02*
G01*
X211691137Y-110086819D01*
X212045657Y-110441339D01*
X212079142Y-110502662D01*
X212081976Y-110529020D01*
X212081976Y-110604951D01*
X212110790Y-110712485D01*
X212119492Y-110744960D01*
X212119493Y-110744963D01*
X212191964Y-110870487D01*
X212191966Y-110870489D01*
X212191967Y-110870491D01*
X212294461Y-110972985D01*
X212294462Y-110972986D01*
X212294464Y-110972987D01*
X212419987Y-111045458D01*
X212419988Y-111045458D01*
X212419991Y-111045460D01*
X212560001Y-111082976D01*
X212560004Y-111082976D01*
X212704948Y-111082976D01*
X212704951Y-111082976D01*
X212844961Y-111045460D01*
X212970491Y-110972985D01*
X212987819Y-110955657D01*
X213049142Y-110922172D01*
X213118834Y-110927156D01*
X213174767Y-110969028D01*
X213199184Y-111034492D01*
X213199500Y-111043338D01*
X213199500Y-112351257D01*
X213179815Y-112418296D01*
X213163181Y-112438938D01*
X213117923Y-112484195D01*
X213117918Y-112484201D01*
X213045447Y-112609724D01*
X213045446Y-112609728D01*
X213007930Y-112749738D01*
X213007930Y-112894688D01*
X213045446Y-113034698D01*
X213045447Y-113034701D01*
X213117918Y-113160224D01*
X213117923Y-113160230D01*
X213119512Y-113161819D01*
X213120423Y-113163488D01*
X213122868Y-113166674D01*
X213122371Y-113167055D01*
X213152997Y-113223142D01*
X213148013Y-113292834D01*
X213106141Y-113348767D01*
X213040677Y-113373184D01*
X213031831Y-113373500D01*
X212237077Y-113373500D01*
X212147933Y-113397386D01*
X212147930Y-113397387D01*
X212068012Y-113443527D01*
X212068007Y-113443531D01*
X211591800Y-113919737D01*
X211581698Y-113931255D01*
X211250773Y-114262181D01*
X211189450Y-114295666D01*
X211163092Y-114298500D01*
X206470544Y-114298500D01*
X206403505Y-114278815D01*
X206382863Y-114262181D01*
X204961819Y-112841137D01*
X204928334Y-112779814D01*
X204925500Y-112753456D01*
X204925500Y-111052525D01*
X206074500Y-111052525D01*
X206074500Y-111197475D01*
X206109742Y-111328997D01*
X206112017Y-111337488D01*
X206184488Y-111463011D01*
X206184490Y-111463013D01*
X206184491Y-111463015D01*
X206286985Y-111565509D01*
X206286986Y-111565510D01*
X206286988Y-111565511D01*
X206412511Y-111637982D01*
X206412512Y-111637982D01*
X206412515Y-111637984D01*
X206552525Y-111675500D01*
X206552528Y-111675500D01*
X206649669Y-111675500D01*
X206716708Y-111695185D01*
X206737350Y-111711819D01*
X207718998Y-112693467D01*
X207795502Y-112737636D01*
X207795505Y-112737636D01*
X207795508Y-112737638D01*
X207840665Y-112749738D01*
X207880831Y-112760501D01*
X207880832Y-112760501D01*
X207976766Y-112760501D01*
X207976782Y-112760500D01*
X209105614Y-112760500D01*
X209172653Y-112780185D01*
X209193295Y-112796819D01*
X209261985Y-112865509D01*
X209261986Y-112865510D01*
X209261988Y-112865511D01*
X209387511Y-112937982D01*
X209387512Y-112937982D01*
X209387515Y-112937984D01*
X209527525Y-112975500D01*
X209527528Y-112975500D01*
X209672472Y-112975500D01*
X209672475Y-112975500D01*
X209812485Y-112937984D01*
X209938015Y-112865509D01*
X210040509Y-112763015D01*
X210112984Y-112637485D01*
X210150500Y-112497475D01*
X210150500Y-112352525D01*
X210112984Y-112212515D01*
X210107333Y-112202728D01*
X210040511Y-112086988D01*
X210040506Y-112086982D01*
X209938017Y-111984493D01*
X209938011Y-111984488D01*
X209812488Y-111912017D01*
X209812489Y-111912017D01*
X209801006Y-111908940D01*
X209672475Y-111874500D01*
X209527525Y-111874500D01*
X209398993Y-111908940D01*
X209387511Y-111912017D01*
X209261988Y-111984488D01*
X209261982Y-111984493D01*
X209193295Y-112053181D01*
X209131972Y-112086666D01*
X209105614Y-112089500D01*
X208115331Y-112089500D01*
X208048292Y-112069815D01*
X208027650Y-112053181D01*
X207211819Y-111237350D01*
X207178334Y-111176027D01*
X207175500Y-111149669D01*
X207175500Y-111052527D01*
X207175500Y-111052525D01*
X207137984Y-110912515D01*
X207113721Y-110870491D01*
X207065511Y-110786988D01*
X207065506Y-110786982D01*
X206963017Y-110684493D01*
X206963011Y-110684488D01*
X206837488Y-110612017D01*
X206837489Y-110612017D01*
X206811107Y-110604948D01*
X206697475Y-110574500D01*
X206552525Y-110574500D01*
X206438893Y-110604948D01*
X206412511Y-110612017D01*
X206286988Y-110684488D01*
X206286982Y-110684493D01*
X206184493Y-110786982D01*
X206184488Y-110786988D01*
X206112017Y-110912511D01*
X206112016Y-110912515D01*
X206074500Y-111052525D01*
X204925500Y-111052525D01*
X204925500Y-110894386D01*
X204945185Y-110827347D01*
X204961819Y-110806705D01*
X204987977Y-110780547D01*
X205015509Y-110753015D01*
X205087984Y-110627485D01*
X205125500Y-110487475D01*
X205125500Y-110342525D01*
X205089076Y-110206590D01*
X205090739Y-110136744D01*
X205129901Y-110078882D01*
X205194129Y-110051377D01*
X205208851Y-110050500D01*
X211603456Y-110050500D01*
X211670495Y-110070185D01*
G37*
%TD.AperFunction*%
%TA.AperFunction,Conductor*%
G36*
X214115168Y-107089858D02*
G01*
X214135810Y-107106492D01*
X216188181Y-109158863D01*
X216221666Y-109220186D01*
X216224500Y-109246544D01*
X216224500Y-109595614D01*
X216204815Y-109662653D01*
X216188181Y-109683295D01*
X216134493Y-109736982D01*
X216134488Y-109736988D01*
X216062017Y-109862511D01*
X216060199Y-109869297D01*
X216053666Y-109893680D01*
X216051149Y-109903072D01*
X216014783Y-109962733D01*
X215951936Y-109993261D01*
X215895927Y-109986908D01*
X215895335Y-109989120D01*
X215887486Y-109987017D01*
X215887485Y-109987016D01*
X215747475Y-109949500D01*
X215602525Y-109949500D01*
X215481324Y-109981976D01*
X215462511Y-109987017D01*
X215336988Y-110059488D01*
X215336982Y-110059493D01*
X215234493Y-110161982D01*
X215234488Y-110161988D01*
X215162017Y-110287511D01*
X215162016Y-110287515D01*
X215124500Y-110427525D01*
X215124500Y-110572475D01*
X215160323Y-110706166D01*
X215162017Y-110712488D01*
X215234488Y-110838011D01*
X215234490Y-110838013D01*
X215234491Y-110838015D01*
X215336985Y-110940509D01*
X215336986Y-110940510D01*
X215336988Y-110940511D01*
X215462511Y-111012982D01*
X215462512Y-111012982D01*
X215462515Y-111012984D01*
X215602525Y-111050500D01*
X215678456Y-111050500D01*
X215745495Y-111070185D01*
X215766137Y-111086819D01*
X216088181Y-111408863D01*
X216121666Y-111470186D01*
X216124500Y-111496544D01*
X216124500Y-112049223D01*
X216104815Y-112116262D01*
X216088181Y-112136904D01*
X215460594Y-112764490D01*
X215434917Y-112784194D01*
X215420483Y-112792527D01*
X215420477Y-112792532D01*
X214875830Y-113337181D01*
X214814507Y-113370666D01*
X214788149Y-113373500D01*
X214085029Y-113373500D01*
X214017990Y-113353815D01*
X213972235Y-113301011D01*
X213962291Y-113231853D01*
X213991316Y-113168297D01*
X213997348Y-113161819D01*
X213998939Y-113160228D01*
X214071414Y-113034698D01*
X214108930Y-112894688D01*
X214108930Y-112749738D01*
X214071414Y-112609728D01*
X213998939Y-112484198D01*
X213936819Y-112422078D01*
X213903334Y-112360755D01*
X213900500Y-112334397D01*
X213900500Y-110403858D01*
X213900500Y-110403856D01*
X213876614Y-110314712D01*
X213860912Y-110287515D01*
X213830473Y-110234794D01*
X213830470Y-110234791D01*
X213830469Y-110234788D01*
X213765212Y-110169531D01*
X212898206Y-109302525D01*
X212000672Y-108404990D01*
X211967187Y-108343667D01*
X211964353Y-108317309D01*
X211964353Y-107900059D01*
X211984038Y-107833020D01*
X212000672Y-107812378D01*
X212025869Y-107787181D01*
X212054362Y-107758688D01*
X212126837Y-107633158D01*
X212164353Y-107493148D01*
X212164353Y-107348198D01*
X212131681Y-107226265D01*
X212133344Y-107156417D01*
X212172506Y-107098554D01*
X212236735Y-107071050D01*
X212251456Y-107070173D01*
X214048129Y-107070173D01*
X214115168Y-107089858D01*
G37*
%TD.AperFunction*%
%TA.AperFunction,Conductor*%
G36*
X203496495Y-109470185D02*
G01*
X203542250Y-109522989D01*
X203552194Y-109592147D01*
X203523169Y-109655703D01*
X203517137Y-109662181D01*
X201816137Y-111363181D01*
X201754814Y-111396666D01*
X201728456Y-111399500D01*
X195321543Y-111399500D01*
X195254504Y-111379815D01*
X195233862Y-111363181D01*
X195199678Y-111328997D01*
X195166193Y-111267674D01*
X195171177Y-111197982D01*
X195213049Y-111142049D01*
X195278513Y-111117632D01*
X195319448Y-111121540D01*
X195427525Y-111150500D01*
X195427528Y-111150500D01*
X195572472Y-111150500D01*
X195572475Y-111150500D01*
X195712485Y-111112984D01*
X195838015Y-111040509D01*
X195940509Y-110938015D01*
X196012984Y-110812485D01*
X196050500Y-110672475D01*
X196050500Y-110596543D01*
X196070185Y-110529504D01*
X196086819Y-110508862D01*
X197108862Y-109486819D01*
X197170185Y-109453334D01*
X197196543Y-109450500D01*
X203429456Y-109450500D01*
X203496495Y-109470185D01*
G37*
%TD.AperFunction*%
%TA.AperFunction,Conductor*%
G36*
X194554989Y-108120185D02*
G01*
X194600744Y-108172989D01*
X194610688Y-108242147D01*
X194595337Y-108286500D01*
X194537017Y-108387511D01*
X194532583Y-108404055D01*
X194499500Y-108527525D01*
X194499500Y-108672475D01*
X194532192Y-108794481D01*
X194537017Y-108812488D01*
X194609488Y-108938011D01*
X194609490Y-108938013D01*
X194609491Y-108938015D01*
X194711985Y-109040509D01*
X194711986Y-109040510D01*
X194711988Y-109040511D01*
X194837511Y-109112982D01*
X194837512Y-109112982D01*
X194837515Y-109112984D01*
X194977525Y-109150500D01*
X194977528Y-109150500D01*
X195122472Y-109150500D01*
X195122475Y-109150500D01*
X195262485Y-109112984D01*
X195388015Y-109040509D01*
X195441705Y-108986819D01*
X195503028Y-108953334D01*
X195529386Y-108950500D01*
X196354457Y-108950500D01*
X196421496Y-108970185D01*
X196467251Y-109022989D01*
X196477195Y-109092147D01*
X196448170Y-109155703D01*
X196442140Y-109162178D01*
X196013631Y-109590687D01*
X195591137Y-110013181D01*
X195529814Y-110046666D01*
X195503456Y-110049500D01*
X195427525Y-110049500D01*
X195298993Y-110083940D01*
X195287511Y-110087017D01*
X195161988Y-110159488D01*
X195161982Y-110159493D01*
X195059493Y-110261982D01*
X195059488Y-110261988D01*
X194987017Y-110387511D01*
X194987016Y-110387515D01*
X194949500Y-110527525D01*
X194949500Y-110527527D01*
X194949500Y-110672474D01*
X194978458Y-110780547D01*
X194976795Y-110850397D01*
X194937632Y-110908259D01*
X194873404Y-110935763D01*
X194804502Y-110924176D01*
X194771002Y-110900321D01*
X193833414Y-109962733D01*
X192436819Y-108566137D01*
X192403334Y-108504814D01*
X192400500Y-108478456D01*
X192400500Y-108402527D01*
X192400500Y-108402525D01*
X192362984Y-108262515D01*
X192362983Y-108262513D01*
X192361397Y-108256594D01*
X192363060Y-108186744D01*
X192402222Y-108128881D01*
X192466451Y-108101377D01*
X192481172Y-108100500D01*
X194487950Y-108100500D01*
X194554989Y-108120185D01*
G37*
%TD.AperFunction*%
%TA.AperFunction,Conductor*%
G36*
X180045495Y-107595185D02*
G01*
X180066137Y-107611819D01*
X180284788Y-107830470D01*
X180337983Y-107861182D01*
X180364712Y-107876614D01*
X180453856Y-107900500D01*
X182300500Y-107900500D01*
X182367539Y-107920185D01*
X182413294Y-107972989D01*
X182424500Y-108024500D01*
X182424500Y-108895614D01*
X182404815Y-108962653D01*
X182388181Y-108983295D01*
X182334493Y-109036982D01*
X182334488Y-109036988D01*
X182262017Y-109162511D01*
X182262016Y-109162515D01*
X182224500Y-109302525D01*
X182224500Y-109447475D01*
X182262016Y-109587485D01*
X182262017Y-109587488D01*
X182334488Y-109713011D01*
X182334490Y-109713013D01*
X182334491Y-109713015D01*
X182436985Y-109815509D01*
X182436986Y-109815510D01*
X182436988Y-109815511D01*
X182484796Y-109843113D01*
X182533012Y-109893680D01*
X182546234Y-109962288D01*
X182520266Y-110027152D01*
X182463352Y-110067680D01*
X182422796Y-110074500D01*
X181962871Y-110074500D01*
X181895832Y-110054815D01*
X181850077Y-110002011D01*
X181840133Y-109932853D01*
X181843096Y-109918406D01*
X181847894Y-109900500D01*
X181875500Y-109797475D01*
X181875500Y-109652525D01*
X181837984Y-109512515D01*
X181823148Y-109486819D01*
X181765511Y-109386988D01*
X181765506Y-109386982D01*
X181663017Y-109284493D01*
X181663011Y-109284488D01*
X181537488Y-109212017D01*
X181537489Y-109212017D01*
X181521949Y-109207853D01*
X181397475Y-109174500D01*
X181397472Y-109174500D01*
X181321544Y-109174500D01*
X181254505Y-109154815D01*
X181233863Y-109138181D01*
X179882863Y-107787181D01*
X179872250Y-107767744D01*
X179857750Y-107751011D01*
X179855833Y-107737679D01*
X179849378Y-107725858D01*
X179850957Y-107703771D01*
X179847806Y-107681853D01*
X179853401Y-107669601D01*
X179854362Y-107656166D01*
X179867632Y-107638439D01*
X179876831Y-107618297D01*
X179888162Y-107611014D01*
X179896234Y-107600233D01*
X179916979Y-107592495D01*
X179935609Y-107580523D01*
X179957527Y-107577371D01*
X179961698Y-107575816D01*
X179970544Y-107575500D01*
X179978456Y-107575500D01*
X180045495Y-107595185D01*
G37*
%TD.AperFunction*%
%TD*%
M02*
