M48
; DRILL file {KiCad 9.0.6-unknown-202512120022~866d92e1f6~ubuntu24.04.1} date 2026-01-10T16:38:32+0200
; FORMAT={-:-/ absolute / inch / decimal}
; #@! TF.CreationDate,2026-01-10T16:38:32+02:00
; #@! TF.GenerationSoftware,Kicad,Pcbnew,9.0.6-unknown-202512120022~866d92e1f6~ubuntu24.04.1
; #@! TF.FileFunction,Plated,1,4,PTH
FMAT,2
INCH
; #@! TA.AperFunction,Plated,PTH,ViaDrill
T1C0.0118
; #@! TA.AperFunction,Plated,PTH,ViaDrill
T2C0.0157
; #@! TA.AperFunction,Plated,PTH,ComponentDrill
T3C0.0157
; #@! TA.AperFunction,Plated,PTH,ComponentDrill
T4C0.0236
; #@! TA.AperFunction,Plated,PTH,ComponentDrill
T5C0.0276
; #@! TA.AperFunction,Plated,PTH,ComponentDrill
T6C0.0394
; #@! TA.AperFunction,Plated,PTH,ComponentDrill
T7C0.0433
; #@! TA.AperFunction,Plated,PTH,ComponentDrill
T8C0.0748
%
G90
G05
T1
X6.2488Y-4.0559
X6.4165Y-3.8299
X6.4559Y-3.8299
X6.4953Y-3.8299
X6.5346Y-3.8299
X7.2972Y-3.4646
X8.4754Y-4.1969
X8.9537Y-4.4754
X8.9931Y-4.4754
X9.0325Y-4.4754
X9.0719Y-4.3957
X9.0719Y-4.4291
X9.0719Y-4.4754
T2
X6.5492Y-3.6112
X6.69Y-3.502
X6.7726Y-3.8858
X6.7904Y-3.9518
X6.8691Y-4.1102
X6.9449Y-3.9429
X6.9498Y-3.8691
X6.9813Y-4.0443
X6.9813Y-4.377
X6.9833Y-3.8996
X7.0443Y-4.3189
X7.0531Y-4.1073
X7.0541Y-4.189
X7.0591Y-3.9862
X7.0689Y-3.6565
X7.0689Y-3.7628
X7.0814Y-4.3015
X7.0856Y-4.2136
X7.1083Y-3.6565
X7.1083Y-3.7628
X7.1161Y-3.8858
X7.124Y-4.2067
X7.1388Y-4.3199
X7.1437Y-4.1457
X7.1447Y-3.8494
X7.1476Y-3.6565
X7.1476Y-3.7628
X7.1594Y-4.2854
X7.1634Y-4.1762
X7.1713Y-4.503
X7.1732Y-4.1063
X7.1841Y-3.8258
X7.187Y-3.6565
X7.187Y-3.7628
X7.1949Y-4.1368
X7.1959Y-4.3061
X7.247Y-4.4252
X7.2608Y-4.249
X7.2638Y-4.2884
X7.2776Y-3.9016
X7.2854Y-3.9429
X7.2933Y-4.0226
X7.3307Y-3.7421
X7.3417Y-4.4685
X7.3461Y-4.4315
X7.3465Y-3.6575
X7.378Y-4.375
X7.3937Y-4.0886
X7.4085Y-3.9823
X7.4203Y-4.3622
X7.4341Y-3.8868
X7.4852Y-4.2431
X7.5Y-3.9587
X7.5074Y-4.0659
X7.5461Y-4.5217
X7.5531Y-4.2707
X7.5846Y-4.4242
X7.5906Y-4.1535
X7.5984Y-4.5213
X7.6122Y-4.125
X7.622Y-4.2756
X7.687Y-4.2697
X7.6937Y-4.2096
X7.6969Y-4.3543
X7.7559Y-4.3396
X7.811Y-4.501
X7.8214Y-3.4611
X7.8317Y-3.6772
X7.8474Y-4.439
X7.9104Y-3.748
X7.9232Y-4.3455
X7.9724Y-3.9311
X8.0541Y-4.347
X8.0591Y-3.7539
X8.0591Y-3.7943
X8.064Y-4.502
X8.0965Y-4.3465
X8.1083Y-3.7047
X8.1201Y-3.8435
X8.1348Y-4.375
X8.1378Y-4.1831
X8.163Y-4.4504
X8.1663Y-3.8425
X8.1732Y-4.3465
X8.1917Y-4.17
X8.1959Y-3.5453
X8.2077Y-3.7037
X8.2116Y-3.8425
X8.252Y-4.4262
X8.2526Y-4.2677
X8.2648Y-4.1565
X8.2963Y-4.1841
X8.3313Y-4.2292
X8.3714Y-4.3517
X8.3976Y-3.4518
X8.3976Y-3.4926
X8.4078Y-4.4418
X8.4094Y-4.4833
X8.4124Y-4.2352
X8.4902Y-4.3996
X8.4911Y-4.3504
X8.4937Y-4.4866
X8.5266Y-4.3337
X8.5276Y-4.1329
X8.5719Y-4.122
X8.5915Y-4.4567
X8.6555Y-4.2215
X8.6565Y-4.314
X8.6644Y-4.4675
X8.6929Y-3.9498
X8.6988Y-4.0571
X8.7254Y-3.9833
X8.747Y-4.1722
X8.7963Y-4.1309
X8.8337Y-4.1437
X8.8642Y-4.4144
X9.253Y-4.4291
T3
X7.3996Y-3.5681
X7.3996Y-3.6213
X7.4331Y-3.5681
X7.4331Y-3.6213
X7.4665Y-3.5681
X7.4665Y-3.6213
X7.5Y-3.5681
X7.5Y-3.6213
X7.5335Y-3.5681
X7.5335Y-3.6213
X7.5669Y-3.5681
X7.5669Y-3.6213
X7.6004Y-3.5681
X7.6004Y-3.6213
X7.6339Y-3.5681
X7.6339Y-3.6213
T5
X9.1332Y-3.6798
X9.1332Y-4.0013
X9.2724Y-3.5406
X9.2724Y-4.1405
X9.5938Y-3.6798
X9.5938Y-4.0013
X9.733Y-3.5406
X9.733Y-4.1405
T6
X6.0659Y-3.498
X6.0659Y-3.598
X6.0659Y-3.698
X6.0659Y-3.798
X6.5358Y-3.9447
X6.5358Y-4.0447
X6.5358Y-4.1447
X6.6358Y-3.9447
X6.6358Y-4.0447
X6.6358Y-4.1447
X8.5098Y-3.4508
X8.9429Y-3.4508
T7
X6.061Y-4.2795
X6.061Y-4.4567
X6.3169Y-4.2795
X6.3169Y-4.4567
X6.4951Y-4.2785
X6.4951Y-4.4557
X6.751Y-4.2785
X6.751Y-4.4557
T8
X8.628Y-3.6476
X8.8248Y-3.6476
T4
G00X7.3465Y-3.4378
M15
G01X7.3465Y-3.4654
M16
G05
G00X7.3465Y-3.5531
M15
G01X7.3465Y-3.6122
M16
G05
G00X7.687Y-3.4378
M15
G01X7.687Y-3.4654
M16
G05
G00X7.687Y-3.5551
M15
G01X7.687Y-3.6142
M16
G05
M30
