%TF.GenerationSoftware,KiCad,Pcbnew,9.0.6-unknown-202512120022~866d92e1f6~ubuntu24.04.1*%
%TF.CreationDate,2026-01-05T08:58:25+02:00*%
%TF.ProjectId,TalTechHeat,54616c54-6563-4684-9865-61742e6b6963,rev?*%
%TF.SameCoordinates,Original*%
%TF.FileFunction,Legend,Bot*%
%TF.FilePolarity,Positive*%
%FSLAX46Y46*%
G04 Gerber Fmt 4.6, Leading zero omitted, Abs format (unit mm)*
G04 Created by KiCad (PCBNEW 9.0.6-unknown-202512120022~866d92e1f6~ubuntu24.04.1) date 2026-01-05 08:58:25*
%MOMM*%
%LPD*%
G01*
G04 APERTURE LIST*
%ADD10C,0.160000*%
G04 APERTURE END LIST*
D10*
X219283333Y-96004299D02*
X219283333Y-96718584D01*
X219283333Y-96718584D02*
X219330952Y-96861441D01*
X219330952Y-96861441D02*
X219426190Y-96956680D01*
X219426190Y-96956680D02*
X219569047Y-97004299D01*
X219569047Y-97004299D02*
X219664285Y-97004299D01*
X218902380Y-96004299D02*
X218283333Y-96004299D01*
X218283333Y-96004299D02*
X218616666Y-96385251D01*
X218616666Y-96385251D02*
X218473809Y-96385251D01*
X218473809Y-96385251D02*
X218378571Y-96432870D01*
X218378571Y-96432870D02*
X218330952Y-96480489D01*
X218330952Y-96480489D02*
X218283333Y-96575727D01*
X218283333Y-96575727D02*
X218283333Y-96813822D01*
X218283333Y-96813822D02*
X218330952Y-96909060D01*
X218330952Y-96909060D02*
X218378571Y-96956680D01*
X218378571Y-96956680D02*
X218473809Y-97004299D01*
X218473809Y-97004299D02*
X218759523Y-97004299D01*
X218759523Y-97004299D02*
X218854761Y-96956680D01*
X218854761Y-96956680D02*
X218902380Y-96909060D01*
X216530951Y-92723346D02*
X215769047Y-92723346D01*
X216149999Y-93104299D02*
X216149999Y-92342394D01*
X227530951Y-92723346D02*
X226769047Y-92723346D01*
M02*
