%TF.GenerationSoftware,KiCad,Pcbnew,9.0.6-unknown-202512120022~866d92e1f6~ubuntu24.04.1*%
%TF.CreationDate,2026-01-10T16:13:03+02:00*%
%TF.ProjectId,TalTechHeat,54616c54-6563-4684-9865-61742e6b6963,1.2*%
%TF.SameCoordinates,Original*%
%TF.FileFunction,Soldermask,Top*%
%TF.FilePolarity,Negative*%
%FSLAX46Y46*%
G04 Gerber Fmt 4.6, Leading zero omitted, Abs format (unit mm)*
G04 Created by KiCad (PCBNEW 9.0.6-unknown-202512120022~866d92e1f6~ubuntu24.04.1) date 2026-01-10 16:13:03*
%MOMM*%
%LPD*%
G01*
G04 APERTURE LIST*
G04 Aperture macros list*
%AMRoundRect*
0 Rectangle with rounded corners*
0 $1 Rounding radius*
0 $2 $3 $4 $5 $6 $7 $8 $9 X,Y pos of 4 corners*
0 Add a 4 corners polygon primitive as box body*
4,1,4,$2,$3,$4,$5,$6,$7,$8,$9,$2,$3,0*
0 Add four circle primitives for the rounded corners*
1,1,$1+$1,$2,$3*
1,1,$1+$1,$4,$5*
1,1,$1+$1,$6,$7*
1,1,$1+$1,$8,$9*
0 Add four rect primitives between the rounded corners*
20,1,$1+$1,$2,$3,$4,$5,0*
20,1,$1+$1,$4,$5,$6,$7,0*
20,1,$1+$1,$6,$7,$8,$9,0*
20,1,$1+$1,$8,$9,$2,$3,0*%
%AMRotRect*
0 Rectangle, with rotation*
0 The origin of the aperture is its center*
0 $1 length*
0 $2 width*
0 $3 Rotation angle, in degrees counterclockwise*
0 Add horizontal line*
21,1,$1,$2,0,0,$3*%
G04 Aperture macros list end*
%ADD10RoundRect,0.225000X0.375000X-0.225000X0.375000X0.225000X-0.375000X0.225000X-0.375000X-0.225000X0*%
%ADD11RoundRect,0.250000X-0.337500X-0.475000X0.337500X-0.475000X0.337500X0.475000X-0.337500X0.475000X0*%
%ADD12R,0.600000X0.400000*%
%ADD13R,2.350000X2.800000*%
%ADD14RoundRect,0.237500X0.237500X-0.250000X0.237500X0.250000X-0.237500X0.250000X-0.237500X-0.250000X0*%
%ADD15RoundRect,0.237500X0.300000X0.237500X-0.300000X0.237500X-0.300000X-0.237500X0.300000X-0.237500X0*%
%ADD16R,1.700000X1.700000*%
%ADD17O,1.700000X1.700000*%
%ADD18RoundRect,0.250000X0.650000X-0.412500X0.650000X0.412500X-0.650000X0.412500X-0.650000X-0.412500X0*%
%ADD19RoundRect,0.237500X-0.250000X-0.237500X0.250000X-0.237500X0.250000X0.237500X-0.250000X0.237500X0*%
%ADD20RotRect,1.000000X1.000000X45.000000*%
%ADD21C,1.000000*%
%ADD22RoundRect,0.237500X0.250000X0.237500X-0.250000X0.237500X-0.250000X-0.237500X0.250000X-0.237500X0*%
%ADD23R,1.100000X1.300000*%
%ADD24RoundRect,0.237500X-0.237500X0.250000X-0.237500X-0.250000X0.237500X-0.250000X0.237500X0.250000X0*%
%ADD25RoundRect,0.150000X-0.512500X-0.150000X0.512500X-0.150000X0.512500X0.150000X-0.512500X0.150000X0*%
%ADD26C,2.000000*%
%ADD27R,1.050000X0.650000*%
%ADD28R,0.300000X0.800000*%
%ADD29R,0.800000X0.300000*%
%ADD30R,2.800000X2.800000*%
%ADD31RoundRect,0.237500X0.237500X-0.300000X0.237500X0.300000X-0.237500X0.300000X-0.237500X-0.300000X0*%
%ADD32R,1.270000X0.610000*%
%ADD33R,4.420000X3.810000*%
%ADD34R,0.610000X1.270000*%
%ADD35RoundRect,0.237500X-0.237500X0.300000X-0.237500X-0.300000X0.237500X-0.300000X0.237500X0.300000X0*%
%ADD36RoundRect,0.237500X-0.300000X-0.237500X0.300000X-0.237500X0.300000X0.237500X-0.300000X0.237500X0*%
%ADD37O,0.900000X2.400000*%
%ADD38O,0.900000X1.700000*%
%ADD39C,0.650000*%
%ADD40RoundRect,0.075000X-0.662500X-0.075000X0.662500X-0.075000X0.662500X0.075000X-0.662500X0.075000X0*%
%ADD41RoundRect,0.075000X-0.075000X-0.662500X0.075000X-0.662500X0.075000X0.662500X-0.075000X0.662500X0*%
%ADD42RoundRect,0.250000X-0.475000X0.337500X-0.475000X-0.337500X0.475000X-0.337500X0.475000X0.337500X0*%
%ADD43RoundRect,0.250000X0.300000X-0.300000X0.300000X0.300000X-0.300000X0.300000X-0.300000X-0.300000X0*%
%ADD44RotRect,1.000000X1.000000X315.000000*%
%ADD45RoundRect,0.250000X0.475000X-0.337500X0.475000X0.337500X-0.475000X0.337500X-0.475000X-0.337500X0*%
%ADD46RoundRect,0.250000X0.412500X0.650000X-0.412500X0.650000X-0.412500X-0.650000X0.412500X-0.650000X0*%
%ADD47R,0.700000X1.200000*%
%ADD48RoundRect,0.249997X-2.950003X-2.650003X2.950003X-2.650003X2.950003X2.650003X-2.950003X2.650003X0*%
%ADD49RoundRect,0.250000X-0.850000X-0.350000X0.850000X-0.350000X0.850000X0.350000X-0.850000X0.350000X0*%
%ADD50RoundRect,0.250000X-0.412500X-0.650000X0.412500X-0.650000X0.412500X0.650000X-0.412500X0.650000X0*%
%ADD51RoundRect,0.250000X0.337500X0.475000X-0.337500X0.475000X-0.337500X-0.475000X0.337500X-0.475000X0*%
%ADD52R,2.413000X3.429000*%
%ADD53RoundRect,0.250000X-0.650000X0.412500X-0.650000X-0.412500X0.650000X-0.412500X0.650000X0.412500X0*%
%ADD54RoundRect,0.225000X0.225000X0.375000X-0.225000X0.375000X-0.225000X-0.375000X0.225000X-0.375000X0*%
%ADD55C,1.400000*%
%ADD56R,3.500000X3.500000*%
%ADD57C,3.500000*%
G04 APERTURE END LIST*
D10*
%TO.C,D1*%
X228700000Y-112500000D03*
X228700000Y-109200000D03*
%TD*%
D11*
%TO.C,C21*%
X218650000Y-108375000D03*
X220725000Y-108375000D03*
%TD*%
D12*
%TO.C,Q3*%
X224850000Y-103925000D03*
X224850000Y-103275000D03*
X224850000Y-102625000D03*
X224850000Y-101975000D03*
D13*
X223725000Y-102950000D03*
D12*
X221900000Y-103925000D03*
X221900000Y-103275000D03*
X221900000Y-102625000D03*
X221900000Y-101975000D03*
%TD*%
D14*
%TO.C,R19*%
X208575000Y-113337500D03*
X208575000Y-111512500D03*
%TD*%
D15*
%TO.C,C26*%
X162150000Y-105550000D03*
X160425000Y-105550000D03*
%TD*%
D16*
%TO.C,J1*%
X166010000Y-100195000D03*
D17*
X168550000Y-100195000D03*
X166010000Y-102735000D03*
X168550000Y-102735000D03*
X166010000Y-105275000D03*
X168550000Y-105275000D03*
%TD*%
D14*
%TO.C,R18*%
X210575000Y-113337500D03*
X210575000Y-111512500D03*
%TD*%
D18*
%TO.C,C2*%
X182375000Y-94125000D03*
X182375000Y-91000000D03*
%TD*%
D19*
%TO.C,R25*%
X155225000Y-103625000D03*
X157050000Y-103625000D03*
%TD*%
D20*
%TO.C,C15*%
X243682233Y-93467767D03*
D21*
X247217767Y-89932233D03*
%TD*%
D22*
%TO.C,R23*%
X208200000Y-88712500D03*
X206375000Y-88712500D03*
%TD*%
D23*
%TO.C,Y1*%
X175275000Y-103212500D03*
X175275000Y-105512500D03*
X173475000Y-105512500D03*
X173475000Y-103212500D03*
%TD*%
D24*
%TO.C,R16*%
X204575000Y-107412500D03*
X204575000Y-109237500D03*
%TD*%
D25*
%TO.C,D2*%
X220987500Y-97275000D03*
X220987500Y-99175000D03*
X223262500Y-98225000D03*
%TD*%
D19*
%TO.C,R7*%
X232427500Y-109830000D03*
X234252500Y-109830000D03*
%TD*%
D20*
%TO.C,C16*%
X231982233Y-93467767D03*
D21*
X235517767Y-89932233D03*
%TD*%
D26*
%TO.C,SW2*%
X153950000Y-108700000D03*
X160450000Y-108700000D03*
X153950000Y-113200000D03*
X160450000Y-113200000D03*
%TD*%
D19*
%TO.C,R22*%
X198662500Y-89600000D03*
X200487500Y-89600000D03*
%TD*%
D26*
%TO.C,SW3*%
X164975000Y-108675000D03*
X171475000Y-108675000D03*
X164975000Y-113175000D03*
X171475000Y-113175000D03*
%TD*%
D27*
%TO.C,SW1*%
X197150000Y-113475000D03*
X193000000Y-113475000D03*
X197150000Y-111325000D03*
X193025000Y-111325000D03*
%TD*%
D28*
%TO.C,U4*%
X215825000Y-105325000D03*
X215325000Y-105325000D03*
X214825000Y-105325000D03*
X214325000Y-105325000D03*
X213825000Y-105325000D03*
X213325000Y-105325000D03*
D29*
X212575000Y-106075000D03*
X212575000Y-106575000D03*
X212575000Y-107075000D03*
X212575000Y-107575000D03*
X212575000Y-108075000D03*
X212575000Y-108575000D03*
D28*
X213325000Y-109325000D03*
X213825000Y-109325000D03*
X214325000Y-109325000D03*
X214825000Y-109325000D03*
X215325000Y-109325000D03*
X215825000Y-109325000D03*
D29*
X216575000Y-108575000D03*
X216575000Y-108075000D03*
X216575000Y-107575000D03*
X216575000Y-107075000D03*
X216575000Y-106575000D03*
X216575000Y-106075000D03*
D30*
X214575000Y-107325000D03*
%TD*%
D31*
%TO.C,C11*%
X189650000Y-111637500D03*
X189650000Y-109912500D03*
%TD*%
D32*
%TO.C,Q1*%
X191960000Y-99285000D03*
X196300000Y-99285000D03*
D33*
X194130000Y-97865000D03*
D32*
X191960000Y-96850000D03*
X196300000Y-96850000D03*
D34*
X192225000Y-95573000D03*
X193495000Y-95573000D03*
X194765000Y-95573000D03*
X196035000Y-95573000D03*
X196035000Y-101225000D03*
X192225000Y-101225000D03*
X193495000Y-101225000D03*
X194765000Y-101225000D03*
%TD*%
D35*
%TO.C,C19*%
X226625000Y-101787500D03*
X226625000Y-103512500D03*
%TD*%
D36*
%TO.C,C6*%
X186472379Y-102600000D03*
X188197381Y-102600000D03*
%TD*%
D11*
%TO.C,C23*%
X218650000Y-106075000D03*
X220725000Y-106075000D03*
%TD*%
D22*
%TO.C,R12*%
X224850000Y-109125000D03*
X223025000Y-109125000D03*
%TD*%
D37*
%TO.C,U3*%
X195250000Y-91050000D03*
D38*
X195250000Y-87670000D03*
D37*
X186600000Y-91000000D03*
D38*
X186600000Y-87670000D03*
D39*
X193900000Y-91980000D03*
X193050000Y-91980000D03*
X192200000Y-91980000D03*
X191350000Y-91980000D03*
X190500000Y-91980000D03*
X189650000Y-91980000D03*
X188800000Y-91980000D03*
X187950000Y-91980000D03*
X187950000Y-90630000D03*
X188800000Y-90630000D03*
X189650000Y-90630000D03*
X190500000Y-90630000D03*
X191350000Y-90630000D03*
X192200000Y-90630000D03*
X193050000Y-90630000D03*
X193900000Y-90630000D03*
%TD*%
D40*
%TO.C,U1*%
X177562500Y-104100000D03*
X177562500Y-104600000D03*
X177562500Y-105100000D03*
X177562500Y-105600000D03*
X177562500Y-106100000D03*
X177562500Y-106600000D03*
X177562500Y-107100000D03*
X177562500Y-107600000D03*
X177562500Y-108100000D03*
X177562500Y-108600000D03*
X177562500Y-109100000D03*
X177562500Y-109600000D03*
D41*
X178975000Y-111012500D03*
X179475000Y-111012500D03*
X179975000Y-111012500D03*
X180475000Y-111012500D03*
X180975000Y-111012500D03*
X181475000Y-111012500D03*
X181975000Y-111012500D03*
X182475000Y-111012500D03*
X182975000Y-111012500D03*
X183475000Y-111012500D03*
X183975000Y-111012500D03*
X184475000Y-111012500D03*
D40*
X185887500Y-109600000D03*
X185887500Y-109100000D03*
X185887500Y-108600000D03*
X185887500Y-108100000D03*
X185887500Y-107600000D03*
X185887500Y-107100000D03*
X185887500Y-106600000D03*
X185887500Y-106100000D03*
X185887500Y-105600000D03*
X185887500Y-105100000D03*
X185887500Y-104600000D03*
X185887500Y-104100000D03*
D41*
X184475000Y-102687500D03*
X183975000Y-102687500D03*
X183475000Y-102687500D03*
X182975000Y-102687500D03*
X182475000Y-102687500D03*
X181975000Y-102687500D03*
X181475000Y-102687500D03*
X180975000Y-102687500D03*
X180475000Y-102687500D03*
X179975000Y-102687500D03*
X179475000Y-102687500D03*
X178975000Y-102687500D03*
%TD*%
D22*
%TO.C,R6*%
X233750000Y-112500000D03*
X231925000Y-112500000D03*
%TD*%
D24*
%TO.C,R10*%
X208575000Y-107412500D03*
X208575000Y-109237500D03*
%TD*%
%TO.C,R11*%
X216675000Y-111512500D03*
X216675000Y-113337500D03*
%TD*%
D15*
%TO.C,C9*%
X175637500Y-108950000D03*
X173912500Y-108950000D03*
%TD*%
D14*
%TO.C,R15*%
X226625000Y-107237500D03*
X226625000Y-105412500D03*
%TD*%
D35*
%TO.C,C4*%
X168679000Y-93587500D03*
X168679000Y-95312500D03*
%TD*%
D24*
%TO.C,R17*%
X200000000Y-105450000D03*
X200000000Y-107275000D03*
%TD*%
D16*
%TO.C,J2*%
X154075000Y-96470000D03*
D17*
X154075000Y-93930000D03*
X154075000Y-91390000D03*
X154075000Y-88850000D03*
%TD*%
D42*
%TO.C,C24*%
X202275000Y-107287500D03*
X202275000Y-109362500D03*
%TD*%
D19*
%TO.C,R20*%
X198662500Y-91375000D03*
X200487500Y-91375000D03*
%TD*%
D31*
%TO.C,C13*%
X171650000Y-105225000D03*
X171650000Y-103500000D03*
%TD*%
D19*
%TO.C,R2*%
X166741500Y-88950000D03*
X168566500Y-88950000D03*
%TD*%
%TO.C,R26*%
X160375000Y-103550000D03*
X162200000Y-103550000D03*
%TD*%
%TO.C,R3*%
X188212500Y-106600000D03*
X190037500Y-106600000D03*
%TD*%
D12*
%TO.C,Q2*%
X217025000Y-101325000D03*
X217025000Y-101975000D03*
X217025000Y-102625000D03*
X217025000Y-103275000D03*
D13*
X218150000Y-102300000D03*
D12*
X219975000Y-101325000D03*
X219975000Y-101975000D03*
X219975000Y-102625000D03*
X219975000Y-103275000D03*
%TD*%
D43*
%TO.C,D3*%
X196950000Y-107125000D03*
X196950000Y-104325000D03*
%TD*%
D44*
%TO.C,C17*%
X231982233Y-101632233D03*
D21*
X235517767Y-105167767D03*
%TD*%
D25*
%TO.C,D4*%
X186625000Y-94125000D03*
X186625000Y-96025000D03*
X188900000Y-95075000D03*
%TD*%
D19*
%TO.C,R14*%
X223025000Y-107250000D03*
X224850000Y-107250000D03*
%TD*%
D25*
%TO.C,Q5*%
X204700000Y-91587500D03*
X202425000Y-90637500D03*
X202425000Y-92537500D03*
%TD*%
D45*
%TO.C,C3*%
X163079000Y-95487500D03*
X163079000Y-93412500D03*
%TD*%
D44*
%TO.C,C14*%
X243682233Y-101632233D03*
D21*
X247217767Y-105167767D03*
%TD*%
D46*
%TO.C,C8*%
X186450000Y-100237500D03*
X183325000Y-100237500D03*
%TD*%
D24*
%TO.C,R5*%
X200775000Y-97887500D03*
X200775000Y-99712500D03*
%TD*%
D14*
%TO.C,R8*%
X206575000Y-109237500D03*
X206575000Y-107412500D03*
%TD*%
D15*
%TO.C,C12*%
X175237500Y-101262500D03*
X173512500Y-101262500D03*
%TD*%
D14*
%TO.C,R13*%
X214575000Y-113337500D03*
X214575000Y-111512500D03*
%TD*%
D24*
%TO.C,R9*%
X210575000Y-107412500D03*
X210575000Y-109237500D03*
%TD*%
D47*
%TO.C,U2*%
X167054000Y-93250000D03*
X166104000Y-93250000D03*
X165154000Y-93250000D03*
X165154000Y-95650000D03*
X166104000Y-95650000D03*
X167054000Y-95650000D03*
%TD*%
D48*
%TO.C,Q4*%
X213350000Y-93812500D03*
D49*
X207050000Y-91532500D03*
X207050000Y-96092500D03*
%TD*%
D18*
%TO.C,C1*%
X179875000Y-94125000D03*
X179875000Y-91000000D03*
%TD*%
D36*
%TO.C,C7*%
X177750000Y-100187500D03*
X179475000Y-100187500D03*
%TD*%
D15*
%TO.C,C5*%
X185087500Y-113487500D03*
X183362500Y-113487500D03*
%TD*%
D19*
%TO.C,R1*%
X163066500Y-88950000D03*
X164891500Y-88950000D03*
%TD*%
D50*
%TO.C,C20*%
X197187500Y-93575000D03*
X200312500Y-93575000D03*
%TD*%
D24*
%TO.C,R21*%
X212575000Y-111512500D03*
X212575000Y-113337500D03*
%TD*%
D19*
%TO.C,R4*%
X188212500Y-105100000D03*
X190037500Y-105100000D03*
%TD*%
%TO.C,R24*%
X187837500Y-113475000D03*
X189662500Y-113475000D03*
%TD*%
D51*
%TO.C,C10*%
X176037500Y-111187500D03*
X173962500Y-111187500D03*
%TD*%
D52*
%TO.C,L1*%
X171133000Y-94450000D03*
X176975000Y-94450000D03*
%TD*%
D53*
%TO.C,C18*%
X198680000Y-97312500D03*
X198680000Y-100437500D03*
%TD*%
D11*
%TO.C,C22*%
X218650000Y-110675000D03*
X220725000Y-110675000D03*
%TD*%
D54*
%TO.C,D5*%
X223300000Y-88775000D03*
X220000000Y-88775000D03*
%TD*%
D15*
%TO.C,C25*%
X157000000Y-105625000D03*
X155275000Y-105625000D03*
%TD*%
D55*
%TO.C,J3*%
X227150000Y-87650000D03*
X216150000Y-87650000D03*
D56*
X224150000Y-92650000D03*
D57*
X219150000Y-92650000D03*
%TD*%
M02*
