%TF.GenerationSoftware,KiCad,Pcbnew,9.0.6-unknown-202512120022~866d92e1f6~ubuntu24.04.1*%
%TF.CreationDate,2026-01-10T16:13:03+02:00*%
%TF.ProjectId,TalTechHeat,54616c54-6563-4684-9865-61742e6b6963,1.2*%
%TF.SameCoordinates,Original*%
%TF.FileFunction,Soldermask,Bot*%
%TF.FilePolarity,Negative*%
%FSLAX46Y46*%
G04 Gerber Fmt 4.6, Leading zero omitted, Abs format (unit mm)*
G04 Created by KiCad (PCBNEW 9.0.6-unknown-202512120022~866d92e1f6~ubuntu24.04.1) date 2026-01-10 16:13:03*
%MOMM*%
%LPD*%
G01*
G04 APERTURE LIST*
G04 Aperture macros list*
%AMRotRect*
0 Rectangle, with rotation*
0 The origin of the aperture is its center*
0 $1 length*
0 $2 width*
0 $3 Rotation angle, in degrees counterclockwise*
0 Add horizontal line*
21,1,$1,$2,0,0,$3*%
G04 Aperture macros list end*
%ADD10R,1.700000X1.700000*%
%ADD11O,1.700000X1.700000*%
%ADD12RotRect,1.000000X1.000000X45.000000*%
%ADD13C,1.000000*%
%ADD14C,2.000000*%
%ADD15O,0.900000X2.400000*%
%ADD16O,0.900000X1.700000*%
%ADD17C,0.650000*%
%ADD18RotRect,1.000000X1.000000X315.000000*%
%ADD19C,1.400000*%
%ADD20R,3.500000X3.500000*%
%ADD21C,3.500000*%
G04 APERTURE END LIST*
D10*
%TO.C,J1*%
X166010000Y-100195000D03*
D11*
X168550000Y-100195000D03*
X166010000Y-102735000D03*
X168550000Y-102735000D03*
X166010000Y-105275000D03*
X168550000Y-105275000D03*
%TD*%
D12*
%TO.C,C15*%
X243682233Y-93467767D03*
D13*
X247217767Y-89932233D03*
%TD*%
D12*
%TO.C,C16*%
X231982233Y-93467767D03*
D13*
X235517767Y-89932233D03*
%TD*%
D14*
%TO.C,SW2*%
X153950000Y-108700000D03*
X160450000Y-108700000D03*
X153950000Y-113200000D03*
X160450000Y-113200000D03*
%TD*%
%TO.C,SW3*%
X164975000Y-108675000D03*
X171475000Y-108675000D03*
X164975000Y-113175000D03*
X171475000Y-113175000D03*
%TD*%
D15*
%TO.C,U3*%
X195250000Y-91050000D03*
D16*
X195250000Y-87670000D03*
D15*
X186600000Y-91000000D03*
D16*
X186600000Y-87670000D03*
D17*
X193900000Y-91980000D03*
X193050000Y-91980000D03*
X192200000Y-91980000D03*
X191350000Y-91980000D03*
X190500000Y-91980000D03*
X189650000Y-91980000D03*
X188800000Y-91980000D03*
X187950000Y-91980000D03*
X187950000Y-90630000D03*
X188800000Y-90630000D03*
X189650000Y-90630000D03*
X190500000Y-90630000D03*
X191350000Y-90630000D03*
X192200000Y-90630000D03*
X193050000Y-90630000D03*
X193900000Y-90630000D03*
%TD*%
D10*
%TO.C,J2*%
X154075000Y-96470000D03*
D11*
X154075000Y-93930000D03*
X154075000Y-91390000D03*
X154075000Y-88850000D03*
%TD*%
D18*
%TO.C,C17*%
X231982233Y-101632233D03*
D13*
X235517767Y-105167767D03*
%TD*%
D18*
%TO.C,C14*%
X243682233Y-101632233D03*
D13*
X247217767Y-105167767D03*
%TD*%
D19*
%TO.C,J3*%
X227150000Y-87650000D03*
X216150000Y-87650000D03*
D20*
X224150000Y-92650000D03*
D21*
X219150000Y-92650000D03*
%TD*%
M02*
