%TF.GenerationSoftware,KiCad,Pcbnew,9.0.6-unknown-202512120022~866d92e1f6~ubuntu24.04.1*%
%TF.CreationDate,2026-01-16T23:30:06+02:00*%
%TF.ProjectId,TaltechPlate,54616c74-6563-4685-906c-6174652e6b69,rev?*%
%TF.SameCoordinates,Original*%
%TF.FileFunction,Copper,L1,Top*%
%TF.FilePolarity,Positive*%
%FSLAX46Y46*%
G04 Gerber Fmt 4.6, Leading zero omitted, Abs format (unit mm)*
G04 Created by KiCad (PCBNEW 9.0.6-unknown-202512120022~866d92e1f6~ubuntu24.04.1) date 2026-01-16 23:30:06*
%MOMM*%
%LPD*%
G01*
G04 APERTURE LIST*
G04 Aperture macros list*
%AMRoundRect*
0 Rectangle with rounded corners*
0 $1 Rounding radius*
0 $2 $3 $4 $5 $6 $7 $8 $9 X,Y pos of 4 corners*
0 Add a 4 corners polygon primitive as box body*
4,1,4,$2,$3,$4,$5,$6,$7,$8,$9,$2,$3,0*
0 Add four circle primitives for the rounded corners*
1,1,$1+$1,$2,$3*
1,1,$1+$1,$4,$5*
1,1,$1+$1,$6,$7*
1,1,$1+$1,$8,$9*
0 Add four rect primitives between the rounded corners*
20,1,$1+$1,$2,$3,$4,$5,0*
20,1,$1+$1,$4,$5,$6,$7,0*
20,1,$1+$1,$6,$7,$8,$9,0*
20,1,$1+$1,$8,$9,$2,$3,0*%
G04 Aperture macros list end*
%TA.AperFunction,ComponentPad*%
%ADD10RoundRect,0.250000X-0.350000X-0.625000X0.350000X-0.625000X0.350000X0.625000X-0.350000X0.625000X0*%
%TD*%
%TA.AperFunction,ComponentPad*%
%ADD11O,1.200000X1.750000*%
%TD*%
%TA.AperFunction,SMDPad,CuDef*%
%ADD12RoundRect,0.250000X0.400000X0.600000X-0.400000X0.600000X-0.400000X-0.600000X0.400000X-0.600000X0*%
%TD*%
%TA.AperFunction,SMDPad,CuDef*%
%ADD13RoundRect,0.250000X-0.600000X0.400000X-0.600000X-0.400000X0.600000X-0.400000X0.600000X0.400000X0*%
%TD*%
%TA.AperFunction,ComponentPad*%
%ADD14R,3.800000X3.800000*%
%TD*%
%TA.AperFunction,ComponentPad*%
%ADD15C,3.800000*%
%TD*%
%TA.AperFunction,ViaPad*%
%ADD16C,0.700000*%
%TD*%
%TA.AperFunction,Conductor*%
%ADD17C,2.000000*%
%TD*%
%TA.AperFunction,Conductor*%
%ADD18C,0.300000*%
%TD*%
G04 APERTURE END LIST*
D10*
%TO.P,J2,1,Pin_1*%
%TO.N,+3.3V*%
X106125000Y-38450000D03*
D11*
%TO.P,J2,2,Pin_2*%
%TO.N,/NTC_1*%
X108125000Y-38450000D03*
%TO.P,J2,3,Pin_3*%
%TO.N,/NTC_2*%
X110125000Y-38450000D03*
%TO.P,J2,4,Pin_4*%
%TO.N,GND*%
X112125000Y-38450000D03*
%TD*%
D12*
%TO.P,TH1,1*%
%TO.N,/NTC_1*%
X53100000Y-45975000D03*
%TO.P,TH1,2*%
%TO.N,GND*%
X49600000Y-45975000D03*
%TD*%
D13*
%TO.P,TH2,1*%
%TO.N,/NTC_2*%
X166875000Y-169150000D03*
%TO.P,TH2,2*%
%TO.N,GND*%
X166875000Y-172650000D03*
%TD*%
D14*
%TO.P,J1,1,Pin_1*%
%TO.N,Net-(J1-Pin_1)*%
X86625000Y-39000000D03*
D15*
%TO.P,J1,2,Pin_2*%
X91625000Y-39000000D03*
%TD*%
D16*
%TO.N,/NTC_1*%
X55850000Y-46800000D03*
%TO.N,GND*%
X167775000Y-174900000D03*
X54900000Y-47500000D03*
X109475000Y-40100000D03*
%TO.N,/NTC_2*%
X166875000Y-167700000D03*
%TO.N,+3.3V*%
X108650000Y-42600000D03*
%TD*%
D17*
%TO.N,Net-(J1-Pin_1)*%
X91625000Y-41925000D02*
X91625000Y-39000000D01*
X99290437Y-181560000D02*
X98330437Y-181560000D01*
X152090437Y-51100000D02*
X151130437Y-51100000D01*
X41690437Y-181560000D02*
X40730437Y-181560000D01*
X62810437Y-53020000D02*
X62810437Y-179640000D01*
X58010437Y-179640000D02*
X58010437Y-53020000D01*
X36890437Y-51100000D02*
X35930437Y-51100000D01*
X26162500Y-51100000D02*
X27290437Y-51100000D01*
X53210437Y-53020000D02*
X53210437Y-179640000D01*
X169275000Y-47425000D02*
X168454595Y-46604595D01*
X94490437Y-51100000D02*
X93530437Y-51100000D01*
X144410437Y-179640000D02*
X144410437Y-53020000D01*
X164990685Y-181650000D02*
X168007538Y-181650000D01*
X38810437Y-179640000D02*
X38810437Y-53020000D01*
X96410437Y-179640000D02*
X96410437Y-53020000D01*
X115610437Y-179640000D02*
X115610437Y-53020000D01*
X123290437Y-51100000D02*
X122330437Y-51100000D01*
X134810437Y-179640000D02*
X134810437Y-53020000D01*
X91610437Y-53020000D02*
X91610437Y-179640000D01*
X56090437Y-51100000D02*
X55130437Y-51100000D01*
X32090437Y-181560000D02*
X31130437Y-181560000D01*
X139610437Y-53020000D02*
X139610437Y-179640000D01*
X156890437Y-181560000D02*
X155930437Y-181560000D01*
X34010437Y-53020000D02*
X34010437Y-179640000D01*
X70490437Y-181560000D02*
X69530437Y-181560000D01*
X80090437Y-181560000D02*
X79130437Y-181560000D01*
X51290437Y-181560000D02*
X50330437Y-181560000D01*
X132890437Y-51100000D02*
X131930437Y-51100000D01*
X120410437Y-53020000D02*
X120410437Y-179640000D01*
X149210437Y-53020000D02*
X149210437Y-179640000D01*
X43610437Y-53020000D02*
X43610437Y-179640000D01*
X46490437Y-51100000D02*
X45530437Y-51100000D01*
X137690437Y-181560000D02*
X136730437Y-181560000D01*
X101210437Y-53020000D02*
X101210437Y-179640000D01*
X26330437Y-51100000D02*
X26162500Y-51100000D01*
X77210437Y-179640000D02*
X77210437Y-53020000D01*
X94750000Y-45050000D02*
X91625000Y-41925000D01*
X163971231Y-181196231D02*
X164025000Y-181250000D01*
X104090437Y-51100000D02*
X103130437Y-51100000D01*
X60890437Y-181560000D02*
X59930437Y-181560000D01*
X27290437Y-51100000D02*
X26330437Y-51100000D01*
X29210437Y-49264563D02*
X39475000Y-39000000D01*
X27290437Y-51100000D02*
X29210437Y-53020000D01*
X48410437Y-179640000D02*
X48410437Y-53020000D01*
X29210437Y-53020000D02*
X29210437Y-49264563D01*
X130010437Y-53020000D02*
X130010437Y-179640000D01*
X169975000Y-179467443D02*
X169975000Y-49114949D01*
X154010437Y-179640000D02*
X154010437Y-53020000D01*
X158810437Y-53020000D02*
X158810437Y-179640000D01*
X128090437Y-181560000D02*
X127130437Y-181560000D01*
X29210437Y-179640000D02*
X29210437Y-53020000D01*
X142490437Y-51100000D02*
X141530437Y-51100000D01*
X169275000Y-181125000D02*
X169298375Y-181100960D01*
X82010437Y-53020000D02*
X82010437Y-179640000D01*
X39475000Y-39000000D02*
X86625000Y-39000000D01*
X163600000Y-52513909D02*
X163600000Y-180300000D01*
X89690437Y-181560000D02*
X88730437Y-181560000D01*
X65690437Y-51100000D02*
X64730437Y-51100000D01*
X86810437Y-179640000D02*
X86810437Y-53020000D01*
X67610437Y-179640000D02*
X67610437Y-53020000D01*
X84890437Y-51100000D02*
X83930437Y-51100000D01*
X72410437Y-53020000D02*
X72410437Y-179640000D01*
X118490437Y-181560000D02*
X117530437Y-181560000D01*
X113690437Y-51100000D02*
X112730437Y-51100000D01*
X106010437Y-179640000D02*
X106010437Y-53020000D01*
X110810437Y-53020000D02*
X110810437Y-179640000D01*
X108890437Y-181560000D02*
X107930437Y-181560000D01*
X125210437Y-179640000D02*
X125210437Y-53020000D01*
X160730437Y-51100000D02*
X161514340Y-51100000D01*
X164701471Y-45050000D02*
X94750000Y-45050000D01*
X75290437Y-51100000D02*
X74330437Y-51100000D01*
X147290437Y-181560000D02*
X146330437Y-181560000D01*
X43610437Y-179640000D02*
G75*
G02*
X41690437Y-181560037I-1920037J0D01*
G01*
X40730437Y-181560000D02*
G75*
G02*
X38810400Y-179640000I-37J1920000D01*
G01*
X103130437Y-51100000D02*
G75*
G03*
X101210400Y-53020000I-37J-1920000D01*
G01*
X77210437Y-53020000D02*
G75*
G03*
X75290437Y-51099963I-1920037J0D01*
G01*
X67610437Y-53020000D02*
G75*
G03*
X65690437Y-51099963I-1920037J0D01*
G01*
X154010437Y-53020000D02*
G75*
G03*
X152090437Y-51099963I-1920037J0D01*
G01*
X131930437Y-51100000D02*
G75*
G03*
X130010400Y-53020000I-37J-1920000D01*
G01*
X144410437Y-53020000D02*
G75*
G03*
X142490437Y-51099963I-1920037J0D01*
G01*
X139610437Y-179640000D02*
G75*
G02*
X137690437Y-181560037I-1920037J0D01*
G01*
X59930437Y-181560000D02*
G75*
G02*
X58010400Y-179640000I-37J1920000D01*
G01*
X74330437Y-51100000D02*
G75*
G03*
X72410400Y-53020000I-37J-1920000D01*
G01*
X53210437Y-179640000D02*
G75*
G02*
X51290437Y-181560037I-1920037J0D01*
G01*
X69530437Y-181560000D02*
G75*
G02*
X67610400Y-179640000I-37J1920000D01*
G01*
X93530437Y-51100000D02*
G75*
G03*
X91610400Y-53020000I-37J-1920000D01*
G01*
X115610437Y-53020000D02*
G75*
G03*
X113690437Y-51099963I-1920037J0D01*
G01*
X86810437Y-53020000D02*
G75*
G03*
X84890437Y-51099963I-1920037J0D01*
G01*
X35930437Y-51100000D02*
G75*
G03*
X34010400Y-53020000I-37J-1920000D01*
G01*
X136730437Y-181560000D02*
G75*
G02*
X134810400Y-179640000I-37J1920000D01*
G01*
X79130437Y-181560000D02*
G75*
G02*
X77210400Y-179640000I-37J1920000D01*
G01*
X48410437Y-53020000D02*
G75*
G03*
X46490437Y-51099963I-1920037J0D01*
G01*
X134810437Y-53020000D02*
G75*
G03*
X132890437Y-51099963I-1920037J0D01*
G01*
X83930437Y-51100000D02*
G75*
G03*
X82010400Y-53020000I-37J-1920000D01*
G01*
X125210437Y-53020000D02*
G75*
G03*
X123290437Y-51099963I-1920037J0D01*
G01*
X168007538Y-181650000D02*
G75*
G03*
X169274989Y-181124989I-38J1792500D01*
G01*
X169298375Y-181100960D02*
G75*
G03*
X169975043Y-179467443I-1633475J1633560D01*
G01*
X163325000Y-51850000D02*
G75*
G02*
X163599996Y-52513909I-663900J-663900D01*
G01*
X112730437Y-51100000D02*
G75*
G03*
X110810400Y-53020000I-37J-1920000D01*
G01*
X110810437Y-179640000D02*
G75*
G02*
X108890437Y-181560037I-1920037J0D01*
G01*
X62810437Y-179640000D02*
G75*
G02*
X60890437Y-181560037I-1920037J0D01*
G01*
X117530437Y-181560000D02*
G75*
G02*
X115610400Y-179640000I-37J1920000D01*
G01*
X130010437Y-179640000D02*
G75*
G02*
X128090437Y-181560037I-1920037J0D01*
G01*
X141530437Y-51100000D02*
G75*
G03*
X139610400Y-53020000I-37J-1920000D01*
G01*
X169975000Y-49114949D02*
G75*
G03*
X169275014Y-47424986I-2389900J49D01*
G01*
X164025000Y-181250000D02*
G75*
G03*
X164990685Y-181650006I965700J965700D01*
G01*
X161514340Y-51100000D02*
G75*
G02*
X163324988Y-51850012I-40J-2560700D01*
G01*
X107930437Y-181560000D02*
G75*
G02*
X106010400Y-179640000I-37J1920000D01*
G01*
X91610437Y-179640000D02*
G75*
G02*
X89690437Y-181560037I-1920037J0D01*
G01*
X101210437Y-179640000D02*
G75*
G02*
X99290437Y-181560037I-1920037J0D01*
G01*
X29210437Y-53020000D02*
G75*
G03*
X27290437Y-51099963I-1920037J0D01*
G01*
X120410437Y-179640000D02*
G75*
G02*
X118490437Y-181560037I-1920037J0D01*
G01*
X38810437Y-53020000D02*
G75*
G03*
X36890437Y-51099963I-1920037J0D01*
G01*
X122330437Y-51100000D02*
G75*
G03*
X120410400Y-53020000I-37J-1920000D01*
G01*
X146330437Y-181560000D02*
G75*
G02*
X144410400Y-179640000I-37J1920000D01*
G01*
X98330437Y-181560000D02*
G75*
G02*
X96410400Y-179640000I-37J1920000D01*
G01*
X151130437Y-51100000D02*
G75*
G03*
X149210400Y-53020000I-37J-1920000D01*
G01*
X168454595Y-46604595D02*
G75*
G03*
X164701471Y-45050015I-3753095J-3753105D01*
G01*
X160730437Y-51100000D02*
G75*
G03*
X158810400Y-53020000I-37J-1920000D01*
G01*
X64730437Y-51100000D02*
G75*
G03*
X62810400Y-53020000I-37J-1920000D01*
G01*
X45530437Y-51100000D02*
G75*
G03*
X43610400Y-53020000I-37J-1920000D01*
G01*
X163600000Y-180300000D02*
G75*
G03*
X163971223Y-181196239I1267500J0D01*
G01*
X82010437Y-179640000D02*
G75*
G02*
X80090437Y-181560037I-1920037J0D01*
G01*
X34010437Y-179640000D02*
G75*
G02*
X32090437Y-181560037I-1920037J0D01*
G01*
X127130437Y-181560000D02*
G75*
G02*
X125210400Y-179640000I-37J1920000D01*
G01*
X72410437Y-179640000D02*
G75*
G02*
X70490437Y-181560037I-1920037J0D01*
G01*
X88730437Y-181560000D02*
G75*
G02*
X86810400Y-179640000I-37J1920000D01*
G01*
X158810437Y-179640000D02*
G75*
G02*
X156890437Y-181560037I-1920037J0D01*
G01*
X106010437Y-53020000D02*
G75*
G03*
X104090437Y-51099963I-1920037J0D01*
G01*
X155930437Y-181560000D02*
G75*
G02*
X154010400Y-179640000I-37J1920000D01*
G01*
X58010437Y-53020000D02*
G75*
G03*
X56090437Y-51099963I-1920037J0D01*
G01*
X149210437Y-179640000D02*
G75*
G02*
X147290437Y-181560037I-1920037J0D01*
G01*
X96410437Y-53020000D02*
G75*
G03*
X94490437Y-51099963I-1920037J0D01*
G01*
X31130437Y-181560000D02*
G75*
G02*
X29210400Y-179640000I-37J1920000D01*
G01*
X55130437Y-51100000D02*
G75*
G03*
X53210400Y-53020000I-37J-1920000D01*
G01*
X50330437Y-181560000D02*
G75*
G02*
X48410400Y-179640000I-37J1920000D01*
G01*
D18*
%TO.N,/NTC_1*%
X55625000Y-46800000D02*
X54800000Y-45975000D01*
X55850000Y-46800000D02*
X55625000Y-46800000D01*
X54800000Y-45975000D02*
X53100000Y-45975000D01*
%TO.N,GND*%
X112125000Y-39025000D02*
X112125000Y-38450000D01*
X111050000Y-40100000D02*
X112125000Y-39025000D01*
X54900000Y-47500000D02*
X51125000Y-47500000D01*
X109475000Y-40100000D02*
X111050000Y-40100000D01*
X51125000Y-47500000D02*
X49600000Y-45975000D01*
X166875000Y-174525000D02*
X166875000Y-172650000D01*
X167250000Y-174900000D02*
X166875000Y-174525000D01*
X167775000Y-174900000D02*
X167250000Y-174900000D01*
%TO.N,/NTC_2*%
X166875000Y-167700000D02*
X166875000Y-169150000D01*
%TO.N,+3.3V*%
X108650000Y-42600000D02*
X107625000Y-42600000D01*
X107625000Y-42600000D02*
X106125000Y-41100000D01*
X106125000Y-41100000D02*
X106125000Y-38450000D01*
%TD*%
M02*
